<svg xmlns="http://www.w3.org/2000/svg" xmlns:xlink="http://www.w3.org/1999/xlink" width="500" zoomAndPan="magnify" viewBox="0 0 375 374.999991" height="500" preserveAspectRatio="xMidYMid meet" version="1.0"><defs><g/><clipPath id="34d322bbbd"><path d="M 270.101562 233.40625 L 277.011719 233.40625 L 277.011719 240.3125 L 270.101562 240.3125 Z M 270.101562 233.40625 " clip-rule="nonzero"/></clipPath><clipPath id="1ec3c692a8"><path d="M 273.554688 233.40625 C 271.648438 233.40625 270.101562 234.949219 270.101562 236.859375 C 270.101562 238.765625 271.648438 240.3125 273.554688 240.3125 C 275.464844 240.3125 277.011719 238.765625 277.011719 236.859375 C 277.011719 234.949219 275.464844 233.40625 273.554688 233.40625 Z M 273.554688 233.40625 " clip-rule="nonzero"/></clipPath><clipPath id="a6993b5148"><path d="M 179 146 L 196 146 L 196 162.457031 L 179 162.457031 Z M 179 146 " clip-rule="nonzero"/></clipPath><clipPath id="eb070c7d3d"><path d="M 141 91.207031 L 234 91.207031 L 234 120 L 141 120 Z M 141 91.207031 " clip-rule="nonzero"/></clipPath></defs><path stroke-linecap="butt" transform="matrix(0.75, 0, 0, 0.75, -54.042724, 137.443642)" fill="none" stroke-linejoin="miter" d="M 94.87468 136.934528 L 125.666349 64.741815 L 155.739267 64.741815 L 154.958017 136.934528 L 135.301766 136.934528 L 135.103849 129.970986 L 119.676765 112.590776 L 136.145516 112.590776 L 136.864266 85.247024 L 136.603849 83.163691 L 125.728849 109.918901 L 112.385098 109.918901 L 121.499682 120.528277 L 114.536139 136.934528 Z M 94.87468 136.934528 " stroke="#ffffff" stroke-width="5.166421" stroke-opacity="1" stroke-miterlimit="4"/><g fill="#192a56" fill-opacity="1"><g transform="translate(13.890865, 240.193635)"><g><path d="M 3.21875 -0.046875 L 26.3125 -54.1875 L 48.875 -54.1875 L 48.28125 -0.046875 L 33.546875 -0.046875 L 33.390625 -5.265625 L 21.828125 -18.3125 L 34.171875 -18.3125 L 34.71875 -38.8125 L 34.515625 -40.375 L 26.359375 -20.3125 L 16.359375 -20.3125 L 23.1875 -12.359375 L 17.96875 -0.046875 Z M 3.21875 -0.046875 "/></g></g></g><g fill="#192a56" fill-opacity="1"><g transform="translate(64.576495, 240.681152)"><g><path d="M 28.34375 -25.484375 C 25.78125 -25.484375 23.445312 -25.203125 21.34375 -24.640625 C 19.25 -24.078125 17.6875 -23.144531 16.65625 -21.84375 L 16.65625 0 L 3.359375 0 L 3.359375 -36.8125 L 15.546875 -36.8125 L 15.546875 -29.8125 C 16.847656 -32.289062 18.46875 -34.191406 20.40625 -35.515625 C 22.34375 -36.847656 24.429688 -37.515625 26.671875 -37.515625 C 27.554688 -37.515625 28.113281 -37.492188 28.34375 -37.453125 Z M 28.34375 -25.484375 "/></g></g></g><g fill="#192a56" fill-opacity="1"><g transform="translate(93.764901, 240.681152)"><g><path d="M 18.765625 0.703125 C 16.242188 0.703125 13.921875 0.238281 11.796875 -0.6875 C 9.671875 -1.625 7.835938 -2.941406 6.296875 -4.640625 C 4.753906 -6.347656 3.550781 -8.378906 2.6875 -10.734375 C 1.832031 -13.097656 1.40625 -15.679688 1.40625 -18.484375 C 1.40625 -21.191406 1.800781 -23.710938 2.59375 -26.046875 C 3.382812 -28.378906 4.488281 -30.394531 5.90625 -32.09375 C 7.332031 -33.800781 9.023438 -35.128906 10.984375 -36.078125 C 12.953125 -37.035156 15.125 -37.515625 17.5 -37.515625 C 19.875 -37.515625 22.050781 -36.976562 24.03125 -35.90625 C 26.019531 -34.832031 27.550781 -33.316406 28.625 -31.359375 L 28.625 -51.09375 L 41.9375 -51.09375 L 41.9375 -14.703125 C 41.9375 -13.441406 42.164062 -12.566406 42.625 -12.078125 C 43.09375 -11.585938 43.9375 -11.296875 45.15625 -11.203125 L 45.15625 0 C 43.800781 0.226562 42.609375 0.398438 41.578125 0.515625 C 40.554688 0.640625 39.644531 0.703125 38.84375 0.703125 C 34.320312 0.703125 31.710938 -1 31.015625 -4.40625 L 30.734375 -5.734375 C 29.472656 -3.492188 27.769531 -1.859375 25.625 -0.828125 C 23.476562 0.191406 21.191406 0.703125 18.765625 0.703125 Z M 22.40625 -10.5 C 24.832031 -10.5 26.929688 -11.757812 28.703125 -14.28125 L 28.703125 -20.859375 C 28.046875 -22.492188 27.085938 -23.8125 25.828125 -24.8125 C 24.566406 -25.8125 23.238281 -26.3125 21.84375 -26.3125 C 20.863281 -26.3125 19.960938 -26.101562 19.140625 -25.6875 C 18.328125 -25.269531 17.628906 -24.6875 17.046875 -23.9375 C 16.460938 -23.1875 15.992188 -22.320312 15.640625 -21.34375 C 15.296875 -20.363281 15.125 -19.316406 15.125 -18.203125 C 15.125 -15.867188 15.785156 -14 17.109375 -12.59375 C 18.441406 -11.195312 20.207031 -10.5 22.40625 -10.5 Z M 22.40625 -10.5 "/></g></g></g><g fill="#192a56" fill-opacity="1"><g transform="translate(140.802335, 240.681152)"><g><path d="M 14.203125 0.703125 C 12.390625 0.703125 10.6875 0.398438 9.09375 -0.203125 C 7.507812 -0.816406 6.144531 -1.644531 5 -2.6875 C 3.863281 -3.738281 2.96875 -4.988281 2.3125 -6.4375 C 1.65625 -7.882812 1.328125 -9.445312 1.328125 -11.125 C 1.328125 -13 1.722656 -14.703125 2.515625 -16.234375 C 3.304688 -17.773438 4.398438 -19.101562 5.796875 -20.21875 C 7.203125 -21.34375 8.875 -22.207031 10.8125 -22.8125 C 12.75 -23.425781 14.882812 -23.734375 17.21875 -23.734375 C 20.207031 -23.734375 22.679688 -23.265625 24.640625 -22.328125 L 24.640625 -23.453125 C 24.640625 -25.179688 24.132812 -26.460938 23.125 -27.296875 C 22.125 -28.140625 20.503906 -28.5625 18.265625 -28.5625 C 16.171875 -28.5625 14.234375 -28.222656 12.453125 -27.546875 C 10.679688 -26.867188 8.816406 -25.875 6.859375 -24.5625 L 3.015625 -32.828125 C 7.867188 -35.953125 13.394531 -37.515625 19.59375 -37.515625 C 25.476562 -37.515625 30.003906 -36.207031 33.171875 -33.59375 C 36.347656 -30.988281 37.9375 -27.070312 37.9375 -21.84375 L 37.9375 -14.703125 C 37.9375 -13.441406 38.171875 -12.566406 38.640625 -12.078125 C 39.109375 -11.585938 39.945312 -11.296875 41.15625 -11.203125 L 41.15625 0 C 39.945312 0.226562 38.804688 0.398438 37.734375 0.515625 C 36.660156 0.640625 35.703125 0.703125 34.859375 0.703125 C 32.484375 0.703125 30.675781 0.269531 29.4375 -0.59375 C 28.195312 -1.457031 27.390625 -2.726562 27.015625 -4.40625 L 26.734375 -5.734375 C 25.109375 -3.640625 23.21875 -2.039062 21.0625 -0.9375 C 18.914062 0.15625 16.628906 0.703125 14.203125 0.703125 Z M 18.203125 -8.8125 C 18.992188 -8.8125 19.804688 -8.941406 20.640625 -9.203125 C 21.484375 -9.460938 22.234375 -9.800781 22.890625 -10.21875 C 23.398438 -10.59375 23.816406 -11 24.140625 -11.4375 C 24.472656 -11.882812 24.640625 -12.34375 24.640625 -12.8125 L 24.640625 -15.546875 C 23.847656 -15.816406 22.984375 -16.046875 22.046875 -16.234375 C 21.117188 -16.421875 20.28125 -16.515625 19.53125 -16.515625 C 17.894531 -16.515625 16.539062 -16.117188 15.46875 -15.328125 C 14.394531 -14.535156 13.859375 -13.53125 13.859375 -12.3125 C 13.859375 -11.289062 14.265625 -10.453125 15.078125 -9.796875 C 15.898438 -9.140625 16.941406 -8.8125 18.203125 -8.8125 Z M 18.203125 -8.8125 "/></g></g></g><g fill="#192a56" fill-opacity="1"><g transform="translate(183.080023, 240.681152)"><g><path d="M 40.390625 0 L 27.09375 0 L 27.09375 -20.71875 C 27.09375 -22.539062 26.679688 -23.859375 25.859375 -24.671875 C 25.046875 -25.492188 24.101562 -25.90625 23.03125 -25.90625 C 21.90625 -25.90625 20.710938 -25.410156 19.453125 -24.421875 C 18.191406 -23.441406 17.257812 -22.1875 16.65625 -20.65625 L 16.65625 0 L 3.359375 0 L 3.359375 -36.8125 L 15.328125 -36.8125 L 15.328125 -31.359375 C 16.640625 -33.367188 18.472656 -34.894531 20.828125 -35.9375 C 23.179688 -36.988281 25.96875 -37.515625 29.1875 -37.515625 C 31.707031 -37.515625 33.703125 -37.0625 35.171875 -36.15625 C 36.640625 -35.25 37.757812 -34.117188 38.53125 -32.765625 C 39.300781 -31.410156 39.800781 -29.960938 40.03125 -28.421875 C 40.269531 -26.878906 40.390625 -25.476562 40.390625 -24.21875 Z M 40.390625 0 "/></g></g></g><g fill="#192a56" fill-opacity="1"><g transform="translate(226.547645, 240.681152)"><g><path d="M 14.203125 0.703125 C 12.390625 0.703125 10.6875 0.398438 9.09375 -0.203125 C 7.507812 -0.816406 6.144531 -1.644531 5 -2.6875 C 3.863281 -3.738281 2.96875 -4.988281 2.3125 -6.4375 C 1.65625 -7.882812 1.328125 -9.445312 1.328125 -11.125 C 1.328125 -13 1.722656 -14.703125 2.515625 -16.234375 C 3.304688 -17.773438 4.398438 -19.101562 5.796875 -20.21875 C 7.203125 -21.34375 8.875 -22.207031 10.8125 -22.8125 C 12.75 -23.425781 14.882812 -23.734375 17.21875 -23.734375 C 20.207031 -23.734375 22.679688 -23.265625 24.640625 -22.328125 L 24.640625 -23.453125 C 24.640625 -25.179688 24.132812 -26.460938 23.125 -27.296875 C 22.125 -28.140625 20.503906 -28.5625 18.265625 -28.5625 C 16.171875 -28.5625 14.234375 -28.222656 12.453125 -27.546875 C 10.679688 -26.867188 8.816406 -25.875 6.859375 -24.5625 L 3.015625 -32.828125 C 7.867188 -35.953125 13.394531 -37.515625 19.59375 -37.515625 C 25.476562 -37.515625 30.003906 -36.207031 33.171875 -33.59375 C 36.347656 -30.988281 37.9375 -27.070312 37.9375 -21.84375 L 37.9375 -14.703125 C 37.9375 -13.441406 38.171875 -12.566406 38.640625 -12.078125 C 39.109375 -11.585938 39.945312 -11.296875 41.15625 -11.203125 L 41.15625 0 C 39.945312 0.226562 38.804688 0.398438 37.734375 0.515625 C 36.660156 0.640625 35.703125 0.703125 34.859375 0.703125 C 32.484375 0.703125 30.675781 0.269531 29.4375 -0.59375 C 28.195312 -1.457031 27.390625 -2.726562 27.015625 -4.40625 L 26.734375 -5.734375 C 25.109375 -3.640625 23.21875 -2.039062 21.0625 -0.9375 C 18.914062 0.15625 16.628906 0.703125 14.203125 0.703125 Z M 18.203125 -8.8125 C 18.992188 -8.8125 19.804688 -8.941406 20.640625 -9.203125 C 21.484375 -9.460938 22.234375 -9.800781 22.890625 -10.21875 C 23.398438 -10.59375 23.816406 -11 24.140625 -11.4375 C 24.472656 -11.882812 24.640625 -12.34375 24.640625 -12.8125 L 24.640625 -15.546875 C 23.847656 -15.816406 22.984375 -16.046875 22.046875 -16.234375 C 21.117188 -16.421875 20.28125 -16.515625 19.53125 -16.515625 C 17.894531 -16.515625 16.539062 -16.117188 15.46875 -15.328125 C 14.394531 -14.535156 13.859375 -13.53125 13.859375 -12.3125 C 13.859375 -11.289062 14.265625 -10.453125 15.078125 -9.796875 C 15.898438 -9.140625 16.941406 -8.8125 18.203125 -8.8125 Z M 18.203125 -8.8125 "/></g></g></g><g fill="#192a56" fill-opacity="1"><g transform="translate(276.790007, 240.86685)"><g><path d="M 28.84375 0 L 19.34375 0 L 19.34375 -14.796875 C 19.34375 -16.097656 19.050781 -17.039062 18.46875 -17.625 C 17.882812 -18.207031 17.210938 -18.5 16.453125 -18.5 C 15.648438 -18.5 14.796875 -18.148438 13.890625 -17.453125 C 12.992188 -16.753906 12.332031 -15.851562 11.90625 -14.75 L 11.90625 0 L 2.40625 0 L 2.40625 -26.296875 L 10.953125 -26.296875 L 10.953125 -22.40625 C 11.878906 -23.832031 13.1875 -24.921875 14.875 -25.671875 C 16.5625 -26.421875 18.550781 -26.796875 20.84375 -26.796875 C 22.644531 -26.796875 24.070312 -26.46875 25.125 -25.8125 C 26.175781 -25.164062 26.972656 -24.359375 27.515625 -23.390625 C 28.066406 -22.429688 28.425781 -21.398438 28.59375 -20.296875 C 28.757812 -19.203125 28.84375 -18.203125 28.84375 -17.296875 Z M 28.84375 0 "/></g></g></g><g fill="#192a56" fill-opacity="1"><g transform="translate(307.835205, 240.86685)"><g><path d="M 15.34375 0.5 C 13.050781 0.5 11.003906 0.140625 9.203125 -0.578125 C 7.398438 -1.296875 5.890625 -2.269531 4.671875 -3.5 C 3.453125 -4.726562 2.523438 -6.144531 1.890625 -7.75 C 1.265625 -9.351562 0.953125 -11.035156 0.953125 -12.796875 C 0.953125 -14.703125 1.257812 -16.503906 1.875 -18.203125 C 2.488281 -19.898438 3.40625 -21.378906 4.625 -22.640625 C 5.84375 -23.910156 7.34375 -24.921875 9.125 -25.671875 C 10.90625 -26.421875 12.976562 -26.796875 15.34375 -26.796875 C 17.675781 -26.796875 19.742188 -26.421875 21.546875 -25.671875 C 23.347656 -24.921875 24.859375 -23.921875 26.078125 -22.671875 C 27.296875 -21.421875 28.210938 -19.96875 28.828125 -18.3125 C 29.441406 -16.664062 29.75 -14.945312 29.75 -13.15625 C 29.75 -12.65625 29.722656 -12.144531 29.671875 -11.625 C 29.617188 -11.101562 29.5625 -10.644531 29.5 -10.25 L 11.046875 -10.25 C 11.148438 -8.851562 11.664062 -7.84375 12.59375 -7.21875 C 13.53125 -6.601562 14.550781 -6.296875 15.65625 -6.296875 C 16.6875 -6.296875 17.660156 -6.53125 18.578125 -7 C 19.492188 -7.46875 20.101562 -8.117188 20.40625 -8.953125 L 28.453125 -6.65625 C 27.378906 -4.550781 25.734375 -2.832031 23.515625 -1.5 C 21.304688 -0.164062 18.582031 0.5 15.34375 0.5 Z M 19.546875 -15.953125 C 19.378906 -17.210938 18.910156 -18.207031 18.140625 -18.9375 C 17.378906 -19.675781 16.398438 -20.046875 15.203125 -20.046875 C 14.003906 -20.046875 13.019531 -19.675781 12.25 -18.9375 C 11.476562 -18.207031 11.007812 -17.210938 10.84375 -15.953125 Z M 19.546875 -15.953125 "/></g></g></g><g fill="#192a56" fill-opacity="1"><g transform="translate(338.33048, 240.86685)"><g><path d="M 20.84375 -1.453125 C 19.507812 -0.878906 18.082031 -0.398438 16.5625 -0.015625 C 15.050781 0.359375 13.5625 0.546875 12.09375 0.546875 C 11.03125 0.546875 10.015625 0.410156 9.046875 0.140625 C 8.078125 -0.117188 7.234375 -0.546875 6.515625 -1.140625 C 5.804688 -1.742188 5.242188 -2.53125 4.828125 -3.5 C 4.410156 -4.46875 4.203125 -5.664062 4.203125 -7.09375 L 4.203125 -19.15625 L 0.953125 -19.15625 L 0.953125 -26.296875 L 4.203125 -26.296875 L 4.203125 -34.546875 L 13.703125 -34.546875 L 13.703125 -26.296875 L 18.84375 -26.296875 L 18.84375 -19.15625 L 13.703125 -19.15625 L 13.703125 -10.453125 C 13.703125 -9.585938 13.882812 -8.976562 14.25 -8.625 C 14.613281 -8.269531 15.113281 -8.09375 15.75 -8.09375 C 16.21875 -8.09375 16.75 -8.164062 17.34375 -8.3125 C 17.945312 -8.46875 18.550781 -8.679688 19.15625 -8.953125 Z M 20.84375 -1.453125 "/></g></g></g><g clip-path="url(#34d322bbbd)"><g clip-path="url(#1ec3c692a8)"><path fill="#000000" d="M 270.101562 233.40625 L 277.011719 233.40625 L 277.011719 240.3125 L 270.101562 240.3125 Z M 270.101562 233.40625 " fill-opacity="1" fill-rule="nonzero"/></g></g><g clip-path="url(#a6993b5148)"><path fill="#192a56" d="M 187.5 146.136719 C 183.070312 146.136719 179.4375 149.769531 179.4375 154.199219 C 179.4375 158.628906 183.070312 162.257812 187.5 162.257812 C 191.929688 162.257812 195.558594 158.628906 195.558594 154.199219 C 195.558594 149.695312 191.929688 146.136719 187.5 146.136719 Z M 187.5 146.136719 " fill-opacity="1" fill-rule="nonzero"/></g><path fill="#192a56" d="M 187.5 127.035156 C 180.089844 127.035156 173.121094 129.941406 167.890625 135.097656 C 165.785156 137.203125 165.785156 140.617188 167.890625 142.722656 C 168.90625 143.738281 170.289062 144.320312 171.738281 144.320312 C 173.191406 144.320312 174.574219 143.738281 175.589844 142.722656 C 178.785156 139.527344 182.996094 137.785156 187.5 137.785156 C 192 137.785156 196.285156 139.527344 199.480469 142.722656 C 200.5 143.738281 201.878906 144.320312 203.332031 144.320312 C 204.78125 144.320312 206.164062 143.738281 207.179688 142.722656 C 209.285156 140.617188 209.285156 137.203125 207.179688 135.097656 C 201.878906 129.941406 194.90625 127.035156 187.5 127.035156 Z M 187.5 127.035156 " fill-opacity="1" fill-rule="nonzero"/><g clip-path="url(#eb070c7d3d)"><path fill="#192a56" d="M 232.378906 110.042969 C 220.398438 98.0625 204.421875 91.453125 187.5 91.453125 C 170.578125 91.453125 154.601562 97.988281 142.617188 109.972656 C 140.511719 112.078125 140.511719 115.488281 142.617188 117.597656 C 143.636719 118.613281 145.015625 119.195312 146.46875 119.195312 C 147.921875 119.195312 149.300781 118.613281 150.316406 117.597656 C 160.191406 107.71875 173.410156 102.273438 187.5 102.273438 C 201.585938 102.273438 214.804688 107.71875 224.753906 117.667969 C 225.769531 118.683594 227.152344 119.265625 228.601562 119.265625 C 230.054688 119.265625 231.433594 118.683594 232.453125 117.667969 C 234.484375 115.5625 234.484375 112.148438 232.378906 110.042969 Z M 232.378906 110.042969 " fill-opacity="1" fill-rule="nonzero"/></g><path fill="#192a56" d="M 187.5 109.679688 C 175.445312 109.679688 164.113281 114.328125 155.546875 122.824219 C 154.527344 123.839844 153.949219 125.222656 153.949219 126.675781 C 153.949219 128.125 154.527344 129.507812 155.546875 130.523438 C 156.5625 131.539062 157.941406 132.121094 159.394531 132.121094 C 160.847656 132.121094 162.226562 131.539062 163.242188 130.523438 C 169.707031 124.058594 178.347656 120.5 187.5 120.5 C 196.648438 120.5 205.292969 124.058594 211.753906 130.523438 C 212.773438 131.539062 214.152344 132.121094 215.605469 132.121094 C 217.054688 132.121094 218.4375 131.539062 219.453125 130.523438 C 220.46875 129.507812 221.050781 128.125 221.050781 126.675781 C 221.050781 125.222656 220.46875 123.839844 219.453125 122.824219 C 210.882812 114.402344 199.554688 109.679688 187.5 109.679688 Z M 187.5 109.679688 " fill-opacity="1" fill-rule="nonzero"/><g fill="#192a56" fill-opacity="1"><g transform="translate(168.662629, 186.642981)"><g><path d="M 12.8125 -9.84375 L 15 -9.84375 L 12.21875 0 L 9.609375 0 L 7.59375 -6.625 L 5.5625 0 L 2.984375 0 L 0.203125 -9.84375 L 2.40625 -9.84375 L 4.34375 -2.40625 L 6.578125 -9.84375 L 8.609375 -9.84375 L 10.84375 -2.34375 Z M 12.8125 -9.84375 "/></g></g></g><g fill="#192a56" fill-opacity="1"><g transform="translate(185.799239, 186.642981)"><g><path d="M 4.234375 -9.84375 L 4.234375 -8.0625 L 3.5 -8.0625 L 3.5 -1.765625 L 4.234375 -1.765625 L 4.234375 0 L 0.65625 0 L 0.65625 -1.765625 L 1.390625 -1.765625 L 1.390625 -8.0625 L 0.65625 -8.0625 L 0.65625 -9.84375 Z M 4.234375 -9.84375 "/></g></g></g><g fill="#192a56" fill-opacity="1"><g transform="translate(192.571175, 186.642981)"><g><path d="M 0.65625 -9.84375 L 6.796875 -9.84375 L 6.796875 -7.921875 L 2.765625 -7.921875 L 2.765625 -6.140625 L 6.3125 -6.140625 L 6.3125 -4.234375 L 2.765625 -4.234375 L 2.765625 0 L 0.65625 0 Z M 0.65625 -9.84375 "/></g></g></g><g fill="#192a56" fill-opacity="1"><g transform="translate(201.452119, 186.642981)"><g><path d="M 4.234375 -9.84375 L 4.234375 -8.0625 L 3.5 -8.0625 L 3.5 -1.765625 L 4.234375 -1.765625 L 4.234375 0 L 0.65625 0 L 0.65625 -1.765625 L 1.390625 -1.765625 L 1.390625 -8.0625 L 0.65625 -8.0625 L 0.65625 -9.84375 Z M 4.234375 -9.84375 "/></g></g></g></svg>