<svg xmlns="http://www.w3.org/2000/svg" xmlns:xlink="http://www.w3.org/1999/xlink" width="500" zoomAndPan="magnify" viewBox="0 0 375 374.999991" height="500" preserveAspectRatio="xMidYMid meet" version="1.0"><defs><g/></defs><g fill="#10a6a5" fill-opacity="1"><g transform="translate(24.721802, 214.857759)"><g><path d="M 3.96875 -37.203125 L 20.140625 -37.203125 C 23.921875 -37.203125 26.929688 -36.28125 29.171875 -34.4375 C 31.421875 -32.601562 32.546875 -30.273438 32.546875 -27.453125 C 32.546875 -23.242188 30.085938 -20.398438 25.171875 -18.921875 C 27.679688 -18.566406 29.675781 -17.523438 31.15625 -15.796875 C 32.644531 -14.066406 33.390625 -12.035156 33.390625 -9.703125 C 33.390625 -6.734375 32.300781 -4.375 30.125 -2.625 C 27.957031 -0.875 24.929688 0 21.046875 0 L 3.96875 0 Z M 13.03125 -30.3125 L 13.03125 -22.265625 L 18.96875 -22.265625 C 20.28125 -22.265625 21.332031 -22.597656 22.125 -23.265625 C 22.914062 -23.941406 23.3125 -24.941406 23.3125 -26.265625 C 23.3125 -27.585938 22.914062 -28.59375 22.125 -29.28125 C 21.332031 -29.96875 20.28125 -30.3125 18.96875 -30.3125 Z M 13.03125 -6.890625 L 19.875 -6.890625 C 21.113281 -6.890625 22.140625 -7.257812 22.953125 -8 C 23.765625 -8.738281 24.171875 -9.757812 24.171875 -11.0625 C 24.171875 -12.375 23.78125 -13.421875 23 -14.203125 C 22.226562 -14.984375 21.222656 -15.375 19.984375 -15.375 L 13.03125 -15.375 Z M 13.03125 -6.890625 "/></g></g></g><g fill="#10a6a5" fill-opacity="1"><g transform="translate(59.113559, 214.857759)"><g><path d="M 26.5 -37.3125 L 26.5 -30.421875 L 13.03125 -30.421875 L 13.03125 -22.421875 L 24.90625 -22.421875 L 24.90625 -15.53125 L 13.03125 -15.53125 L 13.03125 -6.890625 L 26.5 -6.890625 L 26.5 0 L 3.96875 0 L 3.96875 -37.3125 Z M 26.5 -37.3125 "/></g></g></g><g fill="#10a6a5" fill-opacity="1"><g transform="translate(88.100112, 214.857759)"><g><path d="M 13.03125 -14.46875 L 13.03125 0 L 3.96875 0 L 3.96875 -37.203125 L 18.65625 -37.203125 C 22.96875 -37.203125 26.320312 -36.085938 28.71875 -33.859375 C 31.125 -31.640625 32.328125 -28.957031 32.328125 -25.8125 C 32.328125 -23.65625 31.671875 -21.550781 30.359375 -19.5 C 29.054688 -17.457031 26.921875 -16.007812 23.953125 -15.15625 L 33.078125 0 L 22.46875 0 L 14.09375 -14.46875 Z M 13.03125 -30.3125 L 13.03125 -21.359375 L 18.65625 -21.359375 C 20.03125 -21.359375 21.113281 -21.765625 21.90625 -22.578125 C 22.707031 -23.390625 23.109375 -24.457031 23.109375 -25.78125 C 23.109375 -27.101562 22.703125 -28.1875 21.890625 -29.03125 C 21.078125 -29.882812 20 -30.3125 18.65625 -30.3125 Z M 13.03125 -30.3125 "/></g></g></g><g fill="#10a6a5" fill-opacity="1"><g transform="translate(122.173915, 214.857759)"><g><path d="M 13.03125 0 L 3.96875 0 L 3.96875 -37.203125 L 13.03125 -37.203125 L 13.03125 -20.875 L 25.328125 -37.203125 L 37.203125 -37.203125 L 21.890625 -18.609375 L 37.203125 0 L 25.546875 0 L 13.03125 -16.4375 Z M 13.03125 0 "/></g></g></g><g fill="#10a6a5" fill-opacity="1"><g transform="translate(159.003323, 214.857759)"><g><path d="M 27.609375 0 L 25.546875 -6.25 L 12.1875 -6.25 L 10.125 0 L 0.484375 0 L 13.40625 -37.3125 L 24.4375 -37.3125 L 37.3125 0 Z M 14.46875 -13.140625 L 23.265625 -13.140625 L 18.875 -26.390625 Z M 14.46875 -13.140625 "/></g></g></g><g fill="#10a6a5" fill-opacity="1"><g transform="translate(195.461782, 214.857759)"><g><path d="M 27.40625 -37.203125 L 36.46875 -37.203125 L 36.46875 0 L 27.40625 0 L 27.40625 -15.421875 L 13.03125 -15.421875 L 13.03125 0 L 3.96875 0 L 3.96875 -37.203125 L 13.03125 -37.203125 L 13.03125 -22.3125 L 27.40625 -22.3125 Z M 27.40625 -37.203125 "/></g></g></g><g fill="#10a6a5" fill-opacity="1"><g transform="translate(234.569834, 214.857759)"><g/></g></g><g fill="#10a6a5" fill-opacity="1"><g transform="translate(249.142488, 214.857759)"><g><path d="M 28.203125 -37.3125 L 37.265625 -37.3125 L 37.265625 0 L 28.203125 0 L 13.03125 -23.484375 L 13.03125 0 L 3.96875 0 L 3.96875 -37.3125 L 13.03125 -37.3125 L 28.203125 -13.828125 Z M 28.203125 -37.3125 "/></g></g></g><g fill="#10a6a5" fill-opacity="1"><g transform="translate(289.045424, 214.857759)"><g><path d="M 26.5 -37.3125 L 26.5 -30.421875 L 13.03125 -30.421875 L 13.03125 -22.421875 L 24.90625 -22.421875 L 24.90625 -15.53125 L 13.03125 -15.53125 L 13.03125 -6.890625 L 26.5 -6.890625 L 26.5 0 L 3.96875 0 L 3.96875 -37.3125 Z M 26.5 -37.3125 "/></g></g></g><g fill="#10a6a5" fill-opacity="1"><g transform="translate(318.031979, 214.857759)"><g><path d="M 1.4375 -30.3125 L 1.4375 -37.203125 L 30.796875 -37.203125 L 30.796875 -30.3125 L 20.609375 -30.3125 L 20.609375 0 L 11.546875 0 L 11.546875 -30.3125 Z M 1.4375 -30.3125 "/></g></g></g></svg>