<svg xmlns="http://www.w3.org/2000/svg" xmlns:xlink="http://www.w3.org/1999/xlink" width="500" zoomAndPan="magnify" viewBox="0 0 375 374.999991" height="500" preserveAspectRatio="xMidYMid meet" version="1.0"><defs><clipPath id="a37361ca01"><path d="M 0 38.671875 L 375 38.671875 L 375 336.421875 L 0 336.421875 Z M 0 38.671875 " clip-rule="nonzero"/></clipPath></defs><g clip-path="url(#a37361ca01)"><path fill="#10a6a5" d="M 284.199219 245.898438 L 284.199219 254.917969 C 284.199219 258.242188 283.183594 261.339844 281.4375 263.90625 C 283.175781 266.476562 284.199219 269.574219 284.199219 272.90625 L 284.199219 309.585938 C 284.199219 318.445312 276.992188 325.65625 268.128906 325.65625 L 106.875 325.65625 C 98.007812 325.65625 90.800781 318.445312 90.800781 309.585938 L 90.800781 272.90625 C 90.800781 269.574219 91.820312 266.476562 93.5625 263.90625 C 91.820312 261.339844 90.800781 258.242188 90.800781 254.917969 L 90.800781 245.898438 L 63.929688 245.898438 C 34.527344 245.898438 10.613281 221.988281 10.613281 192.59375 C 10.613281 164.570312 32.347656 141.527344 59.832031 139.433594 C 64.96875 109.246094 91.339844 86.460938 122.550781 86.460938 C 129.242188 86.460938 135.804688 87.503906 142.117188 89.554688 C 156.917969 64.570312 183.433594 49.3125 212.761719 49.3125 C 248.566406 49.3125 279.832031 72.273438 290.828125 105.875 C 292.023438 105.796875 293.183594 105.773438 294.320312 105.773438 C 332.960938 105.773438 364.386719 137.203125 364.386719 175.835938 C 364.386719 214.46875 332.960938 245.898438 294.320312 245.898438 Z M 375 175.835938 C 375 132.632812 340.878906 97.257812 298.171875 95.238281 C 283.757812 61.121094 250.355469 38.699219 212.761719 38.699219 C 182.394531 38.699219 154.785156 53.007812 137.40625 77.34375 C 132.535156 76.347656 127.566406 75.851562 122.550781 75.851562 C 88.894531 75.851562 59.996094 98.183594 51.09375 129.96875 C 21.875 135.964844 0 162.082031 0 192.589844 C 0 227.835938 28.679688 256.511719 63.929688 256.511719 L 80.234375 256.511719 C 80.382812 259.054688 80.894531 261.535156 81.742188 263.90625 C 80.71875 266.773438 80.183594 269.804688 80.183594 272.902344 L 80.183594 309.585938 C 80.183594 324.304688 92.15625 336.269531 106.875 336.269531 L 268.128906 336.269531 C 282.847656 336.269531 294.8125 324.304688 294.8125 309.585938 L 294.8125 272.902344 C 294.8125 269.8125 294.28125 266.777344 293.253906 263.910156 C 294.109375 261.539062 294.613281 259.054688 294.765625 256.511719 C 339.050781 256.269531 375 220.171875 375 175.835938 " fill-opacity="1" fill-rule="nonzero"/></g><path fill="#10a6a5" d="M 255.558594 298.316406 L 187.621094 298.316406 C 183.707031 298.316406 180.542969 295.152344 180.542969 291.242188 C 180.542969 287.339844 183.707031 284.175781 187.621094 284.175781 L 255.558594 284.175781 C 259.46875 284.175781 262.632812 287.339844 262.632812 291.242188 C 262.632812 295.152344 259.46875 298.316406 255.558594 298.316406 Z M 151.742188 298.316406 L 145.289062 298.316406 C 141.378906 298.316406 138.214844 295.152344 138.214844 291.242188 C 138.214844 287.339844 141.378906 284.175781 145.289062 284.175781 L 151.742188 284.175781 C 155.652344 284.175781 158.816406 287.339844 158.816406 291.242188 C 158.816406 295.152344 155.652344 298.316406 151.742188 298.316406 Z M 125.910156 298.316406 L 119.449219 298.316406 C 115.539062 298.316406 112.371094 295.152344 112.371094 291.242188 C 112.371094 287.339844 115.539062 284.175781 119.449219 284.175781 L 125.910156 284.175781 C 129.824219 284.175781 132.984375 287.339844 132.984375 291.242188 C 132.984375 295.152344 129.824219 298.316406 125.910156 298.316406 Z M 268.128906 270.984375 L 106.875 270.984375 C 105.816406 270.984375 104.949219 271.839844 104.949219 272.90625 L 104.949219 309.585938 C 104.949219 310.644531 105.816406 311.507812 106.875 311.507812 L 268.128906 311.507812 C 269.183594 311.507812 270.050781 310.644531 270.050781 309.585938 L 270.050781 272.90625 C 270.050781 271.839844 269.183594 270.984375 268.128906 270.984375 " fill-opacity="1" fill-rule="nonzero"/><path fill="#10a6a5" d="M 255.558594 243.644531 L 187.621094 243.644531 C 183.707031 243.644531 180.542969 240.472656 180.542969 236.570312 C 180.542969 232.664062 183.707031 229.496094 187.621094 229.496094 L 255.558594 229.496094 C 259.46875 229.496094 262.632812 232.664062 262.632812 236.570312 C 262.632812 240.472656 259.46875 243.644531 255.558594 243.644531 Z M 151.742188 243.644531 L 145.289062 243.644531 C 141.378906 243.644531 138.214844 240.472656 138.214844 236.570312 C 138.214844 232.664062 141.378906 229.496094 145.289062 229.496094 L 151.742188 229.496094 C 155.652344 229.496094 158.816406 232.664062 158.816406 236.570312 C 158.816406 240.472656 155.652344 243.644531 151.742188 243.644531 Z M 125.910156 243.644531 L 119.449219 243.644531 C 115.539062 243.644531 112.371094 240.472656 112.371094 236.570312 C 112.371094 232.664062 115.539062 229.496094 119.449219 229.496094 L 125.910156 229.496094 C 129.824219 229.496094 132.984375 232.664062 132.984375 236.570312 C 132.984375 240.472656 129.824219 243.644531 125.910156 243.644531 Z M 268.128906 216.308594 L 106.875 216.308594 C 105.816406 216.308594 104.949219 217.167969 104.949219 218.226562 L 104.949219 254.90625 C 104.949219 255.972656 105.816406 256.828125 106.875 256.828125 L 268.128906 256.828125 C 269.183594 256.828125 270.050781 255.972656 270.050781 254.90625 L 270.050781 218.226562 C 270.050781 217.167969 269.183594 216.308594 268.128906 216.308594 " fill-opacity="1" fill-rule="nonzero"/><path fill="#10a6a5" d="M 294.320312 119.921875 C 292.035156 119.921875 289.589844 120.109375 286.617188 120.515625 C 283 121.019531 279.660156 118.710938 278.789062 115.203125 C 271.265625 84.738281 244.117188 63.464844 212.761719 63.464844 C 186.695312 63.464844 163.3125 78.035156 151.730469 101.5 C 150.050781 104.894531 146.019531 106.378906 142.527344 104.835938 C 136.175781 102.035156 129.449219 100.609375 122.550781 100.609375 C 96.546875 100.609375 74.863281 120.949219 73.191406 146.925781 C 72.941406 150.773438 69.527344 153.660156 65.796875 153.539062 L 63.929688 153.425781 C 42.339844 153.425781 24.765625 170.988281 24.765625 192.59375 C 24.765625 214.183594 42.339844 231.75 63.929688 231.75 L 90.800781 231.75 L 90.800781 218.226562 C 90.800781 214.902344 91.820312 211.804688 93.5625 209.234375 C 91.820312 206.664062 90.800781 203.570312 90.800781 200.234375 L 90.800781 163.558594 C 90.800781 154.691406 98.007812 147.484375 106.875 147.484375 L 268.128906 147.484375 C 276.992188 147.484375 284.199219 154.691406 284.199219 163.558594 L 284.199219 200.234375 C 284.199219 203.570312 283.183594 206.664062 281.4375 209.234375 C 283.183594 211.804688 284.199219 214.902344 284.199219 218.226562 L 284.199219 231.75 L 294.320312 231.75 C 325.152344 231.75 350.234375 206.664062 350.234375 175.835938 C 350.234375 145.003906 325.152344 119.921875 294.320312 119.921875 " fill-opacity="1" fill-rule="nonzero"/><path fill="#10a6a5" d="M 255.558594 188.96875 L 187.621094 188.96875 C 183.707031 188.96875 180.542969 185.800781 180.542969 181.894531 C 180.542969 177.992188 183.707031 174.820312 187.621094 174.820312 L 255.558594 174.820312 C 259.46875 174.820312 262.632812 177.992188 262.632812 181.894531 C 262.632812 185.800781 259.46875 188.96875 255.558594 188.96875 Z M 151.742188 188.96875 L 145.289062 188.96875 C 141.378906 188.96875 138.214844 185.800781 138.214844 181.894531 C 138.214844 177.992188 141.378906 174.820312 145.289062 174.820312 L 151.742188 174.820312 C 155.652344 174.820312 158.816406 177.992188 158.816406 181.894531 C 158.816406 185.800781 155.652344 188.96875 151.742188 188.96875 Z M 125.910156 188.96875 L 119.449219 188.96875 C 115.539062 188.96875 112.371094 185.800781 112.371094 181.894531 C 112.371094 177.992188 115.539062 174.820312 119.449219 174.820312 L 125.910156 174.820312 C 129.824219 174.820312 132.984375 177.992188 132.984375 181.894531 C 132.984375 185.800781 129.824219 188.96875 125.910156 188.96875 Z M 268.128906 161.636719 L 106.875 161.636719 C 105.816406 161.636719 104.949219 162.5 104.949219 163.558594 L 104.949219 200.234375 C 104.949219 201.296875 105.816406 202.15625 106.875 202.15625 L 268.128906 202.15625 C 269.183594 202.15625 270.050781 201.296875 270.050781 200.234375 L 270.050781 163.558594 C 270.050781 162.5 269.183594 161.636719 268.128906 161.636719 " fill-opacity="1" fill-rule="nonzero"/></svg>