<svg xmlns="http://www.w3.org/2000/svg" xmlns:xlink="http://www.w3.org/1999/xlink" width="500" zoomAndPan="magnify" viewBox="0 0 375 374.999991" height="500" preserveAspectRatio="xMidYMid meet" version="1.0"><defs><clipPath id="e60148a439"><path d="M 9 109 L 375 109 L 375 356.890625 L 9 356.890625 Z M 9 109 " clip-rule="nonzero"/></clipPath></defs><path fill="#10a6a5" d="M 42.390625 285.320312 C 42.535156 293.894531 55.289062 293.894531 55.433594 285.320312 C 55.289062 276.75 42.535156 276.75 42.390625 285.320312 Z M 42.390625 285.320312 " fill-opacity="1" fill-rule="nonzero"/><path fill="#10a6a5" d="M 68.476562 285.320312 C 68.625 293.894531 81.378906 293.894531 81.523438 285.320312 C 81.375 276.75 68.621094 276.75 68.476562 285.320312 Z M 68.476562 285.320312 " fill-opacity="1" fill-rule="nonzero"/><path fill="#10a6a5" d="M 107.609375 285.320312 C 107.464844 276.75 94.710938 276.75 94.566406 285.324219 C 94.710938 293.894531 107.464844 293.894531 107.609375 285.320312 Z M 107.609375 285.320312 " fill-opacity="1" fill-rule="nonzero"/><path fill="#10a6a5" d="M 133.695312 285.320312 C 133.550781 276.75 120.796875 276.75 120.652344 285.324219 C 120.796875 293.894531 133.550781 293.894531 133.695312 285.320312 Z M 133.695312 285.320312 " fill-opacity="1" fill-rule="nonzero"/><path fill="#10a6a5" d="M 342.390625 285.320312 C 341.714844 259.523438 303.933594 259.527344 303.261719 285.324219 C 303.9375 311.121094 341.71875 311.117188 342.390625 285.320312 Z M 316.304688 285.320312 C 316.457031 276.75 329.199219 276.753906 329.347656 285.324219 C 329.195312 293.894531 316.453125 293.890625 316.304688 285.320312 Z M 316.304688 285.320312 " fill-opacity="1" fill-rule="nonzero"/><path fill="#10a6a5" d="M 277.175781 291.84375 C 285.730469 291.707031 285.761719 278.945312 277.171875 278.800781 C 277.175781 278.800781 218.476562 278.800781 218.476562 278.800781 C 209.921875 278.9375 209.890625 291.699219 218.476562 291.84375 C 218.476562 291.84375 277.175781 291.84375 277.175781 291.84375 Z M 277.175781 291.84375 " fill-opacity="1" fill-rule="nonzero"/><g clip-path="url(#e60148a439)"><path fill="#10a6a5" d="M 343.46875 162.515625 C 339.257812 170.0625 350.402344 176.351562 354.753906 169.042969 C 354.753906 169.042969 372.40625 138.515625 372.40625 138.515625 C 374.101562 135.496094 375 132.136719 375 128.800781 C 375.097656 109.136719 348.269531 101.8125 338.5 119.019531 C 338.5 119.019531 268.839844 239.667969 268.839844 239.667969 L 115.929688 239.667969 L 46.261719 119.015625 C 32.828125 97.492188 0.0976562 115.421875 12.40625 138.582031 C 12.40625 138.582031 70.800781 239.667969 70.800781 239.667969 L 42.390625 239.667969 C 24.410156 239.667969 9.78125 254.300781 9.78125 272.277344 L 9.78125 298.367188 C 9.738281 316.886719 25.359375 331.730469 43.824219 330.972656 C 43.824219 330.972656 47.875 347.183594 47.875 347.183594 C 49.328125 353 54.53125 357.0625 60.53125 357.0625 L 76.425781 357.0625 C 82.425781 357.0625 87.628906 353 89.082031 347.183594 L 94.367188 326.035156 C 94.925781 322.898438 93.601562 320.0625 90.753906 318.558594 C 89.921875 318.175781 45.039062 317.964844 42.390625 317.929688 C 31.601562 317.929688 22.824219 309.15625 22.824219 298.367188 L 22.824219 272.277344 C 22.824219 261.488281 31.601562 252.714844 42.390625 252.714844 L 342.390625 252.714844 C 353.179688 252.714844 361.957031 261.488281 361.957031 272.277344 L 361.957031 298.367188 C 361.957031 309.15625 353.179688 317.929688 342.390625 317.929688 C 339.476562 317.835938 120.652344 317.929688 120.652344 317.929688 C 117.046875 317.929688 114.128906 320.851562 114.128906 324.453125 C 114.128906 328.054688 117.046875 330.972656 120.652344 330.972656 L 291.648438 330.972656 L 295.699219 347.183594 C 297.152344 353 302.355469 357.0625 308.355469 357.0625 L 324.253906 357.0625 C 330.253906 357.0625 335.457031 353 336.90625 347.183594 L 340.960938 330.972656 L 342.390625 330.972656 C 360.371094 330.972656 375 316.34375 375 298.367188 L 375 272.277344 C 375 254.300781 360.371094 239.671875 342.390625 239.671875 L 313.976562 239.671875 L 338.460938 197.277344 C 342.574219 189.839844 331.628906 183.351562 327.164062 190.757812 C 327.164062 190.757812 298.910156 239.671875 298.910156 239.671875 L 283.902344 239.671875 L 349.804688 125.523438 C 352.796875 119.863281 362.1875 122.324219 361.957031 128.800781 C 364.46875 127.824219 343.132812 162.476562 343.46875 162.515625 Z M 79.695312 330.972656 C 79.691406 330.976562 76.441406 344.023438 76.425781 344.019531 L 60.523438 344.019531 C 60.523438 344.019531 57.261719 330.972656 57.261719 330.972656 Z M 324.257812 344.015625 C 324.257812 344.027344 308.351562 344.011719 308.351562 344.019531 L 305.089844 330.972656 L 327.519531 330.972656 Z M 23.71875 132.082031 C 19.480469 124.492188 30.6875 118.300781 34.972656 125.539062 C 34.972656 125.539062 100.867188 239.667969 100.867188 239.667969 L 85.867188 239.667969 Z M 23.71875 132.082031 " fill-opacity="1" fill-rule="nonzero"/></g><path fill="#10a6a5" d="M 284.625 82.160156 C 290.175781 82.355469 293.417969 74.90625 289.234375 71.027344 C 235.839844 17.625 148.941406 17.625 95.546875 71.027344 C 89.589844 77.074219 98.667969 86.265625 104.769531 80.25 C 153.078125 31.941406 231.695312 31.929688 280.015625 80.25 C 281.289062 81.523438 282.957031 82.160156 284.625 82.160156 Z M 284.625 82.160156 " fill-opacity="1" fill-rule="nonzero"/><path fill="#10a6a5" d="M 256.953125 109.832031 C 262.507812 110.023438 265.738281 102.574219 261.5625 98.699219 C 225.214844 60.800781 159.566406 60.800781 123.21875 98.699219 C 117.246094 104.746094 126.355469 113.933594 132.441406 107.917969 C 165.496094 74.867188 219.285156 74.867188 252.339844 107.921875 C 253.617188 109.195312 255.285156 109.832031 256.953125 109.832031 Z M 256.953125 109.832031 " fill-opacity="1" fill-rule="nonzero"/><path fill="#10a6a5" d="M 229.285156 137.5 C 234.851562 137.695312 238.066406 130.242188 233.898438 126.367188 C 211.007812 103.476562 173.773438 103.476562 150.886719 126.367188 C 148.335938 128.914062 148.335938 133.042969 150.886719 135.589844 C 153.433594 138.136719 157.558594 138.136719 160.105469 135.589844 C 177.914062 117.789062 206.867188 117.789062 224.675781 135.589844 C 225.949219 136.863281 227.617188 137.5 229.285156 137.5 Z M 229.285156 137.5 " fill-opacity="1" fill-rule="nonzero"/><path fill="#10a6a5" d="M 178.578125 154.019531 C 160.75 172.675781 187.488281 199.492188 206.226562 181.707031 C 224.003906 163.039062 197.3125 136.28125 178.578125 154.019531 Z M 197.003906 172.480469 C 190.9375 178.484375 181.769531 169.296875 187.785156 163.257812 C 193.847656 157.261719 203.007812 166.441406 197.003906 172.480469 Z M 197.003906 172.480469 " fill-opacity="1" fill-rule="nonzero"/></svg>