<svg xmlns="http://www.w3.org/2000/svg" xmlns:xlink="http://www.w3.org/1999/xlink" width="500" zoomAndPan="magnify" viewBox="0 0 375 374.999991" height="500" preserveAspectRatio="xMidYMid meet" version="1.0"><defs><clipPath id="52846c0d75"><path d="M 114 345 L 261 345 L 261 359.71875 L 114 359.71875 Z M 114 345 " clip-rule="nonzero"/></clipPath><clipPath id="8bdc800130"><path d="M 84 15.46875 L 291 15.46875 L 291 223 L 84 223 Z M 84 15.46875 " clip-rule="nonzero"/></clipPath></defs><g clip-path="url(#52846c0d75)"><path fill="#10a6a5" d="M 199.683594 354.980469 L 175.316406 354.980469 L 175.316406 349.691406 L 199.683594 349.691406 Z M 254.398438 345.113281 L 120.589844 345.113281 C 117.273438 345.113281 114.578125 347.808594 114.578125 351.125 L 114.578125 353.546875 C 114.578125 356.867188 117.273438 359.558594 120.589844 359.558594 L 254.398438 359.558594 C 257.726562 359.558594 260.421875 356.867188 260.421875 353.546875 L 260.421875 351.125 C 260.421875 347.808594 257.726562 345.113281 254.398438 345.113281 " fill-opacity="1" fill-rule="nonzero"/></g><path fill="#10a6a5" d="M 282.320312 172.386719 L 318.757812 172.386719 L 318.757812 211.144531 L 322.320312 211.144531 L 322.320312 168.824219 L 282.320312 168.824219 L 282.320312 172.386719 " fill-opacity="1" fill-rule="nonzero"/><path fill="#10a6a5" d="M 282.320312 221.917969 L 358.757812 221.917969 L 358.757812 277.675781 L 282.320312 277.675781 Z M 275.96875 285.261719 L 365.105469 285.261719 L 365.105469 214.328125 L 275.96875 214.328125 L 275.96875 285.261719 " fill-opacity="1" fill-rule="nonzero"/><path fill="#10a6a5" d="M 185.710938 225.476562 L 185.710938 240.3125 L 189.277344 240.3125 L 189.277344 225.476562 L 185.710938 225.476562 " fill-opacity="1" fill-rule="nonzero"/><g clip-path="url(#8bdc800130)"><path fill="#10a6a5" d="M 276.472656 162.707031 L 237.601562 162.707031 C 238.625 158.566406 239.484375 154.40625 240.203125 150.207031 C 241.816406 140.5625 242.625 130.8125 242.730469 121.050781 L 286.613281 121.050781 C 286.367188 133.328125 283.863281 145.550781 279.144531 156.886719 C 278.335938 158.863281 277.425781 160.792969 276.472656 162.707031 Z M 257.621094 189.054688 C 248.445312 198.242188 237.449219 205.617188 225.457031 210.578125 C 219.269531 213.152344 212.800781 215.058594 206.214844 216.316406 C 209.824219 213.917969 213.023438 211.003906 215.871094 207.828125 C 223.007812 199.804688 228.066406 190.324219 231.945312 180.5625 C 233.710938 176.105469 235.203125 171.554688 236.484375 166.941406 L 274.265625 166.941406 C 269.769531 175.035156 264.171875 182.515625 257.621094 189.054688 Z M 189.617188 218.011719 L 189.617188 166.941406 L 232.074219 166.941406 C 230.898438 171.023438 229.558594 175.058594 228.003906 179 C 224.265625 188.445312 219.382812 197.523438 212.71875 205.003906 C 209.386719 208.71875 205.589844 212 201.308594 214.363281 C 197.6875 216.390625 193.6875 217.671875 189.617188 218.011719 Z M 189.617188 121.050781 L 238.484375 121.050781 C 238.390625 130.589844 237.589844 140.117188 236.015625 149.503906 C 235.277344 153.949219 234.332031 158.359375 233.226562 162.707031 L 189.617188 162.707031 Z M 189.617188 75.144531 L 233.226562 75.144531 C 234.332031 79.507812 235.277344 83.910156 236.015625 88.355469 C 237.589844 97.738281 238.390625 107.277344 238.484375 116.804688 L 189.617188 116.804688 Z M 189.617188 19.84375 C 193.699219 20.175781 197.6875 21.46875 201.308594 23.488281 C 205.589844 25.855469 209.386719 29.136719 212.71875 32.855469 C 219.382812 40.332031 224.265625 49.425781 228.003906 58.859375 C 229.558594 62.796875 230.898438 66.828125 232.074219 70.910156 L 189.617188 70.910156 Z M 225.464844 27.277344 C 237.449219 32.253906 248.445312 39.617188 257.621094 48.800781 C 264.171875 55.339844 269.769531 62.820312 274.265625 70.910156 L 236.484375 70.910156 C 235.203125 66.304688 233.710938 61.761719 231.945312 57.292969 C 228.066406 47.53125 223.007812 38.050781 215.871094 30.03125 C 213.035156 26.855469 209.824219 23.9375 206.214844 21.539062 C 212.800781 22.796875 219.269531 24.703125 225.464844 27.277344 Z M 279.144531 80.96875 C 283.863281 92.304688 286.367188 104.527344 286.613281 116.804688 L 242.730469 116.804688 C 242.625 107.054688 241.816406 97.292969 240.203125 87.648438 C 239.484375 83.460938 238.625 79.285156 237.601562 75.144531 L 276.472656 75.144531 C 277.425781 77.0625 278.335938 78.992188 279.144531 80.96875 Z M 185.382812 70.910156 L 142.925781 70.910156 C 144.101562 66.828125 145.453125 62.796875 147.003906 58.84375 C 150.746094 49.414062 155.625 40.332031 162.296875 32.855469 C 165.625 29.136719 169.421875 25.855469 173.691406 23.488281 C 177.328125 21.46875 181.3125 20.1875 185.382812 19.84375 Z M 185.382812 116.804688 L 136.515625 116.804688 C 136.621094 107.265625 137.421875 97.738281 138.996094 88.355469 C 139.738281 83.910156 140.667969 79.507812 141.785156 75.144531 L 185.382812 75.144531 Z M 185.382812 162.707031 L 141.785156 162.707031 C 140.667969 158.347656 139.738281 153.949219 138.996094 149.503906 C 137.410156 140.117188 136.621094 130.589844 136.515625 121.050781 L 185.382812 121.050781 Z M 185.382812 218.011719 C 181.3125 217.671875 177.328125 216.390625 173.691406 214.363281 C 169.421875 212 165.625 208.71875 162.296875 205.003906 C 155.625 197.523438 150.746094 188.433594 147.003906 179 C 145.441406 175.058594 144.101562 171.023438 142.925781 166.941406 L 185.382812 166.941406 Z M 149.53125 210.578125 C 137.550781 205.605469 126.554688 198.242188 117.378906 189.054688 C 110.828125 182.515625 105.230469 175.035156 100.738281 166.941406 L 138.523438 166.941406 C 139.808594 171.554688 141.300781 176.09375 143.054688 180.5625 C 146.945312 190.324219 151.992188 199.804688 159.128906 207.828125 C 161.976562 211.003906 165.191406 213.917969 168.796875 216.316406 C 162.203125 215.058594 155.734375 213.152344 149.53125 210.578125 Z M 95.855469 156.886719 C 91.140625 145.550781 88.632812 133.328125 88.375 121.050781 L 132.28125 121.050781 C 132.386719 130.8125 133.199219 140.5625 134.8125 150.207031 C 135.515625 154.394531 136.386719 158.566406 137.410156 162.707031 L 98.527344 162.707031 C 97.574219 160.792969 96.667969 158.863281 95.855469 156.886719 Z M 95.855469 80.96875 C 96.667969 78.992188 97.574219 77.0625 98.527344 75.144531 L 137.410156 75.144531 C 136.386719 79.285156 135.515625 83.449219 134.8125 87.648438 C 133.199219 97.292969 132.386719 107.054688 132.28125 116.804688 L 88.375 116.804688 C 88.632812 104.527344 91.140625 92.304688 95.855469 80.96875 Z M 117.378906 48.800781 C 126.554688 39.617188 137.550781 32.253906 149.546875 27.277344 C 155.746094 24.703125 162.203125 22.796875 168.796875 21.539062 C 165.191406 23.9375 161.976562 26.855469 159.128906 30.019531 C 151.992188 38.050781 146.945312 47.53125 143.066406 57.292969 C 141.300781 61.761719 139.808594 66.304688 138.523438 70.910156 L 100.738281 70.910156 C 105.230469 62.820312 110.828125 55.339844 117.378906 48.800781 Z M 290.90625 118.933594 C 290.921875 105.398438 288.261719 91.847656 283.058594 79.34375 C 277.875 66.828125 270.195312 55.375 260.621094 45.800781 C 251.054688 36.226562 239.59375 28.550781 227.089844 23.359375 C 214.585938 18.160156 201.046875 15.503906 187.511719 15.515625 C 187.511719 15.515625 187.511719 15.515625 187.5 15.515625 C 187.464844 15.515625 187.441406 15.515625 187.40625 15.515625 C 173.90625 15.515625 160.402344 18.171875 147.921875 23.359375 C 135.410156 28.550781 123.953125 36.226562 114.378906 45.800781 C 104.804688 55.375 97.125 66.828125 91.941406 79.34375 C 86.738281 91.847656 84.082031 105.398438 84.09375 118.921875 C 84.082031 132.460938 86.738281 146.007812 91.941406 158.507812 C 97.117188 171.023438 104.804688 182.480469 114.378906 192.039062 C 123.941406 201.628906 135.410156 209.308594 147.910156 214.484375 C 160.425781 219.691406 173.964844 222.351562 187.5 222.339844 L 187.511719 222.339844 C 201.035156 222.351562 214.574219 219.691406 227.078125 214.492188 C 239.59375 209.308594 251.042969 201.628906 260.621094 192.050781 C 270.195312 182.480469 277.875 171.023438 283.058594 158.507812 C 288.261719 146.007812 290.921875 132.460938 290.90625 118.933594 " fill-opacity="1" fill-rule="nonzero"/></g><path fill="#10a6a5" d="M 92.679688 277.675781 L 16.234375 277.675781 L 16.234375 221.917969 L 92.679688 221.917969 Z M 99.019531 214.328125 L 9.894531 214.328125 L 9.894531 285.261719 L 99.019531 285.261719 L 99.019531 214.328125 " fill-opacity="1" fill-rule="nonzero"/><path fill="#10a6a5" d="M 63.523438 296.386719 L 45.398438 296.386719 L 45.398438 292.449219 L 63.523438 292.449219 Z M 104.21875 289.050781 L 4.691406 289.050781 C 2.222656 289.050781 0.222656 291.046875 0.222656 293.519531 L 0.222656 295.316406 C 0.222656 297.789062 2.222656 299.800781 4.691406 299.800781 L 104.21875 299.800781 C 106.6875 299.800781 108.699219 297.789062 108.699219 295.316406 L 108.699219 293.519531 C 108.699219 291.046875 106.6875 289.050781 104.21875 289.050781 " fill-opacity="1" fill-rule="nonzero"/><path fill="#10a6a5" d="M 136.113281 254.847656 L 238.886719 254.847656 L 238.886719 329.824219 L 136.113281 329.824219 Z M 127.578125 340.023438 L 247.414062 340.023438 L 247.414062 244.652344 L 127.578125 244.652344 L 127.578125 340.023438 " fill-opacity="1" fill-rule="nonzero"/><path fill="#10a6a5" d="M 329.601562 296.386719 L 311.476562 296.386719 L 311.476562 292.449219 L 329.601562 292.449219 Z M 370.308594 289.050781 L 270.78125 289.050781 C 268.3125 289.050781 266.300781 291.046875 266.300781 293.519531 L 266.300781 295.316406 C 266.300781 297.789062 268.3125 299.800781 270.78125 299.800781 L 370.308594 299.800781 C 372.777344 299.800781 374.777344 297.789062 374.777344 295.316406 L 374.777344 293.519531 C 374.777344 291.046875 372.777344 289.050781 370.308594 289.050781 " fill-opacity="1" fill-rule="nonzero"/><path fill="#10a6a5" d="M 56.242188 172.386719 L 92.679688 172.386719 L 92.679688 168.824219 L 52.679688 168.824219 L 52.679688 211.144531 L 56.242188 211.144531 L 56.242188 172.386719 " fill-opacity="1" fill-rule="nonzero"/></svg>