<svg xmlns="http://www.w3.org/2000/svg" xmlns:xlink="http://www.w3.org/1999/xlink" width="500" zoomAndPan="magnify" viewBox="0 0 375 374.999991" height="500" preserveAspectRatio="xMidYMid meet" version="1.0"><defs><clipPath id="2201c1fba5"><path d="M 289.6875 0 L 355.664062 0 L 355.664062 69 L 289.6875 69 Z M 289.6875 0 " clip-rule="nonzero"/></clipPath><clipPath id="2c0b891625"><path d="M 19.089844 150 L 130 150 L 130 259 L 19.089844 259 Z M 19.089844 150 " clip-rule="nonzero"/></clipPath><clipPath id="607082f334"><path d="M 27 262.058594 L 136 262.058594 L 136 374.992188 L 27 374.992188 Z M 27 262.058594 " clip-rule="nonzero"/></clipPath></defs><g clip-path="url(#2201c1fba5)"><path fill="#10a6a5" d="M 324.257812 8.328125 C 314.492188 11.71875 305.164062 15.460938 296.25 19.546875 C 294.121094 20.53125 292.03125 21.515625 289.953125 22.507812 L 343.539062 68.402344 C 344.214844 66.191406 344.875 63.960938 345.5 61.730469 C 348.179688 52.261719 350.445312 42.492188 352.269531 32.304688 C 354.011719 22.070312 355.457031 11.574219 355.660156 0.00390625 C 344.269531 1.996094 334.101562 5.027344 324.257812 8.328125 " fill-opacity="1" fill-rule="nonzero"/></g><path fill="#10a6a5" d="M 290.445312 116.933594 C 280.910156 128.058594 264.179688 129.347656 253.058594 119.832031 C 241.945312 110.304688 240.636719 93.578125 250.152344 82.457031 C 259.691406 71.332031 276.4375 70.035156 287.550781 79.5625 C 298.667969 89.082031 299.976562 105.8125 290.445312 116.933594 Z M 246.566406 47.429688 C 215.863281 68.09375 189.414062 92.394531 166.152344 119.433594 C 142.929688 146.5 122.964844 176.34375 107.257812 209.84375 C 105.308594 214.042969 103.417969 218.285156 101.59375 222.597656 C 99.824219 226.9375 98.007812 231.273438 96.382812 235.738281 C 95.277344 238.695312 94.214844 241.707031 93.171875 244.730469 L 154.28125 297.050781 C 157.109375 295.554688 159.917969 294.035156 162.679688 292.5 C 166.84375 290.195312 170.824219 287.722656 174.867188 285.332031 C 178.832031 282.875 182.746094 280.332031 186.601562 277.765625 C 217.269531 257.085938 243.679688 232.753906 266.859375 205.636719 C 289.972656 178.492188 309.917969 148.605469 325.59375 115.117188 C 331.226562 103.046875 336.273438 90.507812 340.660156 77.382812 L 281.511719 26.734375 C 269.226562 33.09375 257.605469 40.023438 246.566406 47.429688 " fill-opacity="1" fill-rule="nonzero"/><g clip-path="url(#2c0b891625)"><path fill="#10a6a5" d="M 91.960938 221.609375 L 93.039062 218.984375 C 94.816406 214.769531 96.734375 210.492188 98.832031 205.941406 C 107.523438 187.429688 117.792969 169.421875 129.539062 152.058594 L 89.359375 150 L 19.328125 258.289062 L 88.734375 229.765625 C 89.800781 226.996094 90.882812 224.277344 91.960938 221.609375 " fill-opacity="1" fill-rule="nonzero"/></g><path fill="#10a6a5" d="M 191.777344 285.441406 C 187.558594 288.257812 183.644531 290.804688 179.761719 293.210938 L 177.320312 294.675781 C 174.867188 296.152344 172.332031 297.664062 169.738281 299.140625 L 152.25 372.097656 L 248.46875 286.226562 L 240.246094 246.835938 C 224.894531 261.136719 208.703125 274.042969 191.777344 285.441406 " fill-opacity="1" fill-rule="nonzero"/><g clip-path="url(#607082f334)"><path fill="#10a6a5" d="M 100.289062 337.5625 C 103.324219 335.625 109.433594 328.417969 115.492188 317.414062 C 96.734375 317.414062 76.574219 325.484375 65.785156 339.367188 C 71.160156 323.488281 64.925781 305.828125 91.433594 291.808594 C 78.023438 289.5625 69.910156 290.769531 60.898438 295.859375 C 65.65625 287.582031 68.71875 270.089844 90.839844 262.699219 C 53.886719 266.328125 43.277344 313.671875 31.273438 324.105469 C 46.636719 326.085938 47.730469 310.8125 64.996094 307.777344 C 32.566406 325.59375 41.167969 364.988281 27.011719 374.351562 C 65.234375 380.65625 69.511719 338.476562 91.90625 333.90625 C 72.1875 344.4375 74.378906 361.136719 72.605469 368.480469 C 81.226562 354.007812 127.652344 350.578125 135.910156 304.175781 C 131.269531 317.464844 113.058594 338.136719 100.289062 337.5625 " fill-opacity="1" fill-rule="nonzero"/></g></svg>