<svg xmlns="http://www.w3.org/2000/svg" xmlns:xlink="http://www.w3.org/1999/xlink" width="500" zoomAndPan="magnify" viewBox="0 0 375 374.999991" height="500" preserveAspectRatio="xMidYMid meet" version="1.0"><defs><clipPath id="4ddd17db93"><path d="M 0 5.113281 L 375 5.113281 L 375 369.613281 L 0 369.613281 Z M 0 5.113281 " clip-rule="nonzero"/></clipPath></defs><g clip-path="url(#4ddd17db93)"><path fill="#10a6a5" d="M 338.039062 5.113281 L 176.613281 5.113281 C 154.277344 11.015625 140.644531 24.546875 139.117188 49.121094 C 139.269531 53.851562 139.421875 58.582031 139.578125 63.261719 C 139.578125 71.910156 139.527344 79.949219 139.578125 88.039062 C 139.578125 100.503906 139.472656 113.019531 139.527344 125.484375 L 36.859375 125.484375 C 34.671875 125.941406 32.527344 126.546875 30.425781 127.300781 C 28.320312 128.058594 26.28125 128.957031 24.304688 129.992188 C 22.324219 131.03125 20.425781 132.203125 18.609375 133.503906 C 16.792969 134.808594 15.078125 136.230469 13.457031 137.769531 C 11.839844 139.308594 10.335938 140.957031 8.945312 142.703125 C 7.554688 144.453125 6.292969 146.289062 5.15625 148.214844 C 4.019531 150.140625 3.023438 152.132812 2.164062 154.199219 C 1.304688 156.261719 0.59375 158.371094 0.0273438 160.535156 L 0.0273438 265.742188 C 0.628906 271.214844 2.445312 276.253906 5.472656 280.851562 C 7.632812 283.851562 10.175781 286.480469 13.105469 288.742188 C 16.03125 291 19.21875 292.796875 22.667969 294.132812 C 26.003906 295.730469 29.472656 296.949219 33.078125 297.78125 C 36.683594 298.613281 40.335938 299.042969 44.035156 299.066406 L 55.785156 299.066406 L 55.785156 332.542969 C 56.089844 344.953125 56.449219 357.417969 56.753906 369.882812 C 62.757812 364.183594 67.894531 359.199219 71.914062 355.28125 C 84.53125 342.917969 90.6875 336.609375 98.316406 328.472656 C 104.777344 321.652344 105.082031 321.246094 108.136719 318.09375 C 122.074219 303.542969 125.738281 301.8125 127.621094 301.050781 C 131.425781 299.425781 135.394531 298.695312 139.527344 298.863281 C 156.722656 299.523438 173.96875 299.167969 191.214844 299.066406 C 192.675781 299.128906 194.136719 299.113281 195.597656 299.027344 C 197.058594 298.9375 198.511719 298.773438 199.957031 298.53125 C 201.402344 298.292969 202.828125 297.976562 204.238281 297.589844 C 205.652344 297.199219 207.039062 296.742188 208.402344 296.207031 C 209.765625 295.675781 211.097656 295.074219 212.398438 294.402344 C 213.699219 293.734375 214.960938 292.996094 216.1875 292.195312 C 217.410156 291.394531 218.589844 290.53125 219.726562 289.605469 C 220.863281 288.679688 221.945312 287.699219 222.980469 286.664062 C 224.011719 285.628906 224.988281 284.539062 225.910156 283.402344 C 226.828125 282.261719 227.6875 281.082031 228.488281 279.851562 C 229.285156 278.625 230.015625 277.359375 230.683594 276.058594 C 231.347656 274.753906 231.945312 273.417969 232.472656 272.054688 C 233 270.6875 233.457031 269.300781 233.839844 267.886719 C 234.222656 266.472656 234.53125 265.046875 234.765625 263.601562 C 235.003906 262.15625 235.160156 260.703125 235.246094 259.242188 C 235.332031 257.78125 235.339844 256.316406 235.269531 254.855469 C 235.421875 239.390625 235.320312 223.875 235.320312 208.40625 L 235.320312 183.683594 L 235.472656 178.492188 C 239.574219 178.332031 243.507812 179.0625 247.277344 180.679688 C 249.109375 181.445312 252.773438 183.125 266.710938 197.722656 C 269.765625 200.878906 270.121094 201.285156 276.53125 208.101562 C 284.210938 216.242188 290.367188 222.550781 302.984375 234.914062 C 306.953125 238.832031 312.089844 243.816406 318.144531 249.515625 C 318.449219 237.050781 318.757812 224.601562 319.0625 212.171875 L 319.0625 178.695312 L 330.863281 178.695312 C 338.335938 178.640625 345.441406 176.996094 352.179688 173.761719 C 355.628906 172.425781 358.8125 170.628906 361.738281 168.367188 C 364.664062 166.109375 367.210938 163.480469 369.375 160.484375 C 372.421875 155.871094 374.253906 150.816406 374.871094 145.324219 L 374.871094 40.167969 C 374.304688 38.003906 373.589844 35.894531 372.730469 33.832031 C 371.867188 31.769531 370.871094 29.777344 369.734375 27.851562 C 368.597656 25.929688 367.335938 24.09375 365.945312 22.34375 C 364.554688 20.59375 363.050781 18.949219 361.429688 17.410156 C 359.8125 15.871094 358.09375 14.449219 356.28125 13.148438 C 354.464844 11.84375 352.566406 10.671875 350.589844 9.632812 C 348.613281 8.59375 346.574219 7.695312 344.46875 6.9375 C 342.367188 6.183594 340.222656 5.574219 338.039062 5.113281 Z M 221.230469 254.855469 C 221.300781 255.859375 221.316406 256.867188 221.28125 257.875 C 221.246094 258.878906 221.15625 259.882812 221.011719 260.878906 C 220.867188 261.875 220.671875 262.863281 220.421875 263.839844 C 220.171875 264.8125 219.871094 265.773438 219.519531 266.71875 C 219.167969 267.660156 218.765625 268.582031 218.316406 269.484375 C 217.863281 270.386719 217.367188 271.257812 216.824219 272.105469 C 216.277344 272.953125 215.691406 273.769531 215.058594 274.554688 C 214.425781 275.339844 213.753906 276.089844 213.042969 276.800781 C 212.332031 277.515625 211.585938 278.1875 210.800781 278.820312 C 210.015625 279.453125 209.203125 280.042969 208.355469 280.589844 C 207.507812 281.132812 206.636719 281.632812 205.734375 282.085938 C 204.835938 282.539062 203.914062 282.941406 202.96875 283.292969 C 202.027344 283.648438 201.066406 283.949219 200.09375 284.199219 C 199.117188 284.453125 198.128906 284.648438 197.132812 284.796875 C 196.136719 284.941406 195.136719 285.03125 194.128906 285.070312 C 193.121094 285.109375 192.117188 285.09375 191.113281 285.023438 C 171.21875 285.175781 151.378906 285.277344 131.488281 284.921875 C 130.046875 284.847656 128.617188 284.929688 127.199219 285.175781 C 125.777344 285.421875 124.402344 285.820312 123.074219 286.375 C 121.746094 286.929688 120.492188 287.625 119.320312 288.464844 C 118.144531 289.300781 117.082031 290.257812 116.125 291.332031 C 108.796875 298.863281 100.65625 305.628906 93.941406 313.71875 C 86.355469 322.835938 78.011719 331.195312 68.910156 338.800781 C 69.0625 334.832031 69.625 316.109375 69.878906 295.65625 C 70.046875 294.113281 69.898438 292.597656 69.4375 291.109375 C 68.980469 289.625 68.242188 288.292969 67.234375 287.109375 C 66.136719 286.257812 64.917969 285.652344 63.574219 285.289062 C 62.234375 284.929688 60.875 284.839844 59.5 285.023438 C 54.261719 285.226562 48.96875 285.125 43.730469 285.023438 C 42.742188 285.066406 41.753906 285.054688 40.765625 284.992188 C 39.78125 284.929688 38.800781 284.816406 37.824219 284.648438 C 36.851562 284.484375 35.886719 284.269531 34.933594 284.003906 C 33.980469 283.742188 33.046875 283.425781 32.125 283.066406 C 31.207031 282.703125 30.308594 282.292969 29.429688 281.835938 C 28.554688 281.382812 27.703125 280.882812 26.878906 280.335938 C 26.050781 279.792969 25.257812 279.207031 24.492188 278.578125 C 23.730469 277.953125 23 277.285156 22.304688 276.582031 C 21.609375 275.878906 20.953125 275.140625 20.335938 274.371094 C 19.71875 273.597656 19.140625 272.796875 18.605469 271.964844 C 18.070312 271.132812 17.582031 270.277344 17.136719 269.394531 C 16.691406 268.511719 16.292969 267.609375 15.941406 266.683594 C 15.589844 265.761719 15.289062 264.820312 15.035156 263.867188 C 14.78125 262.910156 14.578125 261.945312 14.421875 260.96875 C 14.269531 259.992188 14.167969 259.007812 14.117188 258.019531 C 14.066406 257.035156 14.066406 256.046875 14.121094 255.058594 C 13.96875 226.773438 13.96875 198.453125 14.121094 170.097656 C 14.0625 169.109375 14.054688 168.121094 14.097656 167.132812 C 14.144531 166.144531 14.238281 165.160156 14.386719 164.179688 C 14.53125 163.199219 14.730469 162.230469 14.976562 161.273438 C 15.222656 160.3125 15.519531 159.371094 15.867188 158.441406 C 16.210938 157.515625 16.605469 156.605469 17.046875 155.71875 C 17.484375 154.832031 17.972656 153.96875 18.5 153.132812 C 19.03125 152.296875 19.601562 151.492188 20.214844 150.714844 C 20.832031 149.9375 21.484375 149.195312 22.175781 148.484375 C 22.867188 147.773438 23.589844 147.105469 24.351562 146.46875 C 25.113281 145.835938 25.90625 145.246094 26.730469 144.691406 C 27.550781 144.140625 28.402344 143.636719 29.277344 143.171875 C 30.152344 142.710938 31.046875 142.292969 31.96875 141.925781 C 32.886719 141.554688 33.820312 141.234375 34.773438 140.960938 C 35.726562 140.691406 36.691406 140.46875 37.664062 140.296875 C 38.640625 140.125 39.621094 140.003906 40.609375 139.933594 C 41.597656 139.863281 42.585938 139.847656 43.578125 139.878906 C 75.679688 139.726562 107.78125 139.675781 139.882812 139.726562 C 140.003906 141.496094 140.242188 143.253906 140.589844 144.992188 C 140.9375 146.734375 141.398438 148.445312 141.964844 150.125 C 142.53125 151.804688 143.203125 153.445312 143.980469 155.039062 C 144.757812 156.636719 145.632812 158.175781 146.605469 159.660156 C 147.582031 161.144531 148.644531 162.558594 149.796875 163.90625 C 150.953125 165.253906 152.1875 166.523438 153.503906 167.710938 C 154.824219 168.902344 156.210938 170.003906 157.667969 171.015625 C 159.125 172.027344 160.640625 172.945312 162.214844 173.761719 C 165.542969 175.410156 169.015625 176.648438 172.636719 177.484375 C 176.253906 178.316406 179.921875 178.722656 183.632812 178.695312 C 189.332031 178.746094 195.03125 178.800781 200.726562 178.800781 C 207.542969 178.902344 214.414062 178.902344 221.230469 178.800781 C 221.382812 204.132812 221.382812 229.488281 221.230469 254.855469 Z M 360.777344 134.691406 C 360.828125 135.679688 360.828125 136.667969 360.777344 137.65625 C 360.722656 138.644531 360.621094 139.625 360.46875 140.601562 C 360.3125 141.578125 360.109375 142.546875 359.851562 143.503906 C 359.597656 144.457031 359.292969 145.398438 358.941406 146.324219 C 358.589844 147.246094 358.191406 148.152344 357.742188 149.03125 C 357.296875 149.914062 356.804688 150.773438 356.269531 151.605469 C 355.734375 152.4375 355.15625 153.238281 354.535156 154.007812 C 353.917969 154.78125 353.261719 155.519531 352.5625 156.222656 C 351.867188 156.925781 351.136719 157.589844 350.371094 158.21875 C 349.605469 158.84375 348.8125 159.429688 347.984375 159.972656 C 347.160156 160.519531 346.308594 161.019531 345.429688 161.472656 C 344.550781 161.929688 343.652344 162.339844 342.730469 162.699219 C 341.808594 163.0625 340.875 163.375 339.921875 163.640625 C 338.964844 163.90625 338.003906 164.121094 337.027344 164.285156 C 336.050781 164.449219 335.070312 164.5625 334.082031 164.625 C 333.09375 164.6875 332.105469 164.695312 331.117188 164.65625 C 325.878906 164.757812 320.585938 164.859375 315.347656 164.65625 C 313.976562 164.457031 312.625 164.539062 311.289062 164.902344 C 309.957031 165.265625 308.746094 165.878906 307.664062 166.742188 C 306.648438 167.921875 305.90625 169.253906 305.4375 170.738281 C 304.96875 172.222656 304.8125 173.738281 304.96875 175.289062 C 305.222656 195.738281 305.832031 214.410156 305.9375 218.429688 C 296.847656 210.8125 288.503906 202.453125 280.90625 193.347656 C 274.242188 185.261719 266.050781 178.492188 258.773438 170.964844 C 257.8125 169.886719 256.746094 168.925781 255.566406 168.089844 C 254.390625 167.25 253.132812 166.554688 251.800781 166 C 250.464844 165.445312 249.085938 165.042969 247.660156 164.800781 C 246.238281 164.558594 244.804688 164.476562 243.359375 164.554688 C 240.664062 164.605469 237.96875 164.65625 235.269531 164.65625 C 230.4375 164.707031 225.65625 164.757812 220.824219 164.757812 C 208.460938 164.808594 196.097656 164.707031 183.734375 164.65625 C 167.148438 164.503906 156.058594 155.140625 154.023438 139.726562 C 153.757812 137.992188 153.621094 136.246094 153.617188 134.488281 L 153.617188 125.484375 C 153.515625 100.148438 153.464844 74.8125 153.617188 49.476562 C 153.554688 48.488281 153.546875 47.5 153.585938 46.507812 C 153.628906 45.519531 153.722656 44.535156 153.867188 43.554688 C 154.015625 42.574219 154.210938 41.605469 154.457031 40.648438 C 154.707031 39.6875 155.003906 38.742188 155.351562 37.816406 C 155.695312 36.886719 156.089844 35.980469 156.535156 35.09375 C 156.976562 34.210938 157.464844 33.347656 157.996094 32.515625 C 158.53125 31.679688 159.105469 30.875 159.722656 30.101562 C 160.339844 29.324219 160.996094 28.585938 161.691406 27.878906 C 162.386719 27.175781 163.117188 26.507812 163.886719 25.878906 C 164.652344 25.253906 165.445312 24.667969 166.273438 24.121094 C 167.101562 23.578125 167.957031 23.078125 168.835938 22.625 C 169.714844 22.167969 170.617188 21.761719 171.539062 21.402344 C 172.464844 21.042969 173.402344 20.734375 174.359375 20.472656 C 175.3125 20.210938 176.28125 20 177.257812 19.84375 C 178.234375 19.683594 179.21875 19.578125 180.207031 19.519531 C 181.195312 19.464844 182.1875 19.460938 183.175781 19.511719 C 232.523438 19.257812 281.90625 19.257812 331.320312 19.511719 C 332.3125 19.476562 333.300781 19.496094 334.289062 19.566406 C 335.277344 19.636719 336.257812 19.753906 337.234375 19.925781 C 338.207031 20.097656 339.171875 20.320312 340.125 20.59375 C 341.078125 20.863281 342.011719 21.1875 342.929688 21.554688 C 343.847656 21.925781 344.746094 22.339844 345.621094 22.804688 C 346.496094 23.265625 347.347656 23.773438 348.167969 24.324219 C 348.992188 24.875 349.785156 25.46875 350.546875 26.101562 C 351.304688 26.734375 352.03125 27.40625 352.722656 28.117188 C 353.414062 28.824219 354.066406 29.566406 354.679688 30.34375 C 355.296875 31.121094 355.867188 31.929688 356.398438 32.765625 C 356.925781 33.601562 357.414062 34.464844 357.851562 35.351562 C 358.292969 36.238281 358.6875 37.144531 359.03125 38.074219 C 359.378906 39 359.675781 39.945312 359.921875 40.902344 C 360.167969 41.863281 360.367188 42.832031 360.511719 43.8125 C 360.660156 44.789062 360.753906 45.773438 360.800781 46.765625 C 360.84375 47.753906 360.835938 48.742188 360.777344 49.730469 C 360.929688 78.066406 360.929688 106.386719 360.777344 134.691406 Z M 330.351562 73.75 L 186.183594 73.75 C 185.679688 73.75 185.183594 73.699219 184.695312 73.601562 C 184.203125 73.503906 183.726562 73.359375 183.261719 73.167969 C 182.800781 72.976562 182.359375 72.742188 181.941406 72.460938 C 181.527344 72.183594 181.140625 71.867188 180.785156 71.511719 C 180.433594 71.160156 180.117188 70.773438 179.835938 70.355469 C 179.558594 69.941406 179.324219 69.5 179.132812 69.039062 C 178.941406 68.574219 178.796875 68.097656 178.699219 67.605469 C 178.601562 67.113281 178.550781 66.617188 178.550781 66.117188 C 178.550781 65.617188 178.601562 65.121094 178.699219 64.628906 C 178.796875 64.136719 178.941406 63.660156 179.132812 63.195312 C 179.324219 62.734375 179.558594 62.292969 179.835938 61.878906 C 180.117188 61.460938 180.433594 61.074219 180.785156 60.722656 C 181.140625 60.367188 181.527344 60.050781 181.941406 59.773438 C 182.359375 59.492188 182.800781 59.257812 183.261719 59.066406 C 183.726562 58.875 184.203125 58.730469 184.695312 58.632812 C 185.183594 58.535156 185.679688 58.484375 186.183594 58.484375 L 330.351562 58.484375 C 330.851562 58.484375 331.347656 58.535156 331.839844 58.632812 C 332.332031 58.730469 332.808594 58.875 333.269531 59.066406 C 333.734375 59.257812 334.171875 59.492188 334.589844 59.773438 C 335.007812 60.050781 335.390625 60.367188 335.746094 60.722656 C 336.101562 61.074219 336.417969 61.460938 336.695312 61.878906 C 336.972656 62.292969 337.207031 62.734375 337.402344 63.195312 C 337.59375 63.660156 337.738281 64.136719 337.835938 64.628906 C 337.933594 65.121094 337.980469 65.617188 337.980469 66.117188 C 337.980469 66.617188 337.933594 67.113281 337.835938 67.605469 C 337.738281 68.097656 337.59375 68.574219 337.402344 69.039062 C 337.207031 69.5 336.972656 69.941406 336.695312 70.355469 C 336.417969 70.773438 336.101562 71.160156 335.746094 71.511719 C 335.390625 71.867188 335.007812 72.183594 334.589844 72.460938 C 334.171875 72.742188 333.734375 72.976562 333.269531 73.167969 C 332.808594 73.359375 332.332031 73.503906 331.839844 73.601562 C 331.347656 73.699219 330.851562 73.75 330.351562 73.75 Z M 278.859375 114.203125 L 190.597656 114.203125 C 190.097656 114.203125 189.601562 114.15625 189.109375 114.058594 C 188.617188 113.960938 188.140625 113.816406 187.679688 113.621094 C 187.214844 113.429688 186.773438 113.195312 186.359375 112.917969 C 185.941406 112.640625 185.554688 112.324219 185.203125 111.96875 C 184.847656 111.613281 184.53125 111.230469 184.253906 110.8125 C 183.976562 110.394531 183.738281 109.957031 183.546875 109.492188 C 183.355469 109.03125 183.210938 108.550781 183.113281 108.0625 C 183.015625 107.570312 182.96875 107.074219 182.96875 106.574219 C 182.96875 106.070312 183.015625 105.574219 183.113281 105.082031 C 183.210938 104.59375 183.355469 104.113281 183.546875 103.652344 C 183.738281 103.1875 183.976562 102.75 184.253906 102.332031 C 184.53125 101.917969 184.847656 101.53125 185.203125 101.175781 C 185.554688 100.820312 185.941406 100.503906 186.359375 100.226562 C 186.773438 99.949219 187.214844 99.714844 187.679688 99.523438 C 188.140625 99.332031 188.617188 99.1875 189.109375 99.089844 C 189.601562 98.988281 190.097656 98.941406 190.597656 98.941406 L 278.859375 98.941406 C 279.359375 98.941406 279.859375 98.988281 280.347656 99.089844 C 280.839844 99.1875 281.316406 99.332031 281.78125 99.523438 C 282.242188 99.714844 282.683594 99.949219 283.101562 100.226562 C 283.515625 100.503906 283.902344 100.820312 284.257812 101.175781 C 284.609375 101.53125 284.925781 101.917969 285.207031 102.332031 C 285.484375 102.75 285.71875 103.1875 285.910156 103.652344 C 286.101562 104.113281 286.246094 104.59375 286.34375 105.082031 C 286.441406 105.574219 286.492188 106.070312 286.492188 106.574219 C 286.492188 107.074219 286.441406 107.570312 286.34375 108.0625 C 286.246094 108.550781 286.101562 109.03125 285.910156 109.492188 C 285.71875 109.957031 285.484375 110.394531 285.207031 110.8125 C 284.925781 111.230469 284.609375 111.613281 284.257812 111.96875 C 283.902344 112.324219 283.515625 112.640625 283.101562 112.917969 C 282.683594 113.195312 282.242188 113.429688 281.78125 113.621094 C 281.316406 113.816406 280.839844 113.960938 280.347656 114.058594 C 279.859375 114.15625 279.359375 114.203125 278.859375 114.203125 Z M 188.683594 239.910156 L 44.515625 239.910156 C 44.015625 239.910156 43.519531 239.859375 43.027344 239.761719 C 42.539062 239.664062 42.058594 239.519531 41.597656 239.328125 C 41.132812 239.136719 40.695312 238.902344 40.277344 238.625 C 39.859375 238.34375 39.476562 238.027344 39.121094 237.675781 C 38.765625 237.320312 38.449219 236.933594 38.171875 236.519531 C 37.894531 236.101562 37.660156 235.660156 37.46875 235.199219 C 37.277344 234.734375 37.128906 234.257812 37.03125 233.765625 C 36.933594 233.273438 36.886719 232.777344 36.886719 232.277344 C 36.886719 231.777344 36.933594 231.28125 37.03125 230.789062 C 37.128906 230.296875 37.277344 229.820312 37.46875 229.359375 C 37.660156 228.894531 37.894531 228.453125 38.171875 228.039062 C 38.449219 227.621094 38.765625 227.234375 39.121094 226.882812 C 39.476562 226.527344 39.859375 226.210938 40.277344 225.933594 C 40.695312 225.65625 41.132812 225.417969 41.597656 225.226562 C 42.058594 225.035156 42.539062 224.890625 43.027344 224.792969 C 43.519531 224.695312 44.015625 224.648438 44.515625 224.648438 L 188.683594 224.648438 C 189.1875 224.648438 189.683594 224.695312 190.175781 224.792969 C 190.664062 224.890625 191.144531 225.035156 191.605469 225.226562 C 192.070312 225.417969 192.507812 225.65625 192.925781 225.933594 C 193.339844 226.210938 193.726562 226.527344 194.082031 226.882812 C 194.4375 227.234375 194.753906 227.621094 195.03125 228.039062 C 195.308594 228.453125 195.542969 228.894531 195.734375 229.359375 C 195.925781 229.820312 196.070312 230.296875 196.167969 230.789062 C 196.269531 231.28125 196.316406 231.777344 196.316406 232.277344 C 196.316406 232.777344 196.269531 233.273438 196.167969 233.765625 C 196.070312 234.257812 195.925781 234.734375 195.734375 235.199219 C 195.542969 235.660156 195.308594 236.101562 195.03125 236.519531 C 194.753906 236.933594 194.4375 237.320312 194.082031 237.675781 C 193.726562 238.027344 193.339844 238.34375 192.925781 238.625 C 192.507812 238.902344 192.070312 239.136719 191.605469 239.328125 C 191.144531 239.519531 190.664062 239.664062 190.175781 239.761719 C 189.683594 239.859375 189.1875 239.910156 188.683594 239.910156 Z M 45.132812 183.683594 L 133.394531 183.683594 C 133.894531 183.683594 134.390625 183.730469 134.882812 183.828125 C 135.375 183.925781 135.851562 184.070312 136.316406 184.265625 C 136.777344 184.457031 137.21875 184.691406 137.632812 184.96875 C 138.050781 185.246094 138.4375 185.5625 138.792969 185.917969 C 139.144531 186.273438 139.460938 186.65625 139.738281 187.074219 C 140.019531 187.492188 140.253906 187.929688 140.445312 188.394531 C 140.636719 188.855469 140.78125 189.332031 140.878906 189.824219 C 140.976562 190.316406 141.027344 190.8125 141.027344 191.3125 C 141.027344 191.816406 140.976562 192.3125 140.878906 192.800781 C 140.78125 193.292969 140.636719 193.769531 140.445312 194.234375 C 140.253906 194.695312 140.019531 195.136719 139.738281 195.554688 C 139.460938 195.96875 139.144531 196.355469 138.792969 196.710938 C 138.4375 197.0625 138.050781 197.378906 137.632812 197.660156 C 137.21875 197.9375 136.777344 198.171875 136.316406 198.363281 C 135.851562 198.554688 135.375 198.699219 134.882812 198.796875 C 134.390625 198.894531 133.894531 198.945312 133.394531 198.945312 L 45.132812 198.945312 C 44.632812 198.945312 44.136719 198.894531 43.644531 198.796875 C 43.152344 198.699219 42.675781 198.554688 42.210938 198.363281 C 41.75 198.171875 41.308594 197.9375 40.894531 197.660156 C 40.476562 197.378906 40.089844 197.0625 39.738281 196.710938 C 39.382812 196.355469 39.066406 195.96875 38.789062 195.554688 C 38.507812 195.136719 38.273438 194.695312 38.082031 194.234375 C 37.890625 193.769531 37.746094 193.292969 37.648438 192.800781 C 37.550781 192.3125 37.5 191.816406 37.5 191.3125 C 37.5 190.8125 37.550781 190.316406 37.648438 189.824219 C 37.746094 189.332031 37.890625 188.855469 38.082031 188.394531 C 38.273438 187.929688 38.507812 187.492188 38.789062 187.074219 C 39.066406 186.65625 39.382812 186.273438 39.738281 185.917969 C 40.089844 185.5625 40.476562 185.246094 40.894531 184.96875 C 41.308594 184.691406 41.75 184.457031 42.210938 184.265625 C 42.675781 184.070312 43.152344 183.925781 43.644531 183.828125 C 44.136719 183.730469 44.632812 183.683594 45.132812 183.683594 Z M 45.132812 183.683594 " fill-opacity="1" fill-rule="nonzero"/></g></svg>