<svg xmlns="http://www.w3.org/2000/svg" xmlns:xlink="http://www.w3.org/1999/xlink" width="500" zoomAndPan="magnify" viewBox="0 0 375 374.999991" height="500" preserveAspectRatio="xMidYMid meet" version="1.0"><defs><clipPath id="21ff69344e"><path d="M 70.484375 44.195312 L 327.734375 44.195312 L 327.734375 164 L 70.484375 164 Z M 70.484375 44.195312 " clip-rule="nonzero"/></clipPath><clipPath id="351f57bee9"><path d="M 106 102 L 261 102 L 261 296.195312 L 106 296.195312 Z M 106 102 " clip-rule="nonzero"/></clipPath><clipPath id="db4a3e351b"><path d="M 243 247 L 293 247 L 293 296.195312 L 243 296.195312 Z M 243 247 " clip-rule="nonzero"/></clipPath><clipPath id="3590d3122f"><path d="M 203 207 L 293 207 L 293 296.195312 L 203 296.195312 Z M 203 207 " clip-rule="nonzero"/></clipPath><clipPath id="dc884f2db4"><path d="M 162.113281 166 L 293 166 L 293 296.195312 L 162.113281 296.195312 Z M 162.113281 166 " clip-rule="nonzero"/></clipPath></defs><g clip-path="url(#21ff69344e)"><path fill="#192a56" d="M 322.96875 140.339844 L 207.15625 47.027344 C 202.453125 43.261719 195.765625 43.261719 191.105469 47.027344 L 141.769531 86.773438 L 141.769531 58.984375 C 141.769531 57.226562 140.328125 55.789062 138.570312 55.789062 L 109.222656 55.789062 C 107.433594 55.789062 106.023438 57.226562 106.023438 58.984375 L 106.023438 115.546875 L 75.25 140.316406 C 69.726562 144.765625 68.882812 152.859375 73.363281 158.351562 L 73.378906 158.367188 C 77.820312 163.808594 85.828125 164.644531 91.292969 160.238281 L 199.125 73.40625 L 306.933594 160.246094 C 312.410156 164.65625 320.40625 163.816406 324.847656 158.382812 C 329.335938 152.890625 328.492188 144.789062 322.96875 140.339844 " fill-opacity="1" fill-rule="nonzero"/></g><g clip-path="url(#351f57bee9)"><path fill="#192a56" d="M 144.980469 285.234375 C 149.871094 219.945312 198.238281 165.851562 260.84375 152.136719 L 199.109375 102.417969 L 106 177.359375 L 106 296.429688 L 146.574219 296.429688 C 145.234375 292.871094 144.6875 289.042969 144.980469 285.234375 " fill-opacity="1" fill-rule="nonzero"/></g><g clip-path="url(#db4a3e351b)"><path fill="#10a6a5" d="M 281.007812 247.710938 C 271.9375 249.765625 263.625 254.347656 256.882812 261.082031 C 250.15625 267.816406 245.574219 276.132812 243.507812 285.203125 C 242.199219 290.9375 246.550781 296.417969 252.441406 296.417969 L 252.757812 296.417969 C 257.125 296.417969 260.714844 293.296875 261.730469 289.058594 C 263.0625 283.492188 265.902344 278.386719 270.042969 274.246094 C 274.191406 270.105469 279.292969 267.265625 284.847656 265.929688 C 289.085938 264.921875 292.203125 261.34375 292.210938 256.984375 L 292.210938 256.640625 C 292.21875 250.761719 286.734375 246.398438 281.007812 247.710938 " fill-opacity="1" fill-rule="nonzero"/></g><g clip-path="url(#3590d3122f)"><path fill="#10a6a5" d="M 284.027344 226.445312 C 288.695312 225.890625 292.203125 221.9375 292.203125 217.230469 C 292.203125 211.625 287.289062 207.320312 281.71875 207.980469 C 240.988281 212.777344 208.570312 245.1875 203.769531 285.925781 C 203.113281 291.488281 207.414062 296.410156 213.027344 296.410156 C 217.730469 296.410156 221.683594 292.90625 222.238281 288.226562 C 222.308594 287.617188 222.398438 287 222.488281 286.390625 C 226.898438 255.566406 251.335938 231.121094 282.179688 226.6875 C 282.789062 226.601562 283.410156 226.519531 284.027344 226.445312 " fill-opacity="1" fill-rule="nonzero"/></g><g clip-path="url(#dc884f2db4)"><path fill="#10a6a5" d="M 282.464844 185.382812 C 282.839844 185.347656 283.214844 185.316406 283.589844 185.285156 C 288.445312 184.902344 292.203125 180.890625 292.203125 176.019531 C 292.203125 170.648438 287.679688 166.304688 282.328125 166.710938 C 218.445312 171.527344 167.296875 222.679688 162.503906 286.542969 C 162.097656 291.890625 166.441406 296.410156 171.800781 296.410156 C 176.683594 296.410156 180.710938 292.628906 181.066406 287.757812 C 181.097656 287.40625 181.125 287.046875 181.15625 286.699219 C 185.851562 232.984375 228.785156 190.050781 282.464844 185.382812 " fill-opacity="1" fill-rule="nonzero"/></g></svg>