<svg xmlns="http://www.w3.org/2000/svg" xmlns:xlink="http://www.w3.org/1999/xlink" width="500" zoomAndPan="magnify" viewBox="0 0 375 374.999991" height="500" preserveAspectRatio="xMidYMid meet" version="1.0"><defs><clipPath id="219138ef05"><path d="M 17.464844 133.007812 L 374.972656 133.007812 L 374.972656 275.3125 L 17.464844 275.3125 Z M 17.464844 133.007812 " clip-rule="nonzero"/></clipPath><clipPath id="c671f81c9a"><path d="M 5 14 L 371 14 L 371 361.609375 L 5 361.609375 Z M 5 14 " clip-rule="nonzero"/></clipPath></defs><path fill="#ffffff" d="M 359.140625 273.367188 C 358.929688 277.8125 359.007812 280.101562 359.417969 280.171875 C 359.703125 280.242188 360.050781 279.40625 360.527344 277.671875 C 362.539062 282.253906 363.929688 284.476562 364.769531 284.265625 C 365.734375 283.988281 365.871094 280.308594 365.117188 273.089844 C 363.097656 273.160156 361.152344 273.230469 359.140625 273.367188 Z M 1.375 290.027344 C 1.027344 291.207031 0.679688 292.945312 0.539062 295.164062 C 0.398438 298.289062 0.886719 301.34375 1.375 301.34375 C 1.71875 301.34375 1.789062 299.539062 3.175781 297.316406 C 3.730469 296.484375 4.289062 295.859375 4.636719 295.441406 C 5.191406 296.484375 5.605469 296.96875 5.886719 296.902344 C 6.371094 296.761719 6.371094 294.609375 5.886719 290.375 Z M 66.832031 248.378906 C 67.734375 247.753906 68.914062 246.921875 70.097656 245.949219 C 71.277344 244.90625 71.550781 244.558594 71.488281 244.214844 C 71.410156 242.964844 68.21875 242.269531 67.941406 242.199219 C 71.625 239.285156 72.382812 238.242188 72.242188 237.964844 C 71.972656 237.480469 68.21875 238.519531 66.207031 241.367188 C 64.75 243.378906 64.609375 245.601562 64.609375 246.710938 C 65.304688 247.265625 66.070312 247.824219 66.832031 248.378906 Z M 28.859375 241.574219 C 27.125 242.546875 25.527344 242.894531 24.488281 243.03125 C 23.65625 243.378906 23.097656 244.074219 22.960938 244.90625 C 22.820312 245.949219 23.445312 246.988281 24.488281 247.40625 L 24.488281 254.210938 C 24.558594 254.347656 25.390625 255.457031 26.917969 255.527344 C 28.515625 255.597656 29.488281 254.277344 29.554688 254.210938 L 29.554688 249.835938 C 31.015625 249.417969 31.777344 248.65625 32.195312 248.171875 C 33.582031 246.503906 33.582031 244.28125 33.511719 240.605469 C 33.511719 239.214844 33.371094 238.105469 33.304688 237.339844 C 32.679688 238.242188 31.359375 240.1875 28.859375 241.574219 Z M 238.636719 59.148438 C 238.089844 58.660156 237.804688 58.105469 237.667969 57.761719 C 237.667969 57.617188 237.535156 56.71875 236.699219 56.09375 C 235.722656 55.46875 234.679688 55.816406 234.617188 55.816406 C 234.0625 56.230469 232.738281 56.996094 230.863281 57.203125 C 229.066406 57.414062 227.675781 56.925781 227.046875 56.648438 C 227.183594 57.617188 227.46875 59.355469 228.71875 61.089844 C 229.265625 61.925781 230.59375 63.726562 233.085938 64.285156 C 235.105469 64.769531 236.761719 64.144531 237.457031 63.867188 C 237.742188 65.117188 238.011719 66.367188 238.289062 67.546875 C 238.785156 67.546875 240.171875 67.40625 241.214844 66.367188 C 242.601562 64.90625 242.742188 62.339844 241.351562 60.117188 C 240.867188 60.191406 239.679688 60.046875 238.636719 59.148438 Z M 348.460938 315.15625 L 346.726562 274.757812 L 321.800781 274.269531 L 320.273438 315.085938 L 324.304688 342.507812 L 331.941406 342.507812 L 330.960938 312.589844 L 334.640625 288.988281 L 339.363281 316.824219 L 345.746094 338.898438 L 353.730469 338.898438 Z M 297.925781 77.265625 L 308.261719 57.691406 L 304.304688 55.679688 L 290.984375 74.351562 L 271.609375 71.644531 C 271.203125 71.503906 267.308594 70.1875 264.667969 72.199219 C 261.828125 74.421875 261.269531 80.042969 265.015625 84.554688 C 276.539062 84.484375 287.992188 84.484375 299.523438 84.417969 L 319.445312 84.417969 L 318.613281 78.585938 Z M 24.980469 305.160156 C 24.910156 305.507812 24.425781 307.867188 23.796875 310.992188 Z M 34.976562 297.523438 C 35.945312 306.339844 36.921875 315.15625 37.890625 323.972656 L 33.933594 355.558594 L 27.339844 355.558594 L 27.339844 325.5 C 26.160156 320.710938 24.910156 315.921875 23.730469 311.128906 C 22.273438 318.765625 19.980469 331.054688 19.980469 331.054688 L 13.246094 352.363281 L 5.890625 352.363281 L 11.164062 327.375 L 11.582031 296.832031 C 14.566406 296.066406 18.871094 295.234375 24.144531 295.511719 C 28.589844 295.71875 32.269531 296.621094 34.976562 297.523438 Z M 127.855469 24.441406 C 125.835938 23.328125 124.246094 22.078125 123.128906 21.035156 C 122.917969 21.382812 119.871094 26.105469 122.015625 30.132812 C 122.363281 30.753906 122.917969 31.585938 123.898438 32.351562 C 123.613281 34.503906 123.34375 36.589844 123.128906 38.738281 C 123.203125 38.875 124.167969 40.753906 126.25 40.957031 C 127.855469 41.167969 129.453125 40.265625 130.285156 38.808594 C 130.207031 37.003906 130.070312 35.128906 130 33.324219 C 130.554688 32.835938 131.671875 31.730469 132.226562 29.921875 C 132.714844 28.394531 132.574219 27.074219 132.429688 26.453125 C 131.109375 26.035156 129.515625 25.410156 127.855469 24.441406 Z M 236.554688 66.851562 C 237.878906 70.253906 239.191406 73.65625 240.519531 77.054688 C 238.984375 77.542969 237.394531 78.027344 235.859375 78.445312 C 229.613281 78.722656 224.476562 79.070312 220.9375 79.347656 C 214.898438 79.832031 209.417969 80.386719 209.34375 79.902344 C 209.34375 79.695312 210.039062 79.417969 210.667969 79.277344 C 207.46875 79.136719 205.871094 78.933594 205.871094 78.652344 C 205.808594 77.957031 213.855469 76.707031 229.960938 75.042969 C 230.722656 74.625 231.632812 74.074219 232.460938 73.308594 C 234.964844 70.949219 236.070312 68.378906 236.554688 66.851562 " fill-opacity="1" fill-rule="nonzero"/><path fill="#0f0e0c" d="M 273.277344 59.910156 C 269.871094 56.511719 265.15625 60.605469 259.457031 57.480469 C 254.535156 54.777344 254.742188 49.847656 250.230469 49.085938 C 247.65625 48.667969 247.378906 50.191406 243.636719 50.472656 C 237.589844 50.957031 235.230469 47.140625 231.28125 47.902344 C 229.261719 48.320312 226.484375 49.984375 223.851562 56.230469 L 227.59375 59.007812 C 227.246094 58.109375 227.117188 57.273438 227.039062 56.71875 C 227.671875 56.996094 229.058594 57.480469 230.859375 57.273438 C 232.730469 57.066406 234.058594 56.300781 234.613281 55.882812 C 234.675781 55.816406 235.714844 55.46875 236.695312 56.164062 C 237.527344 56.71875 237.660156 57.691406 237.660156 57.828125 C 237.800781 58.175781 238.082031 58.730469 238.632812 59.21875 C 239.671875 60.191406 240.859375 60.257812 241.269531 60.257812 C 242.171875 61.648438 242.449219 63.242188 242.171875 64.5625 L 242.796875 64.769531 C 243.777344 63.453125 245.089844 63.242188 245.089844 63.242188 C 246.414062 63.171875 248.148438 63.316406 249.191406 64.496094 C 249.808594 65.117188 250.023438 65.882812 249.945312 67.480469 L 263.96875 72.824219 C 268.550781 73.867188 272.929688 71.851562 274.527344 68.378906 C 275.839844 65.671875 275.359375 61.992188 273.277344 59.910156 Z M 229.894531 74.90625 Z M 206.910156 78.445312 C 207.539062 78.515625 208.644531 78.652344 210.664062 78.726562 C 210.867188 78.726562 211.074219 78.933594 211.074219 79.140625 C 211.074219 79.347656 211.011719 79.484375 210.867188 79.628906 C 212.398438 79.558594 214.96875 79.347656 217.53125 79.140625 C 218.648438 79.070312 219.75 78.933594 220.867188 78.863281 C 225.726562 78.515625 230.71875 78.167969 235.792969 77.960938 L 239.957031 76.710938 L 236.621094 68.101562 C 235.714844 70.1875 234.40625 72.058594 232.730469 73.519531 C 231.976562 74.210938 231.066406 74.835938 230.101562 75.320312 C 230.023438 75.320312 229.957031 75.390625 229.957031 75.390625 C 214.199219 77.054688 208.644531 77.960938 206.910156 78.445312 Z M 210.457031 80.527344 C 209.128906 80.527344 208.851562 80.320312 208.78125 79.976562 C 208.78125 79.832031 208.78125 79.695312 208.851562 79.628906 C 205.597656 79.417969 205.3125 79.070312 205.3125 78.652344 C 205.25 77.960938 205.25 77.128906 229.753906 74.558594 C 230.585938 74.074219 231.414062 73.519531 232.105469 72.890625 C 233.917969 71.296875 235.308594 69.144531 236.140625 66.714844 C 236.203125 66.507812 236.347656 66.4375 236.550781 66.4375 C 236.757812 66.4375 236.898438 66.578125 236.964844 66.714844 L 240.921875 76.917969 C 241 77.054688 241 77.199219 240.921875 77.265625 C 240.859375 77.402344 240.785156 77.472656 240.652344 77.472656 L 236 78.863281 L 235.855469 78.863281 C 230.796875 79.070312 225.789062 79.347656 220.929688 79.765625 C 219.75 79.832031 218.648438 79.976562 217.605469 80.042969 C 213.851562 80.320312 211.707031 80.527344 210.457031 80.527344 " fill-opacity="1" fill-rule="nonzero"/><path fill="#ffffff" d="M 150.335938 265.800781 L 332.34375 265.800781 C 341.230469 265.800781 348.59375 258.511719 348.59375 249.558594 L 348.59375 96.632812 C 348.59375 87.75 341.304688 80.390625 332.34375 80.390625 L 58.84375 80.390625 C 49.960938 80.390625 42.601562 87.679688 42.601562 96.632812 L 42.601562 249.628906 C 42.601562 258.511719 49.890625 265.871094 58.84375 265.871094 L 133.40625 265.871094 M 150.335938 265.800781 L 140.695312 265.800781 " fill-opacity="1" fill-rule="nonzero"/><path fill="#10a6a5" d="M 123.054688 38.738281 C 120.484375 39.019531 115.417969 39.988281 110.417969 43.597656 C 102.992188 48.941406 100.703125 56.441406 100.082031 58.730469 L 100.082031 71.921875 L 111.113281 77.472656 L 143.046875 77.472656 C 146.800781 75.183594 150.472656 72.890625 154.230469 70.605469 C 153.882812 66.851562 153.457031 63.105469 153.109375 59.289062 C 152.972656 57.828125 151.929688 48.527344 143.738281 42.765625 C 138.1875 38.878906 132.363281 38.738281 130.28125 38.808594 C 129.445312 40.335938 127.851562 41.167969 126.246094 40.960938 C 124.09375 40.753906 123.121094 38.878906 123.054688 38.738281 Z M 162.96875 293.777344 L 215.871094 293.777344 L 215.871094 261.289062 L 162.96875 261.289062 Z M 264.316406 71.503906 C 259.804688 69.355469 256.480469 67.0625 254.25 65.257812 C 250.371094 62.203125 247.457031 58.941406 243.699219 59.425781 C 242.734375 59.566406 241.902344 59.910156 241.410156 60.191406 C 242.597656 61.582031 242.867188 63.519531 242.101562 65.117188 C 241.410156 66.507812 239.957031 67.480469 238.355469 67.546875 C 238.082031 66.296875 237.800781 65.050781 237.527344 63.867188 C 237.042969 64.007812 236.550781 64.148438 236.140625 64.285156 C 236 64.769531 235.855469 65.464844 235.714844 66.4375 C 235.308594 69.628906 234.8125 73.035156 236.621094 75.117188 C 237.042969 75.601562 238.144531 76.570312 240.4375 76.851562 C 240.859375 77.128906 241.347656 77.476562 241.824219 77.75 C 241.824219 76.710938 241.757812 71.644531 241.824219 67.894531 C 241.902344 63.730469 245.027344 63.246094 245.027344 63.246094 C 246.335938 63.175781 248.074219 63.316406 249.113281 64.496094 C 250.292969 65.675781 250.023438 67.339844 248.980469 74.003906 C 248.351562 77.613281 248.003906 79.695312 247.726562 80.945312 C 248.84375 81.503906 250.023438 81.988281 251.335938 82.472656 C 256.269531 84.417969 260.78125 85.320312 264.253906 85.804688 C 264.871094 84.695312 266.261719 82.058594 266.199219 78.445312 C 266.261719 75.183594 264.949219 72.617188 264.316406 71.503906 Z M 6.851562 101.769531 L 6.851562 165.84375 L 55.164062 165.84375 L 55.164062 118.847656 L 38.644531 101.769531 Z M 313.949219 243.449219 L 86.472656 243.449219 C 81.894531 243.449219 78.140625 239.703125 78.140625 235.121094 L 78.140625 108.851562 C 78.140625 104.269531 81.894531 100.519531 86.472656 100.519531 L 313.949219 100.519531 C 318.53125 100.519531 322.28125 104.269531 322.28125 108.851562 L 322.28125 235.050781 C 322.28125 239.703125 318.53125 243.449219 313.949219 243.449219 " fill-opacity="1" fill-rule="nonzero"/><g clip-path="url(#219138ef05)"><path fill="#ffffff" d="M 374.972656 238.105469 L 374.972656 140.921875 C 374.972656 136.6875 371.566406 133.285156 367.335938 133.285156 L 225.441406 133.285156 C 221.214844 133.285156 217.808594 136.6875 217.808594 140.921875 L 217.808594 238.105469 C 217.808594 242.339844 221.214844 245.742188 225.441406 245.742188 L 367.335938 245.742188 C 371.566406 245.671875 374.972656 242.269531 374.972656 238.105469 Z M 130.066406 275.035156 L 26.015625 275.035156 C 21.359375 275.035156 17.542969 271.214844 17.542969 266.566406 L 17.542969 204.160156 C 17.542969 199.507812 21.359375 195.691406 26.011719 195.691406 L 130.0625 195.691406 C 134.710938 195.691406 138.53125 199.507812 138.53125 204.160156 L 138.53125 266.566406 C 138.53125 271.214844 134.789062 275.035156 130.0625 275.035156 " fill-opacity="1" fill-rule="nonzero"/></g><path fill="#ffffff" d="M 127.710938 148.765625 L 94.390625 148.765625 C 91.886719 148.765625 89.804688 146.683594 89.804688 144.183594 L 89.804688 141.269531 C 89.804688 138.769531 91.886719 136.6875 94.390625 136.6875 L 127.710938 136.6875 C 130.203125 136.6875 132.285156 138.769531 132.285156 141.269531 L 132.285156 144.183594 C 132.285156 146.753906 130.203125 148.765625 127.710938 148.765625 Z M 190.535156 223.875 L 141.65625 223.875 L 141.65625 216.445312 L 190.535156 216.445312 Z M 212.671875 201.589844 L 141.65625 201.589844 C 141.449219 200.550781 140.824219 198.121094 138.742188 195.96875 C 135.757812 192.84375 131.875 192.636719 131.035156 192.636719 L 98.273438 192.636719 L 98.273438 186.597656 L 105.5 186.597656 C 108.824219 181.113281 114.585938 173.476562 123.261719 171.882812 C 135.140625 169.730469 140.691406 181.113281 152.492188 179.308594 C 166.507812 177.085938 168.667969 159.59375 180.042969 160.082031 C 189.695312 160.496094 193.71875 173.339844 203.167969 172.089844 C 207.539062 171.535156 210.804688 168.132812 212.671875 165.5625 Z M 311.382812 111.972656 C 311.382812 114.125 309.644531 115.863281 307.5 115.863281 C 305.339844 115.863281 303.605469 114.125 303.605469 111.972656 C 303.605469 109.824219 305.339844 108.085938 307.5 108.085938 C 309.644531 108.085938 311.382812 109.824219 311.382812 111.972656 Z M 291.25 108.085938 C 289.105469 108.085938 287.371094 109.824219 287.371094 111.972656 C 287.371094 114.125 289.105469 115.863281 291.25 115.863281 C 293.410156 115.863281 295.144531 114.125 295.144531 111.972656 C 295.144531 109.824219 293.410156 108.085938 291.25 108.085938 Z M 277.226562 111.972656 C 277.226562 114.125 275.492188 115.863281 273.339844 115.863281 C 271.195312 115.863281 269.460938 114.125 269.460938 111.972656 C 269.460938 109.824219 271.195312 108.085938 273.339844 108.085938 C 275.492188 108.085938 277.226562 109.824219 277.226562 111.972656 " fill-opacity="1" fill-rule="nonzero"/><path fill="#0f0e0c" d="M 70.851562 257.820312 L 63.636719 257.820312 L 63.636719 236.4375 L 70.851562 236.4375 Z M 58.570312 258.929688 L 51.351562 258.929688 L 51.351562 224.289062 L 58.570312 224.289062 Z M 45.796875 258.582031 L 38.578125 258.582031 L 38.578125 232.273438 L 45.796875 232.273438 Z M 349.84375 220.542969 C 348.800781 224.636719 344.90625 227.761719 340.1875 228.109375 C 340.1875 227.277344 340.1875 226.441406 340.261719 225.539062 C 340.324219 224.707031 340.46875 223.945312 340.671875 223.25 C 340.816406 223.109375 342.617188 221.582031 342.34375 219.222656 C 342.128906 217.765625 341.304688 216.933594 340.957031 216.585938 C 340.609375 216.65625 338.9375 216.933594 337.410156 215.890625 C 335.464844 214.640625 335.265625 212.488281 335.1875 212.210938 C 334.570312 212.558594 333.667969 213.183594 332.757812 214.085938 L 332.757812 207.839844 C 333.320312 207.628906 339.914062 205.617188 345.183594 209.78125 C 345.878906 210.269531 351.292969 214.640625 349.84375 220.542969 Z M 283.054688 214.292969 L 283.054688 191.941406 C 289.796875 195.621094 296.53125 199.230469 303.1875 202.910156 C 296.453125 206.726562 289.71875 210.476562 283.054688 214.292969 Z M 227.460938 171.882812 L 227.460938 236.578125 L 356.636719 236.578125 L 356.636719 171.882812 L 227.460938 171.882812 " fill-opacity="1" fill-rule="nonzero"/><path fill="#10a6a5" d="M 131.800781 223.875 L 108.761719 223.875 L 108.761719 226.996094 L 131.800781 226.996094 Z M 93.003906 217.835938 C 88.492188 217.835938 84.8125 221.515625 84.8125 226.027344 C 84.8125 230.539062 88.492188 234.21875 93.003906 234.21875 C 97.515625 234.21875 101.1875 230.539062 101.1875 226.027344 C 101.1875 221.515625 97.515625 217.835938 93.003906 217.835938 Z M 58.152344 198.605469 C 56.488281 198.605469 55.167969 199.925781 55.167969 201.589844 C 55.167969 203.257812 56.488281 204.578125 58.152344 204.578125 C 59.820312 204.578125 61.136719 203.257812 61.136719 201.589844 C 61.136719 199.925781 59.75 198.605469 58.152344 198.605469 Z M 46.351562 198.605469 C 44.6875 198.605469 43.367188 199.925781 43.367188 201.589844 C 43.367188 203.257812 44.6875 204.578125 46.351562 204.578125 C 48.019531 204.578125 49.335938 203.257812 49.335938 201.589844 C 49.335938 199.925781 47.949219 198.605469 46.351562 198.605469 Z M 33.996094 198.535156 C 32.328125 198.535156 31.011719 199.855469 31.011719 201.523438 C 31.011719 203.1875 32.328125 204.507812 33.996094 204.507812 C 35.660156 204.507812 36.980469 203.1875 36.980469 201.523438 C 36.910156 199.855469 35.589844 198.535156 33.996094 198.535156 Z M 343.308594 159.109375 L 252.929688 159.109375 L 252.929688 163.066406 L 343.308594 163.066406 Z M 306.378906 149.25 L 252.929688 149.25 L 252.929688 154.179688 L 306.378906 154.179688 Z M 234.402344 147.445312 C 230.585938 147.445312 227.523438 150.570312 227.523438 154.320312 C 227.523438 158.136719 230.648438 161.191406 234.402344 161.191406 C 238.144531 161.191406 241.265625 158.066406 241.265625 154.320312 C 241.265625 150.570312 238.21875 147.445312 234.402344 147.445312 Z M 133.402344 256.640625 L 87.371094 256.640625 L 87.371094 260.804688 L 133.402344 260.804688 Z M 133.402344 248.863281 L 87.371094 248.863281 L 87.371094 253.027344 L 133.402344 253.027344 Z M 133.402344 245.183594 L 87.371094 245.183594 L 87.371094 241.019531 L 133.402344 241.019531 L 133.402344 245.183594 " fill-opacity="1" fill-rule="nonzero"/><path fill="#ffffff" d="M 319.441406 209.714844 C 324.085938 207.628906 326.382812 206.3125 326.167969 205.824219 C 326.035156 205.480469 324.917969 205.480469 322.773438 205.824219 C 322.5625 199.648438 322 196.453125 321.035156 196.316406 C 319.917969 196.175781 318.324219 199.925781 316.175781 207.492188 Z M 335.960938 215.960938 C 337.414062 216.863281 338.875 216.65625 339.222656 216.585938 C 339.496094 216.863281 340.328125 217.625 340.472656 218.945312 C 340.742188 221.027344 339.085938 222.484375 338.9375 222.625 C 338.800781 223.25 338.660156 223.945312 338.59375 224.707031 C 338.316406 227.207031 338.738281 229.359375 339.222656 230.816406 C 338.453125 232.34375 336.855469 232.96875 335.613281 232.550781 C 334.496094 232.132812 334.082031 231.023438 334.019531 230.816406 L 334.019531 227.554688 C 331.027344 227.484375 329.714844 226.027344 329.429688 225.679688 C 327.074219 222.972656 328.941406 218.390625 330.332031 216.167969 C 331.589844 214.226562 333.183594 213.113281 334.082031 212.558594 C 334.019531 212.835938 334.226562 214.851562 335.960938 215.960938 " fill-opacity="1" fill-rule="nonzero"/><path fill="#ffffff" d="M 111.113281 77.472656 C 107.988281 78.308594 102.296875 80.460938 99.25 85.734375 C 97.785156 88.304688 97.308594 90.941406 97.4375 100.3125 C 97.515625 105.101562 97.785156 111.351562 98.410156 118.777344 C 101.742188 119.125 105.003906 119.402344 108.335938 119.75 L 110.558594 93.996094 L 127.914062 82.40625 L 143.332031 91.359375 L 143.738281 119.75 L 154.230469 120.441406 C 155.054688 112.597656 155.679688 105.65625 156.171875 99.828125 C 156.71875 92.261719 156.867188 88.996094 155.195312 85.386719 C 152.839844 80.25 148.460938 77.402344 145.683594 75.949219 L 143.046875 77.472656 Z M 249.253906 64.496094 C 250.433594 65.746094 250.15625 67.339844 249.113281 74.003906 C 247.941406 81.292969 247.726562 82.261719 246.613281 83.238281 C 245.089844 84.554688 242.941406 84.484375 238.703125 84.347656 C 231.691406 84.070312 230.238281 82.332031 224.6875 82.890625 C 222.875 83.097656 220.582031 83.511719 220.519531 83.238281 C 220.445312 83.027344 221.625 82.472656 222.667969 82.058594 C 217.460938 81.570312 214.828125 81.152344 214.828125 80.808594 C 214.828125 80.460938 217.875 80.25 223.992188 80.113281 L 241.964844 77.960938 C 241.964844 77.960938 241.902344 72.128906 241.964844 67.964844 C 242.039062 63.800781 245.164062 63.316406 245.164062 63.316406 C 246.476562 63.242188 248.210938 63.382812 249.253906 64.496094 " fill-opacity="1" fill-rule="nonzero"/><path fill="#0f0e0c" d="M 270.363281 108.574219 C 268.480469 108.574219 266.953125 110.101562 266.953125 111.972656 C 266.953125 113.847656 268.480469 115.375 270.363281 115.375 C 272.238281 115.375 273.757812 113.847656 273.757812 111.972656 C 273.832031 110.101562 272.238281 108.574219 270.363281 108.574219 Z M 270.363281 116.347656 C 267.933594 116.347656 265.988281 114.402344 265.988281 111.972656 C 265.988281 109.546875 267.933594 107.601562 270.363281 107.601562 C 272.792969 107.601562 274.730469 109.546875 274.730469 111.972656 C 274.730469 114.402344 272.792969 116.347656 270.363281 116.347656 " fill-opacity="1" fill-rule="nonzero"/><path fill="#0f0e0c" d="M 288.265625 108.574219 C 286.390625 108.574219 284.863281 110.101562 284.863281 111.972656 C 284.863281 113.847656 286.390625 115.375 288.265625 115.375 C 290.144531 115.375 291.671875 113.847656 291.671875 111.972656 C 291.734375 110.101562 290.144531 108.574219 288.265625 108.574219 Z M 288.265625 116.347656 C 285.835938 116.347656 283.898438 114.402344 283.898438 111.972656 C 283.898438 109.546875 285.835938 107.601562 288.265625 107.601562 C 290.695312 107.601562 292.636719 109.546875 292.636719 111.972656 C 292.636719 114.402344 290.695312 116.347656 288.265625 116.347656 " fill-opacity="1" fill-rule="nonzero"/><path fill="#0f0e0c" d="M 304.515625 108.574219 C 302.640625 108.574219 301.105469 110.101562 301.105469 111.972656 C 301.105469 113.847656 302.640625 115.375 304.515625 115.375 C 306.382812 115.375 307.910156 113.847656 307.910156 111.972656 C 307.988281 110.101562 306.460938 108.574219 304.515625 108.574219 Z M 304.515625 116.347656 C 302.085938 116.347656 300.136719 114.402344 300.136719 111.972656 C 300.136719 109.546875 302.085938 107.601562 304.515625 107.601562 C 306.945312 107.601562 308.890625 109.546875 308.890625 111.972656 C 308.890625 114.402344 306.945312 116.347656 304.515625 116.347656 " fill-opacity="1" fill-rule="nonzero"/><g clip-path="url(#c671f81c9a)"><path fill="#0f0e0c" d="M 321.445312 266.289062 C 321.445312 266.011719 321.445312 265.664062 321.523438 265.386719 L 215.792969 265.386719 C 215.792969 265.664062 215.792969 266.011719 215.726562 266.289062 L 216.355469 266.289062 C 216.417969 266.566406 216.488281 266.773438 216.566406 267.050781 L 220.238281 267.050781 L 220.238281 298.636719 L 168.242188 298.636719 L 168.242188 294.402344 C 167.972656 294.402344 167.625 294.332031 167.339844 294.332031 L 167.339844 299.121094 C 167.339844 299.398438 167.550781 299.609375 167.828125 299.609375 L 220.730469 299.609375 C 221 299.609375 221.214844 299.398438 221.214844 299.121094 L 221.214844 266.632812 C 221.214844 266.496094 221.140625 266.425781 221.078125 266.355469 L 321.445312 266.355469 Z M 324.222656 342.507812 C 317.421875 344.726562 314.09375 346.324219 314.234375 347.226562 C 314.441406 348.40625 320.34375 348.617188 331.933594 347.714844 C 331.859375 345.976562 331.859375 344.242188 331.796875 342.507812 Z M 339.433594 216.65625 C 339.703125 216.933594 340.535156 217.695312 340.675781 219.015625 C 340.960938 221.097656 339.285156 222.554688 339.148438 222.695312 C 339.007812 223.320312 338.875 224.011719 338.800781 224.777344 C 338.738281 225.609375 338.738281 226.375 338.738281 227.136719 C 343.042969 226.859375 346.574219 224.011719 347.554688 220.265625 C 348.867188 214.917969 343.945312 210.960938 343.3125 210.40625 C 338.53125 206.589844 332.554688 208.464844 331.996094 208.671875 L 331.996094 214.363281 C 332.835938 213.53125 333.671875 212.976562 334.148438 212.699219 C 334.148438 212.976562 334.363281 214.917969 336.164062 216.097656 C 337.621094 216.933594 339.085938 216.722656 339.433594 216.65625 Z M 142.699219 253.929688 C 142.429688 253.929688 142.210938 254.140625 142.210938 254.417969 C 142.210938 254.695312 142.429688 254.902344 142.699219 254.902344 L 320.960938 254.902344 C 324.429688 254.902344 327.632812 253.375 329.851562 250.667969 C 329.984375 250.460938 329.984375 250.183594 329.777344 250.042969 C 329.566406 249.90625 329.289062 249.90625 329.160156 250.113281 C 327.136719 252.613281 324.160156 254 321.035156 254 L 142.699219 254 Z M 215.871094 261.289062 L 162.96875 261.289062 L 189.414062 276.144531 Z M 86.261719 242.964844 L 131.382812 242.964844 L 131.382812 239.699219 L 86.261719 239.699219 Z M 85.367188 243.449219 L 85.367188 239.285156 C 85.367188 239.007812 85.570312 238.796875 85.851562 238.796875 L 131.875 238.796875 C 132.148438 238.796875 132.363281 239.007812 132.363281 239.285156 L 132.363281 243.449219 C 132.363281 243.726562 132.148438 243.9375 131.875 243.9375 L 85.851562 243.9375 C 85.570312 243.9375 85.367188 243.726562 85.367188 243.449219 Z M 303.191406 147.933594 L 250.640625 147.933594 L 250.640625 151.957031 L 303.191406 151.957031 Z M 304.09375 147.03125 L 304.09375 152.859375 L 249.738281 152.859375 L 249.738281 147.03125 Z M 345.535156 338.898438 C 340.328125 343.546875 338.042969 346.324219 338.660156 347.226562 C 339.433594 348.40625 344.492188 346.8125 353.933594 342.507812 C 353.585938 341.328125 353.238281 340.078125 352.890625 338.898438 Z M 86.261719 258.652344 L 131.382812 258.652344 L 131.382812 255.390625 L 86.261719 255.390625 Z M 85.367188 254.902344 C 85.367188 254.625 85.570312 254.417969 85.851562 254.417969 L 131.875 254.417969 C 132.148438 254.417969 132.363281 254.625 132.363281 254.902344 L 132.363281 259.070312 C 132.363281 259.347656 132.148438 259.554688 131.875 259.554688 L 85.851562 259.554688 C 85.570312 259.554688 85.367188 259.347656 85.367188 259.070312 Z M 353.933594 249.558594 L 348.59375 249.558594 C 348.65625 249.835938 348.59375 250.183594 348.457031 250.460938 L 354.28125 250.460938 C 354.070312 250.253906 354.007812 250.042969 354.007812 249.765625 C 354.007812 249.695312 353.933594 249.628906 353.933594 249.558594 Z M 86.261719 250.808594 L 131.382812 250.808594 L 131.382812 247.546875 L 86.261719 247.546875 Z M 85.367188 247.128906 C 85.367188 246.851562 85.570312 246.644531 85.851562 246.644531 L 131.875 246.644531 C 132.148438 246.644531 132.363281 246.851562 132.363281 247.128906 L 132.363281 251.292969 C 132.363281 251.570312 132.148438 251.78125 131.875 251.78125 L 85.851562 251.78125 C 85.570312 251.78125 85.367188 251.570312 85.367188 251.292969 Z M 212.671875 242.964844 C 212.398438 241.992188 212.253906 241.019531 212.253906 239.980469 L 212.253906 172.644531 C 209.476562 175.976562 206.5 177.921875 203.230469 178.335938 C 198.09375 179.03125 194.492188 175.699219 191.019531 172.503906 C 187.820312 169.589844 184.558594 166.535156 180.121094 166.398438 C 174.769531 166.1875 171.507812 170.144531 167.828125 174.726562 C 164.15625 179.308594 159.914062 184.515625 152.703125 185.625 C 146.726562 186.597656 142.210938 184.167969 137.914062 181.808594 C 133.464844 179.378906 129.238281 177.15625 123.402344 178.199219 C 117.015625 179.378906 111.320312 184.027344 106.332031 192.152344 L 131.105469 192.152344 C 137.222656 192.152344 142.210938 197.148438 142.210938 203.257812 L 142.210938 243.03125 L 212.671875 243.03125 Z M 141.246094 203.742188 C 141.246094 197.84375 136.449219 193.054688 130.550781 193.054688 L 31.980469 193.054688 C 26.011719 193.054688 21.152344 197.914062 21.152344 203.882812 L 21.152344 210.128906 L 141.246094 210.128906 Z M 58.703125 169.660156 L 58.703125 123.289062 L 58.496094 123.082031 L 42.601562 123.082031 L 42.601562 106.628906 L 42.390625 106.421875 L 11.292969 106.421875 L 11.292969 169.589844 L 58.703125 169.589844 Z M 370.246094 147.585938 L 370.246094 239.980469 C 370.246094 244.558594 367.261719 248.449219 363.171875 249.90625 C 363.234375 249.558594 363.234375 249.28125 363.097656 248.933594 C 366.707031 247.546875 369.34375 244.074219 369.34375 239.980469 L 369.34375 147.585938 C 369.34375 142.308594 365.039062 138.003906 359.765625 138.003906 L 222.734375 138.003906 C 217.460938 138.003906 213.15625 142.308594 213.15625 147.585938 L 213.15625 239.980469 C 213.15625 245.253906 217.460938 249.558594 222.734375 249.558594 L 321.308594 249.558594 C 321.175781 249.835938 321.175781 250.183594 321.238281 250.460938 L 222.734375 250.460938 C 218.300781 250.460938 214.480469 247.683594 212.949219 243.796875 C 212.886719 243.867188 212.808594 243.867188 212.671875 243.867188 L 142.144531 243.867188 L 142.144531 260.804688 C 142.144531 262.398438 141.796875 263.925781 141.246094 265.316406 L 162.828125 265.316406 C 162.765625 265.59375 162.765625 265.941406 162.765625 266.21875 L 140.824219 266.21875 C 138.878906 269.898438 135.0625 272.328125 130.628906 272.328125 L 35.589844 272.328125 C 35.316406 272.328125 35.105469 272.117188 35.105469 271.839844 C 35.105469 271.5625 35.316406 271.355469 35.589844 271.355469 L 130.550781 271.355469 C 136.453125 271.355469 141.25 266.566406 141.25 260.664062 L 141.25 210.894531 L 21.160156 210.894531 L 21.15625 234.703125 C 22.472656 233.800781 24.210938 232.898438 26.363281 232.480469 C 31.570312 231.648438 35.316406 234.355469 36.011719 234.84375 L 33.511719 239.355469 L 33.441406 239.421875 C 33.371094 238.519531 33.304688 237.757812 33.234375 237.132812 C 32.679688 238.105469 31.289062 240.046875 28.859375 241.4375 C 27.125 242.410156 25.527344 242.753906 24.484375 242.894531 C 23.652344 243.242188 23.097656 243.933594 22.960938 244.769531 C 22.820312 245.808594 23.445312 246.851562 24.484375 247.265625 L 24.484375 250.667969 C 23.792969 250.320312 22.402344 249.488281 21.085938 248.101562 L 21.085938 254 C 21.085938 254.277344 20.878906 254.488281 20.601562 254.488281 C 20.320312 254.488281 20.113281 254.277344 20.113281 254 L 20.113281 248.238281 C 20.113281 247.960938 20.320312 247.753906 20.601562 247.753906 C 20.667969 247.753906 20.738281 247.753906 20.808594 247.824219 C 20.390625 247.335938 19.972656 246.78125 19.558594 246.085938 C 17.199219 242.128906 18.101562 238.105469 18.378906 237.203125 C 18.65625 236.855469 19.28125 236.089844 20.253906 235.257812 C 20.183594 235.1875 20.113281 235.050781 20.113281 234.980469 L 20.113281 203.605469 C 20.113281 197.21875 25.320312 192.011719 31.707031 192.011719 L 42.1875 192.011719 L 42.1875 170.492188 L 10.8125 170.492188 C 10.535156 170.492188 10.328125 170.285156 10.328125 170.007812 L 10.328125 105.933594 C 10.328125 105.65625 10.535156 105.449219 10.8125 105.449219 L 42.605469 105.449219 C 42.742188 105.449219 42.8125 105.519531 42.953125 105.589844 L 59.472656 122.664062 C 59.542969 122.734375 59.613281 122.871094 59.613281 123.011719 L 59.613281 170.007812 C 59.613281 170.285156 59.402344 170.492188 59.128906 170.492188 L 43.089844 170.492188 L 43.089844 192.011719 L 77.65625 192.011719 L 77.65625 111.210938 C 77.65625 105.101562 82.65625 100.105469 88.765625 100.105469 L 97.441406 100.105469 C 97.441406 100.382812 97.515625 100.730469 97.578125 101.007812 L 89.042969 101.007812 C 83.285156 101.007812 78.566406 105.726562 78.566406 111.488281 L 78.566406 122.664062 L 89.882812 122.664062 C 91.964844 121.691406 95.359375 120.441406 100.085938 118.917969 C 102.300781 119.125 104.460938 119.332031 106.679688 119.539062 C 106.542969 120.859375 106.464844 122.179688 106.332031 123.496094 C 106.394531 123.21875 106.464844 122.941406 106.542969 122.664062 L 144.921875 122.664062 L 144.921875 119.820312 C 147.351562 119.957031 149.78125 120.164062 152.210938 120.304688 C 156.375 121.554688 159.359375 122.527344 161.171875 123.359375 C 160.824219 123.082031 160.476562 122.871094 159.992188 122.664062 L 321.734375 122.664062 L 321.734375 111.488281 C 321.734375 105.726562 317.011719 101.007812 311.246094 101.007812 L 156.238281 101.007812 C 156.3125 100.730469 156.3125 100.382812 156.3125 100.105469 L 311.9375 100.105469 C 317.914062 100.105469 322.773438 104.964844 322.773438 110.933594 L 322.773438 133.285156 C 322.773438 133.5625 322.566406 133.769531 322.28125 133.769531 C 322.003906 133.769531 321.796875 133.5625 321.796875 133.285156 L 321.796875 123.636719 L 161.726562 123.636719 C 162.769531 124.191406 163.316406 124.609375 163.253906 124.957031 C 163.039062 126.136719 156.929688 126.273438 144.921875 125.511719 L 144.921875 123.636719 L 106.332031 123.636719 C 106.332031 123.914062 106.257812 124.191406 106.257812 124.46875 C 93.839844 125.789062 87.515625 125.925781 87.242188 124.746094 C 87.167969 124.46875 87.515625 124.121094 88.144531 123.636719 L 78.492188 123.636719 L 78.492188 192.21875 L 105.078125 192.21875 C 110.28125 183.613281 116.324219 178.613281 123.125 177.363281 C 129.304688 176.253906 133.816406 178.683594 138.1875 181.042969 C 142.5625 183.402344 146.65625 185.625 152.355469 184.722656 C 159.222656 183.613281 163.179688 178.824219 166.933594 174.101562 C 170.605469 169.519531 174.144531 165.21875 179.976562 165.425781 C 184.773438 165.632812 188.167969 168.757812 191.5 171.8125 C 195.046875 175.003906 198.308594 178.058594 203.03125 177.433594 C 206.292969 177.019531 209.339844 174.867188 212.195312 171.1875 L 212.195312 147.585938 C 212.195312 141.824219 216.914062 137.101562 222.667969 137.101562 L 331.375 137.101562 L 331.375 100.242188 C 331.375 94.410156 326.65625 89.691406 320.832031 89.691406 L 156.722656 89.691406 C 156.722656 89.414062 156.660156 89.066406 156.582031 88.789062 L 320.960938 88.789062 C 321.65625 88.789062 322.351562 88.859375 322.976562 88.996094 C 322.082031 88.304688 320.832031 86.289062 319.226562 83.027344 C 319.019531 81.570312 318.8125 80.042969 318.609375 78.585938 L 323.953125 78.585938 C 324.78125 85.179688 324.710938 88.71875 323.816406 89.207031 C 328.738281 90.457031 332.347656 94.96875 332.347656 100.242188 L 332.347656 137.101562 L 359.765625 137.101562 C 365.605469 137.101562 370.25 141.824219 370.25 147.585938 Z M 39.691406 357.777344 C 38.230469 357.433594 36.289062 356.808594 34 355.488281 L 27.40625 355.488281 L 27.40625 361.386719 C 32.75 361.386719 38.164062 361.320312 43.507812 361.320312 C 43.507812 360.765625 43.4375 360 43.023438 359.375 C 42.257812 358.195312 40.871094 358.054688 39.691406 357.777344 Z M 250.640625 160.773438 L 340.125 160.773438 L 340.125 157.71875 L 250.640625 157.71875 Z M 249.738281 156.886719 L 341.023438 156.886719 L 341.023438 161.746094 L 249.738281 161.746094 Z M 122.359375 30.757812 C 122.21875 30.546875 122.082031 30.34375 122.011719 30.132812 C 119.867188 26.105469 122.914062 21.386719 123.125 21.039062 C 124.304688 22.078125 125.832031 23.332031 127.851562 24.441406 C 129.507812 25.34375 131.105469 25.96875 132.363281 26.382812 C 132.496094 27.078125 132.570312 28.398438 132.148438 29.855469 C 131.800781 30.964844 131.246094 31.867188 130.757812 32.492188 C 131.382812 32.144531 135.832031 29.578125 136.527344 24.441406 C 136.875 21.734375 136.449219 16.597656 132.496094 14.863281 C 129.648438 13.613281 125.976562 14.515625 123.402344 17.152344 C 122.851562 17.011719 119.730469 16.527344 117.644531 18.402344 C 114.871094 20.902344 115.488281 25.96875 118.054688 28.609375 C 119.582031 30.132812 121.464844 30.621094 122.359375 30.757812 Z M 110.417969 101.007812 L 143.53125 101.007812 L 143.53125 100.105469 L 110.558594 100.105469 C 110.558594 100.382812 110.496094 100.730469 110.417969 101.007812 Z M 332.34375 80.875 C 341.023438 80.875 348.109375 87.957031 348.109375 96.632812 L 348.109375 133.492188 L 349.003906 133.492188 L 349.003906 96.632812 C 349.003906 87.46875 341.515625 79.976562 332.34375 79.976562 L 324.160156 79.976562 C 324.222656 80.25 324.222656 80.597656 324.222656 80.875 Z M 319.996094 54.289062 C 319.917969 53.386719 315.335938 52.832031 306.175781 52.621094 L 304.785156 55.957031 L 308.257812 57.691406 C 316.175781 56.300781 320.058594 55.121094 319.996094 54.289062 Z M 152.703125 80.667969 C 152.765625 80.738281 152.765625 80.808594 152.839844 80.875 L 203.027344 80.875 L 204.6875 84.554688 L 224.609375 84.554688 L 224.609375 83.027344 L 221.910156 82.472656 L 205.945312 82.472656 L 198.167969 64.148438 L 195.53125 64.148438 L 202.535156 79.902344 L 152.207031 79.902344 C 152.417969 80.179688 152.554688 80.390625 152.703125 80.667969 Z M 143.046875 77.472656 L 145.683594 59.007812 L 108.335938 59.007812 L 111.113281 77.472656 Z M 17.824219 355.488281 C 16.644531 355.070312 14.976562 354.167969 13.3125 352.363281 L 5.886719 352.363281 L 5.257812 358.472656 C 10.746094 359.027344 16.15625 359.652344 21.644531 360.207031 C 21.710938 359.238281 21.710938 357.988281 20.878906 357.015625 C 20.046875 356.042969 19.074219 355.90625 17.824219 355.488281 Z M 43.089844 96.632812 C 43.089844 87.957031 50.171875 80.875 58.847656 80.875 L 103.210938 80.875 C 103.621094 80.527344 103.96875 80.25 104.460938 79.976562 L 58.847656 79.976562 C 49.6875 79.976562 42.1875 87.46875 42.1875 96.632812 L 42.1875 105.171875 C 42.535156 105.308594 42.816406 105.519531 43.089844 105.796875 Z M 66.484375 100.3125 L 66.484375 191.59375 C 66.484375 191.875 66.691406 192.082031 66.972656 192.082031 C 67.25 192.082031 67.457031 191.875 67.457031 191.59375 L 67.457031 100.3125 C 67.457031 94.480469 72.179688 89.761719 78.003906 89.761719 L 97.863281 89.761719 C 97.925781 89.484375 98.003906 89.136719 98.066406 88.859375 L 78.003906 88.859375 C 71.625 88.859375 66.484375 93.996094 66.484375 100.3125 Z M 139.234375 89.273438 C 139.234375 89.414062 139.171875 89.621094 139.171875 89.761719 L 117.789062 89.761719 C 118.136719 89.484375 118.484375 89.207031 118.753906 88.859375 L 138.675781 88.859375 C 138.824219 88.996094 139.023438 89.136719 139.234375 89.273438 Z M 143.257812 100.105469 L 110.425781 100.105469 L 110.425781 101.007812 L 143.1875 101.007812 C 143.1875 100.730469 143.1875 100.382812 143.257812 100.105469 Z M 52.808594 158.761719 L 52.808594 157.929688 C 52.808594 157.234375 52.253906 156.679688 51.558594 156.679688 L 18.101562 156.679688 C 17.40625 156.679688 16.851562 157.234375 16.851562 157.929688 L 16.851562 158.761719 C 16.851562 159.457031 17.40625 160.011719 18.101562 160.011719 L 51.558594 160.011719 C 52.253906 160.011719 52.808594 159.457031 52.808594 158.761719 Z M 52.808594 149.667969 L 52.808594 148.835938 C 52.808594 148.140625 52.253906 147.585938 51.558594 147.585938 L 18.101562 147.585938 C 17.40625 147.585938 16.851562 148.140625 16.851562 148.835938 L 16.851562 149.667969 C 16.851562 150.363281 17.40625 150.917969 18.101562 150.917969 L 51.558594 150.917969 C 52.253906 150.988281 52.808594 150.363281 52.808594 149.667969 Z M 52.808594 140.644531 L 52.808594 139.8125 C 52.808594 139.117188 52.253906 138.5625 51.558594 138.5625 L 18.101562 138.5625 C 17.40625 138.5625 16.851562 139.117188 16.851562 139.8125 L 16.851562 140.644531 C 16.851562 141.335938 17.40625 141.894531 18.101562 141.894531 L 51.558594 141.894531 C 52.253906 141.960938 52.808594 141.335938 52.808594 140.644531 Z M 52.808594 132.453125 L 52.808594 131.621094 C 52.808594 130.925781 52.253906 130.371094 51.558594 130.371094 L 18.101562 130.371094 C 17.40625 130.371094 16.851562 130.925781 16.851562 131.621094 L 16.851562 132.453125 C 16.851562 133.148438 17.40625 133.703125 18.101562 133.703125 L 51.558594 133.703125 C 52.253906 133.703125 52.808594 133.148438 52.808594 132.453125 Z M 34.484375 119.125 L 18.101562 119.125 C 17.40625 119.125 16.851562 118.570312 16.851562 117.875 L 16.851562 117.042969 C 16.851562 116.347656 17.40625 115.792969 18.101562 115.792969 L 34.414062 115.792969 C 35.109375 115.792969 35.664062 116.347656 35.664062 117.042969 L 35.664062 117.875 C 35.734375 118.5 35.179688 119.125 34.484375 119.125 " fill-opacity="1" fill-rule="nonzero"/></g><path fill="#0f0e0c" d="M 154.921875 85.457031 C 153.25 81.710938 150.195312 78.652344 145.820312 76.363281 L 143.46875 77.820312 C 143.394531 77.890625 143.332031 77.890625 143.253906 77.890625 L 111.398438 77.890625 C 107.644531 78.933594 102.644531 81.222656 99.867188 85.941406 C 98.480469 88.371094 98 90.941406 98.132812 100.3125 C 98.210938 106.28125 98.554688 112.320312 99.042969 118.359375 L 108.128906 119.261719 L 110.28125 93.996094 C 110.28125 93.855469 110.355469 93.71875 110.496094 93.648438 L 127.851562 82.058594 C 127.980469 81.988281 128.199219 81.988281 128.328125 82.058594 L 143.738281 91.011719 C 143.878906 91.082031 143.949219 91.21875 143.949219 91.425781 L 144.371094 119.332031 L 153.945312 119.957031 C 154.707031 113.222656 155.332031 106.421875 155.824219 99.757812 C 156.441406 91.984375 156.519531 88.996094 154.921875 85.457031 Z M 155.75 85.109375 C 157.414062 88.789062 157.351562 91.914062 156.71875 99.757812 C 156.171875 106.558594 155.539062 113.570312 154.785156 120.441406 C 154.785156 120.652344 154.574219 120.859375 154.292969 120.859375 L 143.816406 120.164062 C 143.601562 120.164062 143.394531 119.957031 143.394531 119.75 L 142.984375 91.636719 L 128.058594 82.957031 L 111.113281 94.273438 L 108.96875 119.820312 C 108.96875 119.957031 108.894531 120.027344 108.824219 120.097656 C 108.761719 120.164062 108.621094 120.234375 108.476562 120.164062 L 98.554688 119.195312 C 98.347656 119.195312 98.132812 118.984375 98.132812 118.777344 C 97.578125 112.597656 97.308594 106.421875 97.167969 100.3125 C 97.023438 90.734375 97.515625 88.09375 99.042969 85.457031 C 101.949219 80.460938 107.234375 78.097656 111.113281 76.988281 L 143.046875 76.988281 L 145.550781 75.460938 C 145.683594 75.390625 145.820312 75.390625 146.03125 75.460938 C 150.679688 77.820312 153.945312 81.082031 155.75 85.109375 Z M 72.585938 237.6875 C 72.449219 237.480469 72.242188 237.339844 71.894531 237.339844 L 71.832031 237.339844 C 70.582031 237.339844 67.59375 238.589844 65.71875 241.089844 C 64.332031 243.03125 64.050781 245.253906 64.050781 246.710938 C 64.050781 246.988281 64.261719 247.199219 64.539062 247.128906 C 64.816406 247.128906 65.027344 246.921875 64.953125 246.644531 C 64.953125 245.324219 65.164062 243.3125 66.414062 241.574219 C 67.941406 239.421875 70.503906 238.382812 71.484375 238.242188 C 71.136719 238.660156 70.15625 239.632812 67.523438 241.714844 C 67.382812 241.851562 67.316406 241.992188 67.382812 242.199219 C 67.453125 242.339844 67.59375 242.476562 67.730469 242.546875 C 69.257812 242.894531 70.851562 243.589844 70.929688 244.144531 C 70.929688 244.351562 70.582031 244.769531 69.671875 245.53125 C 68.632812 246.433594 67.59375 247.199219 66.480469 247.960938 C 66.273438 248.101562 66.203125 248.378906 66.34375 248.585938 C 66.414062 248.726562 66.550781 248.792969 66.691406 248.792969 C 66.761719 248.792969 66.898438 248.792969 66.96875 248.726562 C 68.078125 247.960938 69.191406 247.128906 70.234375 246.226562 C 71.40625 245.183594 71.832031 244.699219 71.832031 244.144531 C 71.753906 242.964844 70.09375 242.269531 68.84375 241.921875 C 72.796875 238.796875 72.871094 238.175781 72.585938 237.6875 Z M 319.015625 78.515625 C 319.015625 78.308594 318.808594 78.167969 318.605469 78.097656 L 298.613281 76.851562 L 308.605469 57.898438 C 308.679688 57.761719 308.679688 57.691406 308.605469 57.550781 C 308.542969 57.414062 308.464844 57.34375 308.394531 57.273438 L 304.4375 55.261719 C 304.230469 55.191406 304.03125 55.191406 303.882812 55.398438 L 290.765625 73.867188 L 271.675781 71.226562 C 271.402344 71.15625 271.195312 71.363281 271.195312 71.644531 C 271.121094 71.921875 271.328125 72.128906 271.605469 72.128906 L 290.980469 74.835938 C 291.1875 74.835938 291.328125 74.769531 291.390625 74.628906 L 304.4375 56.300781 L 307.640625 57.898438 L 297.636719 76.78125 L 279.242188 74.835938 C 278.964844 74.835938 278.753906 74.972656 278.753906 75.253906 C 278.753906 75.53125 278.894531 75.738281 279.179688 75.738281 L 297.921875 77.683594 L 318.261719 79 L 318.953125 83.929688 L 299.578125 83.929688 L 265.078125 84.070312 C 264.808594 84.070312 264.601562 84.277344 264.601562 84.554688 C 264.601562 84.832031 264.808594 85.039062 265.078125 85.039062 L 299.578125 84.902344 L 319.503906 84.902344 C 319.648438 84.902344 319.789062 84.832031 319.851562 84.761719 C 319.917969 84.695312 319.996094 84.554688 319.996094 84.417969 Z M 334.019531 288.847656 Z M 348.867188 315.15625 L 354.007812 338.757812 C 354.007812 338.898438 354.007812 339.035156 353.933594 339.175781 C 353.863281 339.3125 353.726562 339.3125 353.585938 339.3125 L 345.601562 339.3125 C 345.394531 339.3125 345.1875 339.175781 345.1875 338.96875 L 338.800781 316.890625 L 334.574219 291.761719 L 331.371094 312.589844 L 332.34375 342.4375 C 332.34375 342.578125 332.28125 342.714844 332.207031 342.785156 C 332.144531 342.855469 331.996094 342.921875 331.859375 342.921875 L 324.222656 342.921875 C 324.015625 342.921875 323.8125 342.785156 323.738281 342.507812 L 319.710938 315.085938 L 321.175781 274.203125 C 321.175781 273.921875 321.382812 273.785156 321.65625 273.785156 C 321.933594 273.785156 322.078125 273.992188 322.078125 274.269531 L 320.542969 315.085938 L 324.507812 342.089844 L 331.242188 342.089844 L 330.261719 312.65625 L 333.941406 288.988281 L 333.941406 282.183594 C 333.941406 281.90625 334.148438 281.699219 334.425781 281.699219 C 334.710938 281.699219 334.921875 281.90625 334.921875 282.183594 L 334.921875 288.988281 L 334.921875 288.917969 C 334.921875 288.777344 334.84375 288.710938 334.773438 288.640625 L 334.921875 288.917969 L 334.921875 289.054688 L 334.921875 288.917969 L 339.632812 316.683594 L 345.882812 338.410156 L 352.96875 338.410156 L 347.964844 315.296875 L 346.226562 274.824219 C 346.226562 274.546875 346.4375 274.339844 346.644531 274.339844 C 346.921875 274.339844 347.128906 274.546875 347.128906 274.757812 Z M 365.601562 273.019531 C 365.601562 272.742188 365.316406 272.605469 365.117188 272.605469 C 364.832031 272.605469 364.691406 272.882812 364.691406 273.089844 C 365.664062 282.738281 364.832031 283.710938 364.691406 283.78125 C 364.625 283.78125 363.726562 283.640625 360.953125 277.464844 C 360.875 277.253906 360.667969 277.1875 360.527344 277.1875 C 360.320312 277.1875 360.179688 277.324219 360.113281 277.53125 C 359.910156 278.296875 359.703125 278.851562 359.5625 279.199219 C 359.488281 278.4375 359.417969 276.839844 359.625 273.4375 C 359.625 273.160156 359.417969 272.953125 359.214844 272.953125 C 358.929688 272.882812 358.722656 273.160156 358.722656 273.367188 C 358.375 280.449219 358.867188 280.519531 359.355469 280.585938 C 359.765625 280.65625 360.113281 280.378906 360.605469 278.921875 C 362.824219 283.78125 363.867188 284.753906 364.625 284.753906 L 364.832031 284.753906 C 365.808594 284.476562 366.566406 282.878906 365.601562 273.019531 Z M 248.980469 64.839844 C 248.210938 64.007812 246.960938 63.660156 245.226562 63.730469 C 244.949219 63.800781 242.519531 64.355469 242.449219 67.964844 C 242.386719 72.128906 242.449219 77.890625 242.449219 77.957031 C 242.449219 78.167969 242.3125 78.375 242.039062 78.445312 L 224.054688 80.597656 C 220.035156 80.667969 217.808594 80.804688 216.628906 80.945312 C 217.667969 81.152344 219.542969 81.363281 222.734375 81.710938 C 222.949219 81.710938 223.082031 81.914062 223.160156 82.125 C 223.160156 82.332031 223.082031 82.542969 222.875 82.609375 C 222.667969 82.679688 222.390625 82.816406 222.257812 82.890625 C 222.527344 82.890625 222.734375 82.816406 223.011719 82.816406 C 223.570312 82.75 224.125 82.679688 224.6875 82.609375 C 225.511719 82.542969 226.207031 82.472656 226.902344 82.472656 C 228.773438 82.472656 230.238281 82.75 231.898438 83.097656 C 233.710938 83.445312 235.714844 83.859375 238.839844 84 L 238.980469 84 C 243.003906 84.136719 245.089844 84.207031 246.476562 83.027344 C 247.457031 82.195312 247.59375 81.222656 248.765625 74.074219 C 249.738281 67.480469 249.945312 65.882812 248.980469 64.839844 Z M 241 60.605469 C 240.304688 60.539062 239.265625 60.257812 238.355469 59.425781 C 237.875 59.007812 237.527344 58.453125 237.242188 57.898438 L 237.242188 57.761719 C 237.242188 57.621094 237.105469 56.925781 236.488281 56.441406 C 235.792969 55.953125 235.097656 56.164062 234.882812 56.230469 C 234.058594 56.785156 232.730469 57.480469 230.996094 57.691406 C 229.675781 57.828125 228.566406 57.621094 227.671875 57.34375 C 227.941406 58.59375 228.429688 59.773438 229.199219 60.8125 C 229.753906 61.644531 230.996094 63.3125 233.289062 63.867188 C 235.023438 64.285156 236.621094 63.800781 237.390625 63.453125 C 237.453125 63.453125 237.527344 63.382812 237.589844 63.382812 C 237.660156 63.382812 237.738281 63.382812 237.800781 63.453125 C 237.9375 63.519531 238.007812 63.660156 238.007812 63.730469 L 238.777344 67.0625 C 239.394531 66.992188 240.304688 66.785156 241 66.019531 C 242.039062 64.839844 242.101562 62.550781 241 60.605469 Z M 249.601562 64.214844 C 250.925781 65.601562 250.640625 67.617188 249.539062 74.140625 C 248.289062 81.566406 248.074219 82.609375 246.898438 83.582031 C 245.71875 84.625 244.253906 84.902344 241.964844 84.902344 C 241.0625 84.902344 240.019531 84.832031 238.777344 84.832031 L 238.632812 84.832031 C 235.445312 84.691406 233.363281 84.277344 231.550781 83.929688 C 229.332031 83.445312 227.671875 83.097656 224.6875 83.445312 C 224.125 83.511719 223.570312 83.582031 223.011719 83.652344 C 220.929688 83.929688 220.175781 84.066406 220.035156 83.445312 C 219.960938 83.097656 220.097656 82.816406 220.867188 82.472656 C 214.335938 81.777344 214.335938 81.429688 214.335938 80.945312 C 214.335938 80.386719 214.40625 79.972656 223.914062 79.765625 L 241.476562 77.683594 C 241.476562 76.292969 241.410156 71.574219 241.476562 68.03125 C 241.476562 67.480469 241.554688 66.992188 241.695312 66.503906 C 241.617188 66.574219 241.554688 66.714844 241.476562 66.785156 C 240.4375 67.894531 238.980469 68.03125 238.222656 68.101562 C 238.007812 68.101562 237.800781 67.964844 237.800781 67.753906 L 237.105469 64.5625 C 236.0625 64.90625 234.613281 65.1875 232.941406 64.769531 C 230.300781 64.144531 228.914062 62.203125 228.289062 61.371094 C 227.324219 60.046875 226.691406 58.382812 226.484375 56.71875 C 226.484375 56.578125 226.554688 56.371094 226.691406 56.300781 C 226.832031 56.230469 226.976562 56.164062 227.117188 56.230469 C 227.871094 56.578125 229.199219 56.925781 230.71875 56.785156 C 232.324219 56.648438 233.496094 55.953125 234.265625 55.46875 C 234.265625 55.46875 234.328125 55.398438 234.40625 55.398438 C 234.613281 55.332031 235.792969 54.984375 236.898438 55.679688 C 237.800781 56.300781 238.007812 57.203125 238.082031 57.550781 C 238.285156 58.035156 238.570312 58.382812 238.917969 58.730469 C 239.742188 59.496094 240.714844 59.632812 241.269531 59.703125 C 241.410156 59.703125 241.554688 59.773438 241.617188 59.910156 C 242.519531 61.371094 242.867188 62.96875 242.597656 64.421875 C 243.636719 63.035156 245.089844 62.824219 245.089844 62.824219 L 245.164062 62.824219 C 247.171875 62.757812 248.636719 63.171875 249.601562 64.214844 Z M 24.074219 247.683594 L 24.074219 254.207031 C 24.074219 254.484375 24.28125 254.691406 24.558594 254.691406 C 24.832031 254.691406 25.042969 254.484375 25.042969 254.207031 L 25.042969 247.402344 C 25.042969 247.195312 24.90625 247.058594 24.765625 246.988281 C 23.933594 246.640625 23.378906 245.808594 23.515625 244.976562 C 23.585938 244.351562 24.074219 243.792969 24.695312 243.515625 C 26.292969 243.308594 27.820312 242.824219 29.207031 242.058594 C 30.941406 241.085938 32.195312 239.835938 33.027344 238.726562 C 33.097656 239.421875 33.097656 240.046875 33.097656 240.742188 C 33.164062 244.488281 33.164062 246.5 31.917969 247.960938 C 31.359375 248.652344 30.527344 249.140625 29.488281 249.488281 C 29.277344 249.554688 29.140625 249.695312 29.140625 249.902344 L 29.140625 254.277344 C 29.140625 254.554688 29.347656 254.761719 29.625 254.761719 C 29.902344 254.761719 30.109375 254.554688 30.109375 254.277344 L 30.109375 250.25 C 31.152344 249.902344 31.984375 249.277344 32.609375 248.585938 C 34.136719 246.78125 34.136719 244.351562 34.066406 240.742188 C 34.066406 239.628906 34 238.519531 33.859375 237.410156 C 33.859375 237.199219 33.71875 237.0625 33.511719 236.992188 C 33.304688 236.921875 33.097656 237.0625 33.027344 237.199219 C 32.332031 238.378906 31.015625 240.117188 28.792969 241.296875 C 27.472656 241.988281 26.085938 242.476562 24.558594 242.683594 L 24.417969 242.683594 C 23.445312 243.03125 22.75 243.933594 22.613281 244.90625 C 22.335938 245.945312 22.960938 247.058594 24.074219 247.683594 Z M 123.546875 32.558594 L 122.777344 38.667969 C 122.777344 38.945312 122.914062 39.15625 123.199219 39.15625 C 123.402344 39.15625 123.683594 39.015625 123.683594 38.738281 L 124.441406 32.351562 C 124.441406 32.210938 124.378906 32.003906 124.304688 31.933594 C 123.546875 31.378906 122.914062 30.617188 122.566406 29.851562 C 120.910156 26.660156 122.707031 22.980469 123.402344 21.660156 C 124.789062 22.839844 126.246094 23.882812 127.851562 24.785156 C 129.238281 25.546875 130.6875 26.175781 132.222656 26.660156 C 132.363281 27.699219 132.285156 28.742188 131.9375 29.644531 C 131.453125 31.238281 130.550781 32.28125 129.855469 32.835938 C 129.71875 32.90625 129.71875 33.046875 129.71875 33.183594 L 129.996094 38.667969 C 129.996094 38.945312 130.203125 39.082031 130.488281 39.082031 C 130.757812 39.082031 130.898438 38.875 130.898438 38.597656 L 130.628906 33.320312 C 131.382812 32.628906 132.285156 31.519531 132.839844 29.851562 C 133.1875 28.671875 133.328125 27.355469 133.117188 26.101562 C 133.117188 25.964844 132.980469 25.828125 132.839844 25.757812 C 131.320312 25.269531 129.792969 24.644531 128.40625 23.8125 C 126.734375 22.910156 125.136719 21.730469 123.746094 20.480469 C 123.683594 20.410156 123.546875 20.339844 123.402344 20.339844 C 123.261719 20.339844 123.121094 20.410156 123.054688 20.550781 C 122.707031 21.105469 119.652344 25.894531 121.875 30.128906 C 122.15625 31.171875 122.777344 31.933594 123.546875 32.558594 Z M 37.46875 323.902344 L 34.550781 297.800781 C 31.152344 296.691406 27.609375 296.066406 24.074219 295.925781 C 19.976562 295.71875 15.949219 296.132812 11.992188 297.105469 L 11.578125 327.371094 L 6.4375 351.875 L 12.964844 351.875 L 19.628906 330.84375 C 19.835938 329.871094 24.210938 306.199219 24.558594 305.019531 C 24.628906 304.8125 24.90625 304.605469 25.113281 304.671875 C 25.320312 304.742188 25.527344 305.019531 25.460938 305.226562 C 25.390625 305.574219 24.90625 307.796875 24.347656 310.921875 L 27.820312 325.289062 L 27.820312 355.070312 L 33.511719 355.070312 Z M 35.457031 297.453125 L 38.371094 323.902344 L 38.371094 324.039062 L 34.414062 355.625 C 34.414062 355.832031 34.207031 356.042969 33.929688 356.042969 L 27.335938 356.042969 C 27.058594 356.042969 26.847656 355.832031 26.847656 355.554688 L 26.847656 325.496094 L 23.726562 313.210938 C 22.683594 318.832031 21.226562 326.261719 20.320312 331.121094 L 13.589844 352.570312 C 13.519531 352.777344 13.378906 352.917969 13.175781 352.917969 L 5.886719 352.917969 C 5.746094 352.917969 5.605469 352.847656 5.539062 352.777344 C 5.46875 352.640625 5.398438 352.5 5.46875 352.429688 L 10.746094 327.441406 L 11.160156 296.96875 C 11.160156 296.757812 11.296875 296.550781 11.507812 296.550781 C 15.671875 295.441406 19.90625 295.023438 24.210938 295.230469 C 27.957031 295.441406 31.636719 296.132812 35.179688 297.246094 C 35.316406 297.105469 35.386719 297.246094 35.457031 297.453125 Z M 4.566406 296.203125 C 4.21875 296.621094 3.871094 297.039062 3.59375 297.523438 C 2.761719 298.773438 2.484375 299.882812 2.207031 300.648438 C 1.996094 301.339844 1.859375 301.828125 1.375 301.828125 C 1.234375 301.828125 1.09375 301.757812 0.957031 301.617188 C 0.332031 300.925781 0.0546875 297.730469 0.125 295.164062 C 0.191406 293.425781 0.46875 291.691406 0.957031 289.957031 C 1.027344 289.75 1.304688 289.539062 1.511719 289.609375 C 1.789062 289.679688 1.925781 289.957031 1.859375 290.164062 C 1.441406 291.832031 1.164062 293.496094 1.09375 295.164062 C 0.957031 297.382812 1.234375 299.328125 1.441406 300.300781 C 1.648438 299.535156 2.066406 298.355469 2.898438 297.039062 C 3.316406 296.34375 3.871094 295.71875 4.425781 295.09375 C 4.496094 295.023438 4.703125 294.953125 4.84375 294.953125 C 4.984375 294.953125 5.121094 295.09375 5.191406 295.164062 C 5.539062 295.789062 5.746094 296.066406 5.886719 296.273438 C 6.023438 295.789062 6.089844 294.46875 5.605469 290.441406 C 5.605469 290.164062 5.746094 289.957031 6.023438 289.957031 C 6.300781 289.886719 6.507812 290.09375 6.507812 290.375 C 7.273438 296.550781 6.785156 297.175781 6.160156 297.382812 C 5.46875 297.453125 5.050781 296.96875 4.566406 296.203125 " fill-opacity="1" fill-rule="nonzero"/><path fill="#10a6a5" d="M 334.019531 230.816406 C 331.796875 231.300781 327.769531 231.789062 322.972656 230.746094 C 317.703125 229.566406 314.019531 226.996094 312.214844 225.539062 L 321.175781 210.960938 L 315.335938 206.9375 C 310.972656 210.960938 308.117188 214.851562 306.382812 217.695312 C 303.683594 221.929688 302.21875 224.222656 302.640625 227.207031 C 303.128906 230.953125 306.25 233.382812 309.507812 235.8125 C 311.589844 237.410156 315.335938 239.839844 320.890625 241.160156 C 321.175781 252.195312 321.445312 263.304688 321.792969 274.339844 C 324.917969 275.3125 329.429688 276.285156 334.921875 276.351562 C 340.613281 276.351562 345.332031 275.3125 348.519531 274.339844 L 348.519531 245.878906 C 349.84375 246.433594 351.988281 247.546875 354.007812 249.765625 C 355.808594 251.710938 356.710938 253.585938 357.273438 254.902344 C 357.683594 261.082031 358.097656 267.328125 358.523438 273.507812 L 366.503906 273.160156 C 366.429688 270.9375 366.296875 267.816406 365.871094 264.066406 C 364.96875 256.359375 364.136719 249.28125 359.765625 242.269531 C 357.890625 239.214844 355.460938 235.328125 350.539062 232.898438 C 345.949219 230.675781 341.578125 230.816406 339.355469 231.023438 C 338.9375 232.203125 337.757812 232.96875 336.578125 232.898438 C 335.328125 232.621094 334.363281 231.855469 334.019531 230.816406 Z M 29.550781 254.140625 L 47.113281 260.039062 L 64.121094 246.363281 L 67.3125 248.65625 C 64.257812 253.308594 61.34375 256.984375 59.121094 259.691406 C 54.675781 264.96875 52.734375 266.355469 50.375 266.914062 C 48.984375 267.257812 47.320312 267.121094 43.988281 266.914062 C 40.726562 266.703125 38.015625 266.355469 36.074219 266.011719 C 35.660156 270.660156 35.449219 275.660156 35.449219 281.003906 C 35.449219 286.835938 35.660156 292.320312 36.074219 297.316406 C 32.117188 297.523438 27.8125 297.59375 23.234375 297.457031 C 19.136719 297.316406 15.25 297.039062 11.640625 296.691406 C 12.265625 292.664062 12.75 288.222656 12.960938 283.292969 C 13.167969 278.574219 13.097656 274.269531 12.820312 270.382812 C 11.015625 273.578125 9.140625 276.769531 7.335938 279.894531 L 6.710938 290.304688 L 0.742188 290.027344 C 0.601562 286.28125 0.949219 280.863281 2.960938 274.6875 C 6.226562 264.828125 12.128906 258.511719 15.320312 255.527344 L 24.550781 254.210938 C 24.621094 254.347656 25.457031 255.457031 26.980469 255.527344 C 28.507812 255.527344 29.480469 254.277344 29.550781 254.140625 " fill-opacity="1" fill-rule="nonzero"/></svg>