<svg xmlns="http://www.w3.org/2000/svg" xmlns:xlink="http://www.w3.org/1999/xlink" width="500" zoomAndPan="magnify" viewBox="0 0 375 374.999991" height="500" preserveAspectRatio="xMidYMid meet" version="1.0"><defs><clipPath id="fff3fc328a"><path d="M 78 34.773438 L 375 34.773438 L 375 340.023438 L 78 340.023438 Z M 78 34.773438 " clip-rule="nonzero"/></clipPath><clipPath id="33a082ee96"><path d="M 0 34.773438 L 308 34.773438 L 308 340.023438 L 0 340.023438 Z M 0 34.773438 " clip-rule="nonzero"/></clipPath><clipPath id="642d7b3d40"><path d="M 22 164 L 364 164 L 364 340.023438 L 22 340.023438 Z M 22 164 " clip-rule="nonzero"/></clipPath><clipPath id="50b9c58aab"><path d="M 48 94 L 338 94 L 338 340.023438 L 48 340.023438 Z M 48 94 " clip-rule="nonzero"/></clipPath><clipPath id="090534e7b7"><path d="M 144 34.773438 L 375 34.773438 L 375 281 L 144 281 Z M 144 34.773438 " clip-rule="nonzero"/></clipPath><clipPath id="3593fb5390"><path d="M 170 34.773438 L 375 34.773438 L 375 214 L 170 214 Z M 170 34.773438 " clip-rule="nonzero"/></clipPath><clipPath id="0769837329"><path d="M 0 34.773438 L 232 34.773438 L 232 281 L 0 281 Z M 0 34.773438 " clip-rule="nonzero"/></clipPath><clipPath id="14ea74578f"><path d="M 0 34.773438 L 205 34.773438 L 205 214 L 0 214 Z M 0 34.773438 " clip-rule="nonzero"/></clipPath></defs><path stroke-linecap="butt" transform="matrix(0.161777, 0, 0, -0.161777, -156.276943, 531.355213)" fill="none" stroke-linejoin="miter" d="M 1396.810001 2433.995294 L 2912.202682 2433.995294 " stroke="#224c8d" stroke-width="50" stroke-opacity="1" stroke-miterlimit="10"/><g clip-path="url(#fff3fc328a)"><path stroke-linecap="butt" transform="matrix(0.161777, 0, 0, -0.161777, -156.276943, 531.355213)" fill="none" stroke-linejoin="miter" d="M 2912.202682 2433.995294 L 2157.403842 1324.20437 " stroke="#224c8d" stroke-width="50" stroke-opacity="1" stroke-miterlimit="10"/></g><g clip-path="url(#33a082ee96)"><path stroke-linecap="butt" transform="matrix(0.161777, 0, 0, -0.161777, -156.276943, 531.355213)" fill="none" stroke-linejoin="miter" d="M 2157.403842 1324.20437 L 1396.810001 2433.995294 " stroke="#224c8d" stroke-width="50" stroke-opacity="1" stroke-miterlimit="10"/></g><path fill="#10a6a5" d="M 248.992188 336.007812 L 136.507812 336.007812 C 136.507812 336.007812 137.964844 280.308594 192.757812 279.289062 C 192.757812 279.289062 248.992188 279.242188 248.992188 336.007812 " fill-opacity="1" fill-rule="nonzero"/><g clip-path="url(#642d7b3d40)"><path stroke-linecap="butt" transform="matrix(0.161777, 0, 0, -0.161777, -156.276943, 531.355213)" fill="none" stroke-linejoin="miter" d="M 2505.103884 1207.507543 L 1809.800384 1207.507543 C 1809.800384 1207.507543 1818.806781 1551.803022 2157.500425 1558.105085 C 2157.500425 1558.105085 2505.103884 1558.394835 2505.103884 1207.507543 Z M 2505.103884 1207.507543 " stroke="#224c8d" stroke-width="50" stroke-opacity="1" stroke-miterlimit="10"/></g><path fill="#10a6a5" d="M 162.796875 238.84375 C 162.796875 222.3125 176.207031 208.902344 192.757812 208.902344 C 209.292969 208.902344 222.703125 222.3125 222.703125 238.84375 C 222.703125 255.394531 209.292969 268.789062 192.757812 268.789062 C 176.207031 268.789062 162.796875 255.394531 162.796875 238.84375 " fill-opacity="1" fill-rule="nonzero"/><g clip-path="url(#50b9c58aab)"><path stroke-linecap="butt" transform="matrix(0.161777, 0, 0, -0.161777, -156.276943, 531.355213)" fill="none" stroke-linejoin="miter" d="M 1972.301862 1808.111073 C 1972.301862 1910.296252 2055.194517 1993.188908 2157.500425 1993.188908 C 2259.70975 1993.188908 2342.602406 1910.296252 2342.602406 1808.111073 C 2342.602406 1705.805165 2259.70975 1623.009093 2157.500425 1623.009093 C 2055.194517 1623.009093 1972.301862 1705.805165 1972.301862 1808.111073 Z M 1972.301862 1808.111073 " stroke="#224c8d" stroke-width="50" stroke-opacity="1" stroke-miterlimit="10"/></g><path fill="#10a6a5" d="M 371.085938 165.933594 L 258.601562 165.933594 C 258.601562 165.933594 260.074219 110.234375 314.851562 109.230469 C 314.851562 109.230469 371.085938 109.179688 371.085938 165.933594 " fill-opacity="1" fill-rule="nonzero"/><g clip-path="url(#090534e7b7)"><path stroke-linecap="butt" transform="matrix(0.161777, 0, 0, -0.161777, -156.276943, 531.355213)" fill="none" stroke-linejoin="miter" d="M 3259.80614 2258.793106 L 2564.502641 2258.793106 C 2564.502641 2258.793106 2573.605621 2603.088585 2912.202682 2609.294065 C 2912.202682 2609.294065 3259.80614 2609.607961 3259.80614 2258.793106 Z M 3259.80614 2258.793106 " stroke="#224c8d" stroke-width="50" stroke-opacity="1" stroke-miterlimit="10"/></g><path fill="#10a6a5" d="M 284.890625 68.785156 C 284.890625 52.234375 298.300781 38.839844 314.851562 38.839844 C 331.386719 38.839844 344.796875 52.234375 344.796875 68.785156 C 344.796875 85.320312 331.386719 98.730469 314.851562 98.730469 C 298.300781 98.730469 284.890625 85.320312 284.890625 68.785156 " fill-opacity="1" fill-rule="nonzero"/><g clip-path="url(#3593fb5390)"><path stroke-linecap="butt" transform="matrix(0.161777, 0, 0, -0.161777, -156.276943, 531.355213)" fill="none" stroke-linejoin="miter" d="M 2727.004118 2859.300053 C 2727.004118 2961.605961 2809.896774 3044.402034 2912.202682 3044.402034 C 3014.387861 3044.402034 3097.304663 2961.605961 3097.304663 2859.300053 C 3097.304663 2757.090728 3014.412007 2674.198073 2912.202682 2674.198073 C 2809.896774 2674.198073 2727.004118 2757.090728 2727.004118 2859.300053 Z M 2727.004118 2859.300053 " stroke="#224c8d" stroke-width="50" stroke-opacity="1" stroke-miterlimit="10"/></g><path fill="#10a6a5" d="M 116.722656 165.933594 L 4.230469 165.933594 C 4.230469 165.933594 5.695312 110.234375 60.472656 109.230469 C 60.472656 109.230469 116.722656 109.179688 116.722656 165.933594 " fill-opacity="1" fill-rule="nonzero"/><g clip-path="url(#0769837329)"><path stroke-linecap="butt" transform="matrix(0.161777, 0, 0, -0.161777, -156.276943, 531.355213)" fill="none" stroke-linejoin="miter" d="M 1687.501723 2258.793106 L 992.149932 2258.793106 C 992.149932 2258.793106 1001.204621 2603.088585 1339.801682 2609.294065 C 1339.801682 2609.294065 1687.501723 2609.607961 1687.501723 2258.793106 Z M 1687.501723 2258.793106 " stroke="#224c8d" stroke-width="50" stroke-opacity="1" stroke-miterlimit="10"/></g><path fill="#10a6a5" d="M 30.527344 68.785156 C 30.527344 52.234375 43.9375 38.839844 60.472656 38.839844 C 77.023438 38.839844 90.417969 52.234375 90.417969 68.785156 C 90.417969 85.320312 77.023438 98.730469 60.472656 98.730469 C 43.9375 98.730469 30.527344 85.320312 30.527344 68.785156 " fill-opacity="1" fill-rule="nonzero"/><g clip-path="url(#14ea74578f)"><path stroke-linecap="butt" transform="matrix(0.161777, 0, 0, -0.161777, -156.276943, 531.355213)" fill="none" stroke-linejoin="miter" d="M 1154.699701 2859.300053 C 1154.699701 2961.605961 1237.592357 3044.402034 1339.801682 3044.402034 C 1442.10759 3044.402034 1524.903662 2961.605961 1524.903662 2859.300053 C 1524.903662 2757.090728 1442.10759 2674.198073 1339.801682 2674.198073 C 1237.592357 2674.198073 1154.699701 2757.090728 1154.699701 2859.300053 Z M 1154.699701 2859.300053 " stroke="#224c8d" stroke-width="50" stroke-opacity="1" stroke-miterlimit="10"/></g></svg>