<svg xmlns="http://www.w3.org/2000/svg" xmlns:xlink="http://www.w3.org/1999/xlink" width="500" zoomAndPan="magnify" viewBox="0 0 375 374.999991" height="500" preserveAspectRatio="xMidYMid meet" version="1.0"><defs><filter x="0%" y="0%" width="100%" height="100%" id="1a70e362a0"><feColorMatrix values="0 0 0 0 1 0 0 0 0 1 0 0 0 0 1 0 0 0 1 0" color-interpolation-filters="sRGB"/></filter><mask id="6102378f84"><g filter="url(#1a70e362a0)"><rect x="-37.5" width="450" fill="#000000" y="-37.499999" height="449.999989" fill-opacity="0.1"/></g></mask><clipPath id="8ac2fd0029"><path d="M 1 0.238281 L 78 0.238281 L 78 68 L 1 68 Z M 1 0.238281 " clip-rule="nonzero"/></clipPath><clipPath id="6801f17f28"><rect x="0" width="79" y="0" height="70"/></clipPath><mask id="3e12d548f0"><g filter="url(#1a70e362a0)"><rect x="-37.5" width="450" fill="#000000" y="-37.499999" height="449.999989" fill-opacity="0.1"/></g></mask><clipPath id="d0b9033c97"><path d="M 0.238281 3 L 66.480469 3 L 66.480469 69 L 0.238281 69 Z M 0.238281 3 " clip-rule="nonzero"/></clipPath><clipPath id="9be7ca57db"><rect x="0" width="67" y="0" height="70"/></clipPath><mask id="1a738f4a5a"><g filter="url(#1a70e362a0)"><rect x="-37.5" width="450" fill="#000000" y="-37.499999" height="449.999989" fill-opacity="0.1"/></g></mask><clipPath id="3f4ede5b58"><path d="M 1 0.160156 L 52.921875 0.160156 L 52.921875 46 L 1 46 Z M 1 0.160156 " clip-rule="nonzero"/></clipPath><clipPath id="3857f3238e"><rect x="0" width="53" y="0" height="47"/></clipPath><mask id="feff7ab5b6"><g filter="url(#1a70e362a0)"><rect x="-37.5" width="450" fill="#000000" y="-37.499999" height="449.999989" fill-opacity="0.1"/></g></mask><clipPath id="288e88d1be"><path d="M 2 0.398438 L 16 0.398438 L 16 5 L 2 5 Z M 2 0.398438 " clip-rule="nonzero"/></clipPath><clipPath id="eba280f7b6"><rect x="0" width="19" y="0" height="7"/></clipPath><mask id="7ef8779e1f"><g filter="url(#1a70e362a0)"><rect x="-37.5" width="450" fill="#000000" y="-37.499999" height="449.999989" fill-opacity="0.1"/></g></mask><clipPath id="a94e3aefc7"><path d="M 2 2 L 44 2 L 44 12.679688 L 2 12.679688 Z M 2 2 " clip-rule="nonzero"/></clipPath><clipPath id="9a3ad32daa"><rect x="0" width="47" y="0" height="13"/></clipPath><mask id="c428a688ce"><g filter="url(#1a70e362a0)"><rect x="-37.5" width="450" fill="#000000" y="-37.499999" height="449.999989" fill-opacity="0.1"/></g></mask><clipPath id="d174bcc9b8"><path d="M 0.761719 1 L 29.800781 1 L 29.800781 9 L 0.761719 9 Z M 0.761719 1 " clip-rule="nonzero"/></clipPath><clipPath id="fa704400c0"><rect x="0" width="30" y="0" height="10"/></clipPath><clipPath id="0ce9326526"><path d="M 218 9.222656 L 235 9.222656 L 235 43 L 218 43 Z M 218 9.222656 " clip-rule="nonzero"/></clipPath><mask id="84e974f15a"><g filter="url(#1a70e362a0)"><rect x="-37.5" width="450" fill="#000000" y="-37.499999" height="449.999989" fill-opacity="0.1"/></g></mask><clipPath id="bdfb5cfff1"><rect x="0" width="16" y="0" height="9"/></clipPath><mask id="887827aa83"><g filter="url(#1a70e362a0)"><rect x="-37.5" width="450" fill="#000000" y="-37.499999" height="449.999989" fill-opacity="0.1"/></g></mask><clipPath id="72ec31170c"><path d="M 0.199219 2 L 36 2 L 36 11 L 0.199219 11 Z M 0.199219 2 " clip-rule="nonzero"/></clipPath><clipPath id="e204c1325e"><rect x="0" width="38" y="0" height="13"/></clipPath><mask id="50a0c690be"><g filter="url(#1a70e362a0)"><rect x="-37.5" width="450" fill="#000000" y="-37.499999" height="449.999989" fill-opacity="0.1"/></g></mask><clipPath id="527c0c6adf"><path d="M 2 3 L 27 3 L 27 9.441406 L 2 9.441406 Z M 2 3 " clip-rule="nonzero"/></clipPath><clipPath id="eb22ca4657"><rect x="0" width="30" y="0" height="10"/></clipPath><mask id="b71fff0724"><g filter="url(#1a70e362a0)"><rect x="-37.5" width="450" fill="#000000" y="-37.499999" height="449.999989" fill-opacity="0.1"/></g></mask><clipPath id="467d701150"><path d="M 3 0.121094 L 62 0.121094 L 62 27 L 3 27 Z M 3 0.121094 " clip-rule="nonzero"/></clipPath><clipPath id="045ddc0806"><rect x="0" width="65" y="0" height="30"/></clipPath><mask id="d030c7b464"><g filter="url(#1a70e362a0)"><rect x="-37.5" width="450" fill="#000000" y="-37.499999" height="449.999989" fill-opacity="0.1"/></g></mask><clipPath id="d015949274"><rect x="0" width="188" y="0" height="168"/></clipPath></defs><path fill="#10a6a5" d="M 70.839844 137.519531 C 54.320312 136.054688 36.9375 143.351562 27.683594 157.085938 C 18.429688 170.824219 18.574219 190.707031 29.175781 203.40625 C 38.230469 214.238281 53.429688 219.410156 60.324219 231.738281 C 68.515625 246.335938 61.847656 264.464844 62.363281 281.1875 C 63.226562 309.117188 85.867188 333.28125 112.503906 341.671875 C 139.140625 350.0625 168.535156 344.890625 194.078125 333.570312 C 210.714844 326.183594 227.699219 314.230469 231.03125 296.332031 C 232.265625 289.695312 231.460938 282.828125 232.125 276.101562 C 232.785156 269.378906 235.429688 262.195312 241.316406 258.890625 C 249.132812 254.496094 259.160156 258.746094 265.625 264.925781 C 272.09375 271.101562 276.746094 279.148438 283.84375 284.609375 C 299.1875 296.417969 322.980469 292.28125 336.683594 278.601562 C 350.390625 264.925781 355.101562 244.207031 353.4375 224.898438 C 352.171875 210.332031 346.023438 194.296875 332.347656 189.15625 C 327.835938 187.460938 322.75 187.058594 318.8125 184.296875 C 312.75 180.046875 311.34375 171.511719 312.492188 164.183594 C 313.613281 156.859375 316.6875 149.933594 317.519531 142.578125 C 319.445312 125.507812 307.320312 107.953125 290.683594 103.699219 C 277.089844 100.222656 262.121094 104.820312 248.960938 99.964844 C 235.945312 95.167969 227.785156 82.351562 221.808594 69.824219 C 215.800781 57.296875 210.628906 43.761719 200.199219 34.625 C 190.144531 25.804688 175.691406 22.242188 162.703125 25.371094 C 149.714844 28.503906 138.453125 38.246094 133.539062 50.6875 C 128.941406 62.324219 129.714844 75.3125 131.324219 87.726562 C 133.738281 106.402344 139.773438 136.140625 121.328125 149.386719 C 114.574219 154.242188 107.1875 152.632812 100.265625 148.984375 C 90.410156 143.871094 82.277344 138.527344 70.839844 137.519531 Z M 70.839844 137.519531 " fill-opacity="1" fill-rule="nonzero"/><g mask="url(#6102378f84)"><g transform="matrix(1, 0, 0, 1, 43, 48)"><g clip-path="url(#6801f17f28)"><g clip-path="url(#8ac2fd0029)"><path fill="#10a6a5" d="M 69.273438 0.648438 L 10.285156 0.648438 C 5.660156 0.648438 1.867188 4.441406 1.867188 9.066406 L 1.867188 59.4375 C 1.867188 64.035156 5.660156 67.796875 10.285156 67.796875 L 69.273438 67.796875 C 73.871094 67.796875 77.636719 64.003906 77.636719 59.4375 L 77.636719 9.039062 C 77.636719 4.410156 73.871094 0.648438 69.273438 0.648438 Z M 65.109375 6.652344 C 67.292969 6.652344 69.015625 8.375 69.015625 10.53125 C 69.015625 12.6875 67.292969 14.4375 65.109375 14.4375 C 62.984375 14.4375 61.230469 12.65625 61.230469 10.53125 C 61.230469 8.40625 62.953125 6.652344 65.109375 6.652344 Z M 54.5625 6.652344 C 56.746094 6.652344 58.472656 8.375 58.472656 10.53125 C 58.472656 12.6875 56.746094 14.4375 54.5625 14.4375 C 52.4375 14.4375 50.683594 12.65625 50.683594 10.53125 C 50.683594 8.40625 52.410156 6.652344 54.5625 6.652344 Z M 44.019531 6.652344 C 46.144531 6.652344 47.925781 8.375 47.925781 10.53125 C 47.925781 12.6875 46.144531 14.4375 44.019531 14.4375 C 41.890625 14.4375 40.140625 12.65625 40.140625 10.53125 C 40.140625 8.40625 41.863281 6.652344 44.019531 6.652344 Z M 75.023438 59.40625 C 75.023438 62.566406 72.4375 65.152344 69.273438 65.152344 L 10.285156 65.152344 C 7.066406 65.152344 4.539062 62.566406 4.539062 59.40625 L 4.539062 20.644531 L 15.027344 20.644531 C 15.34375 20.644531 15.660156 20.5 15.917969 20.300781 L 19.25 17.371094 L 26.894531 17.371094 L 29.710938 20.273438 C 29.9375 20.5 30.285156 20.675781 30.65625 20.675781 L 75.023438 20.675781 Z M 75.023438 59.40625 " fill-opacity="1" fill-rule="nonzero"/></g></g></g></g><path fill="#010101" d="M 108.023438 44.191406 L 49.003906 44.191406 C 44.378906 44.191406 40.585938 47.984375 40.585938 52.613281 L 40.585938 102.980469 C 40.585938 107.578125 44.378906 111.34375 49.003906 111.34375 L 107.992188 111.34375 C 112.589844 111.34375 116.355469 107.550781 116.355469 102.980469 L 116.355469 52.582031 C 116.382812 47.957031 112.589844 44.191406 108.023438 44.191406 Z M 103.828125 50.199219 C 106.011719 50.199219 107.734375 51.921875 107.734375 54.078125 C 107.734375 56.203125 106.011719 57.984375 103.828125 57.984375 C 101.703125 57.984375 99.949219 56.203125 99.949219 54.078125 C 99.949219 51.921875 101.703125 50.199219 103.828125 50.199219 Z M 93.28125 50.199219 C 95.464844 50.199219 97.191406 51.921875 97.191406 54.078125 C 97.191406 56.203125 95.464844 57.984375 93.28125 57.984375 C 91.15625 57.984375 89.402344 56.203125 89.402344 54.078125 C 89.402344 51.921875 91.15625 50.199219 93.28125 50.199219 Z M 82.738281 50.199219 C 84.863281 50.199219 86.644531 51.921875 86.644531 54.078125 C 86.644531 56.203125 84.863281 57.984375 82.738281 57.984375 C 80.609375 57.984375 78.859375 56.203125 78.859375 54.078125 C 78.859375 51.921875 80.609375 50.199219 82.738281 50.199219 Z M 113.742188 102.953125 C 113.742188 106.113281 111.15625 108.699219 107.992188 108.699219 L 49.003906 108.699219 C 45.785156 108.699219 43.257812 106.113281 43.257812 102.953125 L 43.257812 64.21875 L 53.746094 64.21875 C 54.0625 64.21875 54.375 64.078125 54.636719 63.875 L 57.96875 60.945312 L 65.613281 60.945312 L 68.425781 63.847656 C 68.65625 64.078125 69.003906 64.25 69.375 64.25 L 113.742188 64.25 Z M 113.742188 102.953125 " fill-opacity="1" fill-rule="nonzero"/><g mask="url(#3e12d548f0)"><g transform="matrix(1, 0, 0, 1, 6, 237)"><g clip-path="url(#9be7ca57db)"><g clip-path="url(#d0b9033c97)"><path fill="#10a6a5" d="M 64.210938 57.835938 L 49.871094 43.441406 L 47.171875 46.171875 L 43.894531 42.925781 C 44.039062 42.78125 44.152344 42.578125 44.324219 42.378906 C 51.539062 32.523438 50.964844 18.988281 42.371094 10.425781 C 37.773438 5.886719 31.652344 3.328125 25.1875 3.328125 C 18.667969 3.328125 12.546875 5.859375 7.976562 10.425781 C -1.503906 19.9375 -1.503906 35.394531 7.976562 44.847656 C 12.605469 49.445312 18.722656 51.945312 25.1875 51.945312 C 30.417969 51.945312 35.445312 50.019531 39.929688 46.832031 C 40.128906 46.71875 40.304688 46.574219 40.476562 46.402344 L 43.664062 49.648438 L 40.964844 52.292969 L 55.359375 66.65625 C 56.566406 67.863281 58.089844 68.46875 59.785156 68.46875 C 61.480469 68.46875 63.03125 67.808594 64.179688 66.65625 C 66.652344 64.214844 66.652344 60.25 64.210938 57.835938 Z M 38.40625 40.828125 C 34.929688 44.359375 30.246094 46.34375 25.1875 46.34375 C 20.132812 46.34375 15.417969 44.417969 11.941406 40.882812 C 8.410156 37.378906 6.484375 32.636719 6.484375 27.636719 C 6.484375 22.582031 8.410156 17.898438 11.941406 14.421875 C 15.417969 10.886719 20.101562 8.902344 25.1875 8.902344 C 30.246094 8.902344 34.929688 10.828125 38.40625 14.363281 C 41.941406 17.867188 43.867188 22.609375 43.867188 27.609375 C 43.894531 32.667969 41.96875 37.378906 38.40625 40.828125 Z M 44.640625 48.671875 L 41.480469 45.511719 C 42.3125 44.820312 42.257812 44.847656 43.003906 43.929688 L 46.25 47.121094 Z M 44.640625 48.671875 " fill-opacity="1" fill-rule="nonzero"/></g></g></g></g><path fill="#010101" d="M 66.359375 292.910156 L 52.019531 278.515625 L 49.320312 281.246094 L 46.042969 278 C 46.1875 277.855469 46.304688 277.652344 46.476562 277.453125 C 53.6875 267.597656 53.113281 254.0625 44.519531 245.5 C 39.925781 240.960938 33.804688 238.402344 27.339844 238.402344 C 20.816406 238.402344 14.695312 240.933594 10.128906 245.5 C 0.644531 255.011719 0.644531 270.472656 10.128906 279.925781 C 14.753906 284.523438 20.875 287.019531 27.339844 287.019531 C 32.566406 287.019531 37.597656 285.097656 42.078125 281.90625 C 42.28125 281.792969 42.453125 281.648438 42.625 281.476562 L 45.8125 284.722656 L 43.113281 287.367188 L 57.507812 301.734375 C 58.714844 302.941406 60.238281 303.542969 61.933594 303.542969 C 63.628906 303.542969 65.179688 302.882812 66.332031 301.734375 C 68.800781 299.289062 68.800781 295.324219 66.359375 292.910156 Z M 40.554688 275.902344 C 37.078125 279.4375 32.394531 281.417969 27.339844 281.417969 C 22.28125 281.417969 17.570312 279.492188 14.09375 275.957031 C 10.558594 272.453125 8.632812 267.710938 8.632812 262.710938 C 8.632812 257.65625 10.558594 252.972656 14.09375 249.496094 C 17.570312 245.960938 22.253906 243.976562 27.339844 243.976562 C 32.394531 243.976562 37.078125 245.902344 40.554688 249.4375 C 44.089844 252.941406 46.015625 257.683594 46.015625 262.683594 C 46.042969 267.742188 44.117188 272.453125 40.554688 275.902344 Z M 46.792969 283.746094 L 43.628906 280.585938 C 44.464844 279.894531 44.40625 279.925781 45.152344 279.003906 L 48.398438 282.195312 Z M 46.792969 283.746094 " fill-opacity="1" fill-rule="nonzero"/><path fill="#010101" d="M 278.757812 155.59375 C 278.382812 155.59375 278.011719 155.449219 277.753906 155.164062 C 277.179688 154.589844 277.179688 153.695312 277.753906 153.121094 L 291.316406 139.558594 C 291.890625 138.984375 292.78125 138.984375 293.355469 139.558594 C 293.929688 140.136719 293.929688 141.027344 293.355469 141.601562 L 279.792969 155.164062 C 279.503906 155.449219 279.132812 155.59375 278.757812 155.59375 Z M 278.757812 155.59375 " fill-opacity="1" fill-rule="nonzero"/><path fill="#010101" d="M 292.347656 155.59375 C 291.976562 155.59375 291.601562 155.449219 291.34375 155.164062 L 277.78125 141.601562 C 277.207031 141.027344 277.207031 140.136719 277.78125 139.558594 C 278.355469 138.984375 279.246094 138.984375 279.820312 139.558594 L 293.382812 153.121094 C 293.957031 153.695312 293.957031 154.589844 293.382812 155.164062 C 293.066406 155.449219 292.695312 155.59375 292.347656 155.59375 Z M 292.347656 155.59375 " fill-opacity="1" fill-rule="nonzero"/><path fill="#010101" d="M 222.296875 91.746094 C 217.726562 91.746094 214.019531 88.039062 214.019531 83.472656 C 214.019531 78.902344 217.726562 75.167969 222.296875 75.167969 C 226.863281 75.167969 230.601562 78.902344 230.601562 83.472656 C 230.628906 88.039062 226.894531 91.746094 222.296875 91.746094 Z M 222.296875 78.042969 C 219.308594 78.042969 216.894531 80.484375 216.894531 83.472656 C 216.894531 86.460938 219.308594 88.875 222.296875 88.875 C 225.285156 88.875 227.726562 86.460938 227.726562 83.472656 C 227.753906 80.484375 225.3125 78.042969 222.296875 78.042969 Z M 222.296875 78.042969 " fill-opacity="1" fill-rule="nonzero"/><path fill="#010101" d="M 153.824219 107.894531 C 150.261719 107.894531 147.359375 104.992188 147.359375 101.429688 C 147.359375 97.867188 150.261719 94.964844 153.824219 94.964844 C 157.386719 94.964844 160.289062 97.867188 160.289062 101.429688 C 160.316406 104.992188 157.414062 107.894531 153.824219 107.894531 Z M 153.824219 97.207031 C 151.496094 97.207031 149.601562 99.101562 149.601562 101.429688 C 149.601562 103.757812 151.496094 105.65625 153.824219 105.65625 C 156.152344 105.65625 158.046875 103.757812 158.046875 101.429688 C 158.078125 99.101562 156.179688 97.207031 153.824219 97.207031 Z M 153.824219 97.207031 " fill-opacity="1" fill-rule="nonzero"/><path fill="#010101" d="M 154.601562 56.980469 C 154.3125 56.980469 154.054688 56.863281 153.851562 56.664062 L 149.945312 52.753906 C 149.515625 52.324219 149.515625 51.664062 149.945312 51.234375 C 150.375 50.800781 151.035156 50.800781 151.46875 51.234375 L 155.375 55.140625 C 155.808594 55.570312 155.808594 56.234375 155.375 56.664062 C 155.144531 56.863281 154.886719 56.980469 154.601562 56.980469 Z M 154.601562 56.980469 " fill-opacity="1" fill-rule="nonzero"/><path fill="#010101" d="M 163.507812 48.074219 C 163.21875 48.074219 162.960938 47.957031 162.761719 47.757812 L 158.851562 43.847656 C 158.421875 43.417969 158.421875 42.757812 158.851562 42.324219 C 159.285156 41.894531 159.945312 41.894531 160.375 42.324219 L 164.285156 46.234375 C 164.714844 46.664062 164.714844 47.324219 164.285156 47.757812 C 164.054688 47.957031 163.792969 48.074219 163.507812 48.074219 Z M 163.507812 48.074219 " fill-opacity="1" fill-rule="nonzero"/><path fill="#010101" d="M 150.691406 48.074219 C 150.40625 48.074219 150.144531 47.957031 149.945312 47.757812 C 149.515625 47.324219 149.515625 46.664062 149.945312 46.234375 L 153.851562 42.324219 C 154.285156 41.894531 154.945312 41.894531 155.375 42.324219 C 155.808594 42.757812 155.808594 43.417969 155.375 43.847656 L 151.46875 47.757812 C 151.238281 47.957031 150.980469 48.074219 150.691406 48.074219 Z M 150.691406 48.074219 " fill-opacity="1" fill-rule="nonzero"/><path fill="#010101" d="M 159.601562 56.980469 C 159.3125 56.980469 159.054688 56.863281 158.851562 56.664062 C 158.421875 56.234375 158.421875 55.570312 158.851562 55.140625 L 162.761719 51.234375 C 163.191406 50.800781 163.851562 50.800781 164.285156 51.234375 C 164.714844 51.664062 164.714844 52.324219 164.285156 52.753906 L 160.375 56.664062 C 160.144531 56.863281 159.886719 56.980469 159.601562 56.980469 Z M 159.601562 56.980469 " fill-opacity="1" fill-rule="nonzero"/><path fill="#010101" d="M 347.316406 85.511719 C 347.03125 85.511719 346.769531 85.398438 346.570312 85.195312 L 342.660156 81.289062 C 342.230469 80.855469 342.230469 80.195312 342.660156 79.765625 C 343.09375 79.335938 343.753906 79.335938 344.183594 79.765625 L 348.09375 83.671875 C 348.523438 84.105469 348.523438 84.765625 348.09375 85.195312 C 347.863281 85.398438 347.605469 85.511719 347.316406 85.511719 Z M 347.316406 85.511719 " fill-opacity="1" fill-rule="nonzero"/><path fill="#010101" d="M 356.222656 76.605469 C 355.9375 76.605469 355.679688 76.488281 355.476562 76.289062 L 351.570312 72.382812 C 351.136719 71.949219 351.136719 71.289062 351.570312 70.859375 C 352 70.425781 352.660156 70.425781 353.09375 70.859375 L 357 74.765625 C 357.429688 75.195312 357.429688 75.859375 357 76.289062 C 356.769531 76.519531 356.484375 76.605469 356.222656 76.605469 Z M 356.222656 76.605469 " fill-opacity="1" fill-rule="nonzero"/><path fill="#010101" d="M 343.410156 76.605469 C 343.121094 76.605469 342.863281 76.488281 342.660156 76.289062 C 342.230469 75.859375 342.230469 75.195312 342.660156 74.765625 L 346.570312 70.859375 C 347 70.425781 347.660156 70.425781 348.09375 70.859375 C 348.523438 71.289062 348.523438 71.949219 348.09375 72.382812 L 344.183594 76.289062 C 343.953125 76.519531 343.695312 76.605469 343.410156 76.605469 Z M 343.410156 76.605469 " fill-opacity="1" fill-rule="nonzero"/><path fill="#010101" d="M 352.316406 85.511719 C 352.027344 85.511719 351.769531 85.398438 351.570312 85.195312 C 351.136719 84.765625 351.136719 84.105469 351.570312 83.671875 L 355.476562 79.765625 C 355.90625 79.335938 356.570312 79.335938 357 79.765625 C 357.429688 80.195312 357.429688 80.855469 357 81.289062 L 353.09375 85.195312 C 352.863281 85.398438 352.574219 85.511719 352.316406 85.511719 Z M 352.316406 85.511719 " fill-opacity="1" fill-rule="nonzero"/><path fill="#010101" d="M 364.816406 260.300781 C 364.527344 260.300781 364.269531 260.183594 364.070312 259.984375 L 360.160156 256.074219 C 359.730469 255.644531 359.730469 254.984375 360.160156 254.550781 C 360.589844 254.121094 361.253906 254.121094 361.683594 254.550781 L 365.589844 258.460938 C 366.023438 258.890625 366.023438 259.550781 365.589844 259.984375 C 365.363281 260.214844 365.074219 260.300781 364.816406 260.300781 Z M 364.816406 260.300781 " fill-opacity="1" fill-rule="nonzero"/><path fill="#010101" d="M 373.722656 251.390625 C 373.433594 251.390625 373.175781 251.277344 372.976562 251.074219 L 369.066406 247.167969 C 368.636719 246.738281 368.636719 246.074219 369.066406 245.644531 C 369.5 245.214844 370.160156 245.214844 370.589844 245.644531 L 374.5 249.550781 C 374.929688 249.984375 374.929688 250.644531 374.5 251.074219 C 374.269531 251.304688 373.980469 251.390625 373.722656 251.390625 Z M 373.722656 251.390625 " fill-opacity="1" fill-rule="nonzero"/><path fill="#010101" d="M 360.90625 251.390625 C 360.621094 251.390625 360.363281 251.277344 360.160156 251.074219 C 359.730469 250.644531 359.730469 249.984375 360.160156 249.550781 L 364.070312 245.644531 C 364.5 245.214844 365.160156 245.214844 365.589844 245.644531 C 366.023438 246.074219 366.023438 246.738281 365.589844 247.167969 L 361.683594 251.074219 C 361.453125 251.304688 361.167969 251.390625 360.90625 251.390625 Z M 360.90625 251.390625 " fill-opacity="1" fill-rule="nonzero"/><path fill="#010101" d="M 369.785156 260.300781 C 369.5 260.300781 369.242188 260.183594 369.039062 259.984375 C 368.609375 259.550781 368.609375 258.890625 369.039062 258.460938 L 372.945312 254.550781 C 373.378906 254.121094 374.039062 254.121094 374.46875 254.550781 C 374.902344 254.984375 374.902344 255.644531 374.46875 256.074219 L 370.5625 259.984375 C 370.359375 260.214844 370.074219 260.300781 369.785156 260.300781 Z M 369.785156 260.300781 " fill-opacity="1" fill-rule="nonzero"/><path fill="#010101" d="M 52.222656 211.421875 C 51.933594 211.421875 51.675781 211.308594 51.476562 211.105469 L 47.566406 207.199219 C 47.136719 206.769531 47.136719 206.105469 47.566406 205.675781 C 48 205.246094 48.660156 205.246094 49.089844 205.675781 L 52.996094 209.585938 C 53.429688 210.015625 53.429688 210.675781 52.996094 211.105469 C 52.769531 211.308594 52.480469 211.421875 52.222656 211.421875 Z M 52.222656 211.421875 " fill-opacity="1" fill-rule="nonzero"/><path fill="#010101" d="M 61.128906 202.515625 C 60.84375 202.515625 60.582031 202.402344 60.382812 202.199219 L 56.472656 198.292969 C 56.042969 197.859375 56.042969 197.199219 56.472656 196.769531 C 56.90625 196.339844 57.566406 196.339844 57.996094 196.769531 L 61.90625 200.675781 C 62.335938 201.109375 62.335938 201.769531 61.90625 202.199219 C 61.675781 202.402344 61.386719 202.515625 61.128906 202.515625 Z M 61.128906 202.515625 " fill-opacity="1" fill-rule="nonzero"/><path fill="#010101" d="M 48.3125 202.515625 C 48.027344 202.515625 47.769531 202.402344 47.566406 202.199219 C 47.136719 201.769531 47.136719 201.109375 47.566406 200.675781 L 51.476562 196.769531 C 51.90625 196.339844 52.566406 196.339844 52.996094 196.769531 C 53.429688 197.199219 53.429688 197.859375 52.996094 198.292969 L 49.089844 202.199219 C 48.859375 202.402344 48.574219 202.515625 48.3125 202.515625 Z M 48.3125 202.515625 " fill-opacity="1" fill-rule="nonzero"/><path fill="#010101" d="M 57.222656 211.421875 C 56.933594 211.421875 56.675781 211.308594 56.472656 211.105469 C 56.042969 210.675781 56.042969 210.015625 56.472656 209.585938 L 60.382812 205.675781 C 60.8125 205.246094 61.472656 205.246094 61.90625 205.675781 C 62.335938 206.105469 62.335938 206.769531 61.90625 207.199219 L 57.996094 211.105469 C 57.765625 211.308594 57.480469 211.421875 57.222656 211.421875 Z M 57.222656 211.421875 " fill-opacity="1" fill-rule="nonzero"/><g mask="url(#1a738f4a5a)"><g transform="matrix(1, 0, 0, 1, 261, 74)"><g clip-path="url(#3857f3238e)"><g clip-path="url(#3f4ede5b58)"><path fill="#10a6a5" d="M 51.636719 0.566406 L 3.074219 0.566406 C 2.441406 0.566406 1.953125 1.054688 1.953125 1.683594 L 1.953125 31.222656 C 1.953125 31.855469 2.441406 32.34375 3.074219 32.34375 L 8.621094 32.34375 L 8.621094 44.46875 C 8.621094 44.957031 8.90625 45.359375 9.339844 45.503906 C 9.484375 45.589844 9.597656 45.589844 9.710938 45.589844 C 10.058594 45.589844 10.375 45.445312 10.601562 45.1875 L 20.601562 32.371094 L 51.664062 32.371094 C 52.265625 32.371094 52.726562 31.882812 52.726562 31.253906 L 52.726562 1.683594 C 52.699219 1.054688 52.210938 0.566406 51.636719 0.566406 Z M 14.367188 19.644531 C 11.722656 19.644531 9.570312 17.574219 9.570312 14.988281 C 9.570312 12.460938 11.722656 10.390625 14.367188 10.390625 C 16.980469 10.390625 19.109375 12.460938 19.109375 14.988281 C 19.109375 17.546875 16.953125 19.644531 14.367188 19.644531 Z M 27.699219 19.644531 C 25.054688 19.644531 22.902344 17.574219 22.902344 14.988281 C 22.902344 12.460938 25.054688 10.390625 27.699219 10.390625 C 30.316406 10.390625 32.46875 12.460938 32.46875 14.988281 C 32.46875 17.546875 30.316406 19.644531 27.699219 19.644531 Z M 40.34375 19.644531 C 37.699219 19.644531 35.574219 17.574219 35.574219 14.988281 C 35.574219 12.460938 37.699219 10.390625 40.34375 10.390625 C 42.984375 10.390625 45.082031 12.460938 45.082031 14.988281 C 45.082031 17.546875 42.984375 19.644531 40.34375 19.644531 Z M 40.34375 19.644531 " fill-opacity="1" fill-rule="nonzero"/></g></g></g></g><path fill="#010101" d="M 308.929688 70.859375 L 260.367188 70.859375 C 259.738281 70.859375 259.246094 71.347656 259.246094 71.980469 L 259.246094 101.515625 C 259.246094 102.148438 259.738281 102.636719 260.367188 102.636719 L 265.914062 102.636719 L 265.914062 114.761719 C 265.914062 115.25 266.203125 115.652344 266.632812 115.796875 C 266.777344 115.882812 266.890625 115.882812 267.007812 115.882812 C 267.351562 115.882812 267.667969 115.738281 267.898438 115.480469 L 277.894531 102.667969 L 308.957031 102.667969 C 309.5625 102.667969 310.019531 102.179688 310.019531 101.546875 L 310.019531 71.980469 C 309.992188 71.347656 309.503906 70.859375 308.929688 70.859375 Z M 271.660156 89.910156 C 269.015625 89.910156 266.863281 87.839844 266.863281 85.253906 C 266.863281 82.726562 269.015625 80.65625 271.660156 80.65625 C 274.277344 80.65625 276.402344 82.726562 276.402344 85.253906 C 276.402344 87.839844 274.246094 89.910156 271.660156 89.910156 Z M 284.992188 89.910156 C 282.351562 89.910156 280.195312 87.839844 280.195312 85.253906 C 280.195312 82.726562 282.351562 80.65625 284.992188 80.65625 C 287.609375 80.65625 289.761719 82.726562 289.761719 85.253906 C 289.734375 87.839844 287.578125 89.910156 284.992188 89.910156 Z M 297.605469 89.910156 C 294.964844 89.910156 292.835938 87.839844 292.835938 85.253906 C 292.835938 82.726562 294.964844 80.65625 297.605469 80.65625 C 300.25 80.65625 302.347656 82.726562 302.347656 85.253906 C 302.378906 87.839844 300.25 89.910156 297.605469 89.910156 Z M 297.605469 89.910156 " fill-opacity="1" fill-rule="nonzero"/><g mask="url(#feff7ab5b6)"><g transform="matrix(1, 0, 0, 1, 23, 134)"><g clip-path="url(#eba280f7b6)"><g clip-path="url(#288e88d1be)"><path fill="#10a6a5" d="M 15.574219 2.167969 C 15.890625 1.824219 15.890625 1.277344 15.574219 0.960938 C 15.230469 0.617188 14.683594 0.617188 14.367188 0.960938 C 11.492188 3.863281 6.753906 3.863281 3.878906 0.960938 C 3.535156 0.617188 2.988281 0.617188 2.671875 0.960938 C 2.355469 1.308594 2.355469 1.855469 2.671875 2.167969 C 4.453125 3.953125 6.78125 4.84375 9.136719 4.84375 C 11.492188 4.84375 13.792969 3.953125 15.574219 2.167969 Z M 15.574219 2.167969 " fill-opacity="1" fill-rule="nonzero"/></g></g></g></g><g mask="url(#7ef8779e1f)"><g transform="matrix(1, 0, 0, 1, 9, 145)"><g clip-path="url(#9a3ad32daa)"><g clip-path="url(#a94e3aefc7)"><path fill="#10a6a5" d="M 42.214844 2.605469 C 31.671875 13.152344 14.515625 13.152344 4 2.605469 C 3.65625 2.261719 3.109375 2.261719 2.792969 2.605469 C 2.449219 2.949219 2.449219 3.496094 2.792969 3.8125 C 8.398438 9.414062 15.753906 12.203125 23.109375 12.203125 C 30.464844 12.203125 37.820312 9.414062 43.421875 3.8125 C 43.738281 3.46875 43.738281 2.921875 43.421875 2.605469 C 43.078125 2.289062 42.5625 2.289062 42.214844 2.605469 Z M 42.214844 2.605469 " fill-opacity="1" fill-rule="nonzero"/></g></g></g></g><g mask="url(#c428a688ce)"><g transform="matrix(1, 0, 0, 1, 17, 140)"><g clip-path="url(#fa704400c0)"><g clip-path="url(#d174bcc9b8)"><path fill="#10a6a5" d="M 1.113281 1.285156 C 0.800781 1.628906 0.800781 2.175781 1.113281 2.492188 C 4.964844 6.339844 10.050781 8.265625 15.109375 8.265625 C 20.164062 8.265625 25.25 6.339844 29.101562 2.492188 C 29.445312 2.144531 29.445312 1.628906 29.101562 1.285156 C 28.757812 0.941406 28.238281 0.941406 27.894531 1.285156 C 20.828125 8.351562 9.363281 8.351562 2.320312 1.285156 C 1.976562 0.96875 1.429688 0.96875 1.113281 1.285156 Z M 1.113281 1.285156 " fill-opacity="1" fill-rule="nonzero"/></g></g></g></g><path fill="#010101" d="M 37.222656 134.101562 C 37.539062 133.757812 37.539062 133.210938 37.222656 132.894531 C 36.878906 132.550781 36.332031 132.550781 36.015625 132.894531 C 33.144531 135.796875 28.402344 135.796875 25.527344 132.894531 C 25.183594 132.550781 24.636719 132.550781 24.320312 132.894531 C 24.003906 133.238281 24.003906 133.785156 24.320312 134.101562 C 26.101562 135.882812 28.429688 136.773438 30.785156 136.773438 C 33.113281 136.773438 35.441406 135.882812 37.222656 134.101562 Z M 37.222656 134.101562 " fill-opacity="1" fill-rule="nonzero"/><path fill="#010101" d="M 49.894531 145.535156 C 39.347656 156.082031 22.195312 156.082031 11.679688 145.535156 C 11.332031 145.191406 10.789062 145.191406 10.472656 145.535156 C 10.128906 145.882812 10.128906 146.425781 10.472656 146.742188 C 16.074219 152.347656 23.429688 155.132812 30.785156 155.132812 C 38.140625 155.132812 45.5 152.347656 51.101562 146.742188 C 51.417969 146.398438 51.417969 145.851562 51.101562 145.535156 C 50.757812 145.222656 50.210938 145.222656 49.894531 145.535156 Z M 49.894531 145.535156 " fill-opacity="1" fill-rule="nonzero"/><path fill="#010101" d="M 16.792969 139.246094 C 16.476562 139.589844 16.476562 140.136719 16.792969 140.449219 C 20.644531 144.300781 25.730469 146.226562 30.785156 146.226562 C 35.84375 146.226562 40.929688 144.300781 44.78125 140.449219 C 45.125 140.105469 45.125 139.589844 44.78125 139.246094 C 44.433594 138.898438 43.917969 138.898438 43.574219 139.246094 C 36.503906 146.3125 25.039062 146.3125 18 139.246094 C 17.65625 138.898438 17.109375 138.898438 16.792969 139.246094 Z M 16.792969 139.246094 " fill-opacity="1" fill-rule="nonzero"/><path fill="#010101" d="M 19.121094 192.257812 C 19.121094 192.601562 19.054688 192.929688 18.925781 193.246094 C 18.792969 193.5625 18.605469 193.84375 18.363281 194.085938 C 18.121094 194.328125 17.839844 194.515625 17.523438 194.648438 C 17.207031 194.777344 16.878906 194.84375 16.535156 194.84375 C 16.191406 194.84375 15.863281 194.777344 15.546875 194.648438 C 15.226562 194.515625 14.949219 194.328125 14.707031 194.085938 C 14.464844 193.84375 14.277344 193.5625 14.144531 193.246094 C 14.015625 192.929688 13.949219 192.601562 13.949219 192.257812 C 13.949219 191.914062 14.015625 191.585938 14.144531 191.269531 C 14.277344 190.953125 14.464844 190.671875 14.707031 190.429688 C 14.949219 190.1875 15.226562 190 15.546875 189.867188 C 15.863281 189.738281 16.191406 189.671875 16.535156 189.671875 C 16.878906 189.671875 17.207031 189.738281 17.523438 189.867188 C 17.839844 190 18.121094 190.1875 18.363281 190.429688 C 18.605469 190.671875 18.792969 190.953125 18.925781 191.269531 C 19.054688 191.585938 19.121094 191.914062 19.121094 192.257812 Z M 19.121094 192.257812 " fill-opacity="1" fill-rule="nonzero"/><path fill="#010101" d="M 19.121094 202.027344 C 19.121094 202.371094 19.054688 202.699219 18.925781 203.015625 C 18.792969 203.332031 18.605469 203.613281 18.363281 203.855469 C 18.121094 204.097656 17.839844 204.285156 17.523438 204.417969 C 17.207031 204.546875 16.878906 204.613281 16.535156 204.613281 C 16.191406 204.613281 15.863281 204.546875 15.546875 204.417969 C 15.226562 204.285156 14.949219 204.097656 14.707031 203.855469 C 14.464844 203.613281 14.277344 203.332031 14.144531 203.015625 C 14.015625 202.699219 13.949219 202.371094 13.949219 202.027344 C 13.949219 201.683594 14.015625 201.355469 14.144531 201.039062 C 14.277344 200.722656 14.464844 200.441406 14.707031 200.199219 C 14.949219 199.957031 15.226562 199.769531 15.546875 199.636719 C 15.863281 199.507812 16.191406 199.441406 16.535156 199.441406 C 16.878906 199.441406 17.207031 199.507812 17.523438 199.636719 C 17.839844 199.769531 18.121094 199.957031 18.363281 200.199219 C 18.605469 200.441406 18.792969 200.722656 18.925781 201.039062 C 19.054688 201.355469 19.121094 201.683594 19.121094 202.027344 Z M 19.121094 202.027344 " fill-opacity="1" fill-rule="nonzero"/><path fill="#010101" d="M 19.121094 211.796875 C 19.121094 212.140625 19.054688 212.46875 18.925781 212.785156 C 18.792969 213.101562 18.605469 213.382812 18.363281 213.625 C 18.121094 213.867188 17.839844 214.054688 17.523438 214.1875 C 17.207031 214.316406 16.878906 214.382812 16.535156 214.382812 C 16.191406 214.382812 15.863281 214.316406 15.546875 214.1875 C 15.226562 214.054688 14.949219 213.867188 14.707031 213.625 C 14.464844 213.382812 14.277344 213.101562 14.144531 212.785156 C 14.015625 212.46875 13.949219 212.140625 13.949219 211.796875 C 13.949219 211.453125 14.015625 211.125 14.144531 210.808594 C 14.277344 210.488281 14.464844 210.210938 14.707031 209.96875 C 14.949219 209.726562 15.226562 209.539062 15.546875 209.40625 C 15.863281 209.277344 16.191406 209.210938 16.535156 209.210938 C 16.878906 209.210938 17.207031 209.277344 17.523438 209.40625 C 17.839844 209.539062 18.121094 209.726562 18.363281 209.96875 C 18.605469 210.210938 18.792969 210.488281 18.925781 210.808594 C 19.054688 211.125 19.121094 211.453125 19.121094 211.796875 Z M 19.121094 211.796875 " fill-opacity="1" fill-rule="nonzero"/><path fill="#010101" d="M 341.542969 110.480469 C 341.542969 110.824219 341.476562 111.15625 341.34375 111.472656 C 341.214844 111.789062 341.027344 112.066406 340.785156 112.308594 C 340.542969 112.554688 340.261719 112.738281 339.945312 112.871094 C 339.628906 113.003906 339.296875 113.066406 338.957031 113.066406 C 338.613281 113.066406 338.28125 113.003906 337.964844 112.871094 C 337.648438 112.738281 337.367188 112.554688 337.125 112.308594 C 336.882812 112.066406 336.695312 111.789062 336.566406 111.472656 C 336.433594 111.15625 336.367188 110.824219 336.367188 110.480469 C 336.367188 110.140625 336.433594 109.808594 336.566406 109.492188 C 336.695312 109.175781 336.882812 108.894531 337.125 108.652344 C 337.367188 108.410156 337.648438 108.222656 337.964844 108.09375 C 338.28125 107.960938 338.613281 107.894531 338.957031 107.894531 C 339.296875 107.894531 339.628906 107.960938 339.945312 108.09375 C 340.261719 108.222656 340.542969 108.410156 340.785156 108.652344 C 341.027344 108.894531 341.214844 109.175781 341.34375 109.492188 C 341.476562 109.808594 341.542969 110.140625 341.542969 110.480469 Z M 341.542969 110.480469 " fill-opacity="1" fill-rule="nonzero"/><path fill="#010101" d="M 341.542969 120.25 C 341.542969 120.59375 341.476562 120.925781 341.34375 121.242188 C 341.214844 121.558594 341.027344 121.835938 340.785156 122.078125 C 340.542969 122.324219 340.261719 122.507812 339.945312 122.640625 C 339.628906 122.773438 339.296875 122.835938 338.957031 122.835938 C 338.613281 122.835938 338.28125 122.773438 337.964844 122.640625 C 337.648438 122.507812 337.367188 122.324219 337.125 122.078125 C 336.882812 121.835938 336.695312 121.558594 336.566406 121.242188 C 336.433594 120.925781 336.367188 120.59375 336.367188 120.25 C 336.367188 119.910156 336.433594 119.578125 336.566406 119.261719 C 336.695312 118.945312 336.882812 118.664062 337.125 118.421875 C 337.367188 118.179688 337.648438 117.992188 337.964844 117.863281 C 338.28125 117.730469 338.613281 117.664062 338.957031 117.664062 C 339.296875 117.664062 339.628906 117.730469 339.945312 117.863281 C 340.261719 117.992188 340.542969 118.179688 340.785156 118.421875 C 341.027344 118.664062 341.214844 118.945312 341.34375 119.261719 C 341.476562 119.578125 341.542969 119.910156 341.542969 120.25 Z M 341.542969 120.25 " fill-opacity="1" fill-rule="nonzero"/><path fill="#010101" d="M 341.542969 130.019531 C 341.542969 130.363281 341.476562 130.695312 341.34375 131.011719 C 341.214844 131.328125 341.027344 131.605469 340.785156 131.847656 C 340.542969 132.089844 340.261719 132.277344 339.945312 132.410156 C 339.628906 132.542969 339.296875 132.605469 338.957031 132.605469 C 338.613281 132.605469 338.28125 132.542969 337.964844 132.410156 C 337.648438 132.277344 337.367188 132.089844 337.125 131.847656 C 336.882812 131.605469 336.695312 131.328125 336.566406 131.011719 C 336.433594 130.695312 336.367188 130.363281 336.367188 130.019531 C 336.367188 129.675781 336.433594 129.347656 336.566406 129.03125 C 336.695312 128.714844 336.882812 128.433594 337.125 128.191406 C 337.367188 127.949219 337.648438 127.761719 337.964844 127.632812 C 338.28125 127.5 338.613281 127.433594 338.957031 127.433594 C 339.296875 127.433594 339.628906 127.5 339.945312 127.632812 C 340.261719 127.761719 340.542969 127.949219 340.785156 128.191406 C 341.027344 128.433594 341.214844 128.714844 341.34375 129.03125 C 341.476562 129.347656 341.542969 129.675781 341.542969 130.019531 Z M 341.542969 130.019531 " fill-opacity="1" fill-rule="nonzero"/><path fill="#010101" d="M 208.90625 26.75 L 217.039062 37.210938 L 210.976562 37.210938 L 202.871094 26.75 L 210.976562 16.320312 L 217.039062 16.320312 Z M 208.90625 26.75 " fill-opacity="1" fill-rule="nonzero"/><path fill="#010101" d="M 242.066406 26.75 L 233.933594 37.210938 L 239.996094 37.210938 L 248.128906 26.75 L 239.996094 16.320312 L 233.933594 16.320312 Z M 242.066406 26.75 " fill-opacity="1" fill-rule="nonzero"/><g clip-path="url(#0ce9326526)"><path fill="#010101" d="M 222.957031 42.441406 L 234.910156 9.367188 L 230.800781 9.367188 L 218.847656 42.441406 Z M 222.957031 42.441406 " fill-opacity="1" fill-rule="nonzero"/></g><path fill="#010101" d="M 33.976562 94.792969 C 33.199219 94.792969 32.539062 94.160156 32.539062 93.355469 L 32.539062 62.152344 C 32.539062 61.375 33.171875 60.714844 33.976562 60.714844 C 34.78125 60.714844 35.414062 61.347656 35.414062 62.152344 L 35.414062 93.355469 C 35.414062 94.132812 34.75 94.792969 33.976562 94.792969 Z M 33.976562 94.792969 " fill-opacity="1" fill-rule="nonzero"/><path fill="#010101" d="M 368.808594 231.363281 C 368.148438 231.363281 367.632812 230.820312 367.632812 230.15625 L 367.632812 204.152344 C 367.632812 203.492188 368.175781 202.976562 368.808594 202.976562 C 369.46875 202.976562 370.015625 203.519531 370.015625 204.152344 L 370.015625 230.15625 C 370.015625 230.847656 369.46875 231.363281 368.808594 231.363281 Z M 368.808594 231.363281 " fill-opacity="1" fill-rule="nonzero"/><path fill="#010101" d="M 368.808594 201.195312 C 368.148438 201.195312 367.632812 200.648438 367.632812 199.988281 L 367.632812 190.535156 C 367.632812 189.871094 368.175781 189.355469 368.808594 189.355469 C 369.46875 189.355469 370.015625 189.902344 370.015625 190.535156 L 370.015625 199.988281 C 370.015625 200.675781 369.46875 201.195312 368.808594 201.195312 Z M 368.808594 201.195312 " fill-opacity="1" fill-rule="nonzero"/><path fill="#010101" d="M 176.265625 76.605469 C 176.265625 76.949219 176.199219 77.277344 176.066406 77.59375 C 175.9375 77.910156 175.75 78.191406 175.507812 78.433594 C 175.265625 78.675781 174.984375 78.863281 174.667969 78.992188 C 174.351562 79.125 174.023438 79.191406 173.679688 79.191406 C 173.335938 79.191406 173.007812 79.125 172.691406 78.992188 C 172.371094 78.863281 172.09375 78.675781 171.851562 78.433594 C 171.609375 78.191406 171.421875 77.910156 171.289062 77.59375 C 171.160156 77.277344 171.09375 76.949219 171.09375 76.605469 C 171.09375 76.261719 171.160156 75.933594 171.289062 75.613281 C 171.421875 75.296875 171.609375 75.019531 171.851562 74.777344 C 172.09375 74.535156 172.371094 74.347656 172.6875 74.214844 C 173.007812 74.085938 173.335938 74.019531 173.679688 74.019531 C 174.023438 74.019531 174.351562 74.085938 174.667969 74.214844 C 174.984375 74.347656 175.265625 74.535156 175.507812 74.777344 C 175.75 75.019531 175.9375 75.296875 176.066406 75.613281 C 176.199219 75.933594 176.265625 76.261719 176.265625 76.605469 Z M 176.265625 76.605469 " fill-opacity="1" fill-rule="nonzero"/><path fill="#010101" d="M 166.496094 76.605469 C 166.496094 76.949219 166.429688 77.277344 166.296875 77.59375 C 166.167969 77.910156 165.980469 78.191406 165.738281 78.433594 C 165.496094 78.675781 165.214844 78.863281 164.898438 78.992188 C 164.582031 79.125 164.253906 79.191406 163.910156 79.191406 C 163.566406 79.191406 163.238281 79.125 162.921875 78.992188 C 162.601562 78.863281 162.324219 78.675781 162.082031 78.433594 C 161.839844 78.191406 161.652344 77.910156 161.519531 77.59375 C 161.390625 77.277344 161.324219 76.949219 161.324219 76.605469 C 161.324219 76.261719 161.390625 75.933594 161.519531 75.613281 C 161.652344 75.296875 161.839844 75.019531 162.082031 74.777344 C 162.324219 74.535156 162.601562 74.347656 162.921875 74.214844 C 163.238281 74.085938 163.566406 74.019531 163.910156 74.019531 C 164.253906 74.019531 164.582031 74.085938 164.898438 74.214844 C 165.214844 74.347656 165.496094 74.535156 165.738281 74.777344 C 165.980469 75.019531 166.167969 75.296875 166.296875 75.613281 C 166.429688 75.933594 166.496094 76.261719 166.496094 76.605469 Z M 166.496094 76.605469 " fill-opacity="1" fill-rule="nonzero"/><path fill="#010101" d="M 156.726562 76.605469 C 156.726562 76.949219 156.660156 77.277344 156.53125 77.59375 C 156.398438 77.910156 156.210938 78.191406 155.96875 78.433594 C 155.726562 78.675781 155.445312 78.863281 155.128906 78.992188 C 154.8125 79.125 154.484375 79.191406 154.140625 79.191406 C 153.796875 79.191406 153.46875 79.125 153.152344 78.992188 C 152.832031 78.863281 152.554688 78.675781 152.3125 78.433594 C 152.070312 78.191406 151.882812 77.910156 151.75 77.59375 C 151.621094 77.277344 151.554688 76.949219 151.554688 76.605469 C 151.554688 76.261719 151.621094 75.933594 151.75 75.613281 C 151.882812 75.296875 152.070312 75.019531 152.3125 74.777344 C 152.554688 74.535156 152.832031 74.347656 153.152344 74.214844 C 153.46875 74.085938 153.796875 74.019531 154.140625 74.019531 C 154.484375 74.019531 154.8125 74.085938 155.128906 74.214844 C 155.445312 74.347656 155.726562 74.535156 155.96875 74.777344 C 156.210938 75.019531 156.398438 75.296875 156.53125 75.613281 C 156.660156 75.933594 156.726562 76.261719 156.726562 76.605469 Z M 156.726562 76.605469 " fill-opacity="1" fill-rule="nonzero"/><path fill="#010101" d="M 282.953125 275.988281 C 282.234375 275.988281 281.660156 275.414062 281.660156 274.695312 L 281.660156 262.886719 C 281.660156 262.167969 282.234375 261.59375 282.953125 261.59375 C 283.671875 261.59375 284.246094 262.167969 284.246094 262.886719 L 284.246094 274.695312 C 284.246094 275.414062 283.671875 275.988281 282.953125 275.988281 Z M 282.953125 275.988281 " fill-opacity="1" fill-rule="nonzero"/><path fill="#010101" d="M 282.953125 309.949219 C 282.234375 309.949219 281.660156 309.375 281.660156 308.65625 L 281.660156 282.914062 C 281.660156 282.195312 282.234375 281.621094 282.953125 281.621094 C 283.671875 281.621094 284.246094 282.195312 284.246094 282.914062 L 284.246094 308.65625 C 284.246094 309.375 283.671875 309.949219 282.953125 309.949219 Z M 282.953125 309.949219 " fill-opacity="1" fill-rule="nonzero"/><path fill="#010101" d="M 282.953125 324.605469 C 280.539062 324.605469 278.585938 322.652344 278.585938 320.238281 C 278.585938 317.824219 280.539062 315.839844 282.953125 315.839844 C 285.367188 315.839844 287.347656 317.824219 287.347656 320.238281 C 287.347656 322.621094 285.367188 324.605469 282.953125 324.605469 Z M 282.953125 324.605469 " fill-opacity="1" fill-rule="nonzero"/><g mask="url(#84e974f15a)"><g transform="matrix(1, 0, 0, 1, 336, 281)"><g clip-path="url(#bdfb5cfff1)"><path fill="#10a6a5" d="M 12.324219 4.011719 C 12.609375 3.722656 12.609375 3.261719 12.324219 3.003906 C 12.035156 2.71875 11.574219 2.71875 11.316406 3.003906 C 8.875 5.445312 4.910156 5.445312 2.496094 3.003906 C 2.207031 2.71875 1.75 2.71875 1.488281 3.003906 C 1.203125 3.292969 1.203125 3.75 1.488281 4.011719 C 2.984375 5.503906 4.964844 6.25 6.921875 6.25 C 8.84375 6.25 10.828125 5.503906 12.324219 4.011719 Z M 12.324219 4.011719 " fill-opacity="1" fill-rule="nonzero"/></g></g></g><g mask="url(#887827aa83)"><g transform="matrix(1, 0, 0, 1, 325, 292)"><g clip-path="url(#e204c1325e)"><g clip-path="url(#72ec31170c)"><path fill="#10a6a5" d="M 33.984375 2.636719 C 25.105469 11.515625 10.679688 11.515625 1.828125 2.636719 C 1.542969 2.347656 1.082031 2.347656 0.824219 2.636719 C 0.535156 2.921875 0.535156 3.382812 0.824219 3.640625 C 5.535156 8.355469 11.742188 10.710938 17.921875 10.710938 C 24.097656 10.710938 30.304688 8.355469 35.015625 3.640625 C 35.304688 3.355469 35.304688 2.894531 35.015625 2.636719 C 34.699219 2.347656 34.242188 2.347656 33.984375 2.636719 Z M 33.984375 2.636719 " fill-opacity="1" fill-rule="nonzero"/></g></g></g></g><g mask="url(#50a0c690be)"><g transform="matrix(1, 0, 0, 1, 328, 286)"><g clip-path="url(#eb22ca4657)"><g clip-path="url(#527c0c6adf)"><path fill="#10a6a5" d="M 3.109375 3.320312 C 2.824219 3.609375 2.824219 4.066406 3.109375 4.324219 C 6.359375 7.574219 10.640625 9.183594 14.890625 9.183594 C 19.144531 9.183594 23.425781 7.574219 26.671875 4.324219 C 26.960938 4.039062 26.960938 3.578125 26.671875 3.320312 C 26.386719 3.03125 25.925781 3.03125 25.667969 3.320312 C 19.71875 9.269531 10.0625 9.269531 4.144531 3.320312 C 3.859375 3.03125 3.398438 3.03125 3.109375 3.320312 Z M 3.109375 3.320312 " fill-opacity="1" fill-rule="nonzero"/></g></g></g></g><path fill="#010101" d="M 347.203125 283.257812 C 347.488281 282.96875 347.488281 282.511719 347.203125 282.25 C 346.914062 281.964844 346.453125 281.964844 346.195312 282.25 C 343.753906 284.695312 339.789062 284.695312 337.375 282.25 C 337.085938 281.964844 336.628906 281.964844 336.367188 282.25 C 336.082031 282.539062 336.082031 283 336.367188 283.257812 C 337.863281 284.75 339.847656 285.5 341.800781 285.5 C 343.726562 285.5 345.707031 284.75 347.203125 283.257812 Z M 347.203125 283.257812 " fill-opacity="1" fill-rule="nonzero"/><path fill="#010101" d="M 357.863281 292.882812 C 348.984375 301.761719 334.558594 301.761719 325.707031 292.882812 C 325.421875 292.597656 324.960938 292.597656 324.703125 292.882812 C 324.445312 293.171875 324.414062 293.628906 324.703125 293.890625 C 329.414062 298.601562 335.621094 300.957031 341.800781 300.957031 C 347.976562 300.957031 354.183594 298.601562 358.894531 293.890625 C 359.183594 293.601562 359.183594 293.140625 358.894531 292.882812 C 358.582031 292.625 358.121094 292.625 357.863281 292.882812 Z M 357.863281 292.882812 " fill-opacity="1" fill-rule="nonzero"/><path fill="#010101" d="M 329.992188 287.566406 C 329.703125 287.855469 329.703125 288.3125 329.992188 288.574219 C 333.238281 291.820312 337.519531 293.429688 341.769531 293.429688 C 346.023438 293.429688 350.304688 291.820312 353.550781 288.574219 C 353.839844 288.285156 353.839844 287.824219 353.550781 287.566406 C 353.265625 287.308594 352.804688 287.28125 352.546875 287.566406 C 346.597656 293.515625 336.945312 293.515625 331.023438 287.566406 C 330.738281 287.308594 330.277344 287.308594 329.992188 287.566406 Z M 329.992188 287.566406 " fill-opacity="1" fill-rule="nonzero"/><path fill="#010101" d="M 4.292969 96.144531 C 1.878906 96.144531 -0.0742188 94.191406 -0.0742188 91.777344 C -0.0742188 89.363281 1.878906 87.378906 4.292969 87.378906 C 6.707031 87.378906 8.691406 89.363281 8.691406 91.777344 C 8.691406 94.191406 6.738281 96.144531 4.292969 96.144531 Z M 4.292969 96.144531 " fill-opacity="1" fill-rule="nonzero"/><path fill="#010101" d="M 29.121094 40.488281 C 25.671875 40.488281 22.855469 37.671875 22.855469 34.222656 C 22.855469 30.746094 25.671875 27.929688 29.121094 27.929688 C 32.597656 27.929688 35.414062 30.746094 35.414062 34.222656 C 35.414062 37.671875 32.566406 40.488281 29.121094 40.488281 Z M 29.121094 40.488281 " fill-opacity="1" fill-rule="nonzero"/><path fill="#010101" d="M 93.65625 140.96875 C 89.085938 140.96875 85.378906 137.261719 85.378906 132.691406 C 85.378906 128.125 89.085938 124.390625 93.65625 124.390625 C 98.222656 124.390625 101.960938 128.125 101.960938 132.691406 C 101.988281 137.261719 98.253906 140.96875 93.65625 140.96875 Z M 93.65625 127.261719 C 90.667969 127.261719 88.253906 129.703125 88.253906 132.691406 C 88.253906 135.679688 90.667969 138.09375 93.65625 138.09375 C 96.644531 138.09375 99.085938 135.679688 99.085938 132.691406 C 99.117188 129.703125 96.671875 127.261719 93.65625 127.261719 Z M 93.65625 127.261719 " fill-opacity="1" fill-rule="nonzero"/><g mask="url(#b71fff0724)"><g transform="matrix(1, 0, 0, 1, 284, 183)"><g clip-path="url(#045ddc0806)"><g clip-path="url(#467d701150)"><path fill="#10a6a5" d="M 61.5625 16.269531 C 60.757812 19.804688 58.890625 22.5625 55.730469 24.515625 C 52.511719 26.496094 49.152344 27.042969 45.5 26.097656 C 45.011719 25.980469 44.496094 25.636719 44.035156 26.097656 C 43.492188 26.613281 43.316406 26.210938 43.144531 25.75 C 42.628906 24.402344 42.109375 23.078125 41.566406 21.757812 C 41.25 21.039062 41.507812 20.808594 42.253906 20.894531 C 43.664062 21.066406 45.097656 21.210938 46.535156 21.382812 C 46.824219 21.414062 47.226562 21.414062 47.195312 21.8125 C 47.167969 22.5625 47.714844 22.390625 48.085938 22.417969 C 50.273438 22.5625 52.167969 21.757812 53.976562 20.636719 C 63.863281 11.296875 50.070312 -3.011719 39.066406 9.917969 C 35.960938 13.597656 35.992188 14.199219 39.410156 17.648438 C 41.394531 19.660156 41.363281 19.628906 39.324219 21.554688 C 38.777344 22.074219 38.347656 22.101562 37.773438 21.640625 C 36.308594 20.578125 34.871094 19.429688 33.546875 18.164062 C 33.175781 17.820312 32.886719 17.675781 32.570312 17.707031 C 32.285156 17.675781 31.96875 17.820312 31.59375 18.164062 C 30.273438 19.429688 28.835938 20.550781 27.371094 21.640625 C 26.765625 22.074219 26.363281 22.074219 25.820312 21.554688 C 23.777344 19.660156 23.75 19.660156 25.734375 17.648438 C 29.125 14.199219 29.179688 13.597656 26.078125 9.917969 C 15.074219 -3.011719 1.28125 11.296875 11.164062 20.636719 C 12.976562 21.757812 14.871094 22.5625 17.054688 22.417969 C 17.429688 22.390625 17.976562 22.589844 17.945312 21.8125 C 17.917969 21.414062 18.320312 21.414062 18.605469 21.382812 C 20.042969 21.210938 21.453125 21.066406 22.886719 20.894531 C 23.636719 20.808594 23.867188 21.039062 23.578125 21.757812 C 23.03125 23.078125 22.515625 24.429688 21.996094 25.75 C 21.824219 26.210938 21.652344 26.613281 21.105469 26.097656 C 20.617188 25.636719 20.128906 25.980469 19.640625 26.097656 C 15.992188 27.015625 12.628906 26.496094 9.414062 24.515625 C 6.25 22.5625 4.382812 19.804688 3.578125 16.269531 C 1.25 3.742188 14.988281 -3.84375 24.785156 3.625 C 27.082031 5.320312 29.351562 7.074219 31.421875 9.058594 C 31.851562 9.457031 32.226562 9.6875 32.601562 9.660156 C 32.972656 9.6875 33.347656 9.488281 33.777344 9.058594 C 35.847656 7.074219 38.117188 5.320312 40.414062 3.625 C 50.128906 -3.84375 63.863281 3.742188 61.5625 16.269531 Z M 61.5625 16.269531 " fill-opacity="1" fill-rule="nonzero"/></g></g></g></g><path fill="#010101" d="M 341.253906 196.480469 C 340.449219 200.015625 338.582031 202.773438 335.421875 204.726562 C 332.203125 206.710938 328.839844 207.257812 325.191406 206.308594 C 324.703125 206.195312 324.1875 205.847656 323.726562 206.308594 C 323.179688 206.824219 323.007812 206.421875 322.835938 205.964844 C 322.316406 204.613281 321.800781 203.292969 321.253906 201.96875 C 320.9375 201.25 321.199219 201.023438 321.945312 201.109375 C 323.351562 201.28125 324.789062 201.425781 326.226562 201.597656 C 326.511719 201.625 326.914062 201.625 326.886719 202.027344 C 326.859375 202.773438 327.402344 202.601562 327.777344 202.628906 C 329.960938 202.773438 331.859375 201.96875 333.667969 200.847656 C 343.550781 191.511719 329.761719 177.203125 318.753906 190.132812 C 315.652344 193.808594 315.679688 194.414062 319.101562 197.859375 C 321.082031 199.871094 321.054688 199.84375 319.015625 201.769531 C 318.46875 202.285156 318.035156 202.316406 317.460938 201.855469 C 315.996094 200.792969 314.558594 199.640625 313.238281 198.378906 C 312.863281 198.035156 312.578125 197.890625 312.261719 197.917969 C 311.972656 197.890625 311.65625 198.035156 311.285156 198.378906 C 309.964844 199.640625 308.527344 200.761719 307.0625 201.855469 C 306.457031 202.285156 306.054688 202.285156 305.507812 201.769531 C 303.46875 199.871094 303.441406 199.871094 305.421875 197.859375 C 308.8125 194.414062 308.871094 193.808594 305.769531 190.132812 C 294.761719 177.203125 280.96875 191.511719 290.855469 200.847656 C 292.664062 201.96875 294.5625 202.773438 296.746094 202.628906 C 297.117188 202.601562 297.664062 202.804688 297.636719 202.027344 C 297.605469 201.625 298.007812 201.625 298.296875 201.597656 C 299.734375 201.425781 301.140625 201.28125 302.578125 201.109375 C 303.324219 201.023438 303.554688 201.25 303.269531 201.96875 C 302.722656 203.292969 302.203125 204.640625 301.6875 205.964844 C 301.515625 206.421875 301.34375 206.824219 300.796875 206.308594 C 300.308594 205.847656 299.820312 206.195312 299.332031 206.308594 C 295.683594 207.226562 292.320312 206.710938 289.101562 204.726562 C 285.941406 202.773438 284.074219 200.015625 283.269531 196.480469 C 280.941406 183.953125 294.675781 176.367188 304.476562 183.839844 C 306.773438 185.535156 309.042969 187.285156 311.113281 189.269531 C 311.542969 189.671875 311.917969 189.902344 312.289062 189.871094 C 312.664062 189.902344 313.039062 189.699219 313.46875 189.269531 C 315.539062 187.285156 317.808594 185.535156 320.105469 183.839844 C 329.847656 176.398438 343.582031 183.953125 341.253906 196.480469 Z M 341.253906 196.480469 " fill-opacity="1" fill-rule="nonzero"/><g mask="url(#d030c7b464)"><g transform="matrix(1, 0, 0, 1, 98, 125)"><g clip-path="url(#d015949274)"><path fill="#10a6a5" d="M 184.722656 82.890625 C 185.097656 101.851562 170.011719 117.597656 151.019531 118 C 151.019531 118 150.933594 118 150.816406 118 C 150.011719 118 147.140625 118 142.800781 117.972656 L 134.613281 117.972656 L 134.613281 152.453125 C 134.613281 153.660156 133.636719 154.609375 132.457031 154.609375 L 111.335938 154.609375 C 110.160156 154.609375 109.183594 153.660156 109.183594 152.453125 L 109.183594 118 L 77.804688 118 L 77.804688 130.242188 L 89.816406 130.242188 C 90.648438 130.242188 91.394531 130.730469 91.769531 131.476562 C 92.113281 132.226562 92.027344 133.117188 91.484375 133.777344 L 66.773438 164.0625 C 66.339844 164.578125 65.738281 164.867188 65.078125 164.867188 C 64.445312 164.867188 63.839844 164.578125 63.410156 164.0625 L 38.699219 133.777344 C 38.152344 133.117188 38.066406 132.226562 38.410156 131.476562 C 38.757812 130.730469 39.53125 130.242188 40.367188 130.242188 L 52.375 130.242188 L 52.375 117.628906 L 43.84375 117.628906 L 32.550781 117.570312 L 28.757812 117.570312 C 14.390625 117.570312 2.550781 106.046875 2.265625 91.625 C 1.976562 78.921875 10.65625 68.035156 22.78125 65.273438 C 21.945312 62.71875 21.488281 60.074219 21.429688 57.402344 C 21.285156 50.332031 23.902344 43.640625 28.785156 38.523438 C 33.699219 33.4375 40.277344 30.535156 47.347656 30.390625 C 51.972656 30.25 56.515625 31.398438 60.59375 33.609375 C 65.765625 26.285156 73.984375 21.859375 83.007812 21.6875 C 85.132812 21.628906 87.203125 21.828125 89.300781 22.261719 C 95.9375 9.789062 108.609375 1.917969 122.800781 1.628906 L 123.578125 1.628906 C 144.667969 1.628906 162.082031 18.554688 162.511719 39.757812 C 162.597656 43.496094 162.109375 47.230469 161.074219 50.9375 C 174.808594 55.449219 184.40625 68.292969 184.722656 82.890625 Z M 184.722656 82.890625 " fill-opacity="1" fill-rule="nonzero"/></g></g></g><path fill="#192a56" d="M 170.058594 237.285156 L 177.875 237.285156 C 176.695312 237.285156 175.71875 236.304688 175.71875 235.128906 C 175.71875 233.949219 176.695312 232.972656 177.875 232.972656 L 192.902344 232.972656 C 194.078125 232.972656 195.058594 233.949219 195.058594 235.128906 C 195.058594 236.304688 194.078125 237.285156 192.902344 237.285156 L 201.4375 237.285156 L 201.4375 219.296875 L 189.425781 219.296875 C 188.59375 219.296875 187.816406 218.808594 187.472656 218.0625 C 187.125 217.3125 187.210938 216.421875 187.757812 215.789062 L 212.46875 185.476562 C 213.304688 184.472656 215 184.472656 215.832031 185.476562 L 240.542969 215.789062 C 241.089844 216.421875 241.175781 217.3125 240.828125 218.0625 C 240.457031 218.808594 239.710938 219.296875 238.875 219.296875 L 226.863281 219.296875 L 226.863281 237.253906 L 235.054688 237.253906 C 233.875 237.253906 232.898438 236.277344 232.898438 235.101562 C 232.898438 233.921875 233.875 232.945312 235.054688 232.945312 C 237.523438 232.972656 239.480469 232.972656 240.886719 232.972656 L 243.214844 232.972656 C 259.792969 232.628906 273.011719 218.835938 272.667969 202.257812 C 272.378906 188.839844 263.097656 177.113281 250.082031 173.753906 C 249.507812 173.609375 249.019531 173.207031 248.730469 172.691406 C 248.445312 172.144531 248.386719 171.539062 248.585938 170.964844 C 249.910156 167.058594 250.542969 163.09375 250.457031 159.128906 C 250.054688 140.277344 234.59375 125.222656 215.832031 125.222656 L 215.140625 125.222656 C 202.011719 125.507812 190.316406 133.066406 184.65625 144.960938 C 184.195312 145.910156 183.132812 146.371094 182.125 146.113281 C 179.886719 145.507812 177.585938 145.164062 175.34375 145.277344 C 167.097656 145.421875 159.628906 149.789062 155.375 156.914062 C 155.089844 157.433594 154.601562 157.777344 154.023438 157.921875 C 153.449219 158.035156 152.847656 157.949219 152.359375 157.632812 C 148.566406 155.132812 144.167969 153.871094 139.714844 153.984375 C 133.769531 154.097656 128.25 156.511719 124.140625 160.792969 C 120.0625 165.074219 117.878906 170.679688 117.992188 176.597656 C 118.050781 179.585938 118.710938 182.546875 119.976562 185.332031 C 120.261719 185.9375 120.234375 186.683594 119.890625 187.257812 C 119.542969 187.863281 118.96875 188.265625 118.28125 188.351562 C 106.929688 189.757812 98.570312 199.414062 98.828125 210.820312 C 98.941406 216.769531 101.386719 222.285156 105.636719 226.363281 C 109.917969 230.472656 115.578125 232.65625 121.46875 232.542969 L 124.832031 232.542969 L 136.09375 232.601562 C 137.300781 232.601562 138.25 233.578125 138.25 234.753906 C 138.25 235.933594 137.417969 236.910156 136.09375 236.910156 L 144.628906 236.910156 Z M 245.484375 183.035156 C 245.773438 181.886719 246.980469 181.195312 248.097656 181.484375 C 257.667969 183.925781 264.507812 192.546875 264.707031 202.402344 C 264.734375 203.609375 263.789062 204.585938 262.582031 204.613281 L 262.550781 204.613281 C 261.375 204.613281 260.425781 203.695312 260.398438 202.515625 C 260.226562 194.554688 254.738281 187.632812 247.035156 185.648438 C 245.886719 185.363281 245.195312 184.183594 245.484375 183.035156 Z M 199.367188 138.929688 C 203.9375 135.308594 209.453125 133.324219 215.34375 133.210938 L 215.890625 133.179688 C 230.253906 133.179688 242.207031 144.90625 242.496094 159.273438 C 242.523438 160.476562 241.578125 161.457031 240.371094 161.484375 L 240.339844 161.484375 C 239.164062 161.484375 238.214844 160.535156 238.1875 159.386719 C 237.925781 147.316406 227.929688 137.492188 215.890625 137.492188 L 215.402344 137.519531 C 210.488281 137.605469 205.859375 139.273438 202.039062 142.289062 C 201.121094 143.035156 199.742188 142.894531 199.023438 141.945312 C 198.273438 141.027344 198.417969 139.644531 199.367188 138.929688 Z M 191.839844 148.382812 C 192.441406 147.144531 193.132812 145.9375 193.878906 144.820312 C 194.570312 143.839844 195.890625 143.582031 196.867188 144.242188 C 197.871094 144.933594 198.101562 146.253906 197.441406 147.261719 C 196.808594 148.179688 196.234375 149.1875 195.71875 150.25 C 195.34375 151.023438 194.597656 151.484375 193.765625 151.484375 C 193.476562 151.484375 193.160156 151.398438 192.84375 151.253906 C 191.78125 150.738281 191.320312 149.472656 191.839844 148.382812 Z M 125.953125 176.453125 C 125.867188 172.632812 127.304688 169.039062 129.945312 166.3125 C 132.617188 163.582031 136.210938 162.03125 140.148438 161.945312 C 142.933594 161.945312 145.636719 162.75 147.960938 164.300781 C 148.9375 164.933594 149.226562 166.28125 148.566406 167.257812 C 147.90625 168.265625 146.582031 168.550781 145.578125 167.890625 C 143.96875 166.828125 142.101562 166.253906 140.203125 166.253906 C 137.445312 166.3125 134.917969 167.402344 133.050781 169.300781 C 131.183594 171.195312 130.203125 173.695312 130.261719 176.339844 C 130.292969 177.546875 129.34375 178.523438 128.164062 178.550781 C 128.136719 178.550781 128.136719 178.550781 128.109375 178.550781 C 126.929688 178.550781 125.980469 177.605469 125.953125 176.453125 Z M 125.953125 176.453125 " fill-opacity="1" fill-rule="nonzero"/><path fill="#0b8ea7" d="M 137.160156 253.835938 L 157.328125 278.574219 L 177.53125 253.835938 L 167.902344 253.835938 C 166.726562 253.835938 165.75 252.886719 165.75 251.679688 L 165.75 197.085938 C 165.75 195.878906 166.695312 194.929688 167.902344 194.929688 L 146.785156 194.929688 C 147.992188 194.929688 148.9375 195.878906 148.9375 197.085938 L 148.9375 251.679688 C 148.9375 252.886719 147.960938 253.835938 146.785156 253.835938 Z M 137.160156 253.835938 " fill-opacity="1" fill-rule="nonzero"/><path fill="#010101" d="M 94.519531 210.90625 C 94.804688 225.332031 106.644531 236.851562 121.011719 236.851562 L 124.804688 236.851562 L 136.09375 236.910156 C 137.417969 236.910156 138.25 235.933594 138.25 234.753906 C 138.25 233.578125 137.300781 232.601562 136.09375 232.601562 L 124.832031 232.542969 L 121.46875 232.542969 C 115.578125 232.65625 109.917969 230.472656 105.636719 226.363281 C 101.386719 222.285156 98.941406 216.769531 98.828125 210.820312 C 98.570312 199.414062 106.929688 189.757812 118.28125 188.351562 C 118.96875 188.265625 119.542969 187.863281 119.890625 187.257812 C 120.234375 186.683594 120.261719 185.9375 119.976562 185.332031 C 118.710938 182.546875 118.050781 179.585938 117.992188 176.597656 C 117.878906 170.679688 120.0625 165.074219 124.140625 160.792969 C 128.25 156.511719 133.769531 154.097656 139.714844 153.984375 C 144.167969 153.871094 148.566406 155.132812 152.359375 157.632812 C 152.847656 157.949219 153.449219 158.035156 154.023438 157.921875 C 154.601562 157.777344 155.089844 157.433594 155.375 156.914062 C 159.628906 149.789062 167.097656 145.421875 175.34375 145.277344 C 177.585938 145.164062 179.886719 145.507812 182.125 146.113281 C 183.132812 146.371094 184.195312 145.910156 184.65625 144.960938 C 190.316406 133.066406 202.011719 125.507812 215.140625 125.222656 L 215.832031 125.222656 C 234.59375 125.222656 250.054688 140.277344 250.457031 159.128906 C 250.542969 163.09375 249.910156 167.058594 248.585938 170.964844 C 248.386719 171.539062 248.445312 172.144531 248.730469 172.691406 C 249.019531 173.207031 249.507812 173.609375 250.082031 173.753906 C 263.097656 177.113281 272.378906 188.839844 272.667969 202.257812 C 273.011719 218.835938 259.792969 232.628906 243.214844 232.972656 L 240.886719 232.972656 C 239.480469 232.972656 237.523438 232.972656 235.054688 232.945312 C 233.875 232.945312 232.898438 233.921875 232.898438 235.101562 C 232.898438 236.277344 233.875 237.253906 235.054688 237.253906 C 239.394531 237.285156 242.265625 237.285156 243.070312 237.285156 C 243.1875 237.285156 243.273438 237.285156 243.273438 237.285156 C 262.265625 236.882812 277.351562 221.136719 276.976562 202.171875 C 276.660156 187.574219 267.0625 174.730469 253.328125 170.21875 C 254.363281 166.511719 254.851562 162.777344 254.765625 159.042969 C 254.335938 137.835938 236.921875 120.910156 215.832031 120.910156 L 215.054688 120.910156 C 200.859375 121.199219 188.191406 129.074219 181.550781 141.542969 C 179.453125 141.113281 177.386719 140.910156 175.257812 140.96875 C 166.238281 141.140625 158.019531 145.566406 152.847656 152.894531 C 148.765625 150.679688 144.226562 149.53125 139.601562 149.675781 C 132.53125 149.816406 125.953125 152.71875 121.039062 157.804688 C 116.15625 162.921875 113.539062 169.617188 113.683594 176.683594 C 113.742188 179.355469 114.199219 182 115.035156 184.558594 C 102.90625 187.316406 94.230469 198.207031 94.519531 210.90625 Z M 94.519531 210.90625 " fill-opacity="1" fill-rule="nonzero"/><path fill="#010101" d="M 247.035156 185.648438 C 254.738281 187.632812 260.226562 194.554688 260.398438 202.515625 C 260.425781 203.695312 261.375 204.613281 262.550781 204.613281 L 262.582031 204.613281 C 263.789062 204.585938 264.734375 203.609375 264.707031 202.402344 C 264.507812 192.546875 257.667969 183.925781 248.097656 181.484375 C 246.980469 181.195312 245.773438 181.886719 245.484375 183.035156 C 245.195312 184.183594 245.886719 185.363281 247.035156 185.648438 Z M 247.035156 185.648438 " fill-opacity="1" fill-rule="nonzero"/><path fill="#010101" d="M 125.953125 176.453125 C 125.980469 177.605469 126.929688 178.550781 128.109375 178.550781 C 128.136719 178.550781 128.136719 178.550781 128.164062 178.550781 C 129.34375 178.523438 130.292969 177.546875 130.261719 176.339844 C 130.207031 173.695312 131.183594 171.195312 133.050781 169.300781 C 134.917969 167.402344 137.445312 166.3125 140.203125 166.253906 C 142.101562 166.253906 143.96875 166.828125 145.578125 167.890625 C 146.582031 168.550781 147.90625 168.265625 148.566406 167.257812 C 149.226562 166.28125 148.9375 164.933594 147.960938 164.300781 C 145.636719 162.75 142.933594 161.945312 140.148438 161.945312 C 136.210938 162.03125 132.617188 163.582031 129.945312 166.3125 C 127.304688 169.039062 125.867188 172.632812 125.953125 176.453125 Z M 125.953125 176.453125 " fill-opacity="1" fill-rule="nonzero"/><path fill="#010101" d="M 192.84375 151.253906 C 193.160156 151.398438 193.476562 151.484375 193.765625 151.484375 C 194.597656 151.484375 195.34375 151.023438 195.71875 150.25 C 196.234375 149.1875 196.808594 148.179688 197.441406 147.261719 C 198.101562 146.253906 197.871094 144.933594 196.867188 144.242188 C 195.890625 143.582031 194.570312 143.839844 193.878906 144.820312 C 193.132812 145.9375 192.441406 147.144531 191.839844 148.382812 C 191.320312 149.472656 191.78125 150.738281 192.84375 151.253906 Z M 192.84375 151.253906 " fill-opacity="1" fill-rule="nonzero"/><path fill="#010101" d="M 199.023438 141.945312 C 199.742188 142.894531 201.121094 143.035156 202.039062 142.289062 C 205.859375 139.273438 210.488281 137.605469 215.402344 137.519531 L 215.890625 137.492188 C 227.929688 137.492188 237.925781 147.316406 238.1875 159.386719 C 238.214844 160.535156 239.164062 161.484375 240.339844 161.484375 L 240.371094 161.484375 C 241.578125 161.457031 242.523438 160.476562 242.496094 159.273438 C 242.207031 144.90625 230.253906 133.179688 215.890625 133.179688 L 215.34375 133.210938 C 209.453125 133.324219 203.9375 135.308594 199.367188 138.929688 C 198.417969 139.644531 198.273438 141.027344 199.023438 141.945312 Z M 199.023438 141.945312 " fill-opacity="1" fill-rule="nonzero"/><path fill="#010101" d="M 130.953125 253.058594 L 155.664062 283.34375 C 156.09375 283.859375 156.699219 284.148438 157.328125 284.148438 C 157.992188 284.148438 158.59375 283.859375 159.023438 283.34375 L 183.734375 253.058594 C 184.28125 252.398438 184.367188 251.507812 184.023438 250.757812 C 183.648438 250.011719 182.902344 249.523438 182.070312 249.523438 L 170.058594 249.523438 L 170.058594 225.761719 C 170.058594 224.554688 169.109375 223.605469 167.902344 223.605469 C 166.726562 223.605469 165.75 224.554688 165.75 225.761719 L 165.75 251.679688 C 165.75 252.886719 166.726562 253.835938 167.902344 253.835938 L 177.53125 253.835938 L 157.328125 278.574219 L 137.160156 253.835938 L 146.785156 253.835938 C 147.960938 253.835938 148.9375 252.886719 148.9375 251.679688 L 148.9375 225.761719 C 148.9375 224.554688 147.960938 223.605469 146.785156 223.605469 C 145.578125 223.605469 144.628906 224.554688 144.628906 225.761719 L 144.628906 249.523438 L 132.617188 249.523438 C 131.785156 249.523438 131.007812 250.011719 130.664062 250.757812 C 130.320312 251.507812 130.40625 252.398438 130.953125 253.058594 Z M 130.953125 253.058594 " fill-opacity="1" fill-rule="nonzero"/><path fill="#010101" d="M 165.75 213.378906 L 165.75 216.855469 C 165.75 218.0625 166.695312 219.007812 167.902344 219.007812 C 169.082031 219.007812 170.058594 218.0625 170.058594 216.855469 L 170.058594 213.378906 C 170.058594 212.199219 169.082031 211.222656 167.902344 211.222656 C 166.695312 211.222656 165.75 212.199219 165.75 213.378906 Z M 165.75 213.378906 " fill-opacity="1" fill-rule="nonzero"/><path fill="#010101" d="M 144.628906 213.378906 L 144.628906 216.855469 C 144.628906 218.0625 145.605469 219.007812 146.785156 219.007812 C 147.992188 219.007812 148.9375 218.0625 148.9375 216.855469 L 148.9375 213.378906 C 148.9375 212.199219 147.992188 211.222656 146.785156 211.222656 C 145.605469 211.222656 144.628906 212.199219 144.628906 213.378906 Z M 144.628906 213.378906 " fill-opacity="1" fill-rule="nonzero"/><path fill="#010101" d="M 165.75 197.085938 L 165.75 203.609375 C 165.75 204.785156 166.695312 205.761719 167.902344 205.761719 C 169.082031 205.761719 170.058594 204.785156 170.058594 203.609375 L 170.058594 197.085938 C 170.058594 195.878906 169.082031 194.929688 167.902344 194.929688 C 166.695312 194.929688 165.75 195.878906 165.75 197.085938 Z M 165.75 197.085938 " fill-opacity="1" fill-rule="nonzero"/><path fill="#010101" d="M 144.628906 197.085938 L 144.628906 203.609375 C 144.628906 204.785156 145.605469 205.761719 146.785156 205.761719 C 147.992188 205.761719 148.9375 204.785156 148.9375 203.609375 L 148.9375 197.085938 C 148.9375 195.878906 147.992188 194.929688 146.785156 194.929688 C 145.605469 194.929688 144.628906 195.878906 144.628906 197.085938 Z M 144.628906 197.085938 " fill-opacity="1" fill-rule="nonzero"/><path fill="#010101" d="M 187.472656 218.0625 C 187.816406 218.808594 188.59375 219.296875 189.425781 219.296875 L 201.4375 219.296875 L 201.4375 243.085938 C 201.4375 244.265625 202.382812 245.242188 203.589844 245.242188 C 204.769531 245.242188 205.746094 244.265625 205.746094 243.085938 L 205.746094 217.140625 C 205.746094 215.964844 204.769531 214.984375 203.589844 214.984375 L 193.964844 214.984375 L 214.136719 190.246094 L 234.335938 214.984375 L 224.710938 214.984375 C 223.53125 214.984375 222.554688 215.964844 222.554688 217.140625 L 222.554688 243.085938 C 222.554688 244.265625 223.53125 245.242188 224.710938 245.242188 C 225.917969 245.242188 226.863281 244.265625 226.863281 243.085938 L 226.863281 219.296875 L 238.875 219.296875 C 239.710938 219.296875 240.457031 218.808594 240.828125 218.0625 C 241.175781 217.3125 241.089844 216.421875 240.542969 215.789062 L 215.832031 185.476562 C 215 184.472656 213.304688 184.472656 212.46875 185.476562 L 187.757812 215.789062 C 187.210938 216.421875 187.125 217.3125 187.472656 218.0625 Z M 187.472656 218.0625 " fill-opacity="1" fill-rule="nonzero"/><path fill="#010101" d="M 201.4375 251.964844 L 201.4375 255.441406 C 201.4375 256.648438 202.414062 257.597656 203.589844 257.597656 C 204.796875 257.597656 205.746094 256.648438 205.746094 255.441406 L 205.746094 251.964844 C 205.746094 250.789062 204.796875 249.8125 203.589844 249.8125 C 202.414062 249.8125 201.4375 250.789062 201.4375 251.964844 Z M 201.4375 251.964844 " fill-opacity="1" fill-rule="nonzero"/><path fill="#010101" d="M 222.554688 251.964844 L 222.554688 255.441406 C 222.554688 256.648438 223.503906 257.597656 224.710938 257.597656 C 225.886719 257.597656 226.863281 256.648438 226.863281 255.441406 L 226.863281 251.964844 C 226.863281 250.789062 225.886719 249.8125 224.710938 249.8125 C 223.503906 249.8125 222.554688 250.789062 222.554688 251.964844 Z M 222.554688 251.964844 " fill-opacity="1" fill-rule="nonzero"/><path fill="#010101" d="M 201.4375 265.210938 L 201.4375 271.734375 C 201.4375 272.941406 202.414062 273.890625 203.589844 273.890625 C 204.796875 273.890625 205.746094 272.941406 205.746094 271.734375 L 205.746094 265.210938 C 205.746094 264.035156 204.796875 263.058594 203.589844 263.058594 C 202.414062 263.058594 201.4375 264.035156 201.4375 265.210938 Z M 201.4375 265.210938 " fill-opacity="1" fill-rule="nonzero"/><path fill="#010101" d="M 222.554688 265.210938 L 222.554688 271.734375 C 222.554688 272.941406 223.503906 273.890625 224.710938 273.890625 C 225.886719 273.890625 226.863281 272.941406 226.863281 271.734375 L 226.863281 265.210938 C 226.863281 264.035156 225.886719 263.058594 224.710938 263.058594 C 223.503906 263.058594 222.554688 264.035156 222.554688 265.210938 Z M 222.554688 265.210938 " fill-opacity="1" fill-rule="nonzero"/><path fill="#010101" d="M 175.71875 235.128906 C 175.71875 236.304688 176.695312 237.285156 177.875 237.285156 L 192.902344 237.285156 C 194.078125 237.285156 195.058594 236.304688 195.058594 235.128906 C 195.058594 233.949219 194.078125 232.972656 192.902344 232.972656 L 177.875 232.972656 C 176.695312 232.972656 175.71875 233.949219 175.71875 235.128906 Z M 175.71875 235.128906 " fill-opacity="1" fill-rule="nonzero"/><path fill="#0b8ea7" d="M 201.4375 243.085938 L 201.4375 251.964844 C 201.4375 250.789062 202.414062 249.8125 203.589844 249.8125 C 204.796875 249.8125 205.746094 250.789062 205.746094 251.964844 L 205.746094 255.441406 C 205.746094 256.648438 204.796875 257.597656 203.589844 257.597656 C 202.414062 257.597656 201.4375 256.648438 201.4375 255.441406 L 201.4375 265.210938 C 201.4375 264.035156 202.414062 263.058594 203.589844 263.058594 C 204.796875 263.058594 205.746094 264.035156 205.746094 265.210938 L 205.746094 271.734375 C 205.746094 272.941406 204.796875 273.890625 203.589844 273.890625 L 224.710938 273.890625 C 223.503906 273.890625 222.554688 272.941406 222.554688 271.734375 L 222.554688 265.210938 C 222.554688 264.035156 223.503906 263.058594 224.710938 263.058594 C 225.886719 263.058594 226.863281 264.035156 226.863281 265.210938 L 226.863281 255.441406 C 226.863281 256.648438 225.886719 257.597656 224.710938 257.597656 C 223.503906 257.597656 222.554688 256.648438 222.554688 255.441406 L 222.554688 251.964844 C 222.554688 250.789062 223.503906 249.8125 224.710938 249.8125 C 225.886719 249.8125 226.863281 250.789062 226.863281 251.964844 L 226.863281 243.085938 C 226.863281 244.265625 225.917969 245.242188 224.710938 245.242188 C 223.53125 245.242188 222.554688 244.265625 222.554688 243.085938 L 222.554688 217.140625 C 222.554688 215.964844 223.53125 214.984375 224.710938 214.984375 L 234.335938 214.984375 L 214.136719 190.246094 L 193.964844 214.984375 L 203.589844 214.984375 C 204.769531 214.984375 205.746094 215.964844 205.746094 217.140625 L 205.746094 243.085938 C 205.746094 244.265625 204.769531 245.242188 203.589844 245.242188 C 202.382812 245.242188 201.4375 244.265625 201.4375 243.085938 Z M 201.4375 243.085938 " fill-opacity="1" fill-rule="nonzero"/><path fill="#010101" d="M 96.703125 307.105469 C 96.703125 306.386719 97.277344 305.8125 97.996094 305.8125 L 178.5625 305.8125 C 179.28125 305.8125 179.855469 306.386719 179.855469 307.105469 C 179.855469 307.824219 179.28125 308.398438 178.5625 308.398438 L 97.996094 308.398438 C 97.304688 308.398438 96.703125 307.824219 96.703125 307.105469 Z M 96.703125 307.105469 " fill-opacity="1" fill-rule="nonzero"/><path fill="#010101" d="M 185.917969 307.105469 C 185.917969 304.691406 187.875 302.738281 190.289062 302.738281 C 192.699219 302.738281 194.683594 304.691406 194.683594 307.105469 C 194.683594 309.519531 192.699219 311.503906 190.289062 311.503906 C 187.875 311.503906 185.917969 309.519531 185.917969 307.105469 Z M 185.917969 307.105469 " fill-opacity="1" fill-rule="nonzero"/></svg>