<svg xmlns="http://www.w3.org/2000/svg" xmlns:xlink="http://www.w3.org/1999/xlink" width="500" zoomAndPan="magnify" viewBox="0 0 375 374.999991" height="500" preserveAspectRatio="xMidYMid meet" version="1.0"><defs><g/><clipPath id="264dacac68"><path d="M 165.851562 164.515625 L 178.648438 164.515625 L 178.648438 174.625 L 165.851562 174.625 Z M 165.851562 164.515625 " clip-rule="nonzero"/></clipPath><clipPath id="2360eb481f"><path d="M 172.242188 164.515625 C 168.710938 164.515625 165.851562 166.777344 165.851562 169.570312 C 165.851562 172.363281 168.710938 174.625 172.242188 174.625 C 175.773438 174.625 178.636719 172.363281 178.636719 169.570312 C 178.636719 166.777344 175.773438 164.515625 172.242188 164.515625 Z M 172.242188 164.515625 " clip-rule="nonzero"/></clipPath><clipPath id="f5ea600672"><path d="M 117.25 95.066406 L 227 95.066406 L 227 128 L 117.25 128 Z M 117.25 95.066406 " clip-rule="nonzero"/></clipPath><clipPath id="2314bae31c"><path d="M 167 159 L 178 159 L 178 169.316406 L 167 169.316406 Z M 167 159 " clip-rule="nonzero"/></clipPath></defs><g fill="#192a56" fill-opacity="1"><g transform="translate(1.991855, 203.204987)"><g><path d="M 14.109375 -34.796875 L 22.890625 -34.796875 L 25.921875 -24.0625 L 29.015625 -34.796875 L 37.78125 -34.796875 L 32.046875 -18.171875 L 34.546875 -10.921875 L 42.046875 -34.796875 L 52.4375 -34.796875 L 38.8125 0 L 30.875 0 L 25.921875 -12.453125 L 21.015625 0 L 13.078125 0 L -0.53125 -34.796875 L 9.796875 -34.796875 L 17.34375 -10.921875 L 19.75 -18.171875 Z M 14.109375 -34.796875 "/></g></g></g><g fill="#192a56" fill-opacity="1"><g transform="translate(53.878712, 203.204987)"><g><path d="M 2.984375 0 L 2.984375 -34.796875 L 12.546875 -34.796875 L 12.546875 0 Z M 2.984375 0 "/></g></g></g><g fill="#192a56" fill-opacity="1"><g transform="translate(69.410472, 203.204987)"><g><path d="M 2.984375 0 L 2.984375 -34.796875 L 26.859375 -34.796875 L 26.859375 -26.453125 L 12.546875 -26.453125 L 12.546875 -20.671875 L 24.203125 -20.671875 L 24.203125 -12.9375 L 12.546875 -12.9375 L 12.546875 0 Z M 2.984375 0 "/></g></g></g><g fill="#192a56" fill-opacity="1"><g transform="translate(96.799283, 203.204987)"><g><path d="M 2.984375 0 L 2.984375 -34.796875 L 12.546875 -34.796875 L 12.546875 0 Z M 2.984375 0 "/></g></g></g><g fill="#192a56" fill-opacity="1"><g transform="translate(112.331043, 203.204987)"><g/></g></g><g fill="#192a56" fill-opacity="1"><g transform="translate(123.355159, 203.204987)"><g><path d="M 24.0625 -23.421875 C 23.082031 -24.003906 22.066406 -24.523438 21.015625 -24.984375 C 20.140625 -25.378906 19.15625 -25.75 18.0625 -26.09375 C 16.96875 -26.4375 15.894531 -26.609375 14.84375 -26.609375 C 14 -26.609375 13.320312 -26.476562 12.8125 -26.21875 C 12.300781 -25.957031 12.046875 -25.515625 12.046875 -24.890625 C 12.046875 -24.429688 12.191406 -24.054688 12.484375 -23.765625 C 12.785156 -23.472656 13.210938 -23.203125 13.765625 -22.953125 C 14.328125 -22.710938 15.003906 -22.476562 15.796875 -22.25 C 16.597656 -22.019531 17.503906 -21.738281 18.515625 -21.40625 C 20.117188 -20.914062 21.566406 -20.375 22.859375 -19.78125 C 24.148438 -19.195312 25.25 -18.503906 26.15625 -17.703125 C 27.070312 -16.910156 27.773438 -15.941406 28.265625 -14.796875 C 28.765625 -13.648438 29.015625 -12.265625 29.015625 -10.640625 C 29.015625 -8.546875 28.628906 -6.785156 27.859375 -5.359375 C 27.085938 -3.941406 26.070312 -2.804688 24.8125 -1.953125 C 23.5625 -1.109375 22.140625 -0.5 20.546875 -0.125 C 18.960938 0.25 17.375 0.4375 15.78125 0.4375 C 14.5 0.4375 13.1875 0.335938 11.84375 0.140625 C 10.507812 -0.046875 9.179688 -0.316406 7.859375 -0.671875 C 6.535156 -1.035156 5.257812 -1.460938 4.03125 -1.953125 C 2.8125 -2.441406 1.679688 -3 0.640625 -3.625 L 4.75 -12 C 5.894531 -11.28125 7.085938 -10.644531 8.328125 -10.09375 C 9.367188 -9.601562 10.550781 -9.160156 11.875 -8.765625 C 13.195312 -8.378906 14.546875 -8.1875 15.921875 -8.1875 C 16.972656 -8.1875 17.703125 -8.320312 18.109375 -8.59375 C 18.515625 -8.875 18.71875 -9.242188 18.71875 -9.703125 C 18.71875 -10.191406 18.515625 -10.609375 18.109375 -10.953125 C 17.703125 -11.296875 17.140625 -11.597656 16.421875 -11.859375 C 15.703125 -12.117188 14.875 -12.378906 13.9375 -12.640625 C 13.007812 -12.898438 12.019531 -13.210938 10.96875 -13.578125 C 9.4375 -14.097656 8.113281 -14.660156 7 -15.265625 C 5.894531 -15.867188 4.984375 -16.550781 4.265625 -17.3125 C 3.546875 -18.082031 3.015625 -18.957031 2.671875 -19.9375 C 2.328125 -20.914062 2.15625 -22.046875 2.15625 -23.328125 C 2.15625 -25.253906 2.503906 -26.953125 3.203125 -28.421875 C 3.910156 -29.890625 4.867188 -31.113281 6.078125 -32.09375 C 7.285156 -33.070312 8.664062 -33.8125 10.21875 -34.3125 C 11.769531 -34.820312 13.410156 -35.078125 15.140625 -35.078125 C 16.410156 -35.078125 17.648438 -34.953125 18.859375 -34.703125 C 20.066406 -34.460938 21.234375 -34.15625 22.359375 -33.78125 C 23.492188 -33.40625 24.550781 -33 25.53125 -32.5625 C 26.507812 -32.125 27.390625 -31.707031 28.171875 -31.3125 Z M 24.0625 -23.421875 "/></g></g></g><g fill="#192a56" fill-opacity="1"><g transform="translate(153.585744, 203.204987)"><g><path d="M 17.734375 0.296875 C 15.253906 0.296875 12.992188 -0.207031 10.953125 -1.21875 C 8.910156 -2.238281 7.160156 -3.570312 5.703125 -5.21875 C 4.253906 -6.863281 3.128906 -8.75 2.328125 -10.875 C 1.523438 -13 1.125 -15.1875 1.125 -17.4375 C 1.125 -19.726562 1.539062 -21.9375 2.375 -24.0625 C 3.207031 -26.1875 4.375 -28.054688 5.875 -29.671875 C 7.382812 -31.285156 9.160156 -32.570312 11.203125 -33.53125 C 13.242188 -34.5 15.488281 -34.984375 17.9375 -34.984375 C 20.414062 -34.984375 22.675781 -34.476562 24.71875 -33.46875 C 26.757812 -32.457031 28.503906 -31.117188 29.953125 -29.453125 C 31.410156 -27.785156 32.53125 -25.890625 33.3125 -23.765625 C 34.101562 -21.640625 34.5 -19.46875 34.5 -17.25 C 34.5 -14.957031 34.082031 -12.757812 33.25 -10.65625 C 32.414062 -8.550781 31.265625 -6.6875 29.796875 -5.0625 C 28.328125 -3.445312 26.5625 -2.148438 24.5 -1.171875 C 22.4375 -0.191406 20.179688 0.296875 17.734375 0.296875 Z M 10.828125 -17.34375 C 10.828125 -16.164062 10.960938 -15.03125 11.234375 -13.9375 C 11.515625 -12.84375 11.945312 -11.867188 12.53125 -11.015625 C 13.125 -10.171875 13.863281 -9.488281 14.75 -8.96875 C 15.632812 -8.445312 16.664062 -8.1875 17.84375 -8.1875 C 19.050781 -8.1875 20.09375 -8.453125 20.96875 -8.984375 C 21.851562 -9.523438 22.570312 -10.226562 23.125 -11.09375 C 23.6875 -11.957031 24.101562 -12.945312 24.375 -14.0625 C 24.65625 -15.175781 24.796875 -16.300781 24.796875 -17.4375 C 24.796875 -18.613281 24.644531 -19.75 24.34375 -20.84375 C 24.050781 -21.9375 23.617188 -22.898438 23.046875 -23.734375 C 22.484375 -24.566406 21.757812 -25.238281 20.875 -25.75 C 19.988281 -26.257812 18.957031 -26.515625 17.78125 -26.515625 C 16.570312 -26.515625 15.535156 -26.25 14.671875 -25.71875 C 13.804688 -25.195312 13.085938 -24.503906 12.515625 -23.640625 C 11.941406 -22.773438 11.515625 -21.796875 11.234375 -20.703125 C 10.960938 -19.609375 10.828125 -18.488281 10.828125 -17.34375 Z M 10.828125 -17.34375 "/></g></g></g><g fill="#192a56" fill-opacity="1"><g transform="translate(189.205901, 203.204987)"><g><path d="M 2.984375 0 L 2.984375 -34.796875 L 12.546875 -34.796875 L 12.546875 -8.328125 L 28.328125 -8.328125 L 28.328125 0 Z M 2.984375 0 "/></g></g></g><g fill="#192a56" fill-opacity="1"><g transform="translate(218.015599, 203.204987)"><g><path d="M 18.125 -8.1875 C 19.238281 -8.1875 20.1875 -8.429688 20.96875 -8.921875 C 21.75 -9.410156 22.382812 -10.050781 22.875 -10.84375 C 23.375 -11.644531 23.734375 -12.566406 23.953125 -13.609375 C 24.179688 -14.660156 24.296875 -15.757812 24.296875 -16.90625 L 24.296875 -34.796875 L 33.859375 -34.796875 L 33.859375 -16.90625 C 33.859375 -14.488281 33.546875 -12.222656 32.921875 -10.109375 C 32.304688 -8.003906 31.34375 -6.1875 30.03125 -4.65625 C 28.726562 -3.125 27.085938 -1.914062 25.109375 -1.03125 C 23.128906 -0.144531 20.800781 0.296875 18.125 0.296875 C 15.351562 0.296875 12.976562 -0.164062 11 -1.09375 C 9.019531 -2.03125 7.394531 -3.28125 6.125 -4.84375 C 4.851562 -6.414062 3.921875 -8.238281 3.328125 -10.3125 C 2.742188 -12.382812 2.453125 -14.582031 2.453125 -16.90625 L 2.453125 -34.796875 L 12 -34.796875 L 12 -16.90625 C 12 -15.757812 12.113281 -14.65625 12.34375 -13.59375 C 12.570312 -12.53125 12.929688 -11.597656 13.421875 -10.796875 C 13.910156 -10.003906 14.539062 -9.367188 15.3125 -8.890625 C 16.082031 -8.421875 17.019531 -8.1875 18.125 -8.1875 Z M 18.125 -8.1875 "/></g></g></g><g fill="#192a56" fill-opacity="1"><g transform="translate(254.321703, 203.204987)"><g><path d="M 30.09375 -26.453125 L 20.09375 -26.453125 L 20.09375 0 L 10.53125 0 L 10.53125 -26.453125 L 0.484375 -26.453125 L 0.484375 -34.796875 L 30.09375 -34.796875 Z M 30.09375 -26.453125 "/></g></g></g><g fill="#192a56" fill-opacity="1"><g transform="translate(284.895279, 203.204987)"><g><path d="M 2.984375 0 L 2.984375 -34.796875 L 12.546875 -34.796875 L 12.546875 0 Z M 2.984375 0 "/></g></g></g><g fill="#192a56" fill-opacity="1"><g transform="translate(300.42704, 203.204987)"><g><path d="M 17.734375 0.296875 C 15.253906 0.296875 12.992188 -0.207031 10.953125 -1.21875 C 8.910156 -2.238281 7.160156 -3.570312 5.703125 -5.21875 C 4.253906 -6.863281 3.128906 -8.75 2.328125 -10.875 C 1.523438 -13 1.125 -15.1875 1.125 -17.4375 C 1.125 -19.726562 1.539062 -21.9375 2.375 -24.0625 C 3.207031 -26.1875 4.375 -28.054688 5.875 -29.671875 C 7.382812 -31.285156 9.160156 -32.570312 11.203125 -33.53125 C 13.242188 -34.5 15.488281 -34.984375 17.9375 -34.984375 C 20.414062 -34.984375 22.675781 -34.476562 24.71875 -33.46875 C 26.757812 -32.457031 28.503906 -31.117188 29.953125 -29.453125 C 31.410156 -27.785156 32.53125 -25.890625 33.3125 -23.765625 C 34.101562 -21.640625 34.5 -19.46875 34.5 -17.25 C 34.5 -14.957031 34.082031 -12.757812 33.25 -10.65625 C 32.414062 -8.550781 31.265625 -6.6875 29.796875 -5.0625 C 28.328125 -3.445312 26.5625 -2.148438 24.5 -1.171875 C 22.4375 -0.191406 20.179688 0.296875 17.734375 0.296875 Z M 10.828125 -17.34375 C 10.828125 -16.164062 10.960938 -15.03125 11.234375 -13.9375 C 11.515625 -12.84375 11.945312 -11.867188 12.53125 -11.015625 C 13.125 -10.171875 13.863281 -9.488281 14.75 -8.96875 C 15.632812 -8.445312 16.664062 -8.1875 17.84375 -8.1875 C 19.050781 -8.1875 20.09375 -8.453125 20.96875 -8.984375 C 21.851562 -9.523438 22.570312 -10.226562 23.125 -11.09375 C 23.6875 -11.957031 24.101562 -12.945312 24.375 -14.0625 C 24.65625 -15.175781 24.796875 -16.300781 24.796875 -17.4375 C 24.796875 -18.613281 24.644531 -19.75 24.34375 -20.84375 C 24.050781 -21.9375 23.617188 -22.898438 23.046875 -23.734375 C 22.484375 -24.566406 21.757812 -25.238281 20.875 -25.75 C 19.988281 -26.257812 18.957031 -26.515625 17.78125 -26.515625 C 16.570312 -26.515625 15.535156 -26.25 14.671875 -25.71875 C 13.804688 -25.195312 13.085938 -24.503906 12.515625 -23.640625 C 11.941406 -22.773438 11.515625 -21.796875 11.234375 -20.703125 C 10.960938 -19.609375 10.828125 -18.488281 10.828125 -17.34375 Z M 10.828125 -17.34375 "/></g></g></g><g fill="#192a56" fill-opacity="1"><g transform="translate(336.047208, 203.204987)"><g><path d="M 12.546875 -17.09375 L 12.546875 0 L 2.984375 0 L 2.984375 -34.796875 L 10.4375 -34.796875 L 24.40625 -17.09375 L 24.40625 -34.796875 L 33.953125 -34.796875 L 33.953125 0 L 26.359375 0 Z M 12.546875 -17.09375 "/></g></g></g><g clip-path="url(#264dacac68)"><g clip-path="url(#2360eb481f)"><path fill="#ffffff" d="M 165.851562 164.515625 L 178.648438 164.515625 L 178.648438 174.625 L 165.851562 174.625 Z M 165.851562 164.515625 " fill-opacity="1" fill-rule="nonzero"/></g></g><g clip-path="url(#f5ea600672)"><path fill="#29abe2" d="M 225.09375 116.789062 C 217.972656 109.710938 209.671875 104.226562 200.421875 100.496094 C 191.484375 96.890625 182.050781 95.0625 172.371094 95.0625 C 162.691406 95.0625 153.253906 96.890625 144.320312 100.496094 C 135.070312 104.226562 126.765625 109.710938 119.648438 116.789062 C 117.265625 119.160156 117.265625 123 119.648438 125.367188 C 122.027344 127.734375 125.890625 127.734375 128.273438 125.367188 C 152.589844 101.191406 192.152344 101.191406 216.464844 125.367188 C 217.65625 126.550781 219.21875 127.144531 220.777344 127.144531 C 222.339844 127.144531 223.902344 126.550781 225.09375 125.367188 C 227.472656 123 227.472656 119.160156 225.09375 116.789062 Z M 225.09375 116.789062 " fill-opacity="1" fill-rule="nonzero"/></g><path fill="#29abe2" d="M 172.363281 116.535156 C 157.425781 116.535156 143.375 122.324219 132.800781 132.839844 C 130.421875 135.207031 130.421875 139.046875 132.800781 141.417969 C 135.183594 143.785156 139.046875 143.785156 141.429688 141.417969 C 158.484375 124.457031 186.238281 124.457031 203.292969 141.417969 C 204.484375 142.601562 206.046875 143.191406 207.609375 143.191406 C 209.167969 143.191406 210.730469 142.601562 211.921875 141.417969 C 214.300781 139.046875 214.300781 135.207031 211.921875 132.839844 C 201.347656 122.324219 187.296875 116.535156 172.359375 116.535156 Z M 172.363281 116.535156 " fill-opacity="1" fill-rule="nonzero"/><path fill="#29abe2" d="M 172.363281 138.46875 C 163.234375 138.46875 154.648438 142.007812 148.1875 148.429688 C 145.804688 150.800781 145.804688 154.640625 148.1875 157.007812 C 150.566406 159.375 154.429688 159.375 156.8125 157.007812 C 165.386719 148.484375 179.339844 148.484375 187.914062 157.007812 C 189.105469 158.191406 190.664062 158.785156 192.226562 158.785156 C 193.789062 158.785156 195.347656 158.191406 196.539062 157.007812 C 198.921875 154.640625 198.921875 150.800781 196.539062 148.429688 C 190.078125 142.007812 181.492188 138.46875 172.363281 138.46875 Z M 172.363281 138.46875 " fill-opacity="1" fill-rule="nonzero"/><g clip-path="url(#2314bae31c)"><path fill="#29abe2" d="M 177.402344 164.285156 C 177.402344 164.613281 177.371094 164.941406 177.304688 165.265625 C 177.242188 165.589844 177.144531 165.90625 177.019531 166.210938 C 176.890625 166.515625 176.734375 166.804688 176.550781 167.082031 C 176.363281 167.355469 176.15625 167.609375 175.917969 167.84375 C 175.683594 168.078125 175.429688 168.289062 175.152344 168.472656 C 174.875 168.65625 174.582031 168.808594 174.277344 168.9375 C 173.96875 169.0625 173.652344 169.160156 173.324219 169.222656 C 173 169.289062 172.671875 169.320312 172.335938 169.320312 C 172.003906 169.320312 171.675781 169.289062 171.347656 169.222656 C 171.023438 169.160156 170.707031 169.0625 170.398438 168.9375 C 170.09375 168.808594 169.800781 168.65625 169.523438 168.472656 C 169.246094 168.289062 168.992188 168.078125 168.757812 167.84375 C 168.519531 167.609375 168.3125 167.355469 168.125 167.082031 C 167.941406 166.804688 167.785156 166.515625 167.65625 166.210938 C 167.53125 165.90625 167.433594 165.589844 167.371094 165.265625 C 167.304688 164.941406 167.273438 164.613281 167.273438 164.285156 C 167.273438 163.953125 167.304688 163.625 167.371094 163.300781 C 167.433594 162.976562 167.53125 162.660156 167.65625 162.355469 C 167.785156 162.050781 167.941406 161.761719 168.125 161.484375 C 168.3125 161.210938 168.519531 160.957031 168.757812 160.722656 C 168.992188 160.488281 169.246094 160.28125 169.523438 160.09375 C 169.800781 159.910156 170.09375 159.757812 170.398438 159.628906 C 170.707031 159.503906 171.023438 159.40625 171.347656 159.34375 C 171.675781 159.277344 172.003906 159.246094 172.335938 159.246094 C 172.671875 159.246094 173 159.277344 173.324219 159.34375 C 173.652344 159.40625 173.96875 159.503906 174.277344 159.628906 C 174.582031 159.757812 174.875 159.910156 175.152344 160.09375 C 175.429688 160.28125 175.683594 160.488281 175.917969 160.722656 C 176.15625 160.957031 176.363281 161.210938 176.550781 161.484375 C 176.734375 161.761719 176.890625 162.050781 177.019531 162.355469 C 177.144531 162.660156 177.242188 162.976562 177.304688 163.300781 C 177.371094 163.625 177.402344 163.953125 177.402344 164.285156 Z M 177.402344 164.285156 " fill-opacity="1" fill-rule="nonzero"/></g><g fill="#192a56" fill-opacity="1"><g transform="translate(109.505227, 231.47518)"><g><path d="M 14.8125 -15.265625 L 14.8125 0 L 10.625 0 L 10.625 -5.984375 L 5.5 -5.984375 L 5.5 0 L 1.3125 0 L 1.3125 -15.265625 L 5.5 -15.265625 L 5.5 -9.625 L 10.625 -9.625 L 10.625 -15.265625 Z M 14.8125 -15.265625 "/></g></g></g><g fill="#192a56" fill-opacity="1"><g transform="translate(125.624367, 231.47518)"><g><path d="M 1.3125 0 L 1.3125 -15.265625 L 5.5 -15.265625 L 5.5 0 Z M 1.3125 0 "/></g></g></g><g fill="#192a56" fill-opacity="1"><g transform="translate(132.437389, 231.47518)"><g><path d="M 1.3125 0 L 1.3125 -15.265625 L 5.5 -15.265625 L 5.5 -3.65625 L 12.421875 -3.65625 L 12.421875 0 Z M 1.3125 0 "/></g></g></g><g fill="#192a56" fill-opacity="1"><g transform="translate(145.07479, 231.47518)"><g><path d="M 1.3125 0 L 1.3125 -15.265625 L 11.78125 -15.265625 L 11.78125 -11.609375 L 5.5 -11.609375 L 5.5 -9.078125 L 10.625 -9.078125 L 10.625 -5.671875 L 5.5 -5.671875 L 5.5 0 Z M 1.3125 0 "/></g></g></g><g fill="#192a56" fill-opacity="1"><g transform="translate(157.088922, 231.47518)"><g><path d="M -0.171875 0 L 5.53125 -15.265625 L 8.921875 -15.265625 L 14.59375 0 L 10.171875 0 L 9.25 -2.984375 L 5.1875 -2.984375 L 4.28125 0 Z M 7.21875 -10.90625 L 5.8125 -5.78125 L 8.578125 -5.78125 Z M 7.21875 -10.90625 "/></g></g></g><g fill="#192a56" fill-opacity="1"><g transform="translate(171.510171, 231.47518)"><g/></g></g><g fill="#192a56" fill-opacity="1"><g transform="translate(176.345918, 231.47518)"><g><path d="M 13.203125 -11.609375 L 8.8125 -11.609375 L 8.8125 0 L 4.625 0 L 4.625 -11.609375 L 0.21875 -11.609375 L 0.21875 -15.265625 L 13.203125 -15.265625 Z M 13.203125 -11.609375 "/></g></g></g><g fill="#192a56" fill-opacity="1"><g transform="translate(189.757042, 231.47518)"><g><path d="M -0.171875 0 L 5.53125 -15.265625 L 8.921875 -15.265625 L 14.59375 0 L 10.171875 0 L 9.25 -2.984375 L 5.1875 -2.984375 L 4.28125 0 Z M 7.21875 -10.90625 L 5.8125 -5.78125 L 8.578125 -5.78125 Z M 7.21875 -10.90625 "/></g></g></g><g fill="#192a56" fill-opacity="1"><g transform="translate(204.178291, 231.47518)"><g><path d="M 1.3125 0 L 1.3125 -15.265625 L 8.328125 -15.265625 C 9.066406 -15.265625 9.75 -15.109375 10.375 -14.796875 C 11.007812 -14.492188 11.550781 -14.09375 12 -13.59375 C 12.457031 -13.101562 12.8125 -12.535156 13.0625 -11.890625 C 13.320312 -11.253906 13.453125 -10.613281 13.453125 -9.96875 C 13.453125 -9.082031 13.257812 -8.253906 12.875 -7.484375 C 12.488281 -6.722656 11.953125 -6.097656 11.265625 -5.609375 L 14.703125 0 L 9.96875 0 L 7.078125 -4.6875 L 5.5 -4.6875 L 5.5 0 Z M 5.5 -8.34375 L 8.15625 -8.34375 C 8.40625 -8.34375 8.640625 -8.484375 8.859375 -8.765625 C 9.085938 -9.054688 9.203125 -9.457031 9.203125 -9.96875 C 9.203125 -10.5 9.070312 -10.90625 8.8125 -11.1875 C 8.550781 -11.46875 8.296875 -11.609375 8.046875 -11.609375 L 5.5 -11.609375 Z M 5.5 -8.34375 "/></g></g></g><g fill="#192a56" fill-opacity="1"><g transform="translate(218.921931, 231.47518)"><g><path d="M 7.953125 -3.59375 C 8.441406 -3.59375 8.859375 -3.695312 9.203125 -3.90625 C 9.546875 -4.125 9.820312 -4.40625 10.03125 -4.75 C 10.25 -5.101562 10.40625 -5.507812 10.5 -5.96875 C 10.601562 -6.4375 10.65625 -6.921875 10.65625 -7.421875 L 10.65625 -15.265625 L 14.859375 -15.265625 L 14.859375 -7.421875 C 14.859375 -6.359375 14.722656 -5.363281 14.453125 -4.4375 C 14.179688 -3.507812 13.753906 -2.707031 13.171875 -2.03125 C 12.597656 -1.363281 11.878906 -0.835938 11.015625 -0.453125 C 10.148438 -0.0664062 9.128906 0.125 7.953125 0.125 C 6.734375 0.125 5.691406 -0.078125 4.828125 -0.484375 C 3.960938 -0.890625 3.25 -1.4375 2.6875 -2.125 C 2.125 -2.8125 1.710938 -3.609375 1.453125 -4.515625 C 1.203125 -5.429688 1.078125 -6.398438 1.078125 -7.421875 L 1.078125 -15.265625 L 5.265625 -15.265625 L 5.265625 -7.421875 C 5.265625 -6.921875 5.3125 -6.4375 5.40625 -5.96875 C 5.507812 -5.5 5.671875 -5.085938 5.890625 -4.734375 C 6.109375 -4.390625 6.382812 -4.113281 6.71875 -3.90625 C 7.050781 -3.695312 7.460938 -3.59375 7.953125 -3.59375 Z M 7.953125 -3.59375 "/></g></g></g><g fill="#192a56" fill-opacity="1"><g transform="translate(234.847642, 231.47518)"><g><path d="M 5.5 -7.5 L 5.5 0 L 1.3125 0 L 1.3125 -15.265625 L 4.578125 -15.265625 L 10.703125 -7.5 L 10.703125 -15.265625 L 14.90625 -15.265625 L 14.90625 0 L 11.5625 0 Z M 5.5 -7.5 "/></g></g></g><g fill="#192a56" fill-opacity="1"><g transform="translate(251.05275, 231.47518)"><g><path d="M -0.171875 0 L 5.53125 -15.265625 L 8.921875 -15.265625 L 14.59375 0 L 10.171875 0 L 9.25 -2.984375 L 5.1875 -2.984375 L 4.28125 0 Z M 7.21875 -10.90625 L 5.8125 -5.78125 L 8.578125 -5.78125 Z M 7.21875 -10.90625 "/></g></g></g></svg>