<svg xmlns="http://www.w3.org/2000/svg" xmlns:xlink="http://www.w3.org/1999/xlink" width="500" zoomAndPan="magnify" viewBox="0 0 375 374.999991" height="500" preserveAspectRatio="xMidYMid meet" version="1.0"><defs><clipPath id="30b936d7ec"><path d="M 95.085938 67 L 216 67 L 216 226 L 95.085938 226 Z M 95.085938 67 " clip-rule="nonzero"/></clipPath><clipPath id="918a1241ed"><path d="M 95.085938 76 L 244 76 L 244 257 L 95.085938 257 Z M 95.085938 76 " clip-rule="nonzero"/></clipPath><clipPath id="4746d1e4da"><path d="M 95.085938 67 L 244.335938 67 L 244.335938 257.261719 L 95.085938 257.261719 Z M 95.085938 67 " clip-rule="nonzero"/></clipPath><clipPath id="78e915397f"><path d="M 25 201.132812 L 187 201.132812 L 187 295 L 25 295 Z M 25 201.132812 " clip-rule="nonzero"/></clipPath><clipPath id="66a623a885"><path d="M 19 201.132812 L 193.722656 201.132812 L 193.722656 313.632812 L 19 313.632812 Z M 19 201.132812 " clip-rule="nonzero"/></clipPath><clipPath id="8c1a10f260"><path d="M 246 128 L 350.886719 128 L 350.886719 273 L 246 273 Z M 246 128 " clip-rule="nonzero"/></clipPath><clipPath id="add08a8b12"><path d="M 225 101.386719 L 350.886719 101.386719 L 350.886719 229 L 225 229 Z M 225 101.386719 " clip-rule="nonzero"/></clipPath><clipPath id="ef551c9f4b"><path d="M 225 101.386719 L 350.886719 101.386719 L 350.886719 273.886719 L 225 273.886719 Z M 225 101.386719 " clip-rule="nonzero"/></clipPath></defs><rect x="-37.5" width="450" fill="#ffffff" y="-37.499999" height="449.999989" fill-opacity="1"/><rect x="-37.5" width="450" fill="#ffffff" y="-37.499999" height="449.999989" fill-opacity="1"/><path fill="#343434" d="M 162.273438 220.667969 L 182.316406 211.453125 L 184.5 219.539062 L 164.464844 231.101562 L 162.921875 228.597656 Z M 162.273438 220.667969 " fill-opacity="1" fill-rule="nonzero"/><path fill="#d9d9d9" d="M 164.464844 222.730469 L 164.464844 231.101562 L 129.070312 210.667969 L 129.070312 205.320312 " fill-opacity="1" fill-rule="nonzero"/><g clip-path="url(#30b936d7ec)"><path fill="#37aecf" d="M 180.652344 216.410156 L 164.464844 225.753906 L 129.070312 205.320312 L 144.609375 196.347656 M 211.484375 152.574219 L 215.664062 129.683594 C 214.605469 127.855469 213.078125 126.296875 211.183594 125.203125 L 114.136719 69.175781 C 111.101562 67.425781 107.363281 67.425781 104.332031 69.175781 L 99.605469 71.90625 C 97.160156 73.320312 95.652344 75.925781 95.652344 78.75 L 95.652344 81.015625 L 170.355469 189.441406 Z M 211.484375 152.574219 " fill-opacity="1" fill-rule="nonzero"/></g><path fill="#343434" d="M 172.382812 206.363281 L 172.382812 214.34375 L 164.328125 218.996094 L 160.46875 213.515625 L 163.949219 202.5 M 217.304688 218.84375 L 217.304688 135.800781 C 217.304688 133.617188 216.722656 131.511719 215.667969 129.6875 L 201.796875 137.691406 L 170.359375 189.441406 L 196.914062 227.980469 L 199.90625 229.710938 C 202.269531 231.074219 205.179688 231.074219 207.539062 229.710938 L 212.777344 226.6875 C 215.578125 225.066406 217.304688 222.078125 217.304688 218.84375 Z M 217.304688 218.84375 " fill-opacity="1" fill-rule="nonzero"/><g clip-path="url(#918a1241ed)"><path fill="#d9d9d9" d="M 243.300781 246.796875 C 242.863281 247.5625 241.890625 247.820312 241.125 247.378906 L 235.636719 244.210938 C 230.273438 241.113281 223.609375 241.113281 218.242188 244.210938 L 202.570312 253.257812 C 198.65625 255.515625 194.273438 256.644531 189.890625 256.644531 C 185.65625 256.644531 181.425781 255.59375 177.617188 253.484375 C 174.414062 251.714844 172.3125 248.382812 172.359375 244.71875 C 172.40625 241.261719 174.210938 238.175781 177.214844 236.445312 L 184.429688 232.277344 C 186.613281 231.015625 187.957031 228.6875 187.957031 226.164062 L 187.957031 222.808594 L 164.324219 209.164062 L 164.324219 218.996094 L 141.394531 205.972656 L 141.394531 195.925781 L 99.035156 171.472656 C 96.941406 170.261719 95.652344 168.03125 95.652344 165.613281 L 95.652344 79.808594 C 95.652344 77.308594 98.359375 75.746094 100.519531 76.996094 L 200.046875 134.460938 C 202.324219 135.773438 203.722656 138.199219 203.722656 140.824219 L 203.722656 224.050781 C 203.722656 227.542969 199.9375 229.726562 196.910156 227.980469 L 191.140625 224.648438 L 191.140625 226.167969 C 191.140625 229.828125 189.1875 233.210938 186.019531 235.039062 L 178.949219 239.121094 C 176.855469 240.328125 175.5 242.558594 175.546875 244.976562 C 175.585938 247.285156 176.800781 249.34375 178.804688 250.5 C 185.640625 254.445312 194.136719 254.445312 200.976562 250.5 L 216.644531 241.453125 C 222.992188 237.789062 230.878906 237.789062 237.226562 241.453125 L 242.714844 244.621094 C 243.480469 245.0625 243.742188 246.039062 243.300781 246.796875 Z M 206.683594 224.179688 L 215.222656 219.25 C 215.496094 219.09375 215.664062 218.800781 215.664062 218.488281 C 215.664062 217.8125 214.929688 217.386719 214.34375 217.730469 L 205.804688 222.660156 C 205.53125 222.816406 205.367188 223.109375 205.367188 223.417969 C 205.367188 224.09375 206.097656 224.515625 206.683594 224.179688 Z M 206.683594 220.386719 L 215.222656 215.457031 C 215.496094 215.300781 215.664062 215.011719 215.664062 214.699219 C 215.664062 214.023438 214.929688 213.597656 214.34375 213.9375 L 205.804688 218.867188 C 205.53125 219.023438 205.367188 219.316406 205.367188 219.628906 C 205.367188 220.304688 206.097656 220.726562 206.683594 220.386719 Z M 206.683594 216.597656 L 215.222656 211.667969 C 215.496094 211.511719 215.664062 211.21875 215.664062 210.90625 C 215.664062 210.230469 214.929688 209.804688 214.34375 210.148438 L 205.804688 215.078125 C 205.53125 215.234375 205.367188 215.527344 205.367188 215.839844 C 205.367188 216.515625 206.097656 216.9375 206.683594 216.597656 Z M 206.683594 212.808594 L 215.222656 207.875 C 215.496094 207.722656 215.664062 207.429688 215.664062 207.117188 C 215.664062 206.441406 214.929688 206.015625 214.34375 206.359375 L 205.804688 211.289062 C 205.53125 211.445312 205.367188 211.734375 205.367188 212.046875 C 205.367188 212.722656 206.097656 213.144531 206.683594 212.808594 Z M 206.683594 209.019531 L 215.222656 204.089844 C 215.496094 203.933594 215.664062 203.640625 215.664062 203.332031 C 215.664062 202.65625 214.929688 202.230469 214.34375 202.570312 L 205.804688 207.5 C 205.53125 207.65625 205.367188 207.949219 205.367188 208.261719 C 205.367188 208.933594 206.097656 209.359375 206.683594 209.019531 Z M 206.683594 205.230469 L 215.222656 200.300781 C 215.496094 200.144531 215.664062 199.851562 215.664062 199.539062 C 215.664062 198.863281 214.929688 198.4375 214.34375 198.78125 L 205.804688 203.710938 C 205.53125 203.867188 205.367188 204.160156 205.367188 204.46875 C 205.367188 205.140625 206.097656 205.566406 206.683594 205.230469 Z M 206.683594 205.230469 " fill-opacity="1" fill-rule="nonzero"/></g><g clip-path="url(#4746d1e4da)"><path fill="#343434" d="M 194.285156 215.9375 L 102.792969 163.113281 C 100.808594 161.96875 99.585938 159.847656 99.585938 157.558594 L 99.585938 85.191406 C 99.585938 83.265625 101.671875 82.058594 103.335938 83.023438 L 195.75 136.378906 C 198.152344 137.765625 199.628906 140.332031 199.625 143.105469 L 199.527344 212.917969 C 199.519531 215.601562 196.613281 217.28125 194.285156 215.9375 Z M 149.703125 192.089844 C 148.347656 191.382812 146.84375 192.191406 146.84375 193.984375 C 146.84375 195.839844 148.171875 197.785156 149.617188 198.609375 C 151.066406 199.429688 152.53125 198.386719 152.53125 196.902344 C 152.53125 195.421875 151.691406 193.136719 149.703125 192.089844 Z M 243.792969 247.082031 C 243.503906 247.578125 243.039062 247.941406 242.480469 248.089844 C 241.925781 248.238281 241.34375 248.160156 240.84375 247.871094 L 235.355469 244.703125 C 230.167969 241.707031 223.71875 241.707031 218.53125 244.703125 L 202.859375 253.75 C 198.929688 256.015625 194.449219 257.210938 189.890625 257.210938 C 185.5 257.210938 181.164062 256.09375 177.34375 253.984375 C 173.871094 252.066406 171.742188 248.511719 171.792969 244.714844 C 171.839844 241.0625 173.761719 237.789062 176.929688 235.957031 L 184.144531 231.789062 C 186.148438 230.636719 187.386719 228.480469 187.386719 226.167969 L 187.386719 223.136719 L 183.390625 220.828125 L 164.875 231.515625 C 164.746094 231.59375 164.605469 231.628906 164.460938 231.628906 C 164.316406 231.628906 164.171875 231.589844 164.046875 231.515625 L 163.785156 231.363281 L 128.5 210.992188 L 128.5 204.988281 L 128.945312 204.730469 C 128.945312 204.730469 128.945312 204.730469 128.949219 204.730469 L 140.828125 197.871094 L 140.828125 196.253906 L 98.753906 171.960938 C 96.492188 170.65625 95.085938 168.222656 95.085938 165.613281 L 95.085938 78.75 C 95.085938 75.734375 96.710938 72.925781 99.320312 71.417969 L 104.050781 68.6875 C 107.25 66.839844 111.222656 66.839844 114.421875 68.6875 L 211.472656 124.71875 C 213.414062 125.839844 215.035156 127.460938 216.15625 129.402344 C 217.277344 131.34375 217.871094 133.558594 217.871094 135.796875 L 217.871094 218.84375 C 217.871094 222.269531 216.027344 225.457031 213.0625 227.171875 L 207.824219 230.195312 C 206.558594 230.925781 205.140625 231.289062 203.726562 231.289062 C 202.308594 231.289062 200.890625 230.925781 199.625 230.195312 L 196.632812 228.46875 L 191.714844 225.625 L 191.714844 226.160156 C 191.714844 230.007812 189.644531 233.597656 186.308594 235.523438 L 179.238281 239.605469 C 177.273438 240.742188 176.078125 242.792969 176.121094 244.960938 C 176.15625 247.066406 177.269531 248.949219 179.097656 250.007812 C 185.757812 253.855469 194.039062 253.855469 200.703125 250.007812 L 216.371094 240.960938 C 222.894531 237.195312 230.996094 237.195312 237.519531 240.960938 L 243.007812 244.128906 C 244.035156 244.726562 244.390625 246.054688 243.792969 247.082031 Z M 96.464844 76.878906 C 96.628906 76.742188 96.804688 76.617188 96.996094 76.507812 C 98.1875 75.820312 99.613281 75.820312 100.804688 76.507812 L 200.332031 133.972656 C 202.773438 135.378906 204.289062 138.003906 204.289062 140.824219 L 204.289062 224.050781 C 204.289062 225.894531 203.335938 227.546875 201.738281 228.472656 C 201.183594 228.792969 200.585938 229 199.984375 229.097656 L 200.191406 229.21875 C 202.371094 230.476562 205.078125 230.476562 207.257812 229.21875 L 212.496094 226.195312 C 215.113281 224.683594 216.738281 221.871094 216.738281 218.847656 L 216.738281 135.800781 C 216.738281 133.757812 216.199219 131.742188 215.175781 129.972656 C 214.15625 128.203125 212.675781 126.722656 210.90625 125.703125 L 113.855469 69.667969 C 111.007812 68.023438 107.464844 68.023438 104.617188 69.667969 L 99.890625 72.398438 C 98.179688 73.386719 96.960938 75.015625 96.464844 76.878906 Z M 99.320312 170.980469 L 197.195312 227.492188 C 198.441406 228.207031 199.925781 228.207031 201.167969 227.492188 C 202.414062 226.773438 203.15625 225.484375 203.15625 224.050781 L 203.15625 140.824219 C 203.15625 138.40625 201.855469 136.160156 199.761719 134.949219 L 100.238281 77.488281 C 99.820312 77.246094 99.359375 77.121094 98.898438 77.121094 C 98.4375 77.121094 97.976562 77.246094 97.554688 77.488281 C 96.71875 77.96875 96.214844 78.839844 96.214844 79.808594 L 96.214844 165.613281 C 96.21875 167.820312 97.410156 169.875 99.320312 170.980469 Z M 141.964844 205.648438 L 163.761719 218.023438 L 163.761719 211.757812 L 141.964844 199.175781 Z M 164.894531 218.015625 L 171.710938 214.082031 L 164.894531 210.148438 Z M 130.203125 205.316406 L 164.464844 225.097656 L 177.632812 217.496094 L 172.839844 214.734375 L 164.332031 219.644531 L 163.621094 219.238281 L 163.558594 219.203125 L 163.269531 219.039062 L 140.835938 206.300781 L 140.835938 199.179688 Z M 129.636719 210.34375 L 163.601562 229.953125 L 163.898438 230.125 L 163.898438 226.082031 L 129.636719 206.300781 Z M 182.261719 220.175781 L 178.761719 218.15625 L 165.03125 226.082031 L 165.03125 230.125 Z M 242.4375 245.113281 L 236.949219 241.945312 C 230.777344 238.382812 223.105469 238.382812 216.933594 241.945312 L 201.261719 250.996094 C 194.253906 255.042969 185.539062 255.042969 178.523438 250.996094 C 176.351562 249.742188 175.023438 247.496094 174.980469 244.988281 C 174.933594 242.40625 176.34375 239.972656 178.667969 238.632812 L 185.738281 234.546875 C 188.726562 232.824219 190.578125 229.613281 190.578125 226.167969 L 190.578125 224.976562 L 188.523438 223.792969 L 188.523438 226.167969 C 188.523438 228.886719 187.0625 231.414062 184.714844 232.769531 L 177.496094 236.9375 C 174.679688 238.566406 172.96875 241.480469 172.929688 244.730469 C 172.886719 248.113281 174.785156 251.277344 177.894531 252.996094 C 181.546875 255.015625 185.695312 256.085938 189.894531 256.085938 C 194.253906 256.085938 198.539062 254.941406 202.292969 252.773438 L 217.964844 243.726562 C 223.503906 240.527344 230.382812 240.527344 235.925781 243.726562 L 241.414062 246.890625 C 241.652344 247.027344 241.925781 247.066406 242.191406 246.996094 C 242.460938 246.921875 242.679688 246.753906 242.816406 246.515625 C 243.097656 246.027344 242.925781 245.394531 242.4375 245.113281 Z M 242.4375 245.113281 " fill-opacity="1" fill-rule="nonzero"/></g><path fill="#343434" d="M 192.914062 276.011719 L 192.914062 282.425781 L 140.167969 312.882812 L 135.847656 305.570312 Z M 192.914062 276.011719 " fill-opacity="1" fill-rule="nonzero"/><path fill="#d9d9d9" d="M 140.167969 306.464844 L 140.167969 312.882812 L 19.582031 243.261719 L 19.582031 236.847656 L 20.140625 236.527344 L 138.800781 302.6875 Z M 140.167969 306.464844 " fill-opacity="1" fill-rule="nonzero"/><path fill="#37aecf" d="M 192.914062 276.011719 L 140.167969 306.464844 L 20.140625 237.167969 C 19.894531 237.027344 19.894531 236.671875 20.140625 236.527344 L 25.582031 233.386719 L 186.769531 272.464844 Z M 192.914062 276.011719 " fill-opacity="1" fill-rule="nonzero"/><path fill="#343434" d="M 77.988281 205.085938 L 77.988281 208.515625 L 85.238281 209.273438 L 85.238281 212.773438 L 92.488281 213.460938 L 92.488281 217.304688 L 99.742188 217.648438 L 99.742188 221.226562 L 106.992188 221.839844 L 106.992188 224.582031 L 114.242188 226.027344 L 114.242188 228.992188 L 121.492188 230.214844 L 121.492188 233.390625 L 128.746094 234.402344 L 128.746094 237.609375 L 135.996094 238.585938 L 135.996094 241.78125 L 143.246094 242.777344 L 143.246094 246.355469 L 150.496094 246.964844 L 150.496094 250.367188 L 157.75 251.148438 L 157.75 254.28125 L 165 255.332031 L 165 258.292969 L 172.25 259.519531 L 172.25 262.171875 L 179.5 263.710938 L 179.5 267.039062 L 186.753906 267.78125 L 186.753906 274.710938 L 140.152344 301.777344 L 137.25 298.289062 L 134.347656 298.425781 L 132.902344 297.589844 L 130.703125 293.363281 L 127.097656 294.234375 L 125.652344 293.398438 L 123.222656 288.492188 L 119.847656 290.046875 L 118.398438 289.210938 L 116.847656 285.25 L 112.59375 285.859375 L 111.148438 285.023438 L 108.8125 280.199219 L 105.34375 281.671875 L 103.898438 280.835938 L 102.019531 276.300781 L 98.089844 277.484375 L 96.644531 276.648438 L 92.703125 270.507812 L 54.578125 252.359375 L 53.128906 251.523438 L 50.886719 247.179688 L 44.902344 246.8125 L 43.457031 245.9375 L 40.632812 241.757812 L 35.234375 241.195312 L 33.789062 240.359375 L 30.644531 230.214844 Z M 77.988281 205.085938 " fill-opacity="1" fill-rule="nonzero"/><path fill="#d9d9d9" d="M 66.28125 216.820312 L 64.867188 216.703125 L 64.867188 214.332031 L 69.890625 216.449219 L 70.671875 217.683594 L 70.671875 220.929688 L 66.28125 220.402344 Z M 69.976562 212.546875 L 71.421875 212.769531 L 71.421875 208.871094 L 67.539062 205.519531 L 65.617188 205.519531 L 65.617188 208.992188 L 69.976562 209.707031 Z M 77.230469 217.066406 L 78.679688 216.449219 L 78.679688 213.0625 L 74.871094 209.707031 L 72.871094 209.707031 L 72.871094 213.675781 L 77.230469 213.898438 Z M 80.125 217.632812 C 80.085938 217.753906 84.484375 218.085938 84.484375 218.085938 L 84.484375 220.933594 L 85.929688 220.792969 L 85.929688 217.25 L 81.375 213.675781 L 80.125 213.898438 C 80.125 213.898438 80.164062 217.511719 80.125 217.632812 Z M 91.734375 222.269531 L 91.734375 225.171875 L 93.179688 224.707031 L 93.179688 221.4375 L 89.28125 218.085938 L 87.375 218.085938 L 87.375 221.546875 Z M 98.988281 229.445312 L 100.433594 229.140625 L 100.433594 225.621094 L 96.359375 222.488281 L 94.628906 222.269531 L 94.628906 226.03125 L 98.988281 226.457031 Z M 106.25 233.589844 L 107.6875 233.164062 L 107.6875 229.808594 L 103.8125 226.238281 L 101.882812 226.457031 L 101.882812 229.601562 L 106.242188 230.644531 Z M 113.488281 234.832031 L 113.488281 237.601562 L 114.9375 236.742188 L 114.9375 233.996094 L 110.558594 230.421875 L 109.132812 230.644531 L 109.132812 234.238281 Z M 120.746094 241.597656 L 122.191406 241.542969 L 122.191406 238.183594 L 118.53125 235.050781 L 116.386719 234.832031 L 116.386719 237.683594 L 120.746094 239.019531 Z M 127.996094 245.730469 L 129.441406 245.386719 L 129.441406 242.367188 L 126.105469 239.234375 C 126.074219 239.164062 123.636719 239.015625 123.636719 239.015625 L 123.636719 242.585938 L 127.996094 243.203125 Z M 135.246094 247.390625 L 135.246094 250.359375 L 136.691406 249.914062 C 136.691406 249.914062 136.6875 246.695312 136.691406 246.554688 L 131.945312 242.984375 L 130.886719 243.203125 L 130.886719 246.003906 Z M 142.5 254.71875 L 143.945312 254.101562 C 143.945312 254.101562 143.964844 250.855469 143.945312 250.746094 L 140.050781 247.023438 L 138.140625 247.390625 L 138.140625 251.097656 L 142.5 251.578125 Z M 149.753906 259.300781 L 151.199219 259.121094 L 151.199219 254.933594 L 147.121094 251.582031 L 145.394531 251.582031 L 145.394531 254.722656 L 149.753906 255.769531 Z M 157.003906 259.953125 C 157.003906 259.953125 157.078125 262.875 157.003906 262.957031 C 156.925781 263.039062 158.449219 263.921875 158.449219 263.921875 L 158.449219 259.117188 L 154.738281 255.335938 L 152.644531 255.765625 L 152.644531 259.117188 Z M 163.28125 259.523438 L 159.894531 259.953125 L 159.894531 263.304688 L 165.699219 267.28125 C 165.699219 267.28125 165.703125 263.453125 165.699219 263.304688 Z M 179.957031 269.765625 C 179.984375 269.683594 174.402344 268.328125 174.402344 268.328125 L 174.402344 271.683594 L 178.761719 272.519531 L 178.761719 277.820312 L 180.207031 278.65625 L 180.207031 271.683594 Z M 166.394531 272.949219 L 166.394531 276.300781 L 170.753906 277.136719 L 170.753906 282.441406 L 172.199219 283.277344 L 172.199219 276.300781 L 169.398438 273.621094 Z M 154.605469 264.972656 L 151.886719 264.578125 L 151.886719 266.90625 L 153.300781 267.066406 L 153.300781 269.925781 L 163.496094 272.949219 L 163.496094 275.796875 L 164.945312 275.554688 C 164.945312 275.554688 165.011719 272.222656 164.945312 272.113281 Z M 146.050781 266.265625 L 150.441406 267.394531 C 150.441406 267.394531 150.515625 263.84375 150.441406 263.738281 L 148.507812 260.972656 C 148.53125 260.902344 144.636719 260.386719 144.636719 260.386719 L 144.636719 262.738281 L 146.050781 262.875 Z M 138.800781 261.863281 L 143.191406 262.394531 L 143.191406 259.554688 L 141.136719 256.957031 L 137.386719 256.199219 L 137.386719 258.132812 L 138.800781 258.6875 Z M 131.550781 254.503906 L 131.550781 257.769531 L 135.941406 258.292969 L 135.941406 255.367188 L 132.339844 251.691406 C 132.414062 251.644531 130.136719 252.015625 130.136719 252.015625 L 130.136719 254.195312 Z M 124.296875 254.105469 L 128.6875 254.585938 L 128.6875 251.179688 L 124.792969 247.609375 L 122.878906 247.828125 L 122.878906 250.027344 L 124.296875 250.316406 Z M 117.042969 249.917969 L 121.433594 250.75 L 121.433594 246.992188 L 119.96875 243.289062 L 115.628906 243.644531 L 115.628906 245.730469 L 117.042969 246.132812 Z M 109.792969 241.941406 L 109.792969 245.195312 L 114.25 245.390625 L 114.25 243.074219 L 114.132812 240.292969 L 108.382812 239.457031 L 108.382812 241.601562 Z M 102.539062 237.753906 L 102.539062 240.929688 L 106.929688 241.054688 L 106.929688 238.617188 L 104.777344 235.410156 L 101.125 235.265625 L 101.125 237.355469 Z M 95.289062 236.277344 L 99.679688 236.742188 L 99.679688 234.433594 L 97.914062 230.863281 L 93.875 231.082031 L 93.875 233.085938 L 95.289062 233.570312 Z M 88.035156 232.554688 L 92.425781 232.960938 L 92.425781 230.246094 L 90.378906 226.675781 L 86.621094 226.894531 L 86.621094 228.714844 L 88.035156 229.382812 Z M 80.78125 225.195312 L 80.78125 228.074219 L 85.171875 228.582031 L 85.171875 226.058594 L 82.269531 222.707031 L 79.367188 222.707031 L 79.367188 224.882812 Z M 73.53125 224.140625 L 77.921875 224.574219 L 77.921875 221.871094 L 75.957031 218.515625 L 72.117188 218.515625 L 72.117188 220.453125 L 73.53125 221.003906 Z M 63.417969 213.496094 L 61.308594 211.125 C 61.308594 211.125 57.707031 210.101562 57.613281 210.144531 L 57.613281 215.605469 L 63.417969 216.449219 Z M 59.71875 220.609375 L 53.84375 215.074219 L 49.605469 214.769531 L 49.605469 217.257812 L 59.714844 223.371094 L 59.714844 220.609375 Z M 66.96875 224.796875 L 62.765625 220.933594 L 61.164062 221.449219 L 61.164062 223.53125 L 62.636719 223.96875 L 62.636719 227.03125 L 66.96875 227.582031 Z M 68.5 227.5625 L 69.890625 228.148438 L 69.890625 230.332031 L 74.226562 231.335938 L 74.226562 228.976562 L 72.121094 226.242188 L 68.421875 225.625 Z M 81.476562 233.167969 L 80.382812 230.863281 L 75.671875 229.816406 L 75.671875 231.582031 L 77.140625 232.335938 L 77.140625 235.082031 L 81.476562 235.582031 Z M 88.726562 237.355469 L 84.710938 233.785156 L 82.921875 234.003906 L 82.921875 235.84375 L 84.390625 236.523438 L 84.390625 239.308594 L 88.726562 240.035156 Z M 95.976562 241.542969 L 92.921875 237.660156 L 90.171875 238.191406 C 90.171875 238.191406 90.183594 240.277344 90.171875 240.308594 C 90.164062 240.339844 91.644531 240.710938 91.644531 240.710938 L 91.644531 243.34375 L 95.976562 244.882812 Z M 103.230469 245.730469 L 99.296875 242.492188 L 97.425781 242.378906 L 97.425781 244.496094 L 98.898438 244.898438 L 98.898438 248.246094 L 103.230469 248.246094 Z M 110.484375 249.917969 L 107.351562 246.566406 L 104.679688 246.566406 L 104.679688 248.351562 L 106.148438 249.085938 L 106.148438 252.105469 L 110.484375 253.488281 Z M 111.929688 253.027344 L 113.398438 253.269531 C 113.398438 253.269531 113.394531 256.351562 113.398438 256.402344 C 113.402344 256.457031 117.734375 256.628906 117.734375 256.628906 L 117.734375 254.101562 L 115.230469 251.5 L 111.929688 250.75 Z M 124.988281 258.292969 L 122.976562 255.171875 L 119.183594 254.941406 L 119.183594 257.234375 L 120.652344 257.457031 L 120.652344 260.300781 L 124.988281 261.066406 Z M 126.433594 261.246094 L 127.90625 261.648438 C 127.90625 261.648438 127.945312 264.457031 127.90625 264.511719 C 127.863281 264.5625 132.238281 265.222656 132.238281 265.222656 L 132.238281 262.480469 L 129.816406 260.285156 L 126.433594 259.128906 Z M 139.492188 266.664062 L 137.992188 264.214844 L 133.6875 263.3125 L 133.6875 265.304688 L 135.15625 265.832031 L 135.222656 268.117188 L 139.492188 269.238281 Z M 140.941406 267.5 L 140.941406 269.5 L 142.410156 270.019531 L 142.410156 272.304688 L 146.746094 273.375 L 146.746094 270.851562 C 146.765625 270.921875 145.335938 268.738281 145.335938 268.738281 Z M 148.175781 271.679688 L 148.175781 273.652344 C 148.175781 273.652344 147.9375 274.847656 148.023438 274.847656 C 148.109375 274.847656 155.496094 277.570312 155.496094 277.570312 L 155.496094 279.652344 L 156.941406 279.652344 L 156.941406 276.734375 L 156.167969 275.660156 Z M 158.386719 280.347656 L 162.746094 281.761719 L 162.746094 287.066406 L 164.191406 287.902344 L 164.191406 280.925781 L 158.386719 277.574219 Z M 137.292969 274.644531 L 137.292969 277.390625 L 140.230469 278.007812 L 140.230469 280.246094 L 141.660156 279.28125 L 142.5 280.941406 C 142.5 280.941406 147.488281 282.144531 147.480469 282.195312 L 147.480469 284.660156 L 148.925781 283.464844 L 148.925781 281.359375 L 148.550781 279.890625 Z M 130.042969 273.605469 L 135.847656 276.292969 L 135.847656 273.804688 L 135.414062 273.019531 L 130.042969 270.453125 Z M 128.59375 269.617188 L 127.980469 268.472656 L 122.789062 266.265625 L 122.789062 269.433594 L 128.59375 271.441406 Z M 115.539062 262.082031 L 115.539062 265.589844 L 121.34375 267.148438 L 121.34375 265.433594 L 120.402344 264.339844 Z M 114.09375 261.246094 L 113.726562 260.082031 L 108.289062 257.898438 L 108.289062 261.019531 L 114.09375 263.0625 Z M 106.839844 257.058594 L 106.574219 256.332031 L 101.035156 253.707031 L 101.035156 257.222656 L 106.839844 258.886719 Z M 99.585938 252.875 L 99.324219 252.039062 L 93.777344 249.519531 L 93.777344 252.550781 L 99.585938 254.691406 Z M 92.335938 248.683594 C 92.320312 248.625 92.210938 247.929688 92.210938 247.929688 L 86.53125 245.332031 L 86.53125 249.109375 L 92.335938 250.449219 C 92.335938 250.449219 92.355469 248.746094 92.335938 248.683594 Z M 85.082031 244.496094 L 79.277344 241.144531 L 79.277344 244.390625 L 85.082031 246.386719 Z M 77.832031 240.3125 L 72.027344 236.960938 L 72.027344 240.421875 L 77.832031 242.164062 Z M 70.582031 238.003906 L 70.582031 236.128906 L 64.773438 232.777344 L 64.773438 234.800781 L 65.144531 235.390625 Z M 57.519531 228.585938 L 57.519531 231.59375 L 63.324219 233.789062 L 63.324219 231.941406 Z M 56.074219 227.75 L 41.597656 219.390625 L 41.597656 224.578125 L 56.074219 229.535156 Z M 25.898438 228.457031 L 25.582031 228.640625 L 25.582031 235.613281 L 33.804688 240.359375 L 33.804688 233.386719 L 33.417969 231.230469 Z M 35.25 241.195312 L 43.46875 245.941406 L 43.46875 238.96875 L 35.25 234.222656 Z M 44.917969 246.816406 L 53.144531 251.527344 L 53.144531 244.550781 L 44.917969 239.804688 Z M 54.589844 252.359375 L 96.65625 276.648438 L 96.65625 269.671875 L 54.589844 245.386719 Z M 98.101562 277.484375 L 103.910156 280.835938 L 103.910156 273.859375 L 98.101562 270.507812 Z M 105.355469 281.671875 L 111.160156 285.023438 L 111.160156 278.046875 L 105.355469 274.695312 Z M 112.605469 285.855469 L 118.410156 289.207031 L 118.410156 282.234375 L 112.605469 278.878906 Z M 119.859375 290.042969 L 125.664062 293.394531 L 125.664062 286.421875 L 119.859375 283.070312 Z M 127.109375 294.234375 L 132.914062 297.585938 L 132.914062 290.609375 L 127.109375 287.257812 Z M 134.363281 298.417969 L 140.167969 301.769531 L 140.167969 294.792969 L 134.363281 291.441406 Z M 49.816406 233.386719 L 33.589844 224.015625 L 33.589844 225.640625 L 49.816406 235.054688 Z M 51.265625 236.125 L 51.480469 236.011719 L 57.070312 239.242188 L 57.070312 237.574219 L 51.265625 234.222656 Z M 61.152344 241.597656 L 64.324219 243.429688 L 64.324219 241.761719 L 58.519531 238.410156 L 58.523438 240.082031 L 59.707031 240.765625 L 59.707031 242.433594 Z M 71.578125 245.945312 L 65.769531 242.597656 L 65.769531 244.265625 L 71.574219 247.617188 L 71.574219 245.945312 Z M 78.828125 250.132812 L 73.023438 246.78125 L 73.023438 248.453125 L 78.828125 251.804688 Z M 85.9375 255.910156 L 85.9375 254.242188 L 80.273438 250.972656 L 80.273438 252.640625 Z M 93.332031 258.507812 L 87.527344 255.15625 L 87.527344 256.824219 C 87.527344 256.824219 93.238281 260.121094 93.332031 260.175781 C 93.425781 260.230469 93.332031 258.507812 93.332031 258.507812 Z M 100.585938 262.695312 L 94.777344 259.34375 L 94.777344 261.011719 L 100.585938 264.363281 Z M 107.835938 266.882812 L 102.03125 263.53125 L 102.03125 265.199219 L 103.09375 265.824219 L 103.09375 267.625 L 104.664062 266.71875 L 107.839844 268.554688 L 107.839844 266.882812 Z M 167.148438 264.140625 L 167.148438 267.5 L 171.507812 268.328125 L 171.507812 270.851562 L 172.953125 271.058594 L 172.953125 267.488281 L 171.246094 264.417969 Z M 115.085938 271.070312 L 109.28125 267.714844 L 109.28125 269.386719 L 110.464844 270.070312 L 110.464844 271.742188 L 111.910156 270.90625 C 111.910156 270.90625 115.007812 272.691406 115.085938 272.738281 C 115.167969 272.785156 115.085938 271.070312 115.085938 271.070312 Z M 122.339844 275.257812 L 116.535156 271.90625 L 116.535156 273.574219 L 117.71875 274.273438 L 117.71875 275.929688 L 119.167969 275.09375 L 122.339844 276.925781 Z M 123.792969 277.765625 L 124.976562 278.449219 C 124.976562 278.449219 124.976562 279.332031 124.976562 280.117188 L 126.421875 279.28125 L 132.226562 282.632812 L 132.226562 284.300781 L 133.671875 283.523438 L 133.671875 281.796875 L 123.792969 276.09375 Z M 135.179688 284.304688 L 139.476562 286.820312 L 139.476562 288.492188 L 140.921875 287.652344 L 140.921875 285.984375 L 135.175781 282.597656 L 135.175781 284.304688 Z M 142.367188 288.492188 L 146.726562 291.007812 L 146.726562 296.308594 L 148.171875 297.144531 L 148.171875 290.167969 L 142.367188 286.816406 Z M 150.378906 282.199219 L 150.378906 284.210938 L 154.738281 286.386719 L 154.769531 291.671875 L 156.214844 292.507812 C 156.183594 292.425781 156.183594 285.554688 156.183594 285.554688 Z M 150.378906 282.199219 " fill-opacity="1" fill-rule="nonzero"/><g clip-path="url(#78e915397f)"><path fill="#37aecf" d="M 71.425781 208.871094 L 65.621094 205.519531 L 72.183594 201.734375 L 77.988281 205.085938 Z M 78.679688 213.0625 L 85.238281 209.273438 L 79.433594 205.921875 L 72.871094 209.707031 Z M 85.929688 217.25 L 92.488281 213.460938 L 86.683594 210.109375 L 80.125 213.898438 Z M 93.183594 221.433594 L 99.746094 217.644531 L 93.9375 214.292969 L 87.378906 218.082031 Z M 100.433594 225.621094 L 106.996094 221.835938 L 101.191406 218.484375 L 94.628906 222.269531 Z M 107.683594 229.808594 L 114.246094 226.023438 L 108.441406 222.671875 L 101.878906 226.457031 Z M 114.9375 233.996094 L 121.496094 230.207031 L 115.691406 226.855469 L 109.132812 230.644531 Z M 122.191406 238.183594 L 128.75 234.394531 L 122.945312 231.042969 L 116.386719 234.832031 Z M 129.441406 242.371094 L 136.003906 238.582031 L 130.199219 235.230469 L 123.636719 239.019531 Z M 136.691406 246.554688 L 143.253906 242.769531 L 137.449219 239.417969 L 130.886719 243.203125 Z M 143.945312 250.746094 L 150.507812 246.957031 L 144.703125 243.605469 L 138.140625 247.390625 Z M 151.199219 254.933594 L 157.757812 251.144531 L 151.953125 247.792969 L 145.394531 251.582031 Z M 158.449219 259.117188 L 165.011719 255.328125 L 159.207031 251.976562 L 152.644531 255.765625 Z M 165.703125 263.304688 L 172.265625 259.519531 L 166.460938 256.164062 L 159.898438 259.953125 Z M 172.953125 267.488281 L 179.515625 263.703125 L 173.710938 260.351562 L 167.148438 264.140625 Z M 186.515625 267.746094 L 180.960938 264.542969 L 174.402344 268.328125 L 180.207031 271.683594 L 186.515625 268.035156 C 186.628906 267.972656 186.628906 267.8125 186.515625 267.746094 Z M 69.976562 209.707031 L 64.171875 206.355469 L 57.613281 210.144531 L 63.417969 213.496094 Z M 64.867188 214.332031 L 70.671875 217.683594 L 77.230469 213.898438 L 71.425781 210.546875 Z M 72.117188 218.519531 L 77.921875 221.871094 L 84.484375 218.085938 L 78.679688 214.734375 Z M 79.367188 222.707031 L 85.171875 226.058594 L 91.734375 222.269531 L 85.929688 218.917969 Z M 86.621094 226.894531 L 92.425781 230.246094 L 98.988281 226.457031 L 93.183594 223.105469 Z M 93.875 231.082031 L 99.679688 234.433594 L 106.238281 230.644531 L 100.433594 227.292969 Z M 101.125 235.265625 L 106.929688 238.617188 L 113.488281 234.832031 L 107.683594 231.480469 Z M 108.378906 239.453125 L 114.183594 242.808594 L 120.746094 239.019531 L 114.941406 235.667969 Z M 115.628906 243.644531 L 121.433594 246.996094 L 127.996094 243.207031 L 122.191406 239.855469 Z M 122.878906 247.828125 L 128.6875 251.179688 L 135.246094 247.390625 L 129.441406 244.039062 Z M 130.132812 252.015625 L 135.9375 255.367188 L 142.496094 251.582031 L 136.691406 248.230469 Z M 137.386719 256.199219 L 143.191406 259.554688 L 149.753906 255.765625 L 143.945312 252.414062 Z M 171.507812 268.328125 L 158.453125 260.785156 L 151.890625 264.574219 L 164.949219 272.113281 Z M 151.199219 256.601562 L 144.636719 260.390625 L 150.441406 263.742188 L 157.003906 259.953125 Z M 166.394531 272.949219 L 172.199219 276.300781 L 178.757812 272.515625 L 172.953125 269.164062 Z M 66.28125 216.820312 L 56.167969 210.980469 L 49.605469 214.769531 L 59.714844 220.609375 Z M 66.96875 224.796875 L 73.53125 221.007812 L 67.726562 217.65625 L 61.164062 221.445312 Z M 68.417969 225.628906 L 74.222656 228.980469 L 80.78125 225.195312 L 74.976562 221.839844 Z M 75.671875 229.816406 L 81.476562 233.167969 L 88.035156 229.382812 L 82.230469 226.03125 Z M 82.921875 234.003906 L 88.726562 237.355469 L 95.289062 233.570312 L 89.484375 230.21875 Z M 90.171875 238.191406 L 95.976562 241.542969 L 102.539062 237.753906 L 96.734375 234.402344 Z M 97.425781 242.378906 L 103.230469 245.730469 L 109.792969 241.941406 L 103.988281 238.589844 Z M 104.679688 246.566406 L 110.484375 249.917969 L 117.042969 246.132812 L 111.238281 242.777344 Z M 111.929688 250.75 L 117.734375 254.101562 L 124.296875 250.316406 L 118.492188 246.964844 Z M 119.183594 254.941406 L 124.988281 258.292969 L 131.550781 254.503906 L 125.746094 251.152344 Z M 126.433594 259.128906 L 132.238281 262.480469 L 138.800781 258.691406 L 132.996094 255.339844 Z M 146.050781 262.875 L 140.246094 259.523438 L 133.6875 263.3125 L 139.492188 266.664062 Z M 153.304688 267.066406 L 147.5 263.714844 L 140.941406 267.5 L 146.746094 270.851562 Z M 163.5 272.949219 L 154.738281 267.890625 L 148.175781 271.679688 L 156.9375 276.738281 Z M 158.386719 277.574219 L 164.191406 280.925781 L 170.753906 277.136719 L 164.949219 273.785156 Z M 155.492188 277.574219 L 143.847656 270.851562 L 137.292969 274.644531 L 148.929688 281.363281 Z M 150.378906 282.199219 L 156.183594 285.550781 L 162.746094 281.761719 L 156.941406 278.410156 Z M 56.378906 229.597656 L 40.152344 220.226562 L 33.589844 224.015625 L 49.816406 233.386719 Z M 57.070312 237.574219 L 63.632812 233.785156 L 57.828125 230.433594 L 51.265625 234.222656 Z M 70.882812 237.972656 L 65.078125 234.621094 L 58.515625 238.410156 L 64.324219 241.761719 Z M 78.136719 242.160156 L 72.332031 238.808594 L 65.773438 242.59375 L 71.578125 245.945312 Z M 85.390625 246.347656 L 79.582031 242.996094 L 73.023438 246.78125 L 78.828125 250.132812 Z M 92.640625 250.535156 L 86.835938 247.183594 L 80.273438 250.972656 L 86.078125 254.324219 Z M 99.890625 254.71875 L 94.085938 251.367188 L 87.523438 255.15625 L 93.328125 258.507812 Z M 107.144531 258.90625 L 101.339844 255.554688 L 94.777344 259.34375 L 100.585938 262.695312 Z M 114.394531 263.097656 L 108.589844 259.746094 L 102.03125 263.53125 L 107.835938 266.882812 Z M 121.648438 267.28125 L 115.84375 263.929688 L 109.28125 267.714844 L 115.085938 271.070312 Z M 128.902344 271.46875 L 123.097656 268.117188 L 116.535156 271.90625 L 122.339844 275.257812 Z M 140.234375 278.007812 L 130.355469 272.304688 L 123.792969 276.09375 L 133.671875 281.796875 Z M 147.484375 282.199219 L 141.679688 278.84375 L 135.117188 282.632812 L 140.921875 285.984375 Z M 142.367188 286.820312 L 148.171875 290.171875 L 154.734375 286.386719 L 148.929688 283.035156 Z M 61.152344 241.597656 L 54.589844 245.386719 L 96.65625 269.671875 L 103.21875 265.882812 Z M 104.664062 266.71875 L 98.101562 270.507812 L 103.910156 273.859375 L 110.46875 270.070312 Z M 111.914062 270.910156 L 105.355469 274.695312 L 111.160156 278.046875 L 117.71875 274.261719 Z M 119.167969 275.097656 L 112.605469 278.882812 L 118.410156 282.234375 L 124.972656 278.449219 Z M 126.417969 279.28125 L 119.855469 283.070312 L 125.660156 286.421875 L 132.222656 282.632812 Z M 133.671875 283.46875 L 127.109375 287.257812 L 132.914062 290.609375 L 139.476562 286.820312 Z M 134.363281 291.445312 L 140.167969 294.796875 L 146.726562 291.007812 L 140.921875 287.65625 Z M 62.636719 223.964844 L 48.160156 215.605469 L 41.597656 219.390625 L 56.074219 227.75 Z M 63.324219 231.9375 L 69.886719 228.152344 L 64.082031 224.800781 L 57.519531 228.585938 Z M 70.582031 236.125 L 77.140625 232.335938 L 71.335938 228.984375 L 64.773438 232.773438 Z M 84.390625 236.523438 L 78.585938 233.171875 L 72.027344 236.960938 L 77.832031 240.3125 Z M 91.644531 240.710938 L 85.839844 237.355469 L 79.277344 241.144531 L 85.082031 244.496094 Z M 98.898438 244.898438 L 93.09375 241.546875 L 86.53125 245.332031 L 92.335938 248.683594 Z M 106.148438 249.085938 L 100.34375 245.734375 L 93.78125 249.519531 L 99.585938 252.875 Z M 113.398438 253.269531 L 107.59375 249.917969 L 101.035156 253.707031 L 106.839844 257.058594 Z M 120.652344 257.457031 L 114.847656 254.105469 L 108.289062 257.894531 L 114.09375 261.246094 Z M 127.90625 261.648438 L 122.101562 258.292969 L 115.539062 262.082031 L 121.34375 265.433594 Z M 135.15625 265.832031 L 129.351562 262.480469 L 122.789062 266.265625 L 128.59375 269.617188 Z M 142.410156 270.019531 L 136.605469 266.667969 L 130.042969 270.457031 L 135.847656 273.808594 Z M 32.140625 224.851562 L 25.898438 228.457031 C 25.757812 228.539062 25.757812 228.742188 25.898438 228.820312 L 33.804688 233.386719 L 40.363281 229.597656 Z M 41.804688 230.433594 L 35.25 234.222656 L 43.46875 238.96875 L 50.03125 235.179688 Z M 51.480469 236.015625 L 44.917969 239.804688 L 53.144531 244.550781 L 59.707031 240.765625 Z M 51.480469 236.015625 " fill-opacity="1" fill-rule="nonzero"/></g><g clip-path="url(#66a623a885)"><path fill="#343434" d="M 192.78125 275.335938 L 187.289062 272.167969 L 187.289062 267.589844 L 186.78125 267.296875 L 180.964844 263.9375 L 180.039062 264.472656 L 180.039062 263.402344 L 179.347656 263.003906 L 173.714844 259.75 L 172.789062 260.289062 L 172.789062 259.21875 L 172.140625 258.84375 L 166.464844 255.566406 L 165.535156 256.101562 L 165.535156 255.035156 L 164.894531 254.664062 L 159.210938 251.382812 L 158.285156 251.917969 L 158.285156 250.847656 L 157.488281 250.390625 L 151.960938 247.195312 L 151.035156 247.734375 L 151.035156 246.664062 L 150.339844 246.261719 L 144.707031 243.011719 L 143.78125 243.550781 L 143.78125 242.480469 L 143.011719 242.035156 L 137.457031 238.828125 L 136.527344 239.363281 L 136.527344 238.292969 L 135.820312 237.886719 L 130.203125 234.644531 L 129.277344 235.179688 L 129.277344 234.097656 L 128.558594 233.679688 L 122.953125 230.445312 L 122.027344 230.980469 L 122.027344 229.78125 L 121.609375 229.699219 C 121.589844 229.695312 121.566406 229.6875 121.546875 229.679688 C 121.492188 229.617188 121.425781 229.558594 121.351562 229.515625 L 115.703125 226.257812 L 114.777344 226.792969 L 114.777344 225.722656 L 113.972656 225.257812 L 108.453125 222.070312 L 107.539062 222.597656 C 107.53125 222.203125 107.523438 221.824219 107.523438 221.824219 L 107.519531 221.53125 L 106.863281 221.15625 L 101.199219 217.882812 L 100.269531 218.417969 L 100.269531 217.648438 L 99.953125 217.648438 C 99.953125 217.355469 99.792969 217.074219 99.535156 216.925781 L 93.945312 213.699219 L 93.015625 214.234375 C 93.019531 214.015625 93.019531 213.761719 93.019531 213.460938 L 93.019531 213.160156 L 92.359375 212.78125 L 86.691406 209.511719 L 85.765625 210.046875 L 85.765625 208.972656 L 85.03125 208.546875 L 79.441406 205.320312 L 78.515625 205.859375 L 78.515625 204.789062 L 77.820312 204.386719 L 72.183594 201.132812 L 65.839844 204.796875 L 65.101562 205.222656 L 65.101562 206.289062 L 64.175781 205.753906 L 57.644531 209.523438 L 57.09375 209.84375 L 57.09375 210.914062 L 56.164062 210.378906 L 49.652344 214.140625 L 49.082031 214.46875 L 49.082031 215.539062 L 48.15625 215 L 41.691406 218.738281 L 41.078125 219.09375 L 41.078125 220.160156 L 40.152344 219.625 L 33.578125 223.421875 L 33.066406 223.714844 L 33.066406 224.785156 L 32.140625 224.25 L 25.636719 228.003906 L 25.058594 228.335938 L 25.058594 233.085938 L 19.878906 236.074219 L 19.0625 236.550781 L 19.0625 243.5625 L 139.910156 313.332031 L 140.171875 313.480469 L 193.175781 282.878906 L 193.433594 282.726562 L 193.433594 275.714844 Z M 26.101562 229.539062 L 33.285156 233.683594 L 33.285156 239.457031 L 26.101562 235.3125 Z M 34.320312 234.289062 L 34.730469 234.519531 L 34.730469 240.292969 L 34.320312 240.0625 Z M 35.769531 235.121094 L 42.949219 239.265625 L 42.949219 245.039062 L 35.769531 240.894531 Z M 172.433594 267.792969 L 172.433594 268.863281 L 172.027344 269.097656 L 172.027344 268.027344 L 171.234375 267.566406 L 167.667969 265.511719 L 167.667969 265.039062 Z M 179.6875 272.449219 L 179.277344 272.214844 L 179.164062 272.148438 L 174.917969 269.699219 L 174.917969 269.230469 L 179.6875 271.980469 Z M 164.191406 280.328125 L 159.425781 277.574219 L 164.949219 274.386719 L 169.710938 277.136719 Z M 156.183594 284.945312 L 151.417969 282.195312 L 156.941406 279.007812 L 161.707031 281.757812 Z M 148.171875 289.570312 L 143.40625 286.816406 L 148.925781 283.628906 L 153.691406 286.382812 Z M 140.167969 294.195312 L 135.398438 291.441406 L 140.917969 288.253906 L 145.6875 291.007812 Z M 133.433594 291.378906 L 133.433594 290.910156 L 138.953125 287.71875 L 138.953125 288.191406 Z M 126.183594 287.191406 C 126.183594 287.003906 126.183594 286.847656 126.183594 286.71875 L 131.703125 283.53125 L 131.703125 284.003906 Z M 118.929688 283.007812 L 118.929688 282.535156 L 124.453125 279.347656 L 124.453125 279.816406 Z M 111.679688 278.816406 L 111.679688 278.347656 L 117.199219 275.160156 L 117.199219 275.628906 Z M 104.425781 274.628906 L 104.425781 274.160156 L 109.949219 270.972656 L 109.949219 271.441406 Z M 97.175781 270.445312 L 97.175781 269.972656 L 102.699219 266.785156 L 102.699219 267.257812 Z M 53.664062 245.324219 L 53.664062 244.851562 L 59.183594 241.664062 L 59.183594 242.132812 Z M 50.746094 235.367188 L 50.746094 235.839844 L 50.550781 235.949219 L 50.550781 235.480469 Z M 56.550781 237.875 L 56.550781 238.34375 L 51.785156 235.589844 L 51.785156 235.121094 Z M 57 229.839844 C 57 230.011719 57 230.179688 57 230.3125 L 56.898438 230.371094 L 56.898438 229.898438 Z M 62.808594 232.238281 L 62.808594 232.710938 L 58.039062 229.957031 C 58.039062 229.808594 58.039062 229.644531 58.039062 229.484375 Z M 62.535156 223.300781 L 61.6875 222.8125 L 61.6875 222.34375 L 66.453125 225.097656 L 66.453125 225.566406 L 64.085938 224.199219 L 63.160156 224.738281 L 63.160156 223.667969 Z M 66.195312 216.171875 L 65.382812 215.703125 L 65.382812 215.230469 L 70.148438 217.984375 C 70.148438 218.117188 70.148438 218.285156 70.148438 218.453125 L 67.726562 217.054688 L 66.800781 217.589844 L 66.800781 216.519531 Z M 78.679688 215.332031 L 83.445312 218.085938 L 77.925781 221.273438 L 73.160156 218.519531 Z M 85.929688 219.515625 L 90.695312 222.269531 L 85.175781 225.457031 L 80.410156 222.707031 Z M 93.183594 223.707031 L 97.949219 226.457031 L 92.429688 229.644531 L 87.664062 226.894531 Z M 98.464844 227.355469 L 98.464844 227.828125 L 92.941406 231.015625 L 92.941406 230.546875 Z M 100.433594 227.894531 L 105.199219 230.644531 L 99.679688 233.835938 L 94.910156 231.082031 Z M 107.683594 232.078125 L 112.453125 234.832031 L 106.933594 238.019531 L 102.167969 235.269531 Z M 114.9375 236.265625 L 119.703125 239.019531 L 114.179688 242.207031 L 109.414062 239.453125 Z M 122.191406 240.453125 L 126.953125 243.207031 L 121.433594 246.394531 L 116.667969 243.644531 Z M 129.441406 244.640625 L 134.203125 247.390625 L 128.6875 250.582031 L 123.917969 247.828125 Z M 136.691406 248.828125 L 141.460938 251.582031 L 135.9375 254.769531 L 131.167969 252.015625 Z M 143.945312 253.015625 L 148.710938 255.769531 L 143.191406 258.957031 L 138.425781 256.203125 Z M 151.199219 257.199219 L 155.964844 259.953125 L 150.441406 263.140625 L 145.675781 260.390625 Z M 156.484375 260.851562 L 156.484375 261.324219 L 150.992188 264.492188 L 150.976562 264.035156 Z M 164.429688 273.488281 L 164.019531 273.71875 L 164.019531 272.652344 L 163.105469 272.121094 L 154.742188 267.292969 L 153.828125 267.816406 L 153.828125 266.761719 L 152.410156 265.941406 L 152.410156 265.472656 L 164.429688 272.410156 Z M 156.039062 278.328125 L 156.003906 277.265625 L 155.203125 276.804688 L 148.734375 273.070312 L 148.722656 272.589844 L 156.421875 277.039062 L 156.421875 278.105469 Z M 147.21875 281.445312 L 141.679688 278.246094 L 140.773438 278.769531 L 140.742188 277.707031 L 140.027344 277.296875 L 137.8125 276.015625 L 137.8125 275.546875 L 148.40625 281.664062 L 148.40625 282.734375 L 148 282.96875 L 148 281.898438 Z M 139.230469 286.078125 L 135.613281 283.992188 C 135.609375 283.890625 135.609375 283.722656 135.613281 283.523438 L 140.402344 286.289062 L 140.402344 287.359375 L 139.996094 287.589844 L 139.996094 286.523438 Z M 131.976562 281.890625 L 126.417969 278.683594 L 125.492188 279.21875 L 125.492188 278.148438 L 124.847656 277.777344 L 124.308594 277.464844 L 124.308594 276.996094 L 133.148438 282.101562 L 133.148438 283.167969 L 132.742188 283.402344 L 132.742188 282.332031 Z M 118.757812 274.261719 L 117.054688 273.273438 L 117.054688 272.804688 L 121.820312 275.554688 L 121.820312 276.027344 L 119.167969 274.492188 L 118.242188 275.03125 L 118.242188 274.558594 Z M 110.449219 269.457031 L 109.804688 269.085938 L 109.804688 268.617188 L 114.570312 271.367188 L 114.570312 271.839844 L 111.917969 270.304688 L 110.992188 270.84375 L 110.992188 269.773438 Z M 103.109375 265.226562 L 102.550781 264.902344 L 102.550781 264.429688 L 107.316406 267.183594 L 107.316406 267.652344 L 104.664062 266.121094 L 103.738281 266.65625 L 103.738281 265.585938 Z M 60.742188 240.765625 L 59.046875 239.785156 L 59.042969 239.316406 L 63.804688 242.066406 L 63.804688 242.535156 L 61.410156 241.15625 L 61.148438 241.003906 L 60.222656 241.542969 L 60.222656 241.070312 Z M 71.191406 218.582031 L 71.597656 218.816406 L 71.597656 219.289062 L 71.191406 219.054688 C 71.191406 218.917969 71.191406 218.753906 71.191406 218.582031 Z M 147.269531 271.605469 L 147.265625 271.152344 L 152.785156 267.964844 L 152.785156 268.421875 Z M 139.738281 278.894531 L 139.75 279.359375 L 134.191406 282.566406 L 134.191406 282.097656 Z M 133.671875 281.199219 L 124.832031 276.09375 L 130.355469 272.90625 L 139.195312 278.007812 Z M 122.859375 276.035156 L 122.859375 275.558594 L 129.523438 271.714844 L 129.523438 272.1875 Z M 115.609375 271.839844 L 115.609375 271.367188 L 122.269531 267.523438 L 122.269531 267.992188 Z M 108.355469 267.652344 L 108.355469 267.183594 L 115.015625 263.335938 L 115.015625 263.808594 Z M 101.101562 263.464844 L 101.101562 262.996094 L 107.765625 259.148438 L 107.765625 259.617188 Z M 93.855469 259.277344 L 93.855469 258.808594 L 100.515625 254.964844 L 100.515625 255.433594 Z M 86.597656 255.09375 L 86.597656 254.621094 L 93.261719 250.777344 L 93.261719 251.246094 Z M 79.347656 250.90625 L 79.347656 250.433594 L 86.007812 246.585938 L 86.007812 247.058594 Z M 72.097656 246.714844 L 72.097656 246.246094 L 78.757812 242.398438 L 78.757812 242.871094 Z M 64.839844 242.53125 L 64.839844 242.0625 L 70.359375 238.875 L 70.359375 239.34375 Z M 64.253906 234.027344 L 64.253906 234.496094 L 64.152344 234.554688 L 64.152344 234.085938 Z M 70.0625 236.421875 L 70.0625 236.894531 L 65.292969 234.140625 L 65.292969 233.671875 Z M 69.707031 227.445312 L 68.9375 227 L 68.9375 226.53125 L 73.703125 229.285156 C 73.703125 229.421875 73.703125 229.582031 73.703125 229.753906 L 71.332031 228.386719 L 70.40625 228.925781 L 70.40625 227.855469 Z M 74.976562 222.445312 L 79.746094 225.195312 L 74.222656 228.382812 L 69.453125 225.628906 Z M 80.261719 226.097656 L 80.261719 226.566406 L 74.742188 229.753906 C 74.742188 229.613281 74.742188 229.457031 74.742188 229.285156 Z M 86.996094 229.382812 L 81.476562 232.570312 L 76.710938 229.816406 L 82.230469 226.628906 Z M 94.25 233.566406 L 88.730469 236.753906 L 83.964844 234 L 89.484375 230.8125 Z M 101.5 237.753906 L 95.976562 240.941406 L 91.210938 238.191406 L 96.730469 235 Z M 108.75 241.941406 L 103.230469 245.132812 L 98.460938 242.378906 L 103.984375 239.191406 Z M 116.007812 246.128906 L 110.484375 249.316406 L 105.714844 246.5625 L 111.238281 243.375 Z M 123.257812 250.316406 L 117.734375 253.503906 L 112.96875 250.75 L 118.492188 247.5625 Z M 130.507812 254.503906 L 124.988281 257.691406 L 120.222656 254.941406 L 125.742188 251.75 Z M 137.761719 258.6875 L 132.238281 261.875 L 127.472656 259.128906 L 132.992188 255.941406 Z M 145.011719 262.875 L 139.492188 266.066406 L 134.726562 263.3125 L 140.246094 260.125 Z M 152.265625 267.066406 L 146.746094 270.253906 L 141.976562 267.5 L 147.5 264.3125 Z M 140.011719 267.433594 L 140.011719 266.964844 L 145.53125 263.777344 L 145.53125 264.246094 Z M 130.5625 271.828125 L 130.5625 271.359375 L 135.332031 274.109375 L 135.332031 274.582031 Z M 74.742188 229.882812 L 75.148438 230.121094 L 75.148438 230.589844 L 74.734375 230.351562 C 74.738281 230.222656 74.742188 230.066406 74.742188 229.882812 Z M 138.972656 267.433594 L 136.601562 266.070312 L 135.695312 266.589844 L 135.664062 265.527344 L 134.949219 265.117188 L 134.203125 264.683594 L 134.203125 264.214844 L 138.96875 266.96875 L 138.96875 267.433594 Z M 129.117188 270.390625 L 129.117188 269.917969 L 134.664062 266.714844 L 134.679688 267.179688 Z M 121.863281 266.203125 L 121.863281 265.734375 L 127.394531 262.542969 L 127.394531 263.007812 Z M 114.613281 262.015625 L 114.613281 261.546875 L 120.132812 258.359375 L 120.132812 258.828125 Z M 107.359375 257.832031 L 107.359375 257.359375 L 112.882812 254.171875 L 112.882812 254.644531 Z M 100.105469 253.644531 L 100.105469 253.171875 L 105.625 249.984375 L 105.625 250.457031 Z M 92.859375 249.453125 C 92.859375 249.285156 92.859375 249.121094 92.859375 248.984375 L 98.378906 245.800781 L 98.378906 246.269531 Z M 85.605469 245.269531 L 85.605469 244.800781 L 91.128906 241.613281 L 91.128906 242.082031 Z M 78.351562 241.082031 L 78.351562 240.613281 L 83.871094 237.421875 L 83.871094 237.894531 Z M 78.585938 233.773438 L 83.355469 236.519531 L 77.835938 239.710938 L 73.066406 236.957031 Z M 85.839844 237.960938 L 90.605469 240.710938 L 85.085938 243.902344 L 80.320312 241.148438 Z M 93.09375 242.144531 L 97.859375 244.898438 L 92.335938 248.085938 L 87.570312 245.332031 Z M 100.34375 246.332031 L 102.808594 247.753906 C 102.859375 247.816406 102.933594 247.859375 103.039062 247.886719 L 105.105469 249.082031 L 99.585938 252.269531 L 94.820312 249.519531 Z M 107.59375 250.519531 L 112.359375 253.273438 L 106.839844 256.460938 L 102.070312 253.710938 Z M 114.847656 254.707031 L 119.613281 257.457031 L 114.09375 260.648438 L 109.328125 257.894531 Z M 122.101562 258.894531 L 126.867188 261.648438 L 121.347656 264.835938 L 116.582031 262.082031 Z M 129.351562 263.082031 L 134.117188 265.835938 L 128.59375 269.023438 L 123.828125 266.269531 Z M 133.167969 264.082031 L 132.757812 263.847656 L 132.757812 263.378906 L 133.167969 263.613281 Z M 131.71875 263.246094 L 129.351562 261.878906 L 128.429688 262.410156 L 128.421875 261.34375 L 127.570312 260.851562 L 126.953125 260.496094 L 126.953125 260.027344 L 131.71875 262.777344 Z M 125.914062 259.898438 L 125.507812 259.664062 L 125.507812 259.195312 L 125.914062 259.425781 Z M 124.464844 259.0625 L 122.097656 257.695312 L 121.167969 258.230469 L 121.167969 257.164062 L 120.421875 256.730469 L 119.699219 256.3125 L 119.699219 255.839844 L 124.464844 258.589844 Z M 118.660156 255.710938 L 118.253906 255.476562 L 118.253906 255.003906 L 118.660156 255.238281 Z M 117.214844 254.875 L 114.84375 253.507812 L 113.917969 254.042969 L 113.917969 252.972656 L 113.058594 252.480469 L 112.449219 252.128906 L 112.449219 251.65625 L 117.214844 254.410156 Z M 111.410156 251.519531 L 110.941406 251.253906 L 110.964844 250.796875 L 111.410156 251.054688 Z M 109.929688 250.667969 L 107.59375 249.320312 L 106.667969 249.855469 L 106.667969 248.785156 L 105.914062 248.351562 L 105.1875 247.929688 L 105.191406 247.460938 L 109.949219 250.210938 Z M 104.152344 247.328125 L 103.726562 247.085938 C 103.726562 246.960938 103.730469 246.800781 103.734375 246.617188 L 104.15625 246.863281 Z M 102.695312 246.488281 L 100.34375 245.132812 L 99.417969 245.667969 L 99.417969 244.597656 L 98.691406 244.179688 L 97.945312 243.75 L 97.945312 243.28125 L 102.707031 246.027344 C 102.703125 246.160156 102.699219 246.324219 102.695312 246.488281 Z M 96.90625 243.148438 L 96.496094 242.914062 L 96.496094 242.445312 L 96.90625 242.679688 Z M 95.457031 241.84375 L 95.457031 242.316406 L 93.089844 240.949219 L 92.164062 241.488281 L 92.164062 240.417969 L 91.386719 239.96875 L 90.691406 239.566406 L 90.691406 239.097656 Z M 89.652344 238.960938 L 89.246094 238.726562 L 89.246094 238.257812 L 89.652344 238.488281 Z M 88.207031 238.125 L 85.839844 236.757812 L 84.910156 237.292969 L 84.910156 236.226562 L 84.304688 235.875 L 83.441406 235.378906 L 83.441406 234.90625 L 88.207031 237.660156 Z M 82.402344 234.777344 L 81.996094 234.542969 L 81.996094 234.070312 L 82.402344 234.304688 Z M 80.957031 233.9375 L 78.585938 232.574219 L 77.660156 233.109375 L 77.660156 232.039062 L 76.933594 231.617188 L 76.191406 231.191406 L 76.191406 230.71875 L 80.957031 233.472656 Z M 76.617188 233.238281 L 76.617188 233.710938 L 71.097656 236.898438 L 71.097656 236.425781 Z M 71.097656 237.027344 L 71.507812 237.261719 L 71.507812 237.730469 L 71.097656 237.496094 Z M 71.507812 238.214844 L 71.507812 238.683594 L 71.40625 238.742188 L 71.40625 238.273438 Z M 72.546875 237.859375 L 77.3125 240.613281 L 77.3125 241.082031 L 72.546875 238.328125 Z M 78.351562 241.210938 L 78.757812 241.445312 L 78.757812 241.914062 L 78.351562 241.679688 Z M 79.800781 242.046875 L 84.566406 244.800781 L 84.566406 245.269531 L 79.800781 242.519531 Z M 85.605469 245.398438 L 86.011719 245.632812 L 86.011719 246.101562 L 85.605469 245.871094 Z M 87.050781 246.234375 L 91.816406 248.988281 C 91.816406 249.117188 91.816406 249.28125 91.816406 249.457031 L 87.050781 246.707031 Z M 92.859375 249.585938 L 93.261719 249.820312 L 93.261719 250.292969 L 92.855469 250.058594 C 92.855469 249.917969 92.855469 249.753906 92.859375 249.585938 Z M 94.300781 250.421875 L 99.070312 253.171875 L 99.070312 253.644531 L 94.300781 250.890625 Z M 100.105469 253.773438 L 100.515625 254.003906 L 100.515625 254.476562 L 100.105469 254.242188 Z M 101.554688 254.609375 L 106.320312 257.359375 L 106.320312 257.832031 L 101.554688 255.078125 Z M 107.359375 257.960938 L 107.769531 258.195312 L 107.769531 258.664062 L 107.359375 258.429688 Z M 108.808594 258.796875 L 113.574219 261.550781 L 113.574219 262.019531 L 108.808594 259.265625 Z M 114.613281 262.148438 L 115.019531 262.382812 L 115.019531 262.851562 L 114.613281 262.617188 Z M 116.058594 262.980469 L 120.824219 265.734375 L 120.824219 266.203125 L 116.058594 263.453125 Z M 121.863281 266.332031 L 122.269531 266.566406 L 122.269531 267.039062 L 121.863281 266.804688 Z M 123.308594 267.167969 L 128.074219 269.921875 L 128.074219 270.394531 L 123.308594 267.640625 Z M 129.117188 270.523438 L 129.523438 270.753906 L 129.523438 271.226562 L 129.117188 270.992188 Z M 135.847656 273.207031 L 131.082031 270.457031 L 136.605469 267.265625 L 141.367188 270.019531 Z M 140.011719 268.035156 L 140.011719 267.5625 L 140.417969 267.796875 L 140.414062 268.265625 Z M 132.757812 263.25 L 132.757812 262.777344 L 138.277344 259.589844 L 138.277344 260.0625 Z M 131.027344 255.402344 L 131.027344 255.875 L 125.507812 259.0625 L 125.507812 258.589844 Z M 123.78125 251.214844 L 123.785156 251.679688 L 118.257812 254.875 L 118.257812 254.402344 Z M 110.96875 250.707031 L 110.988281 250.226562 L 116.523438 247.03125 L 116.523438 247.5 Z M 109.269531 242.839844 L 109.269531 243.3125 L 103.734375 246.511719 C 103.738281 246.359375 103.742188 246.195312 103.746094 246.035156 Z M 101.992188 238.671875 L 101.976562 239.148438 L 96.496094 242.3125 L 96.496094 241.839844 Z M 94.769531 234.46875 L 94.769531 234.9375 L 89.25 238.128906 L 89.25 237.65625 Z M 87.515625 230.28125 L 87.515625 230.75 L 81.996094 233.9375 L 81.996094 233.46875 Z M 71.335938 229.582031 L 76.101562 232.335938 L 70.582031 235.523438 L 65.816406 232.773438 Z M 65.078125 235.222656 L 69.84375 237.972656 L 64.324219 241.164062 L 59.558594 238.410156 Z M 72.328125 239.410156 L 77.097656 242.164062 L 71.578125 245.351562 L 66.808594 242.597656 Z M 79.582031 243.59375 L 84.351562 246.347656 L 78.828125 249.535156 L 74.0625 246.78125 Z M 86.835938 247.78125 L 91.601562 250.535156 L 86.082031 253.722656 L 81.316406 250.972656 Z M 94.085938 251.972656 L 98.851562 254.722656 L 93.332031 257.910156 L 88.566406 255.160156 Z M 101.339844 256.15625 L 106.105469 258.90625 L 100.585938 262.097656 L 95.816406 259.34375 Z M 108.589844 260.34375 L 113.359375 263.097656 L 107.835938 266.285156 L 103.070312 263.53125 Z M 115.84375 264.53125 L 120.609375 267.285156 L 115.085938 270.472656 L 110.320312 267.71875 Z M 123.097656 268.714844 L 127.863281 271.46875 L 122.339844 274.65625 L 117.574219 271.90625 Z M 136.367188 275.179688 L 136.367188 274.710938 L 136.773438 274.941406 L 136.773438 275.414062 Z M 136.367188 274.578125 L 136.367188 274.105469 L 141.894531 270.914062 L 141.898438 271.378906 Z M 142.933594 270.78125 L 142.925781 269.714844 L 142.234375 269.320312 L 141.445312 268.863281 L 141.449219 268.394531 L 146.222656 271.152344 L 146.226562 271.621094 L 143.847656 270.25 Z M 147.269531 272.226562 L 147.269531 271.753906 L 147.664062 271.984375 L 147.675781 272.460938 Z M 151.015625 265.140625 L 151 264.660156 L 151.371094 264.875 L 151.371094 265.347656 Z M 149.933594 264.046875 L 149.949219 264.527344 L 147.496094 263.113281 L 146.570312 263.648438 L 146.570312 262.582031 L 145.675781 262.0625 L 145.15625 261.761719 L 145.15625 261.292969 Z M 144.117188 261.160156 L 143.710938 260.925781 L 143.710938 260.457031 L 144.117188 260.6875 Z M 142.671875 260.324219 L 140.25 258.921875 L 139.324219 259.457031 L 139.324219 258.390625 L 138.429688 257.871094 L 137.910156 257.570312 C 137.910156 257.433594 137.910156 257.269531 137.910156 257.101562 L 142.675781 259.851562 L 142.675781 260.324219 Z M 136.867188 256.503906 C 136.867188 256.640625 136.867188 256.804688 136.867188 256.972656 L 136.460938 256.742188 L 136.460938 256.269531 Z M 135.417969 256.136719 L 132.996094 254.738281 L 132.070312 255.273438 L 132.070312 254.203125 L 131.222656 253.714844 L 130.652344 253.390625 L 130.652344 252.917969 L 135.421875 255.671875 L 135.421875 256.136719 Z M 129.613281 252.785156 L 129.203125 252.550781 L 129.203125 252.082031 L 129.613281 252.316406 Z M 128.167969 251.949219 L 125.746094 250.550781 L 124.820312 251.082031 L 124.8125 250.011719 L 123.96875 249.523438 L 123.398438 249.195312 L 123.398438 248.726562 L 128.167969 251.480469 Z M 122.363281 248.597656 L 121.953125 248.363281 L 121.953125 247.894531 L 122.363281 248.128906 Z M 120.914062 247.761719 L 118.492188 246.359375 L 117.566406 246.898438 L 117.566406 245.828125 L 116.621094 245.28125 L 116.152344 245.011719 L 116.152344 244.542969 L 120.917969 247.292969 L 120.917969 247.761719 Z M 115.109375 244.414062 L 114.703125 244.179688 L 114.703125 243.710938 L 115.109375 243.941406 Z M 113.660156 243.578125 L 111.238281 242.175781 L 110.3125 242.710938 L 110.3125 241.644531 L 109.476562 241.164062 L 108.898438 240.828125 L 108.898438 240.355469 L 113.664062 243.109375 L 113.664062 243.578125 Z M 107.855469 240.226562 L 107.449219 239.992188 L 107.449219 239.519531 L 107.855469 239.753906 Z M 106.410156 239.390625 L 103.988281 237.988281 L 103.039062 238.539062 L 103.070312 237.308594 L 102.273438 237 L 101.660156 236.644531 L 101.65625 236.171875 L 106.414062 238.917969 L 106.414062 239.390625 Z M 100.609375 235.570312 L 100.613281 236.039062 L 100.199219 235.800781 L 100.199219 235.328125 Z M 99.160156 235.199219 L 96.738281 233.800781 L 95.8125 234.335938 L 95.8125 233.265625 L 95.121094 232.871094 L 94.394531 232.453125 L 94.394531 231.980469 L 99.164062 234.734375 L 99.164062 235.199219 Z M 93.355469 231.851562 L 92.945312 231.617188 L 92.945312 231.148438 L 93.355469 231.382812 Z M 91.90625 231.015625 L 89.484375 229.613281 L 88.554688 230.152344 L 88.554688 229.082031 L 87.800781 228.644531 L 87.140625 228.261719 L 87.140625 227.792969 L 91.90625 230.546875 Z M 86.101562 227.664062 L 85.691406 227.429688 L 85.691406 226.960938 L 86.101562 227.195312 Z M 84.652344 226.828125 L 82.230469 225.425781 L 81.304688 225.964844 L 81.304688 225.226562 C 81.332031 224.765625 80.835938 224.558594 80.535156 224.449219 L 79.890625 224.074219 L 79.890625 223.605469 L 84.65625 226.355469 L 84.65625 226.828125 Z M 78.847656 223.003906 L 78.847656 223.476562 L 78.441406 223.242188 L 78.441406 222.773438 Z M 77.402344 222.640625 L 74.980469 221.238281 L 74.054688 221.773438 L 74.054688 220.707031 L 73.378906 220.316406 L 72.640625 219.890625 L 72.640625 219.417969 L 77.40625 222.171875 L 77.40625 222.640625 Z M 73.011719 221.90625 L 73.011719 222.378906 L 67.492188 225.566406 L 67.492188 225.097656 Z M 67.488281 226.164062 L 67.488281 225.695312 L 67.898438 225.929688 L 67.898438 226.398438 Z M 69.367188 229.050781 L 69.367188 229.519531 L 63.84375 232.710938 L 63.84375 232.238281 Z M 63.847656 232.839844 L 64.257812 233.070312 L 64.257812 233.542969 L 63.847656 233.308594 Z M 63.113281 234.683594 L 63.113281 235.15625 L 57.59375 238.34375 L 57.59375 237.875 Z M 57.589844 238.476562 L 58 238.710938 L 58 239.183594 L 57.589844 238.945312 Z M 64.839844 242.660156 L 65.25 242.894531 L 65.25 243.363281 L 64.839844 243.132812 Z M 66.289062 243.496094 L 71.058594 246.25 L 71.058594 246.71875 L 66.292969 243.96875 L 66.292969 243.496094 Z M 72.097656 246.847656 L 72.503906 247.082031 L 72.503906 247.550781 L 72.097656 247.320312 Z M 73.542969 247.683594 L 78.308594 250.4375 L 78.308594 250.90625 L 73.542969 248.15625 Z M 79.347656 251.035156 L 79.753906 251.269531 L 79.753906 251.742188 L 79.347656 251.507812 Z M 80.792969 251.871094 L 85.558594 254.621094 L 85.558594 255.09375 L 80.792969 252.339844 Z M 86.597656 255.222656 L 87.003906 255.457031 L 87.003906 255.925781 L 86.597656 255.691406 Z M 88.046875 256.058594 L 92.816406 258.8125 L 92.816406 259.28125 L 88.046875 256.527344 Z M 93.855469 259.414062 L 94.257812 259.648438 L 94.257812 260.117188 L 93.855469 259.882812 Z M 95.296875 260.246094 L 100.066406 263 L 100.066406 263.46875 L 95.296875 260.714844 Z M 101.101562 263.597656 L 101.511719 263.832031 L 101.511719 264.300781 L 101.101562 264.070312 Z M 108.355469 267.78125 L 108.761719 268.015625 L 108.761719 268.488281 L 108.355469 268.253906 Z M 115.609375 271.972656 L 116.015625 272.203125 L 116.015625 272.675781 L 115.609375 272.441406 Z M 122.859375 276.15625 L 123.269531 276.394531 L 123.269531 276.863281 L 122.859375 276.625 Z M 134.191406 282.699219 L 134.585938 282.929688 C 134.578125 283.101562 134.574219 283.253906 134.570312 283.390625 L 134.191406 283.167969 Z M 135.246094 283.78125 L 135.277344 283.683594 C 135.449219 283.742188 135.546875 283.871094 135.589844 283.976562 Z M 140.921875 285.386719 L 136.15625 282.632812 L 141.679688 279.445312 L 146.445312 282.199219 Z M 148.929688 280.761719 L 138.332031 274.644531 L 143.847656 271.453125 L 154.449219 277.574219 Z M 156.941406 276.136719 L 149.21875 271.683594 L 154.738281 268.492188 L 162.460938 272.949219 Z M 149.234375 256.667969 L 149.234375 257.136719 L 143.710938 260.328125 L 143.710938 259.855469 Z M 141.976562 252.480469 L 141.976562 252.949219 L 136.457031 256.136719 L 136.457031 255.667969 Z M 134.726562 248.292969 L 134.726562 248.761719 L 129.203125 251.949219 L 129.203125 251.480469 Z M 127.476562 244.105469 L 127.476562 244.578125 L 121.953125 247.765625 L 121.953125 247.292969 Z M 120.210938 239.925781 L 120.203125 240.398438 L 114.699219 243.578125 L 114.699219 243.105469 Z M 112.972656 235.734375 L 112.972656 236.203125 L 107.453125 239.390625 L 107.453125 238.921875 Z M 105.722656 231.542969 L 105.726562 232.007812 L 100.199219 235.199219 L 100.199219 234.730469 Z M 91.214844 223.171875 L 91.214844 223.644531 L 85.695312 226.832031 L 85.695312 226.359375 Z M 83.96875 218.980469 C 83.96875 219.152344 83.96875 219.320312 83.96875 219.449219 L 78.441406 222.640625 L 78.441406 222.167969 Z M 76.710938 214.796875 L 76.710938 215.265625 L 71.1875 218.453125 C 71.1875 218.285156 71.1875 218.121094 71.1875 217.984375 Z M 67.726562 218.257812 L 72.492188 221.007812 L 66.96875 224.195312 L 62.203125 221.445312 Z M 64.082031 225.398438 L 68.847656 228.152344 L 63.324219 231.339844 L 58.558594 228.585938 Z M 57.828125 231.035156 L 62.59375 233.785156 L 57.074219 236.972656 L 52.308594 234.222656 Z M 51.480469 236.613281 L 58.664062 240.765625 L 53.144531 243.953125 L 45.960938 239.804688 Z M 61.152344 242.199219 L 102.175781 265.886719 L 96.652344 269.074219 L 55.628906 245.386719 Z M 104.664062 267.324219 L 109.429688 270.074219 L 103.910156 273.261719 L 99.140625 270.507812 Z M 111.914062 271.507812 L 116.683594 274.261719 L 111.160156 277.449219 L 106.390625 274.695312 Z M 119.167969 275.695312 L 123.933594 278.449219 L 118.410156 281.636719 L 113.644531 278.882812 Z M 126.417969 279.882812 L 131.183594 282.636719 L 125.660156 285.824219 L 120.894531 283.070312 Z M 133.671875 284.070312 L 138.4375 286.820312 L 132.917969 290.007812 L 128.152344 287.257812 Z M 141.441406 287.355469 L 141.441406 286.882812 L 141.847656 287.117188 L 141.847656 287.589844 Z M 141.441406 286.753906 L 141.441406 286.285156 L 146.964844 283.097656 L 146.964844 283.566406 Z M 149.453125 282.730469 L 149.453125 282.261719 L 149.859375 282.492188 L 149.859375 282.964844 Z M 149.453125 282.132812 L 149.453125 281.660156 L 155.003906 278.457031 L 155.019531 278.914062 Z M 157.460938 278.109375 L 157.460938 277.640625 L 157.867188 277.875 L 157.867188 278.34375 Z M 157.460938 277.507812 L 157.460938 277.039062 L 162.980469 273.847656 L 162.980469 274.320312 Z M 165.464844 273.488281 L 165.464844 273.015625 L 165.875 273.25 L 165.875 273.71875 Z M 165.464844 272.882812 L 165.464844 272.414062 L 170.984375 269.226562 L 170.984375 269.695312 Z M 172.953125 269.761719 L 177.722656 272.515625 L 172.203125 275.703125 L 167.433594 272.949219 Z M 173.882812 269.097656 L 173.472656 268.863281 L 173.472656 268.394531 L 173.882812 268.625 Z M 170.464844 268.328125 L 164.949219 271.515625 L 152.929688 264.578125 L 158.449219 261.390625 Z M 158.972656 260.488281 L 158.972656 260.019531 L 159.378906 260.253906 L 159.378906 260.722656 Z M 157.929688 260.488281 L 157.523438 260.71875 L 157.523438 259.648438 L 156.742188 259.199219 L 153.164062 257.132812 L 153.164062 256.664062 L 157.929688 259.417969 Z M 152.125 256.535156 L 151.71875 256.300781 L 151.71875 255.832031 L 152.125 256.066406 Z M 150.679688 256.300781 L 150.269531 256.535156 L 150.269531 255.464844 L 149.433594 254.980469 L 145.914062 252.949219 L 145.914062 252.480469 L 150.679688 255.230469 Z M 144.875 252.351562 L 144.464844 252.117188 L 144.464844 251.648438 L 144.875 251.878906 Z M 143.429688 252.113281 L 143.019531 252.347656 L 143.019531 251.277344 L 142.324219 250.875 L 138.660156 248.761719 L 138.660156 248.292969 L 143.429688 251.042969 Z M 137.621094 248.164062 L 137.214844 247.929688 L 137.214844 247.457031 L 137.621094 247.691406 Z M 136.171875 247.929688 L 135.765625 248.164062 L 135.765625 247.09375 L 135.109375 246.710938 L 131.40625 244.574219 L 131.40625 244.101562 L 136.171875 246.855469 Z M 130.367188 243.972656 L 129.960938 243.742188 L 129.960938 243.269531 L 130.367188 243.503906 Z M 128.921875 243.742188 L 128.515625 243.972656 L 128.515625 242.90625 L 127.78125 242.484375 L 124.15625 240.390625 L 124.15625 239.917969 L 128.921875 242.671875 Z M 123.117188 239.789062 L 122.710938 239.554688 L 122.710938 239.085938 L 123.117188 239.320312 Z M 121.671875 239.550781 L 121.253906 239.792969 L 121.265625 238.71875 L 120.542969 238.300781 L 116.910156 236.203125 L 116.910156 235.734375 L 121.675781 238.484375 L 121.675781 239.550781 Z M 115.867188 235.601562 L 115.457031 235.367188 L 115.457031 234.898438 L 115.867188 235.128906 Z M 114.417969 235.367188 L 114.007812 235.601562 L 114.007812 234.53125 L 113.429688 234.195312 L 109.644531 232.007812 L 109.648438 231.542969 L 114.417969 234.292969 Z M 108.609375 231.414062 L 108.203125 231.179688 L 108.203125 230.710938 L 108.609375 230.941406 Z M 107.167969 231.179688 L 106.761719 231.414062 L 106.753906 230.34375 L 106.140625 229.992188 L 102.394531 227.832031 L 102.394531 227.359375 L 107.164062 230.113281 L 107.164062 231.179688 Z M 101.359375 227.226562 L 100.941406 226.984375 C 100.933594 226.820312 100.925781 226.65625 100.921875 226.503906 L 101.359375 226.757812 Z M 99.898438 227 L 99.507812 227.226562 L 99.507812 226.160156 L 98.8125 225.757812 L 95.148438 223.640625 L 95.148438 223.167969 L 99.871094 225.894531 C 99.859375 226.167969 99.875 226.527344 99.898438 227 Z M 94.109375 222.570312 L 94.109375 223.039062 L 93.703125 222.808594 L 93.703125 222.335938 Z M 92.660156 222.808594 L 92.253906 223.039062 L 92.253906 221.96875 L 91.636719 221.613281 L 87.898438 219.453125 L 87.898438 218.984375 L 92.664062 221.738281 L 92.664062 222.808594 Z M 86.855469 218.851562 L 86.449219 218.617188 L 86.449219 218.148438 L 86.855469 218.382812 Z M 85.410156 218.617188 L 85.003906 218.851562 C 85.003906 218.484375 85.003906 218.128906 85.003906 218.085938 L 85.003906 217.785156 L 84.429688 217.453125 L 80.644531 215.269531 L 80.644531 214.800781 L 85.410156 217.550781 Z M 79.605469 214.667969 L 79.195312 214.433594 L 79.195312 213.964844 L 79.605469 214.195312 Z M 78.160156 214.429688 L 77.75 214.664062 L 77.75 213.59375 L 77.15625 213.253906 L 73.292969 211.019531 L 73.292969 210.546875 L 78.160156 213.355469 Z M 72.25 210.417969 L 71.941406 210.242188 L 71.941406 209.773438 L 72.25 209.953125 Z M 71.425781 211.144531 L 76.195312 213.898438 L 70.675781 217.085938 L 65.90625 214.332031 Z M 69.457031 210.613281 L 69.457031 211.082031 L 63.9375 214.269531 C 63.9375 214.097656 63.9375 213.933594 63.9375 213.800781 Z M 63.9375 214.871094 C 63.9375 214.738281 63.9375 214.570312 63.9375 214.398438 L 64.34375 214.632812 L 64.34375 215.101562 Z M 65.757812 217.71875 L 65.757812 218.191406 L 60.238281 221.378906 L 60.238281 220.90625 Z M 60.238281 221.507812 L 60.644531 221.742188 L 60.644531 222.214844 L 60.238281 221.976562 Z M 62.117188 224.863281 L 62.117188 225.332031 L 56.59375 228.519531 L 56.59375 228.050781 Z M 56.59375 228.648438 L 57 228.882812 C 57 229.015625 57 229.179688 57 229.355469 L 56.59375 229.121094 Z M 55.859375 230.496094 L 55.859375 230.96875 L 50.339844 234.160156 L 50.339844 233.6875 Z M 50.335938 234.289062 L 50.742188 234.523438 L 50.742188 234.996094 L 50.335938 234.757812 Z M 49.511719 236.078125 L 49.511719 236.550781 L 43.992188 239.738281 L 43.992188 239.265625 Z M 43.46875 238.367188 L 36.289062 234.222656 L 41.804688 231.035156 L 48.992188 235.179688 Z M 43.992188 239.871094 L 44.402344 240.105469 L 44.457031 245.910156 L 43.992188 245.644531 Z M 45.5 246.515625 L 45.445312 240.710938 L 52.621094 244.851562 L 52.621094 250.625 Z M 53.664062 245.453125 L 54.070312 245.683594 C 54.070312 246.679688 54.070312 249.875 54.070312 251.457031 L 53.664062 251.226562 Z M 55.109375 246.289062 L 96.132812 269.972656 L 96.132812 275.75 L 55.109375 252.0625 C 55.109375 251.066406 55.109375 247.871094 55.109375 246.289062 Z M 97.175781 270.574219 L 97.585938 270.808594 L 97.585938 276.582031 L 97.175781 276.347656 Z M 98.621094 271.410156 L 103.390625 274.164062 L 103.390625 279.9375 L 98.621094 277.183594 Z M 104.425781 274.761719 L 104.835938 274.996094 L 104.835938 280.769531 L 104.425781 280.535156 Z M 105.875 275.597656 L 110.640625 278.351562 L 110.640625 284.125 L 105.875 281.371094 Z M 111.679688 278.945312 L 112.085938 279.179688 L 112.085938 284.953125 L 111.679688 284.71875 Z M 113.125 279.78125 L 117.890625 282.535156 L 117.890625 288.308594 L 113.125 285.554688 Z M 118.929688 283.136719 L 119.335938 283.367188 L 119.335938 289.140625 L 118.929688 288.910156 Z M 120.378906 283.972656 L 125.144531 286.722656 C 125.144531 287.71875 125.144531 290.914062 125.144531 292.496094 L 120.378906 289.746094 Z M 126.183594 287.324219 L 126.589844 287.554688 C 126.585938 288.128906 126.578125 289.429688 126.574219 290.738281 C 126.570312 291.609375 126.570312 292.484375 126.570312 293.136719 C 126.570312 293.203125 126.570312 293.265625 126.570312 293.324219 L 126.179688 293.101562 C 126.183594 292.105469 126.183594 288.902344 126.183594 287.324219 Z M 127.617188 293.921875 C 127.601562 293.082031 127.613281 290.367188 127.621094 288.152344 L 132.394531 290.910156 L 132.394531 296.683594 Z M 133.433594 291.507812 L 133.84375 291.742188 L 133.84375 297.515625 L 133.433594 297.28125 Z M 134.878906 292.34375 L 139.648438 295.097656 L 139.648438 300.871094 L 134.878906 298.117188 Z M 140.6875 295.097656 L 146.207031 291.910156 L 146.207031 297.683594 L 140.6875 300.871094 Z M 146.476562 290.265625 L 142.886719 288.191406 L 142.886719 287.71875 L 147.65625 290.472656 L 147.65625 296.847656 L 147.246094 297.078125 L 147.246094 290.707031 Z M 148.695312 290.472656 L 154.214844 287.285156 L 154.214844 293.058594 L 148.695312 296.246094 Z M 154.632812 285.722656 C 154.632812 285.722656 154.628906 285.722656 154.632812 285.722656 L 150.898438 283.566406 L 150.898438 283.097656 L 155.664062 285.847656 L 155.664062 292.222656 L 155.257812 292.457031 L 155.257812 286.082031 Z M 156.703125 285.847656 L 162.222656 282.664062 C 162.222656 283.53125 162.222656 285.203125 162.226562 288.4375 L 156.707031 291.625 L 156.707031 285.847656 Z M 163.265625 287.835938 C 163.261719 285.222656 163.261719 281.960938 163.265625 281.8125 L 163.296875 281.476562 L 162.527344 281.03125 L 158.90625 278.941406 L 158.90625 278.46875 L 163.671875 281.222656 L 163.671875 287.59375 Z M 164.710938 281.226562 L 170.234375 278.039062 L 170.234375 283.8125 L 164.710938 287 Z M 170.304688 276.277344 L 166.914062 274.320312 L 166.914062 273.847656 L 171.683594 276.601562 L 171.683594 282.976562 L 171.273438 283.207031 L 171.273438 276.835938 Z M 172.71875 276.601562 L 178.238281 273.414062 L 178.238281 279.1875 L 172.71875 282.375 Z M 179.277344 272.8125 L 179.6875 272.582031 L 179.6875 278.355469 L 179.277344 278.585938 Z M 180.726562 271.976562 L 186.246094 268.789062 L 186.246094 274.5625 L 180.726562 277.75 Z M 185.726562 267.890625 L 180.207031 271.078125 L 175.4375 268.328125 L 180.957031 265.136719 Z M 173.472656 268.265625 L 173.472656 267.792969 L 178.996094 264.605469 L 178.996094 265.074219 Z M 178.476562 263.703125 L 172.953125 266.890625 L 168.1875 264.136719 L 173.710938 260.949219 Z M 166.109375 264.140625 L 166.625 264.441406 L 166.625 264.910156 L 160.414062 261.328125 L 160.414062 260.855469 L 165.699219 263.910156 L 171.742188 260.421875 L 171.742188 260.890625 Z M 171.222656 259.519531 L 165.699219 262.707031 L 160.933594 259.953125 L 166.457031 256.765625 Z M 158.972656 259.886719 L 158.972656 259.417969 L 164.496094 256.230469 L 164.496094 256.699219 Z M 163.972656 255.328125 L 158.449219 258.519531 L 153.683594 255.765625 L 159.207031 252.578125 Z M 151.71875 255.703125 L 151.71875 255.230469 L 157.238281 252.042969 L 157.238281 252.515625 Z M 156.722656 251.140625 L 151.199219 254.328125 L 146.429688 251.578125 L 151.953125 248.390625 Z M 144.464844 251.515625 L 144.464844 251.042969 L 149.988281 247.855469 L 149.988281 248.324219 Z M 149.464844 246.957031 L 143.945312 250.144531 L 139.175781 247.390625 L 144.699219 244.203125 Z M 137.214844 247.324219 L 137.214844 246.855469 L 142.738281 243.667969 L 142.738281 244.136719 Z M 142.214844 242.769531 L 136.695312 245.957031 L 131.929688 243.203125 L 137.449219 240.015625 Z M 129.960938 243.140625 L 129.960938 242.671875 L 135.480469 239.484375 L 135.480469 239.953125 Z M 134.964844 238.582031 L 129.441406 241.769531 L 124.675781 239.015625 L 130.195312 235.828125 Z M 122.710938 238.953125 L 122.710938 238.484375 L 128.230469 235.292969 L 128.230469 235.765625 Z M 127.710938 234.394531 L 122.191406 237.582031 L 117.425781 234.832031 L 122.941406 231.644531 Z M 115.457031 234.765625 L 115.457031 234.292969 L 120.980469 231.105469 L 120.980469 231.578125 Z M 120.457031 230.207031 L 114.9375 233.394531 L 110.167969 230.644531 L 115.691406 227.453125 Z M 108.203125 230.582031 L 108.203125 230.109375 L 113.726562 226.921875 L 113.726562 227.390625 Z M 113.207031 226.019531 L 107.683594 229.207031 L 102.917969 226.453125 L 107.191406 223.988281 C 107.292969 223.964844 107.363281 223.925781 107.414062 223.859375 L 108.4375 223.265625 Z M 100.917969 226.414062 C 100.914062 226.226562 100.910156 226.066406 100.914062 225.945312 L 106.488281 222.726562 C 106.492188 222.90625 106.492188 223.066406 106.496094 223.195312 Z M 105.953125 221.835938 L 100.429688 225.023438 L 95.664062 222.269531 L 101.1875 219.082031 Z M 93.703125 222.203125 L 93.703125 221.734375 L 99.226562 218.546875 L 99.226562 219.015625 Z M 93.9375 214.898438 L 98.703125 217.648438 L 93.179688 220.839844 L 88.414062 218.085938 L 92.625 215.652344 C 92.710938 215.625 92.777344 215.597656 92.828125 215.535156 Z M 86.449219 218.019531 L 86.449219 217.546875 L 91.949219 214.375 C 91.941406 214.550781 91.9375 214.722656 91.933594 214.855469 Z M 91.453125 213.460938 L 85.933594 216.648438 L 81.164062 213.898438 L 86.683594 210.707031 Z M 79.195312 213.832031 L 79.195312 213.359375 L 84.714844 210.171875 L 84.714844 210.644531 Z M 84.195312 209.273438 L 78.679688 212.460938 L 73.910156 209.707031 L 79.433594 206.519531 Z M 71.945312 209.644531 L 71.945312 209.171875 L 77.46875 205.984375 L 77.46875 206.453125 Z M 72.183594 202.335938 L 76.949219 205.089844 L 71.425781 208.277344 L 66.660156 205.523438 Z M 66.140625 206.421875 L 70.90625 209.175781 L 70.90625 210.246094 L 70.5 210.480469 L 70.5 209.410156 L 69.871094 209.046875 L 66.140625 206.894531 Z M 64.171875 206.957031 L 68.9375 209.707031 L 63.417969 212.898438 L 58.652344 210.144531 Z M 58.132812 211.046875 L 62.902344 213.800781 L 62.902344 214.269531 L 58.132812 211.515625 Z M 56.164062 211.578125 L 63.089844 215.578125 C 63.128906 215.609375 63.167969 215.636719 63.222656 215.652344 L 65.238281 216.816406 L 59.71875 220.003906 L 50.644531 214.769531 Z M 50.125 215.671875 L 59.195312 220.90625 L 59.195312 221.378906 L 50.125 216.140625 Z M 48.160156 216.203125 L 61.597656 223.964844 L 56.078125 227.152344 L 42.636719 219.390625 Z M 42.117188 220.292969 L 55.554688 228.050781 L 55.554688 228.519531 L 42.117188 220.761719 Z M 40.152344 220.828125 L 55.339844 229.597656 L 49.820312 232.785156 L 34.628906 224.015625 Z M 34.109375 224.914062 L 49.296875 233.683594 L 49.296875 234.15625 L 41.804688 229.835938 L 34.320312 234.15625 L 34.320312 233.683594 L 41.402344 229.597656 L 34.109375 225.386719 Z M 32.140625 225.453125 L 39.320312 229.597656 L 33.804688 232.785156 L 26.621094 228.640625 Z M 25.058594 234.285156 L 25.058594 235.910156 L 126.710938 294.597656 C 126.75 294.636719 126.808594 294.664062 126.878906 294.695312 L 139.90625 302.21875 L 140.167969 302.367188 L 187.027344 275.3125 L 187.289062 275.164062 L 187.289062 273.363281 L 191.875 276.011719 L 140.171875 305.863281 L 20.625 236.847656 Z M 20.101562 237.746094 L 139.648438 306.765625 L 139.648438 311.980469 L 20.101562 242.960938 Z M 140.6875 311.980469 L 140.6875 306.765625 L 192.390625 276.914062 L 192.390625 282.128906 Z M 140.6875 311.980469 " fill-opacity="1" fill-rule="nonzero"/></g><g clip-path="url(#8c1a10f260)"><path fill="#37aecf" d="M 350.097656 128.453125 L 350.097656 227.578125 L 271.425781 273 C 271.425781 272.054688 246.945312 180.527344 246.042969 179.359375 C 245.140625 178.195312 350.097656 128.453125 350.097656 128.453125 Z M 350.097656 128.453125 " fill-opacity="1" fill-rule="nonzero"/></g><path fill="#d9d9d9" d="M 225.566406 246.527344 L 225.566406 147.398438 L 271.425781 173.875 L 271.425781 273 Z M 225.566406 246.527344 " fill-opacity="1" fill-rule="nonzero"/><g clip-path="url(#add08a8b12)"><path fill="#d9d9d9" d="M 350.097656 128.453125 L 271.425781 173.875 L 225.566406 147.398438 L 304.238281 101.976562 Z M 246.800781 225.410156 C 246.800781 226.515625 247.59375 227.671875 248.453125 228.160156 C 249.316406 228.652344 250.1875 228.027344 250.1875 227.144531 C 250.1875 226.265625 249.683594 224.902344 248.503906 224.285156 C 247.695312 223.859375 246.800781 224.34375 246.800781 225.410156 Z M 246.800781 225.410156 " fill-opacity="1" fill-rule="nonzero"/></g><g clip-path="url(#ef551c9f4b)"><path fill="#343434" d="M 252.96875 217.429688 C 252.96875 219.761719 250.660156 221.40625 248.386719 220.113281 C 246.109375 218.824219 244.015625 215.757812 244.015625 212.835938 C 244.015625 210.011719 246.378906 208.742188 248.511719 209.863281 C 251.644531 211.5 252.96875 215.101562 252.96875 217.429688 Z M 250.699219 227.144531 C 250.699219 227.761719 250.382812 228.332031 249.871094 228.628906 C 249.621094 228.773438 249.351562 228.847656 249.070312 228.847656 C 248.777344 228.847656 248.480469 228.769531 248.199219 228.605469 C 247.273438 228.078125 246.289062 226.78125 246.289062 225.40625 C 246.289062 224.722656 246.582031 224.148438 247.09375 223.839844 C 247.578125 223.546875 248.195312 223.539062 248.742188 223.824219 C 250.085938 224.535156 250.699219 226.042969 250.699219 227.144531 Z M 249.671875 227.144531 C 249.671875 226.5 249.292969 225.277344 248.265625 224.738281 C 248.144531 224.675781 248.023438 224.644531 247.910156 224.644531 C 247.808594 224.644531 247.710938 224.667969 247.625 224.722656 C 247.425781 224.84375 247.316406 225.085938 247.316406 225.410156 C 247.316406 226.347656 248.039062 227.335938 248.707031 227.714844 C 248.933594 227.84375 249.164062 227.851562 249.351562 227.742188 C 249.550781 227.628906 249.671875 227.402344 249.671875 227.144531 Z M 327.335938 238.035156 L 328.976562 237.085938 L 328.976562 234.753906 L 327.335938 235.699219 Z M 331.128906 235.847656 L 332.769531 234.902344 L 332.769531 232.566406 L 331.128906 233.511719 Z M 334.917969 233.65625 L 336.5625 232.710938 L 336.5625 230.375 L 334.917969 231.324219 Z M 323.546875 240.226562 L 325.191406 239.277344 L 325.191406 236.941406 L 323.546875 237.890625 Z M 346.289062 227.09375 L 347.929688 226.148438 L 347.929688 223.8125 L 346.289062 224.757812 Z M 342.5 229.28125 L 344.144531 228.332031 L 344.144531 226 L 342.5 226.945312 Z M 338.710938 231.472656 L 340.351562 230.523438 L 340.351562 228.1875 L 338.710938 229.136719 Z M 327.335938 233.65625 L 328.976562 232.710938 L 328.976562 230.375 L 327.335938 231.324219 Z M 331.128906 231.46875 L 332.769531 230.519531 L 332.769531 228.1875 L 331.128906 229.132812 Z M 334.917969 229.28125 L 336.5625 228.332031 L 336.5625 226 L 334.917969 226.945312 Z M 323.546875 235.84375 L 325.191406 234.898438 L 325.191406 232.5625 L 323.546875 233.507812 Z M 346.289062 222.714844 L 347.929688 221.765625 L 347.929688 219.433594 L 346.289062 220.378906 Z M 342.5 224.902344 L 344.144531 223.957031 L 344.144531 221.621094 L 342.5 222.570312 Z M 338.710938 227.089844 L 340.351562 226.144531 L 340.351562 223.808594 L 338.710938 224.757812 Z M 327.335938 229.277344 L 328.976562 228.332031 L 328.976562 225.996094 L 327.335938 226.941406 Z M 331.128906 227.089844 L 332.769531 226.144531 L 332.769531 223.808594 L 331.128906 224.757812 Z M 334.917969 224.902344 L 336.5625 223.953125 L 336.5625 221.617188 L 334.917969 222.566406 Z M 323.546875 231.46875 L 325.191406 230.519531 L 325.191406 228.1875 L 323.546875 229.132812 Z M 346.289062 218.335938 L 347.929688 217.390625 L 347.929688 215.054688 L 346.289062 216.003906 Z M 342.5 220.523438 L 344.144531 219.578125 L 344.144531 217.242188 L 342.5 218.1875 Z M 338.710938 222.714844 L 340.351562 221.765625 L 340.351562 219.433594 L 338.710938 220.378906 Z M 327.335938 224.902344 L 328.976562 223.953125 L 328.976562 221.617188 L 327.335938 222.566406 Z M 331.128906 222.710938 L 332.769531 221.761719 L 332.769531 219.429688 L 331.128906 220.375 Z M 334.917969 220.523438 L 336.5625 219.578125 L 336.5625 217.242188 L 334.917969 218.1875 Z M 323.546875 227.089844 L 325.191406 226.144531 L 325.191406 223.808594 L 323.546875 224.757812 Z M 346.289062 213.957031 L 347.929688 213.007812 L 347.929688 210.675781 L 346.289062 211.621094 Z M 342.5 216.148438 L 344.144531 215.199219 L 344.144531 212.863281 L 342.5 213.8125 Z M 338.710938 218.332031 L 340.351562 217.386719 L 340.351562 215.050781 L 338.710938 216 Z M 327.335938 220.523438 L 328.976562 219.578125 L 328.976562 217.242188 L 327.335938 218.1875 Z M 331.128906 218.332031 L 332.769531 217.386719 L 332.769531 215.050781 L 331.128906 216 Z M 334.917969 216.148438 L 336.5625 215.199219 L 336.5625 212.863281 L 334.917969 213.8125 Z M 323.546875 222.710938 L 325.191406 221.761719 L 325.191406 219.429688 L 323.546875 220.375 Z M 346.289062 209.578125 L 347.929688 208.632812 L 347.929688 206.296875 L 346.289062 207.246094 Z M 342.5 211.765625 L 344.144531 210.820312 L 344.144531 208.484375 L 342.5 209.429688 Z M 338.710938 213.957031 L 340.351562 213.007812 L 340.351562 210.675781 L 338.710938 211.621094 Z M 327.335938 216.144531 L 328.976562 215.195312 L 328.976562 212.863281 L 327.335938 213.808594 Z M 331.128906 213.957031 L 332.769531 213.007812 L 332.769531 210.675781 L 331.128906 211.621094 Z M 334.917969 211.765625 L 336.5625 210.820312 L 336.5625 208.484375 L 334.917969 209.429688 Z M 323.546875 218.332031 L 325.191406 217.386719 L 325.191406 215.050781 L 323.546875 216 Z M 346.289062 205.199219 L 347.929688 204.253906 L 347.929688 201.917969 L 346.289062 202.863281 Z M 342.5 207.390625 L 344.144531 206.441406 L 344.144531 204.109375 L 342.5 205.054688 Z M 338.710938 209.578125 L 340.351562 208.632812 L 340.351562 206.296875 L 338.710938 207.246094 Z M 247.28125 155.214844 C 247.257812 154.71875 247.519531 154.25 247.996094 153.921875 C 248.925781 153.292969 250.347656 153.417969 251.183594 153.902344 C 251.65625 154.175781 251.941406 154.625 251.953125 155.105469 C 251.964844 155.605469 251.683594 156.074219 251.183594 156.394531 C 250.742188 156.675781 250.214844 156.796875 249.695312 156.796875 C 249.09375 156.796875 248.507812 156.644531 248.054688 156.398438 C 247.59375 156.144531 247.304688 155.703125 247.28125 155.214844 Z M 248.304688 155.164062 C 248.308594 155.289062 248.402344 155.417969 248.546875 155.496094 C 249.101562 155.800781 250.054688 155.898438 250.628906 155.53125 C 250.820312 155.40625 250.925781 155.261719 250.925781 155.128906 C 250.921875 155.007812 250.828125 154.878906 250.667969 154.785156 C 250.128906 154.46875 249.132812 154.386719 248.570312 154.765625 C 248.46875 154.839844 248.296875 154.984375 248.304688 155.164062 Z M 255.21875 159.835938 C 255.195312 159.339844 255.457031 158.871094 255.933594 158.542969 C 256.863281 157.914062 258.285156 158.039062 259.125 158.523438 C 259.59375 158.796875 259.878906 159.246094 259.890625 159.730469 C 259.902344 160.226562 259.621094 160.695312 259.121094 161.015625 C 258.679688 161.300781 258.152344 161.417969 257.632812 161.417969 C 257.03125 161.417969 256.445312 161.265625 255.992188 161.019531 C 255.53125 160.765625 255.242188 160.324219 255.21875 159.835938 Z M 256.242188 159.785156 C 256.246094 159.910156 256.339844 160.039062 256.484375 160.117188 C 257.039062 160.421875 257.992188 160.519531 258.566406 160.15625 C 258.757812 160.03125 258.863281 159.882812 258.863281 159.753906 C 258.863281 159.632812 258.765625 159.503906 258.605469 159.410156 C 258.066406 159.097656 257.070312 159.011719 256.507812 159.390625 C 256.40625 159.464844 256.234375 159.609375 256.242188 159.785156 Z M 350.613281 128.15625 L 350.613281 227.875 L 350.355469 228.023438 L 271.425781 273.597656 L 271.167969 273.449219 L 225.050781 246.824219 L 225.050781 147.105469 L 225.304688 146.957031 L 304.238281 101.386719 Z M 304.238281 102.570312 L 226.589844 147.398438 L 271.425781 173.28125 L 349.074219 128.453125 Z M 226.078125 246.230469 L 270.910156 272.113281 L 270.910156 174.175781 L 226.078125 148.289062 Z M 349.585938 227.285156 L 349.585938 129.339844 L 271.933594 174.175781 L 271.933594 272.117188 Z M 269.128906 176.796875 L 269.128906 216.238281 L 227.859375 192.414062 L 227.859375 152.96875 Z M 228.882812 154.746094 L 228.882812 166.3125 L 268.105469 188.957031 L 268.105469 177.386719 Z M 228.882812 179.066406 L 268.105469 201.710938 L 268.105469 190.144531 L 228.882812 167.496094 Z M 268.105469 214.460938 L 268.105469 202.894531 L 228.882812 180.25 L 228.882812 191.816406 Z M 237.753906 149.871094 L 238.832031 149.753906 L 241.613281 152.035156 L 241.90625 152.199219 L 244.4375 150.734375 L 238.449219 147.3125 L 235.859375 148.804688 Z M 265.808594 165.578125 L 268.71875 167.699219 L 269.015625 167.871094 L 271.539062 166.414062 L 265.484375 162.917969 L 262.878906 164.402344 L 264.859375 165.519531 Z M 265.808594 165.578125 " fill-opacity="1" fill-rule="nonzero"/></g><path fill="#d9d9d9" d="M 250.242188 214.613281 C 250.519531 215.175781 250.65625 215.773438 250.65625 216.285156 C 250.65625 216.886719 250.34375 217.441406 249.84375 217.734375 C 249.597656 217.875 249.332031 217.949219 249.0625 217.949219 C 248.773438 217.949219 248.484375 217.867188 248.210938 217.714844 C 247.296875 217.195312 246.328125 215.914062 246.328125 214.566406 C 246.328125 213.894531 246.617188 213.335938 247.113281 213.035156 C 247.132812 213.023438 247.148438 213.011719 247.167969 213.007812 C 247.394531 212.878906 247.675781 213.050781 247.675781 213.3125 C 247.675781 213.566406 247.609375 213.820312 247.457031 214.023438 C 247.429688 214.0625 247.40625 214.101562 247.390625 214.136719 C 247.335938 214.257812 247.308594 214.402344 247.308594 214.566406 C 247.308594 215.511719 248.015625 216.476562 248.695312 216.867188 C 248.925781 216.996094 249.160156 217.007812 249.355469 216.894531 C 249.558594 216.777344 249.683594 216.542969 249.683594 216.285156 C 249.683594 215.949219 249.585938 215.488281 249.363281 215.042969 C 249.328125 214.972656 249.3125 214.898438 249.3125 214.824219 C 249.308594 214.300781 250.011719 214.144531 250.242188 214.613281 Z M 248.492188 215.746094 C 248.765625 215.746094 248.984375 215.527344 248.984375 215.253906 L 248.984375 212.570312 C 248.984375 212.300781 248.765625 212.078125 248.492188 212.078125 C 248.21875 212.078125 248 212.300781 248 212.570312 L 248 215.253906 C 248 215.527344 248.21875 215.746094 248.492188 215.746094 Z M 248.492188 215.746094 " fill-opacity="1" fill-rule="nonzero"/><path fill="#37aecf" d="M 237.753906 148.902344 L 241.609375 151.125 L 241.609375 152.027344 L 237.753906 149.867188 Z M 264.855469 165.519531 L 268.71875 167.699219 L 268.71875 166.617188 L 268.621094 166.496094 L 264.859375 164.546875 L 264.859375 165.519531 Z M 264.855469 165.519531 " fill-opacity="1" fill-rule="nonzero"/><path fill="#d9d9d9" d="M 237.753906 148.902344 L 238.617188 148.402344 L 242.472656 150.628906 L 241.613281 151.128906 Z M 268.714844 166.777344 L 269.574219 166.277344 L 265.722656 164.054688 L 264.855469 164.550781 Z M 268.714844 166.777344 " fill-opacity="1" fill-rule="nonzero"/></svg>