<svg xmlns="http://www.w3.org/2000/svg" xmlns:xlink="http://www.w3.org/1999/xlink" width="500" zoomAndPan="magnify" viewBox="0 0 375 374.999991" height="500" preserveAspectRatio="xMidYMid meet" version="1.0"><defs><clipPath id="a92c32c8db"><path d="M 0 28.3125 L 375 28.3125 L 375 346.3125 L 0 346.3125 Z M 0 28.3125 " clip-rule="nonzero"/></clipPath></defs><path fill="#10a6a5" d="M 115.261719 245.816406 C 115.066406 240.273438 109.5625 234.558594 103.960938 235.394531 C 97.601562 234.617188 92.203125 240.984375 92.390625 246.992188 C 92.585938 253.335938 98.058594 258.171875 103.457031 258.167969 C 110.59375 258.152344 115.519531 252.957031 115.269531 245.816406 Z M 103.363281 254.542969 C 99.023438 254.542969 96.015625 251.050781 95.851562 246.273438 C 95.71875 242.46875 99.804688 238.625 103.925781 238.648438 C 108.015625 238.667969 111.859375 242.746094 111.851562 246.53125 C 111.84375 250.652344 108.113281 254.964844 103.363281 254.542969 Z M 103.363281 254.542969 " fill-opacity="1" fill-rule="nonzero"/><path fill="#10a6a5" d="M 292.800781 208.320312 C 292.570312 202.859375 287.917969 197.644531 281.507812 197.699219 C 274.449219 197.964844 270.105469 202.425781 269.949219 208.789062 C 269.785156 215.511719 274.675781 220.1875 280.757812 220.527344 C 288.070312 220.9375 293.105469 215.25 292.800781 208.320312 Z M 273.410156 209.515625 C 273.417969 204.308594 276.828125 201.3125 281.371094 201.160156 C 286.09375 201.300781 289.296875 204.332031 289.410156 209.171875 C 289.519531 213.796875 285.722656 217.023438 281.382812 217.042969 C 276.839844 217.066406 273.402344 213.476562 273.410156 209.511719 Z M 273.410156 209.515625 " fill-opacity="1" fill-rule="nonzero"/><path fill="#10a6a5" d="M 337.632812 201.664062 C 337.78125 202.289062 338.097656 202.660156 338.785156 202.765625 C 340.402344 203.03125 341.210938 202.1875 340.859375 200.542969 C 340.199219 197.488281 339.582031 194.421875 338.859375 191.378906 C 337.601562 186.085938 336.511719 180.757812 335.367188 175.441406 C 334.871094 173.125 334.378906 170.804688 333.925781 168.476562 C 333.730469 167.460938 333.417969 166.480469 332.988281 165.554688 C 332.675781 164.871094 332.109375 164.453125 331.265625 164.660156 C 330.378906 164.882812 329.980469 165.449219 330.058594 166.644531 C 330.074219 166.792969 330.121094 167.242188 330.195312 167.6875 C 331.019531 172.613281 332.378906 177.433594 333.359375 182.328125 C 334.40625 187.539062 335.65625 192.707031 336.699219 197.921875 C 336.953125 199.179688 337.332031 200.414062 337.632812 201.660156 Z M 337.632812 201.664062 " fill-opacity="1" fill-rule="nonzero"/><path fill="#10a6a5" d="M 338.726562 206.855469 C 338.683594 207.761719 339.425781 208.503906 340.414062 208.535156 C 341.726562 208.578125 342.609375 207.824219 342.589844 206.679688 C 342.570312 205.792969 341.917969 205.167969 340.96875 205.136719 C 339.921875 205.105469 338.769531 205.988281 338.726562 206.847656 Z M 338.726562 206.855469 " fill-opacity="1" fill-rule="nonzero"/><g clip-path="url(#a92c32c8db)"><path fill="#10a6a5" d="M 25.175781 31.246094 C 24.964844 31.914062 24.890625 32.632812 24.816406 33.332031 C 24.59375 35.375 24.429688 37.421875 24.199219 39.457031 C 23.933594 41.753906 23.589844 44.039062 23.324219 46.335938 C 22.777344 51.054688 22.230469 55.773438 21.746094 60.5 C 21.335938 64.460938 20.554688 68.375 20.277344 72.359375 C 20.109375 74.792969 19.820312 77.214844 19.535156 79.644531 C 18.996094 84.296875 18.398438 88.9375 17.875 93.59375 C 17.679688 95.335938 17.542969 95.527344 15.734375 95.488281 C 12.199219 95.414062 8.664062 95.320312 5.132812 95.25 C 2.902344 95.207031 2.164062 95.789062 1.636719 97.949219 C 1.433594 98.773438 1.460938 99.601562 1.480469 100.441406 C 1.515625 102.492188 1.542969 104.542969 1.527344 106.59375 C 1.511719 108.910156 1.410156 111.21875 1.398438 113.535156 C 1.359375 118.15625 1.378906 122.789062 1.328125 127.414062 C 1.253906 134.800781 1.039062 142.195312 1.089844 149.582031 C 1.121094 153.5625 0.960938 157.539062 0.980469 161.515625 C 1.027344 169.15625 0.898438 176.800781 0.792969 184.4375 C 0.769531 186.105469 0.886719 187.777344 0.804688 189.441406 C 0.523438 195.277344 0.6875 201.125 0.589844 206.960938 C 0.515625 211.78125 0.628906 216.601562 0.574219 221.421875 C 0.496094 227.910156 0.339844 234.402344 0.21875 240.746094 C 0.554688 244.035156 0.15625 247.175781 0.203125 250.328125 C 0.25 253.792969 0.175781 257.265625 0.0742188 260.734375 C 0.0117188 262.917969 0.492188 263.484375 2.691406 263.457031 C 4.554688 263.4375 6.425781 263.390625 8.285156 263.40625 C 13.554688 263.464844 18.820312 263.550781 24.085938 263.621094 C 24.851562 263.632812 25.628906 263.671875 26.394531 263.621094 C 27.289062 263.566406 27.777344 264.003906 27.808594 264.824219 C 27.890625 266.96875 28.589844 268.996094 29.054688 271.050781 C 29.722656 273.992188 30.15625 276.972656 30.855469 279.90625 C 31.511719 282.648438 32.203125 285.386719 32.644531 288.167969 C 33.257812 292.042969 34.355469 295.8125 35.003906 299.675781 C 35.367188 301.820312 36.003906 303.921875 36.429688 306.054688 C 37.574219 311.785156 38.519531 317.5625 39.835938 323.25 C 40.878906 327.753906 41.746094 332.292969 42.671875 336.816406 C 43.226562 339.515625 43.929688 342.183594 44.296875 344.917969 C 44.453125 346.101562 44.894531 346.398438 46.105469 346.492188 C 46.558594 346.53125 46.988281 346.421875 47.433594 346.328125 C 51.511719 345.449219 55.589844 344.597656 59.671875 343.742188 C 64.132812 342.8125 68.582031 341.800781 73.070312 341.007812 C 76.988281 340.3125 80.800781 339.175781 84.753906 338.601562 C 87.269531 338.238281 89.75 337.382812 92.246094 336.96875 C 97.941406 336.03125 103.507812 334.527344 109.179688 333.519531 C 112.765625 332.882812 116.332031 332.109375 119.886719 331.304688 C 122.390625 330.738281 124.945312 330.386719 127.429688 329.773438 C 132.847656 328.453125 138.347656 327.566406 143.785156 326.328125 C 147.96875 325.378906 152.222656 324.703125 156.394531 323.695312 C 160.015625 322.816406 163.683594 322.207031 167.328125 321.425781 C 172.035156 320.425781 176.753906 319.476562 181.480469 318.539062 C 187.832031 317.28125 194.167969 315.925781 200.503906 314.566406 C 205.207031 313.554688 209.957031 312.792969 214.605469 311.546875 C 214.914062 311.464844 215.230469 311.371094 215.542969 311.332031 C 219.429688 310.925781 223.164062 309.730469 227 309.035156 C 232.039062 308.125 237.03125 306.953125 242.050781 305.910156 C 245.316406 305.230469 248.59375 304.601562 251.859375 303.921875 C 252.804688 303.726562 253.710938 303.375 254.652344 303.183594 C 257.164062 302.6875 259.699219 302.28125 262.203125 301.761719 C 265.972656 300.984375 269.699219 299.945312 273.5 299.371094 C 278.574219 298.605469 283.519531 297.226562 288.585938 296.390625 C 292.621094 295.722656 296.601562 294.722656 300.597656 293.808594 C 306.097656 292.558594 311.644531 291.539062 317.175781 290.433594 C 322.25 289.414062 327.289062 288.230469 332.347656 287.171875 C 337.800781 286.039062 343.292969 285.070312 348.730469 283.84375 C 353.984375 282.65625 359.269531 281.667969 364.535156 280.535156 C 367.105469 279.980469 369.683594 279.464844 372.25 278.90625 C 373.855469 278.550781 375 277.261719 374.75 275.980469 C 374.246094 273.40625 373.648438 270.851562 373.09375 268.289062 C 372.382812 264.972656 371.578125 261.675781 371.003906 258.34375 C 370.496094 255.378906 369.808594 252.453125 369.148438 249.535156 C 368.304688 245.789062 367.644531 242.007812 366.730469 238.277344 C 366.035156 235.410156 365.53125 232.496094 364.914062 229.601562 C 364.296875 226.71875 363.628906 223.84375 363.015625 220.960938 C 362.039062 216.382812 361.171875 211.777344 360.113281 207.214844 C 359.167969 203.148438 358.359375 199.058594 357.496094 194.984375 C 356.621094 190.855469 355.757812 186.714844 354.921875 182.574219 C 353.5625 175.835938 351.957031 169.15625 350.566406 162.421875 C 350.261719 160.925781 349.644531 159.445312 349.789062 157.871094 C 350.027344 155.1875 350.222656 152.488281 350.605469 149.820312 C 351.222656 145.566406 351.59375 141.289062 352.089844 137.019531 C 352.652344 132.171875 353.046875 127.300781 353.695312 122.460938 C 354.367188 117.433594 354.777344 112.375 355.425781 107.347656 C 355.886719 103.792969 356.3125 100.21875 356.640625 96.640625 C 356.921875 93.519531 357.34375 90.40625 357.695312 87.289062 C 358.136719 83.46875 358.578125 79.644531 359.011719 75.824219 C 359.152344 74.617188 359.300781 73.402344 359.371094 72.1875 C 359.453125 70.691406 358.84375 69.828125 357.503906 69.8125 C 354.980469 69.765625 352.519531 69.261719 350.027344 68.980469 C 345.503906 68.464844 340.992188 67.878906 336.472656 67.300781 C 331.832031 66.707031 327.199219 65.992188 322.539062 65.53125 C 317.371094 65.023438 312.25 64.210938 307.105469 63.601562 C 303.410156 63.167969 299.730469 62.636719 296.035156 62.171875 C 291.132812 61.550781 286.226562 60.9375 281.324219 60.347656 C 278.332031 59.988281 275.34375 59.605469 272.359375 59.160156 C 268.929688 58.648438 265.476562 58.351562 262.035156 57.933594 C 258.144531 57.460938 254.265625 56.949219 250.375 56.476562 C 246.933594 56.0625 243.484375 55.703125 240.050781 55.277344 C 236.363281 54.8125 232.667969 54.34375 228.996094 53.773438 C 227.339844 53.515625 225.648438 53.550781 224.019531 53.230469 C 219.796875 52.40625 215.492188 52.261719 211.253906 51.550781 C 207.277344 50.890625 203.21875 50.746094 199.226562 50.148438 C 194.988281 49.511719 190.726562 49.035156 186.472656 48.519531 C 183.410156 48.152344 180.351562 47.757812 177.292969 47.386719 C 174.117188 47.003906 170.941406 46.574219 167.761719 46.195312 C 164.453125 45.808594 161.167969 45.234375 157.863281 44.824219 C 153.285156 44.257812 148.683594 43.835938 144.117188 43.144531 C 140.566406 42.605469 136.988281 42.195312 133.421875 41.800781 C 128.136719 41.214844 122.863281 40.507812 117.582031 39.898438 C 112.105469 39.269531 106.648438 38.457031 101.175781 37.765625 C 95.316406 37.023438 89.453125 36.351562 83.601562 35.613281 C 77.804688 34.890625 72.023438 34.097656 66.230469 33.386719 C 58.917969 32.492188 51.601562 31.683594 44.289062 30.78125 C 39.199219 30.152344 34.113281 29.433594 29.03125 28.761719 C 26.765625 28.460938 25.878906 29.015625 25.191406 31.214844 Z M 117.457031 97.125 C 113.167969 96.941406 108.855469 97.023438 104.558594 96.933594 C 100.902344 96.859375 97.242188 96.921875 93.585938 96.742188 C 89.546875 96.53125 85.496094 96.695312 81.449219 96.550781 C 78.113281 96.433594 74.765625 96.789062 71.4375 96.1875 C 69.464844 95.828125 67.46875 96.289062 65.472656 96.167969 C 60.75 95.882812 56.03125 95.632812 51.324219 95.054688 C 46.226562 94.429688 41.21875 93.378906 36.210938 92.265625 C 35.6875 92.152344 35.273438 91.871094 34.789062 91.726562 C 34.007812 91.5 33.839844 91.007812 33.933594 90.265625 C 34.367188 86.824219 34.777344 83.375 35.195312 79.933594 C 35.398438 78.273438 35.605469 76.617188 35.828125 74.957031 C 36.035156 73.398438 36.066406 73.277344 37.574219 73.511719 C 40.980469 74.03125 44.183594 73.378906 47.378906 72.257812 C 49.777344 71.414062 51.863281 70.070312 53.910156 68.640625 C 58.167969 65.671875 61.332031 61.757812 63.421875 57.007812 C 64.535156 54.472656 65.234375 51.804688 65.800781 49.097656 C 66.167969 47.34375 66.246094 47.273438 67.964844 47.488281 C 71.273438 47.910156 74.570312 48.410156 77.882812 48.832031 C 81.644531 49.3125 85.414062 49.714844 89.167969 50.1875 C 92.667969 50.625 96.160156 51.125 99.65625 51.570312 C 101.691406 51.835938 103.730469 52.125 105.769531 52.324219 C 110.625 52.796875 115.4375 53.632812 120.300781 54.09375 C 124.582031 54.496094 128.828125 55.226562 133.085938 55.785156 C 136.65625 56.25 140.230469 56.65625 143.789062 57.140625 C 147.539062 57.648438 151.285156 58.234375 155.035156 58.757812 C 157.703125 59.128906 160.375 59.460938 163.050781 59.792969 C 166.234375 60.191406 169.417969 60.59375 172.605469 60.9375 C 174.261719 61.121094 175.929688 61.132812 177.835938 61.59375 C 176.5 62.726562 175.015625 62.765625 173.714844 63.152344 C 170.792969 64.023438 168.089844 65.320312 165.441406 66.757812 C 159.644531 69.917969 154.492188 73.914062 149.929688 78.675781 C 145.199219 83.609375 141.246094 89.109375 138.089844 95.171875 C 138 95.34375 137.90625 95.511719 137.832031 95.691406 C 137.289062 96.921875 136.480469 97.457031 135.011719 97.417969 C 129.167969 97.28125 123.316406 97.363281 117.46875 97.117188 Z M 264.726562 99.804688 C 260.171875 99.546875 255.609375 99.640625 251.054688 99.445312 C 247.023438 99.269531 242.964844 99.269531 238.917969 99.277344 C 237.566406 99.277344 236.21875 99.183594 234.867188 99.214844 C 234.035156 99.230469 233.558594 98.917969 233.230469 98.175781 C 232.160156 95.714844 230.984375 93.296875 229.792969 90.890625 C 227.644531 86.527344 224.785156 82.679688 221.714844 78.972656 C 218.878906 75.550781 215.480469 72.691406 211.96875 69.988281 C 210.125 68.566406 208.011719 67.613281 205.953125 66.570312 C 204.949219 66.0625 204.09375 65.28125 202.933594 65.003906 C 204.355469 64.847656 205.742188 64.800781 207.117188 65.027344 C 212.699219 65.921875 218.324219 66.480469 223.925781 67.226562 C 227.867188 67.746094 231.808594 68.308594 235.753906 68.796875 C 239.640625 69.28125 243.523438 69.792969 247.40625 70.308594 C 250.773438 70.753906 254.117188 71.320312 257.496094 71.65625 C 260.050781 71.90625 262.601562 72.171875 265.144531 72.546875 C 267.617188 72.914062 270.113281 73.121094 272.59375 73.433594 C 276.410156 73.917969 280.21875 74.53125 284.050781 74.925781 C 288.65625 75.40625 293.1875 76.355469 297.773438 76.914062 C 300.894531 77.292969 304.027344 77.605469 307.148438 77.957031 C 309.828125 78.261719 312.503906 78.601562 315.183594 78.894531 C 316.082031 78.996094 316.535156 79.3125 316.484375 80.351562 C 316.378906 82.621094 317.257812 84.773438 317.464844 87 C 317.742188 90 318.761719 92.75 319.90625 95.480469 C 320.453125 96.796875 321.246094 97.960938 321.996094 99.15625 C 322.285156 99.621094 322.796875 99.992188 322.800781 100.636719 C 320.089844 100.636719 317.421875 100.648438 314.753906 100.628906 C 313.917969 100.628906 313.085938 100.507812 312.25 100.496094 C 306.46875 100.445312 300.6875 100.515625 294.910156 100.34375 C 288.882812 100.167969 282.855469 100.164062 276.828125 99.960938 C 272.792969 99.828125 268.746094 100.042969 264.726562 99.8125 Z M 160.683594 98.035156 C 157.4375 97.683594 154.183594 97.753906 150.929688 97.722656 C 147.847656 97.691406 144.757812 97.703125 141.675781 97.683594 C 141.375 97.683594 141.046875 97.765625 140.644531 97.417969 C 141.683594 96.242188 142.136719 94.703125 143.058594 93.425781 C 143.074219 92.863281 143.375 92.507812 143.851562 92.265625 C 146.488281 87.441406 150 83.28125 153.882812 79.445312 C 156.007812 77.335938 158.382812 75.492188 160.871094 73.773438 C 164.382812 71.351562 168.046875 69.25 172.035156 67.828125 C 176.003906 66.417969 180.0625 65.207031 184.371094 65.179688 C 188.167969 65.160156 191.949219 65.269531 195.640625 66.222656 C 200.902344 67.589844 205.757812 69.828125 210.203125 72.996094 C 215.121094 76.503906 219.238281 80.765625 222.652344 85.730469 C 224.246094 87.742188 225.578125 89.933594 226.6875 92.234375 C 227.546875 94.027344 228.644531 95.707031 229.257812 97.613281 C 229.613281 98.703125 229.460938 99.070312 228.328125 99.144531 C 226.800781 99.246094 225.234375 99.269531 223.714844 99.085938 C 222.175781 98.898438 220.671875 98.960938 219.128906 99.019531 C 216.902344 99.09375 214.65625 98.890625 212.421875 98.796875 C 211.855469 98.773438 211.515625 98.332031 211.183594 97.953125 C 208.742188 95.199219 205.621094 93.550781 202.242188 92.210938 C 199.605469 91.160156 196.914062 90.453125 194.144531 89.914062 C 193.972656 89.882812 193.835938 89.707031 193.679688 89.597656 C 192.539062 89.585938 191.394531 89.617188 190.257812 89.5625 C 188.25 89.453125 187.964844 88.949219 188.652344 86.863281 C 188.683594 85.578125 188.746094 84.296875 188.734375 83.011719 C 188.714844 81.707031 188.167969 80.964844 187.261719 80.867188 C 186.449219 80.769531 185.644531 81.496094 185.359375 82.691406 C 184.957031 84.375 184.75 86.09375 184.78125 87.832031 C 184.800781 88.6875 184.460938 89.175781 183.566406 89.191406 C 179.164062 89.253906 174.996094 90.410156 170.894531 91.902344 C 168.480469 93.363281 166.21875 95.035156 164.226562 97.023438 C 163.179688 98.066406 161.984375 98.179688 160.683594 98.042969 Z M 190.4375 98.464844 C 187.429688 98.445312 187.4375 98.433594 187.832031 95.5 C 187.859375 95.3125 187.847656 95.117188 187.859375 94.921875 C 187.992188 93.003906 188.273438 92.746094 190.207031 93.140625 C 191.226562 93.347656 192.199219 93.378906 193.238281 93.335938 C 194.484375 93.292969 195.648438 93.976562 196.835938 94.332031 C 198.660156 94.867188 200.519531 95.367188 202.253906 96.210938 C 203.347656 96.746094 204.4375 97.269531 205.515625 98.238281 C 203.53125 99.003906 201.707031 98.589844 199.871094 98.519531 C 196.730469 98.402344 193.585938 98.484375 190.4375 98.464844 Z M 169.535156 97.96875 C 169.566406 97.117188 170.019531 96.855469 170.460938 96.613281 C 174.105469 94.625 178.023438 93.542969 182.132812 93.085938 C 182.515625 93.039062 182.90625 93.066406 183.289062 93.070312 C 183.984375 93.085938 184.328125 93.445312 184.40625 94.136719 C 184.535156 95.445312 183.996094 96.660156 183.917969 97.941406 C 183.894531 98.433594 183.390625 98.488281 183.019531 98.4375 C 178.578125 97.886719 174.09375 98.359375 169.542969 97.96875 Z M 3.628906 257.5625 C 3.902344 254.933594 3.5 252.316406 3.660156 249.683594 C 3.964844 244.816406 3.585938 239.933594 3.914062 235.050781 C 4.078125 232.566406 3.863281 230.058594 3.882812 227.5625 C 3.90625 223.90625 4.027344 220.257812 4.03125 216.601562 C 4.03125 210.894531 4.210938 205.183594 4.171875 199.476562 C 4.144531 195.046875 4.234375 190.621094 4.203125 186.199219 C 4.171875 181.585938 4.246094 176.96875 4.324219 172.355469 C 4.449219 164.984375 4.386719 157.613281 4.550781 150.242188 C 4.664062 145.230469 4.792969 140.222656 4.730469 135.222656 C 4.664062 129.453125 4.964844 123.695312 4.890625 117.933594 C 4.820312 112.867188 5.152344 107.808594 4.84375 102.742188 C 4.597656 101.730469 4.757812 100.691406 4.707031 99.671875 C 4.65625 98.652344 5.191406 98.289062 6.132812 98.355469 C 6.714844 98.402344 7.316406 98.339844 7.859375 98.507812 C 8.992188 98.867188 10.144531 98.84375 11.300781 98.847656 C 14.835938 98.867188 18.378906 98.671875 21.894531 98.910156 C 28.640625 99.363281 35.398438 98.972656 42.136719 99.292969 C 49.066406 99.621094 56 99.351562 62.914062 99.703125 C 71.332031 100.136719 79.757812 99.785156 88.175781 100.082031 C 95.871094 100.34375 103.578125 100.207031 111.265625 100.484375 C 119.300781 100.773438 127.347656 100.453125 135.371094 100.867188 C 143.28125 101.269531 151.195312 100.867188 159.085938 101.269531 C 165.515625 101.597656 171.941406 101.390625 178.363281 101.621094 C 180.929688 101.71875 183.503906 101.554688 186.027344 101.71875 C 190.457031 102 194.894531 101.703125 199.308594 102.195312 C 201.789062 102.472656 204.324219 102.289062 206.828125 102.296875 C 212.367188 102.316406 217.910156 102.113281 223.425781 102.398438 C 231.398438 102.8125 239.363281 102.554688 247.332031 102.824219 C 248.753906 102.875 250.230469 102.542969 251.640625 103.046875 C 255.503906 103.0625 259.367188 102.976562 263.222656 103.121094 C 272.71875 103.480469 282.226562 103.246094 291.707031 103.597656 C 299.101562 103.875 306.503906 103.515625 313.878906 103.949219 C 320.117188 104.320312 326.34375 104.078125 332.574219 104.277344 C 334.484375 104.339844 335.214844 104.925781 334.933594 106.84375 C 334.484375 109.929688 334.832031 113.003906 334.699219 116.082031 C 334.636719 117.542969 334.664062 117.523438 333.132812 117.863281 C 327.320312 119.160156 321.4375 120.128906 315.609375 121.328125 C 312.421875 121.988281 309.179688 122.472656 306.035156 123.378906 C 305.109375 123.644531 304.128906 123.539062 303.203125 123.882812 C 302.585938 124.117188 302.101562 123.746094 301.855469 123.109375 C 301.578125 122.378906 301.421875 121.625 301.390625 120.851562 C 301.308594 118.824219 300.578125 116.898438 300.605469 114.847656 C 300.636719 112.320312 299.992188 111.621094 297.535156 110.996094 C 296.890625 110.835938 296.257812 110.859375 295.613281 110.859375 C 284.609375 110.839844 273.613281 110.820312 262.605469 110.808594 C 260.5625 110.808594 258.542969 110.808594 256.492188 110.550781 C 254.617188 110.3125 252.660156 110.3125 250.734375 110.714844 C 248.890625 111.097656 247.035156 110.476562 245.179688 110.464844 C 240.609375 110.425781 236.03125 110.625 231.472656 110.355469 C 223.570312 109.890625 215.648438 110.386719 207.761719 109.945312 C 202.425781 109.652344 197.101562 109.726562 191.773438 109.683594 C 189.964844 109.671875 188.1875 109.015625 186.410156 109.332031 C 183.417969 109.867188 180.410156 108.796875 177.433594 109.550781 C 173.953125 108.828125 170.375 109.734375 166.90625 108.847656 C 166.671875 108.78125 166.464844 108.613281 166.246094 108.492188 C 163.941406 108.34375 161.632812 108.5625 159.320312 108.261719 C 158.160156 108.109375 156.910156 108.488281 155.683594 108.46875 C 147.710938 108.363281 139.738281 108.089844 131.765625 108.015625 C 127.984375 107.976562 124.210938 108.273438 120.421875 108.109375 C 118.753906 108.035156 117.074219 107.828125 115.433594 107.859375 C 112.613281 107.914062 109.800781 107.675781 106.988281 107.726562 C 103.898438 107.78125 100.804688 107.859375 97.726562 107.675781 C 90.332031 107.234375 82.929688 107.613281 75.554688 107.242188 C 69.058594 106.914062 62.566406 107.179688 56.082031 106.894531 C 51.839844 106.707031 47.605469 106.617188 43.371094 106.570312 C 42.855469 106.570312 42.339844 106.570312 41.828125 106.554688 C 41.125 106.535156 40.773438 106.832031 40.726562 107.570312 C 40.632812 109.15625 40.46875 110.726562 40.363281 112.3125 C 40.117188 115.8125 39.21875 119.152344 37.601562 122.242188 C 34.632812 127.90625 30.082031 131.925781 24.179688 134.359375 C 21.726562 135.371094 19.191406 135.808594 16.503906 134.90625 C 14.257812 134.160156 13.15625 135.234375 13.558594 137.550781 C 13.761719 138.707031 13.660156 139.859375 13.667969 141.015625 C 13.683594 143.722656 13.609375 146.429688 13.699219 149.128906 C 13.746094 150.554688 13.371094 151.933594 13.375 153.34375 C 13.441406 161.882812 13.25 170.425781 13.339844 178.964844 C 13.351562 180.242188 13.375 181.390625 12.03125 182.304688 C 11.011719 182.996094 10.992188 184.4375 11.199219 185.683594 C 11.453125 187.207031 11.824219 188.710938 12.226562 190.183594 C 12.855469 192.453125 13.003906 194.730469 13 197.054688 C 12.972656 205.722656 12.96875 214.394531 12.957031 223.070312 C 12.957031 225.222656 12.957031 225.171875 15.070312 225.160156 C 16.058594 225.160156 16.90625 224.613281 17.902344 224.6875 C 19.171875 224.789062 19.324219 224.871094 19.5 226.101562 C 19.605469 226.863281 19.6875 227.632812 19.851562 228.378906 C 20.421875 231.085938 19.675781 233.714844 19.390625 236.363281 C 18.914062 240.8125 17.5625 245.023438 15.554688 249.003906 C 13.621094 252.835938 11.003906 256.132812 7.386719 258.53125 C 6.914062 258.847656 6.585938 259.382812 5.984375 259.488281 C 3.625 260.140625 3.386719 259.984375 3.636719 257.554688 Z M 338.828125 116.578125 C 338.34375 116.597656 338.140625 116.320312 338.140625 115.867188 C 338.140625 115.101562 338.140625 114.332031 338.140625 113.566406 C 338.15625 113.566406 338.171875 113.566406 338.1875 113.566406 C 338.1875 112.984375 338.167969 112.414062 338.1875 111.835938 C 338.234375 110.644531 338.589844 110.351562 339.691406 110.449219 C 340.230469 110.496094 340.515625 110.734375 340.546875 111.269531 C 340.644531 112.878906 340.15625 114.433594 340.054688 116.03125 C 340.011719 116.742188 339.304688 116.566406 338.820312 116.585938 Z M 212.109375 128.21875 C 211.339844 128.683594 211.074219 129.578125 211.527344 130.570312 C 211.785156 131.136719 212.226562 131.628906 212.585938 132.152344 C 214.066406 133.609375 214.9375 135.480469 215.925781 137.246094 C 216.417969 138.128906 217.097656 138.894531 217.457031 139.882812 C 217.734375 140.65625 217.476562 140.929688 216.820312 141.136719 C 215.5 141.550781 215.109375 141.292969 214.417969 140.140625 C 213.175781 138.070312 211.8125 136.070312 210.476562 134.050781 C 210.234375 133.679688 209.90625 133.359375 209.792969 132.90625 C 209.605469 132.863281 209.484375 132.742188 209.445312 132.546875 C 208.929688 132.101562 208.40625 131.667969 208.3125 130.929688 C 206.921875 129.441406 205.53125 127.941406 204.136719 126.449219 C 200.210938 122.28125 195.566406 119.046875 190.695312 116.105469 C 190.042969 115.710938 189.222656 115.660156 188.640625 115.121094 C 187.605469 114.980469 186.667969 114.570312 185.71875 114.164062 C 184.386719 113.589844 183.019531 113.097656 181.585938 112.621094 C 182.417969 112.144531 183.335938 112.160156 184.214844 112.085938 C 185.953125 111.933594 187.683594 112.207031 189.417969 112.238281 C 193.980469 112.3125 198.5625 112.167969 203.109375 112.4375 C 211.523438 112.941406 219.953125 112.597656 228.367188 113.019531 C 233.046875 113.25 237.746094 113.09375 242.433594 113.226562 C 248.851562 113.40625 255.269531 113.390625 261.683594 113.621094 C 265.714844 113.765625 269.761719 113.847656 273.800781 114.167969 C 278.085938 114.507812 282.40625 114.289062 286.71875 114.3125 C 289.550781 114.332031 292.375 114.390625 295.207031 114.363281 C 296.125 114.359375 296.417969 114.671875 296.464844 115.578125 C 296.546875 117.257812 297.175781 118.832031 297.664062 120.421875 C 298.003906 121.523438 298.257812 122.652344 298.546875 123.769531 C 298.785156 124.695312 298.390625 124.902344 297.652344 125.046875 C 294.953125 125.558594 292.265625 126.09375 289.566406 126.613281 C 284.164062 127.664062 278.757812 128.691406 273.359375 129.761719 C 267.261719 130.976562 261.183594 132.269531 255.050781 133.304688 C 251.828125 133.84375 248.671875 134.742188 245.453125 135.335938 C 239.144531 136.492188 232.878906 137.871094 226.589844 139.15625 C 225.152344 139.449219 223.703125 139.734375 222.261719 140.027344 C 221.613281 140.160156 221.210938 140.046875 220.941406 139.332031 C 220.066406 137.035156 218.671875 135.027344 217.324219 132.996094 C 216.976562 132.464844 216.769531 131.847656 216.492188 131.269531 C 215.59375 130.628906 215.039062 129.691406 214.386719 128.84375 C 213.648438 127.878906 212.917969 127.710938 212.089844 128.210938 Z M 170.101562 149.257812 C 170.101562 148.171875 170.101562 147.074219 170.101562 145.988281 C 170.101562 145.539062 170.101562 145.085938 170.101562 144.640625 C 170.078125 141.820312 170.480469 141.539062 173.304688 141.722656 C 176.929688 141.960938 180.441406 142.703125 183.953125 143.582031 C 185.789062 144.042969 187.332031 145.121094 189.105469 145.652344 C 189.355469 145.730469 189.609375 145.929688 189.5625 146.203125 C 189.507812 146.554688 189.179688 146.6875 188.847656 146.71875 C 187.960938 146.8125 187.078125 146.875 186.191406 147.082031 C 183.398438 147.730469 180.578125 148.285156 177.765625 148.855469 C 175.582031 149.296875 173.394531 149.710938 171.203125 150.144531 C 170.46875 150.292969 170.101562 150.015625 170.101562 149.257812 Z M 165.152344 151.359375 C 162.867188 151.605469 160.691406 152.40625 158.386719 152.632812 C 156.375 152.832031 154.398438 153.476562 152.402344 153.878906 C 151.105469 154.136719 149.796875 154.316406 148.40625 154.550781 C 148.375 153.199219 148.875 152.199219 149.546875 151.390625 C 152.0625 148.371094 154.855469 145.660156 158.6875 144.34375 C 160.558594 143.703125 162.453125 143.144531 164.34375 142.582031 C 164.765625 142.457031 165.238281 142.519531 165.6875 142.484375 C 166.480469 142.414062 166.742188 142.839844 166.625 143.539062 C 166.351562 145.113281 166.382812 146.667969 166.625 148.246094 C 166.707031 148.800781 166.625 149.402344 166.511719 149.964844 C 166.371094 150.699219 166.019531 151.265625 165.15625 151.355469 Z M 193.78125 144.667969 C 191.355469 142.113281 188.191406 140.933594 184.933594 139.929688 C 184.882812 139.910156 184.84375 139.839844 184.800781 139.796875 C 183.09375 139.996094 181.585938 139.089844 179.925781 138.921875 C 177.324219 138.65625 174.746094 138.203125 172.117188 138.25 C 171.46875 138.261719 170.6875 138.589844 170.171875 137.839844 C 170.148438 136.171875 170.101562 134.5 170.097656 132.832031 C 170.097656 132.042969 170.019531 131.277344 169.59375 130.609375 C 169.222656 130.042969 168.6875 129.691406 167.964844 129.804688 C 167.339844 129.898438 166.886719 130.25 166.691406 130.847656 C 166.453125 131.578125 166.269531 132.328125 166.289062 133.113281 C 166.316406 134.273438 166.308594 135.429688 166.300781 136.585938 C 166.289062 138.53125 166.300781 138.625 164.363281 138.929688 C 162.714844 139.1875 161.066406 139.558594 159.507812 140.023438 C 157.070312 140.746094 154.699219 141.808594 152.574219 143.28125 C 150.945312 144.414062 149.339844 145.558594 148.164062 147.226562 C 147.652344 147.945312 146.886719 148.480469 146.238281 149.09375 C 145.621094 151.121094 144.1875 152.789062 143.757812 154.902344 C 143.644531 155.457031 143.058594 155.539062 142.554688 155.695312 C 140.355469 156.394531 138.0625 156.664062 135.824219 157.15625 C 131.527344 158.085938 127.203125 158.886719 122.894531 159.761719 C 122.382812 159.859375 121.898438 159.9375 121.269531 159.785156 C 121.203125 158.867188 121.492188 158.035156 121.773438 157.21875 C 122.339844 155.550781 122.628906 153.789062 123.421875 152.199219 C 124.585938 148.875 126.160156 145.742188 127.796875 142.632812 C 130.148438 138.183594 133.003906 134.089844 136.414062 130.394531 C 138.636719 127.984375 140.941406 125.644531 143.613281 123.75 C 146.324219 121.828125 148.957031 119.707031 152.042969 118.433594 C 156.359375 116.660156 160.671875 114.796875 165.472656 114.601562 C 167.132812 114.535156 168.78125 114.308594 170.460938 114.308594 C 176.417969 114.328125 181.980469 115.875 187.316406 118.433594 C 191.683594 120.53125 195.617188 123.199219 199.214844 126.449219 C 201.902344 128.878906 204.332031 131.476562 206.4375 134.402344 C 207.164062 134.699219 207.371094 135.449219 207.773438 136.007812 C 208.894531 137.570312 209.710938 139.335938 210.96875 140.808594 C 211.203125 141.078125 211.410156 141.449219 211.257812 141.871094 C 207.652344 143.277344 203.769531 143.402344 200.078125 144.382812 C 198.660156 144.761719 197.203125 144.96875 195.753906 145.199219 C 195.042969 145.3125 194.34375 145.257812 193.792969 144.671875 Z M 21.882812 148.359375 C 21.171875 148.464844 20.777344 148.914062 20.585938 149.613281 C 20.273438 150.808594 20.390625 152.027344 20.378906 153.222656 C 20.324219 158.476562 20.164062 163.722656 20.246094 168.984375 C 20.296875 172.375 19.996094 175.765625 19.957031 179.164062 C 19.945312 180.109375 19.585938 180.40625 18.769531 180.503906 C 18.078125 180.59375 17.390625 180.78125 16.671875 180.636719 C 16.332031 179.945312 16.535156 179.226562 16.527344 178.535156 C 16.492188 174.433594 16.503906 170.320312 16.597656 166.222656 C 16.761719 158.890625 16.609375 151.570312 16.855469 144.238281 C 16.90625 142.757812 16.914062 141.28125 16.882812 139.800781 C 16.863281 139.066406 17.121094 138.726562 17.875 138.75 C 18.386719 138.769531 18.902344 138.703125 19.417969 138.714844 C 23.570312 138.828125 27.167969 137.246094 30.535156 135.03125 C 33.453125 133.113281 35.964844 130.742188 38.085938 127.96875 C 41.125 123.996094 42.808594 119.46875 43.539062 114.558594 C 43.710938 113.421875 43.78125 112.261719 43.9375 111.117188 C 44.125 109.707031 44.199219 109.640625 45.636719 109.65625 C 48.71875 109.703125 51.800781 109.785156 54.882812 109.847656 C 59.960938 109.941406 65.039062 110.027344 70.109375 110.125 C 75.183594 110.21875 80.253906 110.3125 85.320312 110.417969 C 91.546875 110.550781 97.78125 110.714844 104.011719 110.835938 C 111.273438 110.980469 118.539062 110.949219 125.792969 111.257812 C 133.050781 111.5625 140.304688 111.609375 147.550781 111.820312 C 150.300781 111.902344 153.050781 111.855469 155.808594 111.871094 C 155.988281 111.871094 156.171875 111.949219 156.480469 112.015625 C 155.984375 112.757812 155.222656 112.929688 154.554688 113.175781 C 149.816406 114.941406 145.652344 117.648438 141.707031 120.777344 C 137.605469 124.027344 133.988281 127.734375 130.773438 131.84375 C 125.328125 138.789062 121.492188 146.574219 118.765625 154.933594 C 118.308594 156.335938 117.980469 157.777344 117.566406 159.195312 C 117.261719 160.226562 116.773438 160.976562 115.527344 161.195312 C 111.746094 161.875 107.988281 162.679688 104.21875 163.441406 C 99.074219 164.484375 93.9375 165.617188 88.78125 166.570312 C 84.871094 167.292969 81.007812 168.199219 77.082031 168.847656 C 73.101562 169.5 69.171875 170.449219 65.214844 171.238281 C 59.054688 172.464844 52.871094 173.566406 46.742188 174.917969 C 42.804688 175.785156 38.832031 176.484375 34.902344 177.371094 C 31.484375 178.140625 28.003906 178.71875 24.5625 179.441406 C 23.820312 179.597656 23.601562 179.347656 23.550781 178.542969 C 23.480469 177.390625 23.367188 176.238281 23.449219 175.085938 C 23.808594 169.847656 23.757812 164.597656 23.734375 159.359375 C 23.71875 156.53125 24.015625 153.707031 23.816406 150.882812 C 23.777344 150.371094 23.816406 149.851562 23.574219 149.371094 C 23.222656 148.6875 22.714844 148.238281 21.890625 148.367188 Z M 16.527344 211.890625 C 17.378906 213.863281 17.449219 215.601562 17.894531 217.238281 C 18.144531 218.15625 18.171875 219.132812 18.386719 220.0625 C 18.59375 220.949219 18.203125 221.234375 17.410156 221.246094 C 16.753906 221.257812 16 221.320312 16.105469 220.34375 C 16.402344 217.691406 15.78125 214.996094 16.523438 211.882812 Z M 343.441406 145.589844 C 344.453125 150.335938 345.867188 155.023438 346.1875 159.90625 C 346.234375 160.554688 346.367188 161.175781 346.59375 161.78125 C 347.492188 164.203125 347.886719 166.75 348.472656 169.25 C 349.503906 173.671875 350.449219 178.113281 351.410156 182.554688 C 351.738281 184.058594 352.085938 185.5625 352.285156 187.085938 C 352.6875 190.136719 354.011719 193.011719 354.011719 196.140625 C 354.640625 197.6875 354.867188 199.335938 355.199219 200.949219 C 355.953125 204.648438 356.992188 208.285156 357.519531 212.035156 C 357.714844 213.425781 358.09375 214.796875 358.441406 216.148438 C 359.265625 219.375 359.761719 222.667969 360.515625 225.902344 C 361.300781 229.261719 361.996094 232.644531 362.699219 236.03125 C 363.546875 240.101562 364.355469 244.179688 365.214844 248.25 C 365.746094 250.753906 366.441406 253.222656 366.890625 255.738281 C 367.398438 258.636719 368.179688 261.484375 368.632812 264.382812 C 368.859375 265.84375 369.324219 267.234375 369.644531 268.65625 C 370.042969 270.460938 370.304688 272.304688 370.847656 274.085938 C 371.242188 275.367188 371.042969 275.511719 369.644531 275.816406 C 365.460938 276.734375 361.285156 277.714844 357.085938 278.597656 C 353.332031 279.382812 349.550781 280.039062 345.792969 280.8125 C 343.363281 281.316406 340.984375 282.089844 338.542969 282.453125 C 334.800781 283.011719 331.113281 283.871094 327.4375 284.710938 C 322.511719 285.84375 317.472656 286.4375 312.628906 287.921875 C 311.878906 288.148438 311.105469 288.117188 310.332031 288.105469 C 308.671875 288.859375 306.820312 288.808594 305.097656 289.316406 C 302.578125 290.066406 299.976562 290.445312 297.421875 290.984375 C 293.34375 291.839844 289.277344 292.777344 285.175781 293.488281 C 281.898438 294.0625 278.65625 294.828125 275.410156 295.566406 C 273.726562 295.945312 271.980469 296.074219 270.308594 296.496094 C 264.21875 298.019531 257.980469 298.851562 251.890625 300.386719 C 248.992188 301.117188 245.957031 301.359375 243.070312 302.121094 C 237.617188 303.5625 232.023438 304.285156 226.546875 305.609375 C 224.640625 306.066406 222.648438 306.394531 220.742188 306.820312 C 217.632812 307.515625 214.453125 307.890625 211.382812 308.847656 C 208.765625 309.667969 205.992188 309.960938 203.292969 310.515625 C 199.585938 311.269531 195.898438 312.113281 192.1875 312.8125 C 186.398438 313.894531 180.660156 315.234375 174.871094 316.34375 C 171.222656 317.039062 167.59375 317.878906 163.957031 318.65625 C 160.695312 319.363281 157.417969 319.972656 154.152344 320.65625 C 150.515625 321.425781 146.890625 322.269531 143.25 323.011719 C 137.667969 324.148438 132.042969 325.105469 126.492188 326.382812 C 121.75 327.480469 116.941406 328.253906 112.199219 329.355469 C 109.273438 330.03125 106.246094 330.304688 103.359375 331.117188 C 98.964844 332.347656 94.441406 332.910156 90.011719 333.972656 C 84.910156 335.199219 79.726562 336.109375 74.578125 337.144531 C 71.125 337.835938 67.664062 338.507812 64.226562 339.238281 C 59.855469 340.164062 55.457031 341.007812 51.117188 342.101562 C 50.542969 342.1875 49.976562 342.285156 49.40625 342.371094 C 47.429688 342.660156 47.203125 342.597656 47.078125 340.699219 C 46.898438 338.050781 45.84375 335.609375 45.460938 333.003906 C 44.742188 328.121094 43.402344 323.351562 42.550781 318.480469 C 41.828125 314.328125 40.714844 310.246094 39.816406 306.125 C 39.449219 304.429688 39.238281 302.707031 38.882812 301.015625 C 37.941406 296.441406 36.957031 291.878906 35.988281 287.3125 C 34.808594 281.730469 33.59375 276.160156 32.449219 270.574219 C 31.523438 266.0625 30.535156 261.558594 29.648438 257.039062 C 28.960938 253.542969 28.105469 250.074219 27.507812 246.550781 C 26.796875 242.378906 25.722656 238.277344 24.867188 234.132812 C 24.023438 230.046875 23.386719 225.914062 22.410156 221.863281 C 21.292969 217.199219 20.375 212.5 19.441406 207.804688 C 18.511719 203.097656 17.328125 198.445312 16.59375 193.691406 C 16.21875 191.296875 15.359375 188.992188 14.9375 186.589844 C 14.628906 184.839844 14.628906 184.753906 16.328125 184.4375 C 21.304688 183.523438 26.28125 182.644531 31.226562 181.523438 C 33.648438 180.976562 36.167969 180.667969 38.589844 180.132812 C 42.710938 179.222656 46.855469 178.402344 50.988281 177.605469 C 55.011719 176.832031 58.988281 175.824219 63.046875 175.257812 C 63.667969 174.792969 64.386719 174.898438 65.082031 174.929688 C 65.164062 174.835938 65.261719 174.816406 65.367188 174.875 C 65.875 174.554688 66.429688 174.464844 67.015625 174.566406 C 67.097656 174.476562 67.199219 174.453125 67.3125 174.496094 C 68.066406 173.734375 69.125 174.132812 70.011719 173.804688 C 70.519531 173.617188 71.125 173.617188 71.644531 173.371094 C 71.746094 173.292969 71.847656 173.148438 71.953125 173.148438 C 74.136719 173.125 76.1875 172.167969 78.378906 172.207031 C 79.875 172.230469 81.222656 171.527344 82.683594 171.273438 C 87.785156 170.394531 92.894531 169.488281 97.929688 168.28125 C 101.226562 167.488281 104.585938 166.984375 107.886719 166.277344 C 112.324219 165.339844 116.777344 164.386719 121.265625 163.675781 C 123.09375 163.382812 124.882812 162.875 126.699219 162.503906 C 128.644531 162.105469 130.609375 161.78125 132.550781 161.378906 C 135.558594 160.761719 138.554688 160.074219 141.574219 159.484375 C 145.664062 158.691406 149.773438 158 153.863281 157.195312 C 157.890625 156.394531 161.890625 155.46875 165.917969 154.664062 C 168.554688 154.136719 171.246094 153.859375 173.851562 153.199219 C 176.960938 152.410156 180.1875 152.242188 183.246094 151.222656 C 184.335938 150.855469 185.46875 150.574219 186.644531 150.617188 C 187.890625 150.664062 189.023438 150.101562 190.210938 149.851562 C 193.15625 149.222656 196.089844 148.53125 199.097656 148.214844 C 200.800781 148.03125 202.46875 147.480469 204.15625 147.101562 C 208.28125 146.175781 212.453125 145.476562 216.613281 144.722656 C 220.777344 143.96875 224.894531 142.960938 229.039062 142.113281 C 231.738281 141.558594 234.457031 141.125 237.15625 140.558594 C 239.472656 140.074219 241.804688 139.726562 244.109375 139.171875 C 247.40625 138.375 250.773438 137.871094 254.085938 137.140625 C 258.285156 136.222656 262.53125 135.617188 266.714844 134.613281 C 269.886719 133.851562 273.128906 133.351562 276.34375 132.804688 C 278.429688 132.445312 280.457031 131.847656 282.546875 131.472656 C 288.667969 130.371094 294.757812 129.113281 300.863281 127.90625 C 303.0625 127.46875 305.261719 127 307.460938 126.550781 C 311.984375 125.632812 316.496094 124.652344 321.046875 123.878906 C 324.757812 123.242188 328.421875 122.316406 332.109375 121.535156 C 333.738281 121.191406 335.375 120.902344 337.007812 120.585938 C 337.675781 120.453125 338.121094 120.648438 338.292969 121.375 C 338.394531 121.808594 338.707031 122.203125 338.75 122.636719 C 339.179688 126.929688 340.433594 131.054688 341.292969 135.257812 C 342.003906 138.703125 342.714844 142.15625 343.453125 145.597656 Z M 30.054688 32.328125 C 30.378906 32.375 30.6875 32.441406 31.007812 32.507812 C 32.804688 32.542969 34.535156 33.066406 36.3125 33.285156 C 39.105469 33.625 41.917969 33.871094 44.703125 34.28125 C 46.988281 34.613281 49.277344 34.851562 51.570312 35.136719 C 54.550781 35.507812 57.539062 35.882812 60.523438 36.261719 C 65.410156 36.886719 70.292969 37.609375 75.203125 38.097656 C 78.839844 38.464844 82.425781 39.175781 86.074219 39.425781 C 88.488281 39.589844 90.875 40.1875 93.289062 40.414062 C 95.585938 40.636719 97.863281 41.058594 100.15625 41.226562 C 103.617188 41.476562 107 42.226562 110.449219 42.527344 C 113.449219 42.792969 116.433594 43.203125 119.414062 43.648438 C 123.019531 44.191406 126.652344 44.554688 130.269531 44.984375 C 133.0625 45.308594 135.847656 45.769531 138.65625 46.015625 C 141.910156 46.296875 145.128906 46.839844 148.371094 47.234375 C 151.296875 47.59375 154.226562 47.890625 157.148438 48.253906 C 159.179688 48.507812 161.199219 48.859375 163.230469 49.121094 C 166.15625 49.5 169.089844 49.839844 172.015625 50.191406 C 174.5 50.488281 176.984375 50.769531 179.464844 51.078125 C 183.339844 51.5625 187.191406 52.179688 191.085938 52.546875 C 193.179688 52.746094 195.238281 53.332031 197.367188 53.394531 C 200.636719 53.496094 203.808594 54.363281 207.09375 54.515625 C 210.089844 54.652344 213.046875 55.378906 216.035156 55.753906 C 219.210938 56.152344 222.40625 56.421875 225.589844 56.78125 C 227.757812 57.027344 229.894531 57.441406 232.058594 57.722656 C 235.808594 58.214844 239.566406 58.644531 243.316406 59.09375 C 246.8125 59.515625 250.28125 60.183594 253.792969 60.449219 C 256.226562 60.632812 258.597656 61.148438 261.015625 61.398438 C 264.066406 61.71875 267.125 62.003906 270.167969 62.429688 C 274.667969 63.066406 279.179688 63.621094 283.691406 64.167969 C 287.113281 64.589844 290.5625 64.898438 293.964844 65.496094 C 295.785156 65.816406 297.652344 65.910156 299.496094 66.179688 C 302.222656 66.582031 304.96875 66.820312 307.695312 67.1875 C 309.46875 67.425781 311.273438 67.46875 313.019531 67.9375 C 314.175781 67.878906 315.308594 68.035156 316.460938 68.21875 C 319.679688 68.722656 322.941406 69.023438 326.167969 69.488281 C 329.78125 70.011719 333.402344 70.492188 337.015625 70.855469 C 340.960938 71.257812 344.835938 72.234375 348.839844 72.253906 C 350.738281 72.265625 352.636719 72.738281 354.53125 73.011719 C 355.210938 73.109375 355.546875 73.523438 355.53125 74.203125 C 355.527344 74.78125 355.550781 75.367188 355.46875 75.933594 C 354.996094 79.230469 354.734375 82.546875 354.324219 85.847656 C 353.992188 88.578125 353.796875 91.324219 353.355469 94.046875 C 352.882812 96.949219 352.734375 99.898438 352.417969 102.824219 C 352.089844 105.8125 351.65625 108.796875 351.417969 111.789062 C 351.214844 114.289062 350.84375 116.753906 350.503906 119.226562 C 350.050781 122.511719 350.003906 125.859375 349.195312 129.148438 C 348.214844 129.214844 347.421875 128.886719 346.785156 128.199219 C 345.566406 126.890625 344.207031 125.714844 343.390625 124.058594 C 342.972656 123.21875 342.847656 122.457031 342.953125 121.5 C 343.402344 117.367188 344.175781 113.261719 344.296875 109.089844 C 344.351562 107.027344 344.339844 107.019531 342.1875 106.976562 C 341.414062 106.964844 340.644531 107.003906 339.871094 106.976562 C 338.601562 106.933594 338.28125 106.664062 338.160156 105.417969 C 338.089844 104.648438 338.167969 103.875 338.148438 103.101562 C 338.105469 101.296875 337.632812 100.804688 335.84375 100.816406 C 333.996094 100.832031 332.132812 100.785156 330.308594 100.886719 C 328.207031 100.992188 326.816406 100.144531 325.773438 98.597656 C 323.542969 95.292969 321.550781 91.859375 320.894531 87.835938 C 320.746094 86.894531 320.699219 85.910156 320.757812 84.957031 C 320.882812 82.785156 320.429688 80.640625 320.675781 78.449219 C 320.832031 77.027344 319.449219 75.9375 317.515625 75.6875 C 315.234375 75.390625 312.9375 75.171875 310.644531 74.902344 C 308.417969 74.636719 306.179688 74.453125 303.984375 74.050781 C 302.699219 73.8125 301.433594 73.8125 300.15625 73.75 C 299.535156 73.71875 298.855469 73.902344 298.332031 73.367188 C 293.867188 72.925781 289.390625 72.640625 284.941406 71.960938 C 282.226562 71.546875 279.464844 71.414062 276.738281 71 C 273.761719 70.554688 270.78125 70.175781 267.792969 69.8125 C 265.125 69.484375 262.46875 69.011719 259.792969 68.792969 C 257.234375 68.578125 254.71875 68.082031 252.167969 67.808594 C 249.238281 67.496094 246.3125 67.148438 243.386719 66.777344 C 239.894531 66.335938 236.414062 65.765625 232.910156 65.417969 C 229.40625 65.074219 225.960938 64.292969 222.4375 64.054688 C 220.148438 63.894531 217.878906 63.4375 215.582031 63.199219 C 212.011719 62.828125 208.464844 62.292969 204.902344 61.828125 C 201.472656 61.378906 198.046875 60.957031 194.621094 60.453125 C 193.730469 60.324219 192.835938 60.234375 191.9375 60.222656 C 191.085938 60.210938 190.257812 60.128906 189.476562 59.824219 C 187.347656 59.007812 185.109375 58.882812 182.875 58.648438 C 178.164062 58.152344 173.457031 57.546875 168.75 56.980469 C 164.9375 56.523438 161.125 56.0625 157.3125 55.578125 C 155.65625 55.371094 154.015625 55.085938 152.367188 54.859375 C 148.554688 54.332031 144.695312 54.3125 140.882812 53.734375 C 136.203125 53.019531 131.46875 52.613281 126.769531 52.011719 C 122.707031 51.488281 118.648438 50.871094 114.582031 50.324219 C 111.027344 49.839844 107.453125 49.507812 103.898438 49.058594 C 100.46875 48.625 97.046875 48.121094 93.617188 47.683594 C 90.886719 47.328125 88.144531 47.035156 85.40625 46.699219 C 82.222656 46.308594 79.046875 45.914062 75.867188 45.503906 C 73.144531 45.152344 70.417969 44.789062 67.6875 44.421875 C 66.738281 44.296875 65.789062 44.109375 64.839844 44.039062 C 63.289062 43.925781 63.101562 44.007812 62.875 45.453125 C 62.648438 46.914062 62.304688 48.34375 62.050781 49.789062 C 61.300781 54.117188 59.535156 57.976562 56.746094 61.328125 C 53.777344 64.898438 50.050781 67.488281 45.6875 69.09375 C 42.371094 70.308594 39.042969 70.957031 35.617188 69.308594 C 34.292969 68.664062 33.203125 69.308594 32.820312 70.730469 C 32.707031 71.15625 32.71875 71.617188 32.6875 72.0625 C 32.347656 76.789062 31.90625 81.507812 31.15625 86.195312 C 30.949219 87.511719 31.246094 88.90625 30.460938 90.265625 C 28.40625 89.855469 26.980469 88.308594 25.261719 87.289062 C 24.871094 86.863281 24.550781 86.332031 24.085938 86.03125 C 22.542969 85.039062 22.410156 83.589844 22.605469 81.984375 C 22.953125 79.121094 23.171875 76.234375 23.652344 73.390625 C 24.238281 69.910156 24.355469 66.382812 24.867188 62.894531 C 25.40625 59.226562 25.871094 55.539062 26.199219 51.847656 C 26.632812 47.003906 27.503906 42.203125 27.753906 37.332031 C 27.816406 36.125 28.074219 34.921875 28.226562 33.714844 C 28.414062 32.183594 28.496094 32.109375 30.039062 32.324219 Z M 30.054688 32.328125 " fill-opacity="1" fill-rule="nonzero"/></g><path fill="#10a6a5" d="M 323.269531 278.550781 C 326.839844 277.824219 330.414062 277.082031 333.984375 276.300781 C 335.941406 275.871094 336.101562 275.582031 335.777344 273.589844 C 335.746094 273.398438 335.6875 273.210938 335.632812 273.027344 C 334.84375 270.339844 334.9375 267.558594 335.214844 264.859375 C 335.492188 262.15625 336.152344 259.46875 337.386719 256.957031 C 339.53125 252.597656 342.457031 248.929688 346.558594 246.304688 C 348.050781 245.355469 349.617188 244.519531 351.519531 244.324219 C 352.828125 244.1875 354.179688 244.117188 355.488281 243.707031 C 356.457031 243.40625 356.679688 243.046875 356.484375 242.070312 C 355.644531 237.804688 354.726562 233.546875 353.785156 229.304688 C 352.601562 223.996094 351.78125 218.601562 350.234375 213.375 C 350.066406 212.8125 350.039062 212.234375 350.082031 211.65625 L 350.089844 211.65625 C 349.511719 211.089844 349.71875 210.378906 349.707031 209.707031 C 349.308594 208.019531 348.875 206.339844 348.515625 204.648438 C 347.402344 199.382812 346.371094 194.09375 345.214844 188.84375 C 344.082031 183.707031 342.972656 178.566406 341.886719 173.425781 C 340.757812 168.097656 339.425781 162.820312 338.488281 157.453125 C 338.332031 156.5625 337.851562 156.273438 336.976562 156.476562 C 335.914062 156.722656 334.953125 157.257812 333.914062 157.519531 C 331.140625 158.230469 328.382812 158.242188 325.570312 157.386719 C 322.789062 156.539062 320.050781 155.609375 317.699219 153.914062 C 315.152344 152.085938 312.753906 150.066406 310.984375 147.359375 C 310.175781 146.113281 309.53125 144.816406 308.945312 143.488281 C 308.148438 141.683594 307.398438 139.832031 306.871094 137.933594 C 306.070312 135.070312 305.164062 134.273438 302.398438 134.90625 C 296.664062 136.230469 290.851562 137.109375 285.125 138.480469 C 282.082031 139.210938 279.003906 139.828125 275.941406 140.519531 C 270.007812 141.855469 264.003906 142.910156 258.039062 144.09375 C 255.585938 144.578125 253.136719 145.09375 250.683594 145.578125 C 245.460938 146.605469 240.238281 147.605469 235.015625 148.628906 C 230.367188 149.546875 225.730469 150.542969 221.066406 151.410156 C 217.417969 152.089844 213.800781 152.945312 210.121094 153.5 C 206.582031 154.027344 203.109375 154.980469 199.59375 155.683594 C 194.007812 156.804688 188.425781 157.96875 182.8125 158.917969 C 179.734375 159.441406 176.742188 160.617188 173.53125 160.300781 C 173.167969 160.265625 172.769531 160.410156 172.398438 160.503906 C 170.050781 161.132812 167.65625 161.527344 165.289062 162.074219 C 160.238281 163.246094 155.117188 164.128906 150.042969 165.222656 C 145.097656 166.292969 140.070312 166.890625 135.171875 168.273438 C 130.867188 169.488281 126.410156 170.171875 122.011719 171.042969 C 116.105469 172.207031 110.191406 173.320312 104.277344 174.453125 C 101.695312 174.941406 99.140625 175.570312 96.5625 176.011719 C 93.152344 176.589844 89.785156 177.390625 86.371094 177.945312 C 83.671875 178.378906 80.964844 178.996094 78.277344 179.574219 C 75.207031 180.234375 72.082031 180.648438 69.023438 181.34375 C 66.148438 181.988281 63.273438 182.605469 60.371094 183.121094 C 57.847656 183.570312 55.351562 184.140625 52.828125 184.570312 C 51.769531 184.746094 51.457031 185.25 51.472656 186.261719 C 51.492188 187.683594 51.828125 189.070312 52.046875 190.445312 C 52.65625 194.335938 52.304688 198.136719 51.210938 201.855469 C 49.800781 206.648438 47.027344 210.617188 43.261719 213.882812 C 40.320312 216.4375 37.117188 218.277344 32.976562 217.839844 C 31.265625 217.660156 30.660156 218.628906 31.089844 220.492188 C 32.238281 225.550781 33.402344 230.609375 34.390625 235.703125 C 35.222656 239.984375 36.132812 244.242188 37.007812 248.515625 C 37.550781 251.152344 38.066406 253.789062 38.640625 256.417969 C 39.683594 261.238281 40.921875 266.019531 41.773438 270.871094 C 42.546875 275.292969 43.476562 279.679688 44.421875 284.050781 C 45.886719 290.816406 47.195312 297.617188 48.757812 304.363281 C 49.46875 307.417969 49.179688 306.722656 52.058594 306.144531 C 52.179688 306.117188 52.28125 306.015625 52.394531 305.953125 C 53.992188 305.042969 55.707031 304.683594 57.550781 304.714844 C 61.597656 304.785156 65.242188 306.238281 68.644531 308.1875 C 72.113281 310.175781 75.074219 312.84375 77.113281 316.367188 C 78.386719 318.570312 79.675781 320.757812 80.261719 323.300781 C 80.5 324.34375 80.863281 325.382812 81.132812 326.433594 C 81.519531 327.90625 81.839844 328.125 83.332031 327.824219 C 84.652344 327.558594 85.921875 326.992188 87.25 326.835938 C 91.898438 326.28125 96.417969 325.023438 101.023438 324.230469 C 105.558594 323.453125 110.035156 322.28125 114.5625 321.425781 C 118.019531 320.769531 121.445312 319.980469 124.894531 319.28125 C 127.089844 318.832031 129.355469 318.582031 131.484375 317.945312 C 133.765625 317.265625 136.109375 316.914062 138.402344 316.4375 C 142.984375 315.484375 147.582031 314.613281 152.15625 313.648438 C 157.683594 312.484375 163.183594 311.226562 168.730469 310.214844 C 173.140625 309.40625 177.519531 308.425781 181.933594 307.601562 C 186.902344 306.671875 191.828125 305.5 196.8125 304.582031 C 203.171875 303.410156 209.476562 301.972656 215.808594 300.632812 C 218.191406 300.128906 220.550781 299.441406 222.957031 299.089844 C 227.339844 298.449219 231.632812 297.371094 235.984375 296.585938 C 240.214844 295.824219 244.378906 294.671875 248.621094 294.03125 C 253.394531 293.308594 257.996094 291.898438 262.707031 290.941406 C 267.097656 290.046875 271.535156 289.382812 275.894531 288.253906 C 277.78125 287.765625 279.835938 287.59375 281.734375 287.148438 C 285.730469 286.203125 289.789062 285.605469 293.769531 284.625 C 297.320312 283.75 300.925781 283.101562 304.511719 282.398438 C 307.34375 281.84375 310.125 281.050781 313.003906 280.753906 C 313.441406 280.308594 314.042969 280.207031 314.585938 280.113281 C 317.480469 279.609375 320.378906 279.144531 323.261719 278.550781 Z M 189.027344 300.65625 C 190.707031 301.046875 192.457031 301.121094 194.457031 301.890625 C 189.589844 302.902344 185.082031 303.851562 180.566406 304.777344 C 171.066406 306.722656 161.566406 308.660156 152.0625 310.597656 C 145.269531 311.988281 138.480469 313.398438 131.679688 314.773438 C 124.070312 316.316406 116.445312 317.757812 108.863281 319.394531 C 101.144531 321.0625 93.398438 322.597656 85.660156 324.167969 C 84.28125 324.453125 84.199219 324.40625 83.777344 322.980469 C 82.335938 318.105469 80.039062 313.722656 76.558594 309.96875 C 74.785156 308.050781 72.664062 306.628906 70.496094 305.261719 C 67.707031 303.511719 64.71875 302.230469 61.460938 301.644531 C 58.652344 301.140625 55.867188 301.121094 53.078125 301.839844 C 51.480469 302.246094 51.539062 302.183594 51.199219 300.503906 C 50.429688 296.671875 49.582031 292.855469 48.789062 289.023438 C 48.132812 285.882812 47.53125 282.730469 46.882812 279.589844 C 46.089844 275.757812 45.265625 271.925781 44.464844 268.09375 C 43.230469 262.199219 42.003906 256.296875 40.765625 250.394531 C 39.695312 245.3125 38.601562 240.234375 37.542969 235.152344 C 36.65625 230.878906 35.820312 226.59375 34.925781 222.320312 C 34.78125 221.621094 35.039062 221.394531 35.65625 221.28125 C 36.222656 221.183594 36.769531 220.988281 37.335938 220.875 C 41.207031 220.125 44.238281 217.9375 46.964844 215.25 C 49.636719 212.613281 51.738281 209.566406 53.292969 206.144531 C 55.324219 201.660156 56.011719 196.941406 55.652344 192.050781 C 55.5625 190.835938 55.449219 189.617188 55.304688 188.40625 C 55.199219 187.546875 55.515625 187.105469 56.386719 186.949219 C 59.734375 186.335938 63.070312 185.695312 66.410156 185.042969 C 70.191406 184.300781 73.96875 183.523438 77.75 182.78125 C 81.335938 182.078125 84.933594 181.457031 88.507812 180.6875 C 91.144531 180.121094 93.78125 179.613281 96.429688 179.113281 C 99.707031 178.503906 102.988281 177.863281 106.246094 177.164062 C 112.644531 175.792969 119.085938 174.621094 125.5 173.320312 C 129.511719 172.5 133.539062 171.675781 137.609375 171.078125 C 142.109375 170.417969 146.558594 169.386719 151.03125 168.511719 C 154.242188 167.882812 157.460938 167.304688 160.644531 166.574219 C 162.519531 166.148438 164.394531 165.730469 166.558594 165.324219 C 164.554688 166.714844 162.691406 167.859375 160.984375 169.203125 C 158.828125 170.917969 156.808594 172.816406 154.984375 174.894531 C 150.25 180.277344 146.445312 186.222656 143.550781 192.820312 C 140.347656 200.128906 138.566406 207.753906 137.730469 215.632812 C 137.039062 222.175781 137.238281 228.738281 138.09375 235.238281 C 138.523438 238.515625 139.082031 241.808594 139.984375 245.027344 C 141.121094 249.101562 142.183594 253.183594 143.753906 257.128906 C 145.292969 261.003906 147.132812 264.722656 149.199219 268.347656 C 150.925781 271.355469 152.757812 274.285156 154.871094 277.023438 C 159.207031 282.636719 164.144531 287.675781 169.921875 291.820312 C 175.714844 295.980469 182.050781 299.03125 189.035156 300.644531 Z M 204.367188 298.203125 C 202.058594 298.453125 199.761719 298.617188 197.453125 298.542969 C 192.917969 298.382812 188.570312 297.257812 184.324219 295.742188 C 178.78125 293.765625 173.828125 290.757812 169.273438 287.027344 C 165.875 284.246094 162.816406 281.144531 159.933594 277.847656 C 157.058594 274.558594 154.71875 270.90625 152.496094 267.15625 C 150.039062 263.003906 147.980469 258.65625 146.289062 254.164062 C 145.179688 251.238281 144.3125 248.21875 143.570312 245.15625 C 142.878906 242.285156 142.292969 239.417969 141.863281 236.503906 C 141.285156 232.566406 140.746094 228.625 140.792969 225.257812 C 140.6875 221.347656 141.121094 218.097656 141.410156 214.839844 C 141.601562 212.726562 141.84375 210.648438 142.285156 208.566406 C 143.375 203.40625 144.769531 198.367188 146.910156 193.523438 C 148.683594 189.503906 150.898438 185.804688 153.535156 182.28125 C 156.066406 178.902344 159.023438 175.976562 162.148438 173.226562 C 163.867188 171.714844 165.898438 170.519531 167.902344 169.375 C 174.09375 165.832031 180.800781 164.007812 187.929688 164.207031 C 194 164.378906 199.851562 165.757812 205.449219 168.222656 C 209.78125 170.128906 213.738281 172.621094 217.425781 175.507812 C 220.457031 177.882812 223.175781 180.613281 225.761719 183.492188 C 228.472656 186.519531 230.777344 189.835938 233.066406 193.15625 C 234.335938 195 235.332031 197.039062 236.351562 199.042969 C 238.132812 202.519531 239.765625 206.070312 241.050781 209.773438 C 242.925781 215.171875 244.304688 220.679688 245.128906 226.347656 C 245.738281 230.546875 246.304688 234.734375 246.152344 238.984375 C 245.902344 246.304688 245.375 253.59375 243.164062 260.644531 C 240.925781 267.804688 237.988281 274.625 233.3125 280.566406 C 231.605469 282.730469 229.648438 284.667969 227.625 286.554688 C 224.878906 289.105469 222 291.414062 218.828125 293.394531 C 214.390625 296.175781 209.546875 297.636719 204.363281 298.203125 Z M 294.871094 281.339844 C 289.140625 282.414062 283.464844 283.804688 277.703125 284.742188 C 275.554688 285.097656 273.449219 285.726562 271.316406 286.179688 C 269.496094 286.570312 267.660156 286.871094 265.835938 287.234375 C 262.6875 287.859375 259.5625 288.621094 256.390625 289.089844 C 254.105469 289.429688 251.867188 289.984375 249.578125 290.28125 C 248.066406 290.476562 246.601562 290.953125 245.097656 291.210938 C 237.898438 292.457031 230.75 293.972656 223.585938 295.410156 C 223.269531 295.472656 222.960938 295.570312 222.558594 295.3125 C 223.074219 294.375 224.113281 294.03125 224.878906 293.503906 C 227.328125 291.816406 229.339844 289.671875 231.519531 287.695312 C 234.042969 285.40625 236.136719 282.707031 238.230469 280.03125 C 239.308594 278.660156 239.992188 277.03125 240.773438 275.507812 C 242.691406 271.761719 244.550781 267.980469 245.714844 263.890625 C 246.519531 261.054688 247.542969 258.285156 247.984375 255.347656 C 248.488281 251.988281 249.222656 248.664062 249.300781 245.242188 C 249.351562 242.863281 249.664062 240.484375 249.621094 238.113281 C 249.5625 235.039062 249.386719 231.949219 249.035156 228.890625 C 248.285156 222.300781 246.75 215.867188 244.65625 209.585938 C 243.417969 205.875 241.824219 202.300781 240.105469 198.769531 C 237.988281 194.421875 235.464844 190.328125 232.605469 186.445312 C 230.328125 183.347656 227.773438 180.480469 225.042969 177.75 C 221.753906 174.457031 218.121094 171.628906 214.222656 169.128906 C 210.648438 166.84375 206.828125 165.089844 202.863281 163.535156 C 199.277344 162.132812 195.523438 161.8125 191.835938 161.023438 C 191.34375 160.917969 190.816406 161.011719 189.917969 161.011719 C 191.777344 160.085938 193.433594 159.753906 195.074219 159.488281 C 200.40625 158.621094 205.660156 157.40625 210.957031 156.394531 C 214.988281 155.625 219.035156 154.898438 223.070312 154.089844 C 228.296875 153.046875 233.527344 151.988281 238.753906 150.953125 C 242.90625 150.128906 247.066406 149.339844 251.210938 148.523438 C 255.175781 147.738281 259.128906 146.917969 263.089844 146.132812 C 266.113281 145.535156 269.132812 144.910156 272.15625 144.375 C 280.367188 142.921875 288.582031 141.457031 296.714844 139.589844 C 298.402344 139.199219 300.121094 138.953125 301.804688 138.558594 C 302.421875 138.410156 302.675781 138.460938 302.945312 139.097656 C 305.039062 144.003906 307.386719 148.761719 311.023438 152.78125 C 312.824219 154.769531 314.992188 156.238281 317.222656 157.628906 C 319.902344 159.296875 322.777344 160.523438 325.902344 161.121094 C 328.847656 161.679688 331.773438 161.671875 334.664062 160.847656 C 335.472656 160.617188 335.875 160.824219 336.039062 161.628906 C 336.265625 162.761719 336.480469 163.902344 336.765625 165.019531 C 337.851562 169.382812 338.683594 173.796875 339.601562 178.191406 C 340.628906 183.085938 341.792969 187.953125 342.703125 192.882812 C 343.332031 196.285156 344.074219 199.675781 344.753906 203.074219 C 345.429688 204.148438 345.460938 205.371094 345.515625 206.578125 C 345.914062 206.894531 345.945312 207.308594 345.855469 207.753906 L 345.855469 207.78125 C 346.359375 209.140625 346.679688 210.53125 346.679688 211.984375 C 346.679688 211.984375 346.679688 211.996094 346.679688 211.996094 C 347.171875 214.105469 347.691406 216.207031 348.152344 218.320312 C 348.761719 221.136719 349.335938 223.964844 349.921875 226.789062 C 350.789062 230.992188 351.625 235.207031 352.539062 239.398438 C 352.738281 240.324219 352.542969 240.65625 351.605469 240.789062 C 347.804688 241.316406 344.578125 243.117188 341.683594 245.519531 C 340.003906 246.910156 338.65625 248.632812 337.355469 250.390625 C 333.984375 254.953125 332.070312 260.011719 331.832031 265.710938 C 331.742188 267.898438 331.785156 270.070312 332.058594 272.230469 C 332.171875 273.152344 332.011719 273.625 331.007812 273.878906 C 329.949219 274.136719 328.894531 274.382812 327.824219 274.59375 C 323.800781 275.394531 319.78125 276.1875 315.753906 276.980469 C 314.640625 277.566406 313.382812 277.46875 312.199219 277.726562 C 306.4375 278.992188 300.667969 280.25 294.867188 281.339844 Z M 294.871094 281.339844 " fill-opacity="1" fill-rule="nonzero"/><path fill="#10a6a5" d="M 142.347656 306.683594 C 138.367188 307.519531 134.363281 308.261719 130.375 309.082031 C 124.304688 310.328125 118.261719 311.753906 112.160156 312.835938 C 104.992188 314.109375 97.902344 315.769531 90.753906 317.101562 C 89.734375 317.292969 89.230469 318.023438 89.339844 319.046875 C 89.441406 320.054688 90.089844 320.625 91.164062 320.5625 C 91.867188 320.527344 92.585938 320.464844 93.253906 320.269531 C 97.386719 319.058594 101.660156 318.511719 105.855469 317.59375 C 110.664062 316.542969 115.515625 315.707031 120.339844 314.730469 C 124.921875 313.804688 129.480469 312.804688 134.054688 311.875 C 137.757812 311.121094 141.460938 310.421875 145.160156 309.699219 C 148.929688 308.960938 152.691406 308.207031 156.460938 307.484375 C 157.621094 307.261719 158.261719 306.609375 158.210938 305.582031 C 158.160156 304.496094 157.511719 303.960938 156.027344 303.964844 C 155.183594 304.109375 154.097656 304.21875 153.046875 304.488281 C 149.515625 305.40625 145.910156 305.933594 142.347656 306.683594 Z M 142.347656 306.683594 " fill-opacity="1" fill-rule="nonzero"/><path fill="#10a6a5" d="M 204.507812 280.753906 C 204.53125 280.238281 204.457031 279.742188 204.335938 279.230469 C 203.878906 277.300781 203.476562 275.351562 203.007812 273.417969 C 202.820312 272.621094 202.941406 271.964844 203.769531 271.707031 C 204.765625 271.398438 205.59375 270.777344 206.539062 270.386719 C 209.597656 269.113281 212.125 267.007812 214.566406 264.90625 C 216.574219 263.179688 218.269531 261.011719 219.46875 258.582031 C 219.816406 257.882812 220.4375 257.40625 220.714844 256.65625 C 221.867188 253.492188 222.609375 250.265625 222.230469 246.871094 C 221.878906 243.726562 220.726562 240.78125 218.625 238.503906 C 216.066406 235.71875 212.886719 233.660156 209.199219 232.46875 C 204.640625 230.996094 199.921875 230.558594 195.183594 230.179688 C 193.535156 230.046875 193.519531 230.085938 193.167969 228.488281 C 192.503906 225.484375 191.847656 222.484375 191.179688 219.484375 C 190.320312 215.613281 189.4375 211.746094 188.59375 207.867188 C 188.136719 205.75 187.914062 203.550781 187.25 201.5 C 186.375 198.796875 186.203125 195.953125 185.347656 193.257812 C 185.128906 192.566406 185.234375 192.15625 186.148438 191.917969 C 190.660156 190.734375 195.226562 190.246094 199.84375 190.824219 C 202.410156 191.152344 205.085938 191.300781 207.238281 193.171875 C 208.113281 193.925781 209.597656 193.480469 210.28125 192.496094 C 210.835938 191.699219 210.621094 190.875 209.527344 190.070312 C 206.742188 188.023438 203.460938 187.261719 200.132812 187.03125 C 195.390625 186.703125 190.632812 186.773438 185.976562 188.03125 C 184.667969 188.382812 184.328125 188.105469 183.925781 186.734375 C 183.820312 186.371094 183.78125 185.980469 183.6875 185.609375 C 183.355469 184.304688 183.316406 182.925781 182.753906 181.6875 C 182.195312 180.449219 180.847656 180.324219 179.980469 181.375 C 179.496094 181.964844 179.339844 182.585938 179.523438 183.347656 C 179.761719 184.34375 179.929688 185.355469 180.121094 186.363281 C 180.691406 189.445312 180.722656 189.519531 177.917969 190.722656 C 175.125 191.917969 172.539062 193.441406 170.179688 195.316406 C 167.800781 197.203125 166.105469 199.664062 164.546875 202.292969 C 162.90625 205.054688 162.289062 208.027344 162.0625 211.078125 C 161.632812 216.789062 163.246094 221.980469 166.75 226.550781 C 169.296875 229.867188 172.550781 232.113281 176.695312 232.90625 C 180.671875 233.671875 184.710938 233.886719 188.753906 234.003906 C 190.5625 234.054688 190.582031 234.042969 191.074219 235.816406 C 191.773438 238.347656 192.175781 240.945312 192.734375 243.5 C 193.464844 246.808594 194.34375 250.09375 195.023438 253.417969 C 195.992188 258.171875 196.867188 262.949219 198.246094 267.617188 C 198.628906 268.925781 198.355469 269.339844 196.988281 269.863281 C 196.332031 270.113281 195.660156 270.390625 194.976562 270.5 C 192.785156 270.84375 190.675781 271.417969 188.363281 271.328125 C 186.261719 271.246094 184.183594 271.34375 182.152344 270.679688 C 181.171875 270.648438 180.28125 270.832031 179.925781 271.84375 C 179.554688 272.890625 180.328125 273.507812 181.007812 274.117188 C 181.300781 274.382812 181.667969 274.480469 182.042969 274.59375 C 185.058594 275.488281 188.105469 275.449219 191.199219 275.128906 C 193.382812 274.902344 195.445312 274.191406 197.59375 273.832031 C 198.804688 273.632812 199.535156 274.128906 199.78125 275.324219 C 200.191406 277.269531 200.585938 279.214844 201.019531 281.152344 C 201.273438 282.269531 201.914062 282.792969 202.863281 282.742188 C 203.882812 282.691406 204.449219 282.007812 204.507812 280.761719 Z M 178.042969 229.273438 C 174.738281 228.828125 171.890625 227.261719 169.863281 224.402344 C 167.039062 220.414062 165.855469 217.21875 165.867188 210.726562 C 166.121094 206.734375 168.058594 202.09375 172.460938 198.539062 C 174.785156 196.664062 177.300781 195.183594 180 193.996094 C 181.6875 193.253906 181.761719 193.316406 182.175781 195.070312 C 182.9375 198.3125 183.667969 201.558594 184.371094 204.804688 C 185.230469 208.742188 186.027344 212.695312 186.890625 216.632812 C 187.683594 220.265625 188.539062 223.875 189.355469 227.5 C 189.398438 227.6875 189.414062 227.882812 189.4375 228.070312 C 189.609375 229.644531 189.46875 229.769531 187.828125 229.859375 C 184.542969 230.027344 181.265625 229.714844 178.035156 229.28125 Z M 201.480469 267.011719 C 200.585938 262.4375 199.4375 257.921875 198.480469 253.371094 C 197.429688 248.363281 196.289062 243.367188 195.257812 238.351562 C 194.976562 236.988281 194.308594 235.703125 194.300781 234.261719 C 194.910156 233.898438 195.578125 234 196.195312 234.070312 C 200.203125 234.535156 204.230469 234.785156 208.101562 236.152344 C 213.046875 237.898438 216.796875 240.78125 218.167969 246.054688 C 218.695312 248.074219 218.273438 250.121094 217.828125 252.144531 C 216.851562 256.570312 214.097656 259.753906 210.855469 262.660156 C 208.488281 264.78125 205.808594 266.390625 202.921875 267.671875 C 201.882812 268.140625 201.683594 268.027344 201.480469 267.011719 Z M 201.480469 267.011719 " fill-opacity="1" fill-rule="nonzero"/></svg>