<svg xmlns="http://www.w3.org/2000/svg" xmlns:xlink="http://www.w3.org/1999/xlink" width="500" zoomAndPan="magnify" viewBox="0 0 375 374.999991" height="500" preserveAspectRatio="xMidYMid meet" version="1.0"><defs><g/><clipPath id="3088a8e0ce"><path d="M 165.492188 110 L 228.492188 110 L 228.492188 155.171875 L 165.492188 155.171875 Z M 165.492188 110 " clip-rule="nonzero"/></clipPath></defs><g fill="#192a56" fill-opacity="1"><g transform="translate(54.351176, 222.005669)"><g><path d="M 62.453125 -74.25 L 62.453125 -26.375 C 62.453125 -17.25 59.992188 -10.347656 55.078125 -5.671875 C 50.160156 -0.992188 42.960938 1.34375 33.484375 1.34375 C 24.003906 1.34375 16.800781 -0.992188 11.875 -5.671875 C 6.957031 -10.347656 4.5 -17.25 4.5 -26.375 L 4.5 -74.25 L 21.421875 -74.25 L 21.421875 -31.3125 C 21.421875 -25.3125 22.363281 -21.140625 24.25 -18.796875 C 26.144531 -16.460938 29.222656 -15.296875 33.484375 -15.296875 C 37.742188 -15.296875 40.816406 -16.460938 42.703125 -18.796875 C 44.597656 -21.140625 45.546875 -25.3125 45.546875 -31.3125 L 45.546875 -74.25 Z M 62.453125 -74.25 "/></g></g></g><g fill="#192a56" fill-opacity="1"><g transform="translate(119.296527, 222.005669)"><g><path d="M 5.40625 -74.25 L 32.484375 -74.25 C 40.046875 -74.25 46.164062 -72.296875 50.84375 -68.390625 C 55.53125 -64.492188 57.875 -58.828125 57.875 -51.390625 C 57.875 -43.953125 55.503906 -38.117188 50.765625 -33.890625 C 46.023438 -29.660156 39.929688 -27.546875 32.484375 -27.546875 L 22.3125 -27.546875 L 22.3125 0 L 5.40625 0 Z M 22.3125 -41.046875 L 27.09375 -41.046875 C 30.875 -41.046875 33.976562 -41.804688 36.40625 -43.328125 C 38.832031 -44.859375 40.046875 -47.363281 40.046875 -50.84375 C 40.046875 -54.382812 38.832031 -56.921875 36.40625 -58.453125 C 33.976562 -59.984375 30.875 -60.75 27.09375 -60.75 L 22.3125 -60.75 Z M 22.3125 -41.046875 "/></g></g></g><g fill="#0b8ea7" fill-opacity="1"><g transform="translate(183.550774, 221.255669)"><g><path d="M 22.3125 -46.078125 L 22.3125 0 L 5.40625 0 L 5.40625 -74.25 L 22.3125 -74.25 L 51.84375 -28.171875 L 52.015625 -28.171875 L 52.015625 -74.25 L 68.9375 -74.25 L 68.9375 0 L 52.015625 0 L 22.5 -46.078125 Z M 22.3125 -46.078125 "/></g></g></g><g fill="#0b8ea7" fill-opacity="1"><g transform="translate(257.890697, 221.255669)"><g><path d="M 47.875 -74.25 L 47.875 -59.40625 L 22.3125 -59.40625 L 22.3125 -44.640625 L 46.796875 -44.640625 L 46.796875 -29.796875 L 22.3125 -29.796875 L 22.3125 -14.84375 L 47.875 -14.84375 L 47.875 0 L 5.40625 0 L 5.40625 -74.25 Z M 47.875 -74.25 "/></g></g></g><g fill="#0b8ea7" fill-opacity="1"><g transform="translate(310.090641, 221.255669)"><g><path d="M 0.71875 -59.40625 L 0.71875 -74.25 L 52.921875 -74.25 L 52.921875 -59.40625 L 35.28125 -59.40625 L 35.28125 0 L 18.359375 0 L 18.359375 -59.40625 Z M 0.71875 -59.40625 "/></g></g></g><g clip-path="url(#3088a8e0ce)"><path fill="#192a56" d="M 165.683594 123.789062 L 171.378906 129.484375 C 185.53125 115.332031 208.480469 115.332031 222.632812 129.484375 L 228.328125 123.789062 C 211.042969 106.503906 182.996094 106.503906 165.683594 123.789062 Z M 188.460938 146.570312 L 197.003906 155.113281 L 205.546875 146.570312 C 200.847656 141.84375 193.1875 141.84375 188.460938 146.570312 Z M 177.074219 135.179688 L 182.765625 140.875 C 190.625 133.015625 203.382812 133.015625 211.242188 140.875 L 216.9375 135.179688 C 205.945312 124.1875 188.09375 124.1875 177.074219 135.179688 Z M 177.074219 135.179688 " fill-opacity="1" fill-rule="nonzero"/></g><g fill="#192a56" fill-opacity="1"><g transform="translate(75.520609, 248.04385)"><g><path d="M 7.40625 -5.421875 C 7.820312 -5.179688 8.140625 -4.863281 8.359375 -4.46875 C 8.578125 -4.082031 8.6875 -3.640625 8.6875 -3.140625 C 8.6875 -2.660156 8.570312 -2.210938 8.34375 -1.796875 C 8.113281 -1.390625 7.789062 -1.03125 7.375 -0.71875 C 7 -0.425781 6.570312 -0.203125 6.09375 -0.046875 C 5.613281 0.0976562 5.101562 0.175781 4.5625 0.1875 C 4.03125 0.1875 3.519531 0.113281 3.03125 -0.03125 C 2.550781 -0.175781 2.117188 -0.398438 1.734375 -0.703125 C 1.171875 -1.128906 0.785156 -1.644531 0.578125 -2.25 L 2.65625 -3.21875 C 2.65625 -3.113281 2.691406 -2.988281 2.765625 -2.84375 C 2.835938 -2.695312 2.945312 -2.550781 3.09375 -2.40625 C 3.238281 -2.269531 3.429688 -2.148438 3.671875 -2.046875 C 3.910156 -1.953125 4.203125 -1.90625 4.546875 -1.90625 C 4.828125 -1.90625 5.070312 -1.9375 5.28125 -2 C 5.5 -2.070312 5.679688 -2.160156 5.828125 -2.265625 C 5.972656 -2.367188 6.082031 -2.488281 6.15625 -2.625 C 6.226562 -2.757812 6.265625 -2.894531 6.265625 -3.03125 C 6.265625 -3.1875 6.210938 -3.332031 6.109375 -3.46875 C 6.003906 -3.613281 5.84375 -3.726562 5.625 -3.8125 C 5.226562 -3.945312 4.804688 -4.0625 4.359375 -4.15625 C 3.921875 -4.25 3.492188 -4.367188 3.078125 -4.515625 C 2.660156 -4.660156 2.273438 -4.847656 1.921875 -5.078125 C 1.566406 -5.316406 1.285156 -5.648438 1.078125 -6.078125 C 0.878906 -6.460938 0.78125 -6.863281 0.78125 -7.28125 C 0.78125 -7.757812 0.890625 -8.222656 1.109375 -8.671875 C 1.335938 -9.117188 1.644531 -9.492188 2.03125 -9.796875 C 2.40625 -10.085938 2.816406 -10.304688 3.265625 -10.453125 C 3.722656 -10.609375 4.207031 -10.6875 4.71875 -10.6875 C 5.21875 -10.6875 5.695312 -10.613281 6.15625 -10.46875 C 6.625 -10.320312 7.039062 -10.101562 7.40625 -9.8125 C 7.757812 -9.550781 8.039062 -9.238281 8.25 -8.875 L 6.5625 -7.71875 C 6.351562 -8.007812 6.09375 -8.238281 5.78125 -8.40625 C 5.46875 -8.582031 5.117188 -8.671875 4.734375 -8.671875 C 4.191406 -8.671875 3.773438 -8.550781 3.484375 -8.3125 C 3.191406 -8.070312 3.046875 -7.757812 3.046875 -7.375 C 3.046875 -7.195312 3.128906 -7.035156 3.296875 -6.890625 C 3.460938 -6.753906 3.675781 -6.628906 3.9375 -6.515625 C 4.195312 -6.410156 4.488281 -6.316406 4.8125 -6.234375 C 5.144531 -6.148438 5.472656 -6.066406 5.796875 -5.984375 C 6.117188 -5.898438 6.421875 -5.8125 6.703125 -5.71875 C 6.992188 -5.632812 7.226562 -5.535156 7.40625 -5.421875 Z M 7.40625 -5.421875 "/></g></g></g><g fill="#192a56" fill-opacity="1"><g transform="translate(86.719967, 248.04385)"><g><path d="M 5.6875 -10.6875 C 6.394531 -10.6875 7.066406 -10.539062 7.703125 -10.25 C 8.335938 -9.96875 8.890625 -9.578125 9.359375 -9.078125 C 9.835938 -8.585938 10.210938 -8.015625 10.484375 -7.359375 C 10.753906 -6.703125 10.890625 -6.003906 10.890625 -5.265625 C 10.890625 -4.535156 10.753906 -3.835938 10.484375 -3.171875 C 10.210938 -2.503906 9.835938 -1.921875 9.359375 -1.421875 C 8.890625 -0.929688 8.335938 -0.539062 7.703125 -0.25 C 7.066406 0.0390625 6.394531 0.1875 5.6875 0.1875 C 4.96875 0.1875 4.289062 0.0390625 3.65625 -0.25 C 3.019531 -0.539062 2.46875 -0.929688 2 -1.421875 C 1.539062 -1.921875 1.171875 -2.503906 0.890625 -3.171875 C 0.617188 -3.835938 0.484375 -4.535156 0.484375 -5.265625 C 0.484375 -6.003906 0.617188 -6.703125 0.890625 -7.359375 C 1.171875 -8.015625 1.539062 -8.585938 2 -9.078125 C 2.46875 -9.578125 3.019531 -9.96875 3.65625 -10.25 C 4.289062 -10.539062 4.96875 -10.6875 5.6875 -10.6875 Z M 5.6875 -2.046875 C 6.09375 -2.046875 6.472656 -2.128906 6.828125 -2.296875 C 7.179688 -2.472656 7.492188 -2.707031 7.765625 -3 C 8.035156 -3.289062 8.242188 -3.628906 8.390625 -4.015625 C 8.546875 -4.398438 8.625 -4.816406 8.625 -5.265625 C 8.625 -5.710938 8.546875 -6.128906 8.390625 -6.515625 C 8.242188 -6.910156 8.035156 -7.253906 7.765625 -7.546875 C 7.492188 -7.835938 7.179688 -8.066406 6.828125 -8.234375 C 6.472656 -8.410156 6.09375 -8.5 5.6875 -8.5 C 5.28125 -8.5 4.894531 -8.410156 4.53125 -8.234375 C 4.175781 -8.066406 3.863281 -7.835938 3.59375 -7.546875 C 3.332031 -7.253906 3.125 -6.910156 2.96875 -6.515625 C 2.8125 -6.128906 2.734375 -5.710938 2.734375 -5.265625 C 2.734375 -4.816406 2.8125 -4.398438 2.96875 -4.015625 C 3.125 -3.628906 3.332031 -3.289062 3.59375 -3 C 3.863281 -2.707031 4.175781 -2.472656 4.53125 -2.296875 C 4.894531 -2.128906 5.28125 -2.046875 5.6875 -2.046875 Z M 5.6875 -2.046875 "/></g></g></g><g fill="#192a56" fill-opacity="1"><g transform="translate(100.135118, 248.04385)"><g><path d="M 2.953125 -2.03125 L 7.28125 -2.03125 L 7.28125 0 L 0.703125 0 L 0.703125 -10.546875 L 2.953125 -10.546875 Z M 2.953125 -2.03125 "/></g></g></g><g fill="#192a56" fill-opacity="1"><g transform="translate(109.609438, 248.04385)"><g><path d="M 6.65625 -10.546875 L 8.90625 -10.546875 L 8.90625 -3.8125 C 8.90625 -3.28125 8.796875 -2.769531 8.578125 -2.28125 C 8.359375 -1.800781 8.0625 -1.378906 7.6875 -1.015625 C 7.3125 -0.648438 6.875 -0.359375 6.375 -0.140625 C 5.875 0.078125 5.335938 0.1875 4.765625 0.1875 C 4.191406 0.1875 3.648438 0.078125 3.140625 -0.140625 C 2.640625 -0.359375 2.203125 -0.648438 1.828125 -1.015625 C 1.460938 -1.378906 1.171875 -1.800781 0.953125 -2.28125 C 0.734375 -2.769531 0.625 -3.28125 0.625 -3.8125 L 0.625 -10.546875 L 2.875 -10.546875 L 2.875 -4.25 C 2.875 -3.957031 2.921875 -3.675781 3.015625 -3.40625 C 3.117188 -3.144531 3.253906 -2.910156 3.421875 -2.703125 C 3.585938 -2.503906 3.785156 -2.34375 4.015625 -2.21875 C 4.253906 -2.101562 4.503906 -2.046875 4.765625 -2.046875 C 5.023438 -2.046875 5.269531 -2.101562 5.5 -2.21875 C 5.726562 -2.34375 5.925781 -2.503906 6.09375 -2.703125 C 6.269531 -2.910156 6.40625 -3.144531 6.5 -3.40625 C 6.601562 -3.675781 6.65625 -3.957031 6.65625 -4.25 Z M 6.65625 -10.546875 "/></g></g></g><g fill="#192a56" fill-opacity="1"><g transform="translate(121.165704, 248.04385)"><g><path d="M 7.40625 -5.421875 C 7.820312 -5.179688 8.140625 -4.863281 8.359375 -4.46875 C 8.578125 -4.082031 8.6875 -3.640625 8.6875 -3.140625 C 8.6875 -2.660156 8.570312 -2.210938 8.34375 -1.796875 C 8.113281 -1.390625 7.789062 -1.03125 7.375 -0.71875 C 7 -0.425781 6.570312 -0.203125 6.09375 -0.046875 C 5.613281 0.0976562 5.101562 0.175781 4.5625 0.1875 C 4.03125 0.1875 3.519531 0.113281 3.03125 -0.03125 C 2.550781 -0.175781 2.117188 -0.398438 1.734375 -0.703125 C 1.171875 -1.128906 0.785156 -1.644531 0.578125 -2.25 L 2.65625 -3.21875 C 2.65625 -3.113281 2.691406 -2.988281 2.765625 -2.84375 C 2.835938 -2.695312 2.945312 -2.550781 3.09375 -2.40625 C 3.238281 -2.269531 3.429688 -2.148438 3.671875 -2.046875 C 3.910156 -1.953125 4.203125 -1.90625 4.546875 -1.90625 C 4.828125 -1.90625 5.070312 -1.9375 5.28125 -2 C 5.5 -2.070312 5.679688 -2.160156 5.828125 -2.265625 C 5.972656 -2.367188 6.082031 -2.488281 6.15625 -2.625 C 6.226562 -2.757812 6.265625 -2.894531 6.265625 -3.03125 C 6.265625 -3.1875 6.210938 -3.332031 6.109375 -3.46875 C 6.003906 -3.613281 5.84375 -3.726562 5.625 -3.8125 C 5.226562 -3.945312 4.804688 -4.0625 4.359375 -4.15625 C 3.921875 -4.25 3.492188 -4.367188 3.078125 -4.515625 C 2.660156 -4.660156 2.273438 -4.847656 1.921875 -5.078125 C 1.566406 -5.316406 1.285156 -5.648438 1.078125 -6.078125 C 0.878906 -6.460938 0.78125 -6.863281 0.78125 -7.28125 C 0.78125 -7.757812 0.890625 -8.222656 1.109375 -8.671875 C 1.335938 -9.117188 1.644531 -9.492188 2.03125 -9.796875 C 2.40625 -10.085938 2.816406 -10.304688 3.265625 -10.453125 C 3.722656 -10.609375 4.207031 -10.6875 4.71875 -10.6875 C 5.21875 -10.6875 5.695312 -10.613281 6.15625 -10.46875 C 6.625 -10.320312 7.039062 -10.101562 7.40625 -9.8125 C 7.757812 -9.550781 8.039062 -9.238281 8.25 -8.875 L 6.5625 -7.71875 C 6.351562 -8.007812 6.09375 -8.238281 5.78125 -8.40625 C 5.46875 -8.582031 5.117188 -8.671875 4.734375 -8.671875 C 4.191406 -8.671875 3.773438 -8.550781 3.484375 -8.3125 C 3.191406 -8.070312 3.046875 -7.757812 3.046875 -7.375 C 3.046875 -7.195312 3.128906 -7.035156 3.296875 -6.890625 C 3.460938 -6.753906 3.675781 -6.628906 3.9375 -6.515625 C 4.195312 -6.410156 4.488281 -6.316406 4.8125 -6.234375 C 5.144531 -6.148438 5.472656 -6.066406 5.796875 -5.984375 C 6.117188 -5.898438 6.421875 -5.8125 6.703125 -5.71875 C 6.992188 -5.632812 7.226562 -5.535156 7.40625 -5.421875 Z M 7.40625 -5.421875 "/></g></g></g><g fill="#192a56" fill-opacity="1"><g transform="translate(132.365063, 248.04385)"><g><path d="M 4.53125 -10.546875 L 4.53125 -8.640625 L 3.75 -8.640625 L 3.75 -1.890625 L 4.53125 -1.890625 L 4.53125 0 L 0.703125 0 L 0.703125 -1.890625 L 1.484375 -1.890625 L 1.484375 -8.640625 L 0.703125 -8.640625 L 0.703125 -10.546875 Z M 4.53125 -10.546875 "/></g></g></g><g fill="#192a56" fill-opacity="1"><g transform="translate(139.623592, 248.04385)"><g/></g></g><g fill="#192a56" fill-opacity="1"><g transform="translate(145.751926, 248.04385)"><g><path d="M 4.53125 -10.546875 L 4.53125 -8.640625 L 3.75 -8.640625 L 3.75 -1.890625 L 4.53125 -1.890625 L 4.53125 0 L 0.703125 0 L 0.703125 -1.890625 L 1.484375 -1.890625 L 1.484375 -8.640625 L 0.703125 -8.640625 L 0.703125 -10.546875 Z M 4.53125 -10.546875 "/></g></g></g><g fill="#192a56" fill-opacity="1"><g transform="translate(153.010455, 248.04385)"><g><path d="M 7.90625 -10.546875 L 10.15625 -10.546875 L 10.15625 0 L 8.015625 0 L 2.9375 -6.890625 L 2.9375 0 L 0.703125 0 L 0.703125 -10.546875 L 2.8125 -10.546875 L 7.90625 -3.609375 Z M 7.90625 -10.546875 "/></g></g></g><g fill="#192a56" fill-opacity="1"><g transform="translate(165.905119, 248.04385)"><g><path d="M 0.34375 -10.546875 L 7.96875 -10.546875 L 7.96875 -8.5 L 5.28125 -8.5 L 5.28125 0 L 3.03125 0 L 3.03125 -8.5 L 0.34375 -8.5 Z M 0.34375 -10.546875 "/></g></g></g><g fill="#192a56" fill-opacity="1"><g transform="translate(176.25682, 248.04385)"><g><path d="M 0.71875 -10.546875 L 7.296875 -10.546875 L 7.296875 -8.5 L 2.96875 -8.5 L 2.96875 -6.59375 L 6.78125 -6.59375 L 6.78125 -4.53125 L 2.96875 -4.53125 L 2.96875 -2.03125 L 7.296875 -2.03125 L 7.296875 0 L 0.71875 0 Z M 0.71875 -10.546875 "/></g></g></g><g fill="#192a56" fill-opacity="1"><g transform="translate(186.311106, 248.04385)"><g><path d="M 8.28125 -7.40625 C 8.28125 -7.070312 8.234375 -6.753906 8.140625 -6.453125 C 8.046875 -6.148438 7.914062 -5.867188 7.75 -5.609375 C 7.582031 -5.359375 7.378906 -5.132812 7.140625 -4.9375 C 6.898438 -4.75 6.640625 -4.597656 6.359375 -4.484375 L 9.859375 0 L 7.234375 0 L 3.96875 -4.25 L 2.953125 -4.25 L 2.953125 0 L 0.703125 0 L 0.703125 -10.546875 L 5.25 -10.546875 C 5.664062 -10.546875 6.054688 -10.460938 6.421875 -10.296875 C 6.796875 -10.140625 7.117188 -9.914062 7.390625 -9.625 C 7.671875 -9.34375 7.890625 -9.007812 8.046875 -8.625 C 8.203125 -8.25 8.28125 -7.84375 8.28125 -7.40625 Z M 4.96875 -6.3125 C 5.257812 -6.3125 5.507812 -6.414062 5.71875 -6.625 C 5.925781 -6.84375 6.03125 -7.101562 6.03125 -7.40625 C 6.03125 -7.707031 5.925781 -7.960938 5.71875 -8.171875 C 5.507812 -8.390625 5.257812 -8.5 4.96875 -8.5 L 2.953125 -8.5 L 2.953125 -6.3125 Z M 4.96875 -6.3125 "/></g></g></g><g fill="#192a56" fill-opacity="1"><g transform="translate(198.566309, 248.04385)"><g><path d="M 7.90625 -10.546875 L 10.15625 -10.546875 L 10.15625 0 L 8.015625 0 L 2.9375 -6.890625 L 2.9375 0 L 0.703125 0 L 0.703125 -10.546875 L 2.8125 -10.546875 L 7.90625 -3.609375 Z M 7.90625 -10.546875 "/></g></g></g><g fill="#192a56" fill-opacity="1"><g transform="translate(211.460972, 248.04385)"><g><path d="M 0.71875 -10.546875 L 7.296875 -10.546875 L 7.296875 -8.5 L 2.96875 -8.5 L 2.96875 -6.59375 L 6.78125 -6.59375 L 6.78125 -4.53125 L 2.96875 -4.53125 L 2.96875 -2.03125 L 7.296875 -2.03125 L 7.296875 0 L 0.71875 0 Z M 0.71875 -10.546875 "/></g></g></g><g fill="#192a56" fill-opacity="1"><g transform="translate(221.515258, 248.04385)"><g><path d="M 0.34375 -10.546875 L 7.96875 -10.546875 L 7.96875 -8.5 L 5.28125 -8.5 L 5.28125 0 L 3.03125 0 L 3.03125 -8.5 L 0.34375 -8.5 Z M 0.34375 -10.546875 "/></g></g></g><g fill="#192a56" fill-opacity="1"><g transform="translate(231.866965, 248.04385)"><g/></g></g><g fill="#192a56" fill-opacity="1"><g transform="translate(237.995299, 248.04385)"><g><path d="M 0.34375 -10.546875 L 7.96875 -10.546875 L 7.96875 -8.5 L 5.28125 -8.5 L 5.28125 0 L 3.03125 0 L 3.03125 -8.5 L 0.34375 -8.5 Z M 0.34375 -10.546875 "/></g></g></g><g fill="#192a56" fill-opacity="1"><g transform="translate(248.347006, 248.04385)"><g><path d="M 0.71875 -10.546875 L 7.296875 -10.546875 L 7.296875 -8.5 L 2.96875 -8.5 L 2.96875 -6.59375 L 6.78125 -6.59375 L 6.78125 -4.53125 L 2.96875 -4.53125 L 2.96875 -2.03125 L 7.296875 -2.03125 L 7.296875 0 L 0.71875 0 Z M 0.71875 -10.546875 "/></g></g></g><g fill="#192a56" fill-opacity="1"><g transform="translate(258.401292, 248.04385)"><g><path d="M 8.28125 -7.40625 C 8.28125 -7.070312 8.234375 -6.753906 8.140625 -6.453125 C 8.046875 -6.148438 7.914062 -5.867188 7.75 -5.609375 C 7.582031 -5.359375 7.378906 -5.132812 7.140625 -4.9375 C 6.898438 -4.75 6.640625 -4.597656 6.359375 -4.484375 L 9.859375 0 L 7.234375 0 L 3.96875 -4.25 L 2.953125 -4.25 L 2.953125 0 L 0.703125 0 L 0.703125 -10.546875 L 5.25 -10.546875 C 5.664062 -10.546875 6.054688 -10.460938 6.421875 -10.296875 C 6.796875 -10.140625 7.117188 -9.914062 7.390625 -9.625 C 7.671875 -9.34375 7.890625 -9.007812 8.046875 -8.625 C 8.203125 -8.25 8.28125 -7.84375 8.28125 -7.40625 Z M 4.96875 -6.3125 C 5.257812 -6.3125 5.507812 -6.414062 5.71875 -6.625 C 5.925781 -6.84375 6.03125 -7.101562 6.03125 -7.40625 C 6.03125 -7.707031 5.925781 -7.960938 5.71875 -8.171875 C 5.507812 -8.390625 5.257812 -8.5 4.96875 -8.5 L 2.953125 -8.5 L 2.953125 -6.3125 Z M 4.96875 -6.3125 "/></g></g></g><g fill="#192a56" fill-opacity="1"><g transform="translate(270.656483, 248.04385)"><g><path d="M 7.296875 -5.734375 C 7.710938 -5.453125 8.046875 -5.082031 8.296875 -4.625 C 8.546875 -4.175781 8.671875 -3.679688 8.671875 -3.140625 C 8.671875 -2.703125 8.585938 -2.289062 8.421875 -1.90625 C 8.253906 -1.53125 8.023438 -1.195312 7.734375 -0.90625 C 7.441406 -0.625 7.101562 -0.398438 6.71875 -0.234375 C 6.34375 -0.078125 5.9375 0 5.5 0 L 0.71875 0 L 0.71875 -10.546875 L 5.359375 -10.546875 C 5.753906 -10.546875 6.125 -10.46875 6.46875 -10.3125 C 6.8125 -10.15625 7.113281 -9.945312 7.375 -9.6875 C 7.644531 -9.4375 7.851562 -9.132812 8 -8.78125 C 8.144531 -8.4375 8.21875 -8.066406 8.21875 -7.671875 C 8.21875 -7.242188 8.132812 -6.867188 7.96875 -6.546875 C 7.8125 -6.222656 7.585938 -5.953125 7.296875 -5.734375 Z M 2.96875 -6.59375 L 5.359375 -6.59375 C 5.617188 -6.59375 5.84375 -6.6875 6.03125 -6.875 C 6.226562 -7.0625 6.328125 -7.289062 6.328125 -7.5625 C 6.328125 -7.820312 6.226562 -8.039062 6.03125 -8.21875 C 5.84375 -8.40625 5.617188 -8.5 5.359375 -8.5 L 2.96875 -8.5 Z M 5.5 -2.03125 C 5.800781 -2.03125 6.054688 -2.15625 6.265625 -2.40625 C 6.472656 -2.664062 6.578125 -2.960938 6.578125 -3.296875 C 6.578125 -3.648438 6.472656 -3.941406 6.265625 -4.171875 C 6.054688 -4.410156 5.800781 -4.53125 5.5 -4.53125 L 2.96875 -4.53125 L 2.96875 -2.03125 Z M 5.5 -2.03125 "/></g></g></g><g fill="#192a56" fill-opacity="1"><g transform="translate(281.90044, 248.04385)"><g><path d="M 7.1875 -10.546875 L 11.59375 0 L 9.140625 0 L 8.203125 -2.265625 L 3.71875 -2.265625 L 2.78125 0 L 0.328125 0 L 4.734375 -10.546875 Z M 7.34375 -4.3125 L 5.96875 -7.625 L 4.578125 -4.3125 Z M 7.34375 -4.3125 "/></g></g></g><g fill="#192a56" fill-opacity="1"><g transform="translate(295.850947, 248.04385)"><g><path d="M 4.53125 -10.546875 L 4.53125 -8.640625 L 3.75 -8.640625 L 3.75 -1.890625 L 4.53125 -1.890625 L 4.53125 0 L 0.703125 0 L 0.703125 -1.890625 L 1.484375 -1.890625 L 1.484375 -8.640625 L 0.703125 -8.640625 L 0.703125 -10.546875 Z M 4.53125 -10.546875 "/></g></g></g><g fill="#192a56" fill-opacity="1"><g transform="translate(303.109476, 248.04385)"><g><path d="M 5.296875 -5.734375 L 10.375 0 L 7.59375 0 L 3.875 -4.296875 L 2.953125 -3.375 L 2.953125 0 L 0.703125 0 L 0.703125 -10.546875 L 2.953125 -10.546875 L 2.953125 -6.28125 L 7.203125 -10.546875 L 10.078125 -10.546875 Z M 5.296875 -5.734375 "/></g></g></g><g fill="#192a56" fill-opacity="1"><g transform="translate(315.743254, 248.04385)"><g/></g></g></svg>