<svg xmlns="http://www.w3.org/2000/svg" xmlns:xlink="http://www.w3.org/1999/xlink" width="500" zoomAndPan="magnify" viewBox="0 0 375 374.999991" height="500" preserveAspectRatio="xMidYMid meet" version="1.0"><defs><clipPath id="b0e6becc22"><path d="M 30.320312 26.292969 L 344.570312 26.292969 L 344.570312 345 L 30.320312 345 Z M 30.320312 26.292969 " clip-rule="nonzero"/></clipPath></defs><g clip-path="url(#b0e6becc22)"><path fill="#278d46" d="M 344.5625 183.53125 C 344.5625 270.34375 274.226562 340.722656 187.46875 340.722656 C 181.140625 340.734375 174.835938 340.359375 168.554688 339.601562 C 162.269531 338.847656 156.058594 337.714844 149.914062 336.203125 C 143.769531 334.691406 137.738281 332.816406 131.820312 330.574219 C 125.90625 328.332031 120.144531 325.738281 114.542969 322.796875 C 114.480469 322.820312 114.417969 322.847656 114.355469 322.875 L 67.003906 342.566406 C 52.183594 348.726562 37.242188 334.054688 43.113281 319.117188 L 60.1875 275.683594 C 55.359375 269.027344 51.082031 262.035156 47.359375 254.703125 C 43.632812 247.375 40.503906 239.796875 37.972656 231.972656 C 35.441406 224.148438 33.539062 216.175781 32.265625 208.050781 C 30.992188 199.925781 30.359375 191.753906 30.371094 183.53125 C 30.371094 96.714844 100.707031 26.335938 187.46875 26.335938 C 274.226562 26.335938 344.5625 96.714844 344.5625 183.53125 Z M 344.5625 183.53125 " fill-opacity="1" fill-rule="nonzero"/></g><path fill="#ffffff" d="M 324.179688 183.53125 C 324.179688 185.769531 324.125 188.007812 324.011719 190.242188 C 323.902344 192.480469 323.738281 194.710938 323.519531 196.9375 C 323.300781 199.167969 323.027344 201.386719 322.699219 203.601562 C 322.371094 205.816406 321.988281 208.023438 321.550781 210.21875 C 321.113281 212.414062 320.625 214.597656 320.082031 216.769531 C 319.539062 218.941406 318.941406 221.097656 318.292969 223.242188 C 317.640625 225.382812 316.941406 227.507812 316.1875 229.617188 C 315.433594 231.722656 314.628906 233.8125 313.769531 235.878906 C 312.914062 237.949219 312.007812 239.996094 311.050781 242.019531 C 310.09375 244.042969 309.089844 246.042969 308.035156 248.015625 C 306.980469 249.992188 305.878906 251.9375 304.726562 253.859375 C 303.578125 255.777344 302.382812 257.667969 301.136719 259.53125 C 299.894531 261.390625 298.605469 263.222656 297.273438 265.019531 C 295.941406 266.816406 294.566406 268.582031 293.144531 270.3125 C 291.726562 272.042969 290.265625 273.738281 288.761719 275.398438 C 287.261719 277.054688 285.71875 278.675781 284.136719 280.261719 C 282.554688 281.84375 280.933594 283.386719 279.277344 284.890625 C 277.617188 286.394531 275.925781 287.855469 274.195312 289.277344 C 272.464844 290.695312 270.703125 292.074219 268.90625 293.40625 C 267.109375 294.738281 265.28125 296.027344 263.417969 297.273438 C 261.558594 298.515625 259.667969 299.714844 257.75 300.863281 C 255.832031 302.015625 253.886719 303.117188 251.910156 304.175781 C 249.9375 305.230469 247.941406 306.234375 245.917969 307.191406 C 243.894531 308.148438 241.851562 309.058594 239.785156 309.914062 C 237.71875 310.769531 235.628906 311.578125 233.523438 312.332031 C 231.417969 313.085938 229.292969 313.785156 227.152344 314.4375 C 225.011719 315.085938 222.855469 315.683594 220.683594 316.226562 C 218.515625 316.769531 216.332031 317.261719 214.136719 317.699219 C 211.945312 318.136719 209.738281 318.519531 207.527344 318.847656 C 205.3125 319.175781 203.09375 319.449219 200.867188 319.667969 C 198.640625 319.886719 196.410156 320.050781 194.175781 320.164062 C 191.941406 320.273438 189.703125 320.328125 187.46875 320.328125 C 185.230469 320.328125 182.992188 320.273438 180.757812 320.164062 C 178.523438 320.050781 176.292969 319.886719 174.066406 319.667969 C 171.839844 319.449219 169.621094 319.175781 167.40625 318.847656 C 165.195312 318.519531 162.992188 318.136719 160.796875 317.699219 C 158.601562 317.261719 156.417969 316.769531 154.25 316.226562 C 152.078125 315.683594 149.921875 315.085938 147.78125 314.4375 C 145.640625 313.785156 143.515625 313.085938 141.410156 312.332031 C 139.304688 311.578125 137.21875 310.769531 135.148438 309.914062 C 133.082031 309.058594 131.039062 308.148438 129.015625 307.191406 C 126.992188 306.234375 124.996094 305.230469 123.023438 304.175781 C 121.046875 303.117188 119.101562 302.015625 117.183594 300.863281 C 115.265625 299.714844 113.375 298.515625 111.515625 297.273438 C 109.652344 296.027344 107.824219 294.738281 106.027344 293.40625 C 104.230469 292.074219 102.46875 290.695312 100.738281 289.277344 C 99.007812 287.855469 97.316406 286.394531 95.65625 284.890625 C 94 283.386719 92.378906 281.84375 90.796875 280.261719 C 89.214844 278.675781 87.671875 277.054688 86.171875 275.398438 C 84.667969 273.738281 83.207031 272.042969 81.789062 270.3125 C 80.367188 268.582031 78.992188 266.816406 77.660156 265.019531 C 76.328125 263.222656 75.039062 261.390625 73.796875 259.53125 C 72.554688 257.667969 71.355469 255.777344 70.207031 253.859375 C 69.054688 251.9375 67.953125 249.992188 66.898438 248.015625 C 65.84375 246.042969 64.839844 244.042969 63.882812 242.019531 C 62.925781 239.996094 62.019531 237.949219 61.164062 235.878906 C 60.304688 233.8125 59.5 231.722656 58.746094 229.617188 C 57.992188 227.507812 57.292969 225.382812 56.644531 223.242188 C 55.992188 221.097656 55.398438 218.941406 54.851562 216.769531 C 54.308594 214.597656 53.820312 212.414062 53.382812 210.21875 C 52.945312 208.023438 52.5625 205.816406 52.234375 203.601562 C 51.90625 201.386719 51.632812 199.167969 51.414062 196.9375 C 51.195312 194.710938 51.03125 192.480469 50.921875 190.242188 C 50.8125 188.007812 50.757812 185.769531 50.757812 183.53125 C 50.757812 181.292969 50.8125 179.054688 50.921875 176.816406 C 51.03125 174.582031 51.195312 172.351562 51.414062 170.121094 C 51.632812 167.894531 51.90625 165.671875 52.234375 163.457031 C 52.5625 161.242188 52.945312 159.039062 53.382812 156.84375 C 53.820312 154.648438 54.308594 152.464844 54.851562 150.292969 C 55.398438 148.121094 55.992188 145.960938 56.644531 143.820312 C 57.292969 141.679688 57.992188 139.554688 58.746094 137.445312 C 59.5 135.335938 60.304688 133.25 61.164062 131.179688 C 62.019531 129.113281 62.925781 127.066406 63.882812 125.042969 C 64.839844 123.019531 65.84375 121.019531 66.898438 119.042969 C 67.953125 117.070312 69.054688 115.125 70.207031 113.203125 C 71.355469 111.28125 72.554688 109.390625 73.796875 107.53125 C 75.039062 105.667969 76.328125 103.839844 77.660156 102.039062 C 78.992188 100.242188 80.367188 98.476562 81.789062 96.746094 C 83.207031 95.015625 84.667969 93.320312 86.171875 91.664062 C 87.671875 90.003906 89.214844 88.382812 90.796875 86.800781 C 92.378906 85.21875 94 83.675781 95.65625 82.171875 C 97.316406 80.667969 99.007812 79.207031 100.738281 77.785156 C 102.46875 76.363281 104.230469 74.988281 106.027344 73.65625 C 107.824219 72.320312 109.652344 71.03125 111.515625 69.789062 C 113.375 68.542969 115.265625 67.347656 117.183594 66.195312 C 119.101562 65.046875 121.046875 63.941406 123.023438 62.886719 C 124.996094 61.832031 126.992188 60.824219 129.015625 59.867188 C 131.039062 58.910156 133.082031 58.003906 135.148438 57.148438 C 137.21875 56.289062 139.304688 55.484375 141.410156 54.730469 C 143.515625 53.976562 145.640625 53.273438 147.78125 52.625 C 149.921875 51.972656 152.078125 51.378906 154.25 50.832031 C 156.417969 50.289062 158.601562 49.800781 160.796875 49.363281 C 162.992188 48.925781 165.195312 48.542969 167.40625 48.214844 C 169.621094 47.886719 171.839844 47.613281 174.066406 47.390625 C 176.292969 47.171875 178.523438 47.007812 180.757812 46.898438 C 182.992188 46.789062 185.230469 46.734375 187.46875 46.734375 C 189.703125 46.734375 191.941406 46.789062 194.175781 46.898438 C 196.410156 47.007812 198.640625 47.171875 200.867188 47.390625 C 203.09375 47.613281 205.3125 47.886719 207.527344 48.214844 C 209.738281 48.542969 211.945312 48.925781 214.136719 49.363281 C 216.332031 49.800781 218.515625 50.289062 220.683594 50.832031 C 222.855469 51.378906 225.011719 51.972656 227.152344 52.625 C 229.292969 53.273438 231.417969 53.976562 233.523438 54.730469 C 235.628906 55.484375 237.71875 56.289062 239.785156 57.148438 C 241.851562 58.003906 243.894531 58.910156 245.917969 59.867188 C 247.941406 60.824219 249.9375 61.832031 251.910156 62.886719 C 253.886719 63.941406 255.832031 65.046875 257.75 66.195312 C 259.667969 67.347656 261.558594 68.542969 263.417969 69.789062 C 265.28125 71.03125 267.109375 72.320312 268.90625 73.652344 C 270.703125 74.988281 272.464844 76.363281 274.195312 77.785156 C 275.925781 79.207031 277.617188 80.667969 279.277344 82.171875 C 280.933594 83.675781 282.554688 85.21875 284.136719 86.800781 C 285.71875 88.382812 287.261719 90.003906 288.761719 91.664062 C 290.265625 93.320312 291.726562 95.015625 293.144531 96.746094 C 294.566406 98.476562 295.941406 100.242188 297.273438 102.039062 C 298.605469 103.839844 299.894531 105.667969 301.136719 107.53125 C 302.382812 109.390625 303.578125 111.28125 304.726562 113.203125 C 305.878906 115.125 306.980469 117.070312 308.035156 119.042969 C 309.089844 121.019531 310.09375 123.019531 311.050781 125.042969 C 312.007812 127.066406 312.914062 129.113281 313.769531 131.179688 C 314.628906 133.25 315.433594 135.335938 316.1875 137.445312 C 316.941406 139.554688 317.640625 141.679688 318.292969 143.820312 C 318.941406 145.960938 319.539062 148.121094 320.082031 150.292969 C 320.625 152.464844 321.113281 154.648438 321.550781 156.84375 C 321.988281 159.039062 322.371094 161.242188 322.699219 163.457031 C 323.027344 165.671875 323.300781 167.894531 323.519531 170.121094 C 323.738281 172.351562 323.902344 174.582031 324.011719 176.816406 C 324.125 179.054688 324.179688 181.292969 324.179688 183.53125 Z M 324.179688 183.53125 " fill-opacity="1" fill-rule="nonzero"/><path fill="#278d46" d="M 305.03125 183.53125 C 305.03125 185.457031 304.984375 187.378906 304.886719 189.300781 C 304.792969 191.226562 304.652344 193.144531 304.464844 195.0625 C 304.277344 196.976562 304.039062 198.886719 303.757812 200.792969 C 303.476562 202.695312 303.148438 204.59375 302.769531 206.480469 C 302.394531 208.367188 301.972656 210.246094 301.507812 212.113281 C 301.039062 213.980469 300.527344 215.835938 299.96875 217.679688 C 299.410156 219.519531 298.804688 221.347656 298.15625 223.160156 C 297.511719 224.972656 296.816406 226.769531 296.082031 228.546875 C 295.34375 230.328125 294.566406 232.085938 293.742188 233.828125 C 292.921875 235.566406 292.054688 237.285156 291.148438 238.984375 C 290.242188 240.683594 289.292969 242.355469 288.304688 244.007812 C 287.316406 245.660156 286.285156 247.285156 285.21875 248.886719 C 284.148438 250.488281 283.039062 252.058594 281.894531 253.605469 C 280.75 255.152344 279.566406 256.671875 278.34375 258.160156 C 277.125 259.648438 275.867188 261.105469 274.574219 262.53125 C 273.285156 263.957031 271.957031 265.351562 270.597656 266.710938 C 269.234375 268.074219 267.84375 269.402344 266.417969 270.695312 C 264.992188 271.988281 263.535156 273.242188 262.046875 274.464844 C 260.5625 275.6875 259.042969 276.871094 257.5 278.015625 C 255.953125 279.164062 254.382812 280.273438 252.78125 281.34375 C 251.183594 282.410156 249.558594 283.441406 247.90625 284.429688 C 246.257812 285.421875 244.582031 286.371094 242.886719 287.277344 C 241.1875 288.183594 239.472656 289.050781 237.730469 289.871094 C 235.992188 290.695312 234.234375 291.476562 232.457031 292.210938 C 230.679688 292.949219 228.882812 293.640625 227.074219 294.289062 C 225.261719 294.9375 223.433594 295.542969 221.59375 296.101562 C 219.753906 296.660156 217.898438 297.175781 216.03125 297.640625 C 214.167969 298.109375 212.289062 298.53125 210.402344 298.90625 C 208.515625 299.28125 206.621094 299.613281 204.71875 299.894531 C 202.8125 300.175781 200.90625 300.414062 198.988281 300.601562 C 197.074219 300.789062 195.15625 300.929688 193.234375 301.027344 C 191.3125 301.121094 189.390625 301.167969 187.46875 301.167969 C 185.542969 301.167969 183.621094 301.121094 181.699219 301.027344 C 179.777344 300.929688 177.859375 300.789062 175.945312 300.601562 C 174.027344 300.410156 172.121094 300.175781 170.21875 299.894531 C 168.3125 299.613281 166.417969 299.28125 164.53125 298.90625 C 162.644531 298.53125 160.769531 298.109375 158.902344 297.640625 C 157.035156 297.175781 155.179688 296.660156 153.339844 296.101562 C 151.5 295.542969 149.671875 294.9375 147.859375 294.289062 C 146.050781 293.640625 144.253906 292.949219 142.476562 292.210938 C 140.699219 291.476562 138.941406 290.695312 137.203125 289.871094 C 135.464844 289.050781 133.746094 288.183594 132.046875 287.277344 C 130.351562 286.371094 128.675781 285.421875 127.027344 284.429688 C 125.378906 283.441406 123.753906 282.410156 122.152344 281.34375 C 120.550781 280.273438 118.980469 279.164062 117.433594 278.015625 C 115.890625 276.871094 114.371094 275.6875 112.886719 274.464844 C 111.398438 273.242188 109.941406 271.988281 108.515625 270.695312 C 107.089844 269.402344 105.699219 268.074219 104.335938 266.710938 C 102.976562 265.351562 101.652344 263.957031 100.359375 262.53125 C 99.066406 261.105469 97.808594 259.648438 96.589844 258.160156 C 95.367188 256.671875 94.183594 255.152344 93.039062 253.605469 C 91.894531 252.058594 90.785156 250.488281 89.714844 248.886719 C 88.648438 247.285156 87.617188 245.660156 86.628906 244.007812 C 85.640625 242.355469 84.691406 240.683594 83.785156 238.984375 C 82.878906 237.285156 82.015625 235.566406 81.191406 233.828125 C 80.367188 232.085938 79.589844 230.328125 78.851562 228.546875 C 78.117188 226.769531 77.425781 224.972656 76.777344 223.160156 C 76.128906 221.347656 75.523438 219.519531 74.964844 217.679688 C 74.40625 215.835938 73.894531 213.980469 73.425781 212.113281 C 72.960938 210.246094 72.539062 208.367188 72.164062 206.480469 C 71.789062 204.59375 71.457031 202.695312 71.175781 200.792969 C 70.894531 198.886719 70.660156 196.976562 70.46875 195.0625 C 70.28125 193.144531 70.140625 191.226562 70.046875 189.300781 C 69.949219 187.378906 69.902344 185.457031 69.902344 183.53125 C 69.902344 181.605469 69.949219 179.679688 70.046875 177.757812 C 70.140625 175.835938 70.28125 173.914062 70.46875 172 C 70.660156 170.085938 70.894531 168.175781 71.175781 166.269531 C 71.457031 164.363281 71.789062 162.46875 72.164062 160.582031 C 72.539062 158.691406 72.960938 156.816406 73.425781 154.945312 C 73.894531 153.078125 74.40625 151.222656 74.964844 149.382812 C 75.523438 147.539062 76.128906 145.710938 76.777344 143.898438 C 77.425781 142.085938 78.117188 140.292969 78.851562 138.511719 C 79.589844 136.734375 80.367188 134.972656 81.191406 133.234375 C 82.015625 131.492188 82.878906 129.773438 83.785156 128.078125 C 84.691406 126.378906 85.640625 124.703125 86.628906 123.054688 C 87.617188 121.402344 88.648438 119.777344 89.714844 118.175781 C 90.785156 116.574219 91.894531 115 93.039062 113.453125 C 94.183594 111.90625 95.367188 110.390625 96.589844 108.902344 C 97.808594 107.414062 99.066406 105.957031 100.359375 104.53125 C 101.652344 103.105469 102.976562 101.710938 104.335938 100.347656 C 105.699219 98.988281 107.089844 97.660156 108.515625 96.367188 C 109.941406 95.074219 111.398438 93.816406 112.886719 92.597656 C 114.371094 91.375 115.890625 90.191406 117.433594 89.042969 C 118.980469 87.898438 120.550781 86.789062 122.152344 85.71875 C 123.753906 84.648438 125.378906 83.621094 127.027344 82.628906 C 128.675781 81.640625 130.351562 80.691406 132.046875 79.785156 C 133.746094 78.875 135.464844 78.011719 137.203125 77.1875 C 138.941406 76.363281 140.699219 75.585938 142.476562 74.847656 C 144.253906 74.113281 146.050781 73.417969 147.859375 72.769531 C 149.671875 72.121094 151.5 71.519531 153.339844 70.957031 C 155.179688 70.398438 157.035156 69.886719 158.902344 69.417969 C 160.769531 68.953125 162.644531 68.53125 164.53125 68.152344 C 166.417969 67.777344 168.3125 67.449219 170.21875 67.167969 C 172.121094 66.882812 174.027344 66.648438 175.945312 66.460938 C 177.859375 66.269531 179.777344 66.128906 181.699219 66.035156 C 183.621094 65.941406 185.542969 65.894531 187.46875 65.894531 C 189.390625 65.894531 191.3125 65.941406 193.234375 66.035156 C 195.15625 66.128906 197.074219 66.269531 198.988281 66.460938 C 200.90625 66.648438 202.8125 66.882812 204.71875 67.167969 C 206.621094 67.449219 208.515625 67.777344 210.402344 68.152344 C 212.289062 68.53125 214.167969 68.953125 216.03125 69.417969 C 217.898438 69.886719 219.753906 70.398438 221.59375 70.957031 C 223.433594 71.519531 225.261719 72.121094 227.074219 72.769531 C 228.882812 73.417969 230.679688 74.113281 232.457031 74.847656 C 234.234375 75.585938 235.992188 76.363281 237.730469 77.1875 C 239.472656 78.011719 241.1875 78.875 242.886719 79.785156 C 244.582031 80.691406 246.257812 81.640625 247.90625 82.628906 C 249.558594 83.621094 251.183594 84.648438 252.78125 85.71875 C 254.382812 86.789062 255.953125 87.898438 257.5 89.042969 C 259.042969 90.191406 260.5625 91.375 262.046875 92.597656 C 263.535156 93.816406 264.992188 95.074219 266.417969 96.367188 C 267.84375 97.660156 269.234375 98.988281 270.597656 100.347656 C 271.957031 101.710938 273.285156 103.105469 274.574219 104.53125 C 275.867188 105.957031 277.125 107.414062 278.34375 108.902344 C 279.566406 110.390625 280.75 111.90625 281.894531 113.453125 C 283.039062 115 284.148438 116.574219 285.21875 118.175781 C 286.285156 119.777344 287.316406 121.402344 288.304688 123.054688 C 289.292969 124.703125 290.242188 126.378906 291.148438 128.078125 C 292.054688 129.773438 292.921875 131.492188 293.742188 133.234375 C 294.566406 134.972656 295.34375 136.734375 296.082031 138.511719 C 296.816406 140.292969 297.511719 142.085938 298.15625 143.898438 C 298.804688 145.710938 299.410156 147.539062 299.96875 149.382812 C 300.527344 151.222656 301.039062 153.078125 301.507812 154.945312 C 301.972656 156.816406 302.394531 158.691406 302.769531 160.582031 C 303.148438 162.46875 303.476562 164.363281 303.757812 166.269531 C 304.039062 168.175781 304.277344 170.085938 304.464844 172 C 304.652344 173.914062 304.792969 175.835938 304.886719 177.757812 C 304.984375 179.679688 305.03125 181.605469 305.03125 183.53125 Z M 305.03125 183.53125 " fill-opacity="1" fill-rule="nonzero"/><path fill="#ffffff" d="M 172.371094 145.101562 L 167.796875 125.773438 C 167.664062 125.222656 167.507812 124.683594 167.320312 124.148438 C 167.132812 123.613281 166.917969 123.09375 166.675781 122.582031 C 166.433594 122.070312 166.164062 121.574219 165.871094 121.089844 C 165.574219 120.609375 165.257812 120.144531 164.914062 119.695312 C 164.570312 119.246094 164.203125 118.816406 163.8125 118.40625 C 163.425781 117.992188 163.015625 117.605469 162.585938 117.238281 C 162.15625 116.871094 161.707031 116.527344 161.242188 116.207031 C 160.777344 115.886719 160.296875 115.59375 159.796875 115.324219 C 159.300781 115.054688 158.792969 114.8125 158.269531 114.597656 C 157.746094 114.378906 157.214844 114.191406 156.671875 114.03125 C 156.128906 113.875 155.582031 113.742188 155.023438 113.640625 C 154.46875 113.539062 153.910156 113.46875 153.34375 113.425781 C 152.78125 113.382812 152.21875 113.371094 151.652344 113.386719 C 151.085938 113.402344 150.523438 113.449219 149.964844 113.527344 C 149.40625 113.601562 148.851562 113.707031 148.300781 113.84375 C 147.753906 113.976562 147.210938 114.140625 146.679688 114.332031 L 136.128906 118.132812 C 135.277344 118.441406 134.453125 118.816406 133.664062 119.265625 C 132.875 119.710938 132.128906 120.222656 131.425781 120.792969 C 130.722656 121.367188 130.070312 121.996094 129.472656 122.679688 C 128.875 123.359375 128.339844 124.089844 127.867188 124.863281 C 127.390625 125.636719 126.984375 126.445312 126.648438 127.285156 C 126.308594 128.128906 126.042969 128.992188 125.851562 129.878906 C 125.660156 130.765625 125.542969 131.664062 125.503906 132.570312 C 125.460938 133.476562 125.496094 134.382812 125.609375 135.28125 C 129.285156 165.175781 146.210938 237.496094 224.050781 253.386719 C 224.820312 253.542969 225.59375 253.644531 226.378906 253.6875 C 227.160156 253.730469 227.941406 253.714844 228.722656 253.644531 C 229.503906 253.574219 230.277344 253.449219 231.039062 253.265625 C 231.800781 253.082031 232.546875 252.84375 233.273438 252.550781 C 234.003906 252.257812 234.703125 251.914062 235.382812 251.519531 C 236.058594 251.125 236.703125 250.683594 237.316406 250.195312 C 237.929688 249.703125 238.503906 249.171875 239.039062 248.601562 C 239.574219 248.027344 240.066406 247.417969 240.511719 246.773438 L 246.570312 238.019531 C 246.871094 237.582031 247.148438 237.136719 247.402344 236.675781 C 247.660156 236.214844 247.894531 235.742188 248.101562 235.257812 C 248.3125 234.773438 248.496094 234.28125 248.660156 233.777344 C 248.820312 233.277344 248.957031 232.769531 249.066406 232.253906 C 249.179688 231.738281 249.265625 231.214844 249.324219 230.691406 C 249.386719 230.167969 249.421875 229.644531 249.429688 229.117188 C 249.4375 228.585938 249.421875 228.0625 249.378906 227.535156 C 249.335938 227.011719 249.265625 226.488281 249.171875 225.96875 C 249.078125 225.449219 248.957031 224.9375 248.8125 224.429688 C 248.667969 223.921875 248.5 223.421875 248.304688 222.933594 C 248.113281 222.441406 247.894531 221.960938 247.652344 221.492188 C 247.414062 221.023438 247.148438 220.566406 246.863281 220.125 C 246.578125 219.679688 246.273438 219.25 245.945312 218.839844 C 245.617188 218.425781 245.269531 218.027344 244.902344 217.648438 C 244.535156 217.269531 244.152344 216.910156 243.75 216.570312 C 243.347656 216.226562 242.929688 215.90625 242.496094 215.605469 L 242.394531 215.535156 L 229.085938 206.46875 C 228.371094 205.980469 227.621094 205.554688 226.835938 205.1875 C 226.050781 204.820312 225.242188 204.519531 224.410156 204.285156 C 223.574219 204.050781 222.730469 203.882812 221.867188 203.78125 C 221.007812 203.683594 220.144531 203.652344 219.28125 203.695312 C 218.417969 203.734375 217.558594 203.84375 216.710938 204.023438 C 215.867188 204.199219 215.039062 204.445312 214.230469 204.757812 C 213.421875 205.070312 212.644531 205.445312 211.898438 205.882812 C 211.148438 206.320312 210.441406 206.8125 209.773438 207.367188 C 209.113281 207.914062 208.410156 208.40625 207.667969 208.84375 C 206.925781 209.28125 206.152344 209.65625 205.351562 209.96875 C 204.550781 210.28125 203.726562 210.527344 202.886719 210.707031 C 202.042969 210.886719 201.195312 210.996094 200.335938 211.039062 C 199.476562 211.085938 198.617188 211.058594 197.761719 210.964844 C 196.90625 210.871094 196.0625 210.707031 195.234375 210.476562 C 194.40625 210.246094 193.597656 209.953125 192.816406 209.59375 C 192.035156 209.234375 191.285156 208.8125 190.574219 208.332031 C 182.476562 202.875 171.519531 193.824219 164.402344 181.277344 C 164.003906 180.578125 163.660156 179.855469 163.367188 179.101562 C 163.078125 178.351562 162.84375 177.582031 162.667969 176.796875 C 162.492188 176.011719 162.375 175.21875 162.320312 174.414062 C 162.261719 173.609375 162.265625 172.808594 162.328125 172.003906 C 162.394531 171.203125 162.515625 170.410156 162.695312 169.625 C 162.878906 168.839844 163.117188 168.074219 163.414062 167.324219 C 163.710938 166.574219 164.0625 165.851562 164.464844 165.15625 C 164.871094 164.460938 165.324219 163.796875 165.828125 163.167969 L 169.25 158.910156 C 170.019531 157.953125 170.671875 156.925781 171.203125 155.820312 C 171.738281 154.714844 172.136719 153.5625 172.410156 152.367188 C 172.679688 151.171875 172.8125 149.960938 172.804688 148.734375 C 172.800781 147.507812 172.65625 146.296875 172.371094 145.101562 Z M 172.371094 145.101562 " fill-opacity="1" fill-rule="nonzero"/></svg>